<svg width="50" height="50" viewBox="0 0 50 50" fill="none" xmlns="http://www.w3.org/2000/svg">
<circle cx="25" cy="25" r="25" fill="#D3D3D3"/>
<g clip-path="url(#clip0)">
<rect x="9" y="7" width="31.5" height="36" fill="#888888"/>
<path d="M39.1429 7H10.8571C8.72768 7 7 8.72768 7 10.8571V39.1429C7 41.2723 8.72768 43 10.8571 43H39.1429C41.2723 43 43 41.2723 43 39.1429V10.8571C43 8.72768 41.2723 7 39.1429 7ZM29.283 37.833C28.608 37.9536 28.3589 37.5357 28.3589 37.1902C28.3589 36.7562 28.375 34.5384 28.375 32.7464C28.375 31.4929 27.9571 30.6973 27.467 30.2795C30.4402 29.95 33.5741 29.5402 33.5741 24.4054C33.5741 22.9429 33.0518 22.2116 32.2 21.2714C32.3366 20.9259 32.7946 19.5036 32.0634 17.6554C30.9464 17.3098 28.3911 19.0937 28.3911 19.0937C27.3304 18.7964 26.1813 18.6437 25.0482 18.6437C23.9152 18.6437 22.7661 18.7964 21.7054 19.0937C21.7054 19.0937 19.15 17.3098 18.033 17.6554C17.3018 19.4955 17.7518 20.9179 17.8964 21.2714C17.0446 22.2116 16.6429 22.9429 16.6429 24.4054C16.6429 29.5161 19.6402 29.95 22.6134 30.2795C22.2277 30.625 21.8821 31.2196 21.7616 32.0714C20.9982 32.417 19.0455 33.0116 17.8804 30.9545C17.1491 29.6848 15.8313 29.5804 15.8313 29.5804C14.5295 29.5643 15.7429 30.4 15.7429 30.4C16.6107 30.8018 17.2214 32.3446 17.2214 32.3446C18.0009 34.7312 21.7295 33.9277 21.7295 33.9277C21.7295 35.0446 21.7455 36.8607 21.7455 37.1902C21.7455 37.5357 21.5045 37.9536 20.8214 37.833C15.5179 36.0571 11.8054 31.0107 11.8054 25.1125C11.8054 17.7357 17.4464 12.1348 24.8232 12.1348C32.2 12.1348 38.1786 17.7357 38.1786 25.1125C38.1866 31.0107 34.5866 36.0652 29.283 37.833ZM21.4 32.9232C21.2473 32.9554 21.1027 32.8911 21.0866 32.7866C21.0705 32.6661 21.175 32.5616 21.3277 32.5295C21.4804 32.5134 21.625 32.5777 21.6411 32.6821C21.6652 32.7866 21.5607 32.8911 21.4 32.9232ZM20.6366 32.8509C20.6366 32.9554 20.5161 33.0437 20.3554 33.0437C20.1786 33.0598 20.058 32.9714 20.058 32.8509C20.058 32.7464 20.1786 32.658 20.3393 32.658C20.492 32.642 20.6366 32.7304 20.6366 32.8509ZM19.5357 32.7625C19.5036 32.867 19.3429 32.9152 19.2062 32.867C19.0536 32.8348 18.9491 32.7143 18.9813 32.6098C19.0134 32.5054 19.1741 32.4571 19.3107 32.4893C19.4714 32.5375 19.5759 32.658 19.5357 32.7625ZM18.5473 32.3286C18.475 32.417 18.3223 32.4009 18.2018 32.2804C18.0812 32.1759 18.0491 32.0232 18.1295 31.9509C18.2018 31.8625 18.3545 31.8786 18.475 31.9991C18.5795 32.1036 18.6196 32.2643 18.5473 32.3286ZM17.8161 31.5973C17.7438 31.6455 17.6071 31.5973 17.5187 31.4768C17.4304 31.3562 17.4304 31.2196 17.5187 31.1634C17.6071 31.0911 17.7438 31.1473 17.8161 31.2679C17.9045 31.3884 17.9045 31.533 17.8161 31.5973V31.5973ZM17.2938 30.8179C17.2214 30.8902 17.1009 30.85 17.0125 30.7696C16.9241 30.6652 16.908 30.5446 16.9804 30.4884C17.0527 30.4161 17.1732 30.4562 17.2616 30.5366C17.35 30.6411 17.3661 30.7616 17.2938 30.8179ZM16.7554 30.2232C16.7232 30.2955 16.6187 30.3116 16.5304 30.2554C16.4259 30.2071 16.3777 30.1187 16.4098 30.0464C16.442 29.9982 16.5304 29.9741 16.6348 30.0143C16.7393 30.0705 16.7875 30.1589 16.7554 30.2232Z" fill="#D3D3D3"/>
</g>
<rect x="9" y="7" width="31.5" height="36" stroke="#D3D3D3"/>
<rect width="32" height="2" transform="matrix(1 0 0 -1 9 43)" fill="#D3D3D3"/>
<rect x="9" y="6" width="32" height="4" fill="#D3D3D3"/>
<defs>
<clipPath id="clip0">
<rect x="9" y="7" width="31.5" height="36" fill="white"/>
</clipPath>
</defs>
</svg>
