<svg width="50" height="50" viewBox="0 0 50 50" fill="none" xmlns="http://www.w3.org/2000/svg">
<circle cx="25" cy="25" r="25" fill="#D3D3D3"/>
<g clip-path="url(#clip0)">
<rect x="9" y="7" width="31.5" height="36.0818" fill="#888888"/>
<path d="M39.1429 7H10.8571C8.72688 7 7 8.72688 7 10.8571V39.1429C7 41.2731 8.72688 43 10.8571 43H39.1429C41.2731 43 43 41.2731 43 39.1429V10.8571C43 8.72688 41.2731 7 39.1429 7ZM21.313 25.4905C14.0255 20.2016 14.0998 20.1883 12.1429 18.6652V16.6429C12.1429 15.5777 13.0063 14.7143 14.0714 14.7143H35.9286C36.9937 14.7143 37.8571 15.5777 37.8571 16.6429V18.6652C35.8988 20.1895 35.9741 20.202 28.687 25.4906C27.8433 26.1057 26.1645 27.5895 25 27.5713C23.8346 27.5889 22.158 26.1067 21.313 25.4905ZM37.8571 21.9283V33.3571C37.8571 34.4223 36.9937 35.2857 35.9286 35.2857H14.0714C13.0063 35.2857 12.1429 34.4223 12.1429 33.3571V21.9283C13.2645 22.7957 14.8211 23.9562 19.8011 27.5705C20.9392 28.4015 22.8527 30.1536 24.9998 30.1428C27.1603 30.1535 29.1009 28.3716 30.2005 27.5693C35.1792 23.9561 36.7355 22.7956 37.8571 21.9283Z" fill="#D3D3D3"/>
</g>
<rect x="9" y="7" width="31.5" height="36.0818" stroke="#D3D3D3"/>
<rect x="9" y="37" width="32" height="7" fill="#D3D3D3"/>
<rect x="9" y="7" width="32" height="7" fill="#D3D3D3"/>
<defs>
<clipPath id="clip0">
<rect x="9" y="7" width="31.5" height="36.0818" fill="white"/>
</clipPath>
</defs>
</svg>
