<svg width="574" height="574" viewBox="0 0 574 574" fill="none" xmlns="http://www.w3.org/2000/svg">
<g clip-path="url(#clip0)">
<path d="M561.779 443.617L430.499 312.337C404.601 286.439 365.924 281.395 334.757 296.754L215.249 177.245V107.625L71.7488 0L-0.00119715 71.75L107.624 215.25H177.244L296.752 334.759C281.505 365.925 286.438 404.603 312.335 430.5L443.616 561.78C459.984 578.148 486.441 578.148 502.697 561.78L561.779 502.698C578.035 486.33 578.035 459.873 561.779 443.617ZM371.866 252.246C403.593 252.246 433.414 264.578 455.835 287L477.585 308.749C495.298 301.014 512.114 290.251 526.689 275.677C568.281 234.084 582.407 175.563 569.178 122.423C566.712 112.334 554.043 108.858 546.644 116.257L463.235 199.667L387.112 186.998L374.444 110.876L457.853 27.4668C465.253 20.0676 461.665 7.39922 451.463 4.8207C398.323 -8.29609 339.802 5.82969 298.322 47.3102C266.371 79.2613 251.348 121.414 252.133 163.455L344.175 255.497C353.255 253.367 362.673 252.246 371.866 252.246ZM255.384 344.176L191.818 280.61L20.9633 451.577C-7.06409 479.604 -7.06409 525.008 20.9633 553.036C48.9906 581.063 94.3949 581.063 122.422 553.036L260.989 414.468C252.469 392.159 249.891 367.831 255.384 344.176ZM71.7488 529.156C56.9504 529.156 44.8425 517.048 44.8425 502.25C44.8425 487.339 56.8383 475.344 71.7488 475.344C86.6593 475.344 98.655 487.339 98.655 502.25C98.655 517.048 86.6593 529.156 71.7488 529.156Z" fill="#B7B7B7" fill-opacity="0.05"/>
</g>
<defs>
<clipPath id="clip0">
<rect width="574" height="574" fill="white"/>
</clipPath>
</defs>
</svg>
