<svg width="116" height="116" viewBox="0 0 116 116" fill="none" xmlns="http://www.w3.org/2000/svg">
<path d="M0 0H116V116L0 0Z" fill="#888888"/>
<path d="M67.0987 15.3748L55.2436 27.2298L53.4585 25.4447L67.8768 11.0264L70.3943 12.903L64.7643 25.582L77.7637 20.8217L79.3658 22.6984L65.7713 38.4899L64.215 36.9336L75.4293 24.0715L62.7503 28.4199L61.8806 27.2756L67.0987 15.3748Z" fill="white"/>
<path d="M72.3168 34.8739C73.1559 34.0347 73.9799 33.4549 74.7885 33.1345C75.6124 32.7988 76.3753 32.6463 77.0771 32.6768C77.8095 32.7073 78.4732 32.8828 79.0682 33.2032C79.6785 33.5083 80.1973 33.8745 80.6245 34.3017C81.2348 34.912 81.6925 35.5528 81.9977 36.2241C82.3181 36.8802 82.4401 37.5821 82.3639 38.3297C82.3181 39.0773 82.0511 39.8783 81.5628 40.7327C81.0746 41.5872 80.3422 42.5026 79.3658 43.4791L72.3854 37.7346C72.004 38.2076 71.7523 38.6882 71.6302 39.1765C71.5386 39.6647 71.5463 40.1453 71.6531 40.6183C71.7599 41.0913 71.943 41.5338 72.2024 41.9457C72.4617 42.3577 72.7669 42.7391 73.1178 43.09C73.6976 43.6698 74.3384 44.1428 75.0402 44.509C75.7421 44.8752 76.3448 45.0659 76.8483 45.0811L76.1617 46.5916C75.9023 46.6374 75.5895 46.6298 75.2233 46.5687C74.8572 46.5077 74.4757 46.3856 74.079 46.2026C73.6671 46.0347 73.2475 45.7982 72.8203 45.4931C72.3931 45.2184 71.9887 44.8904 71.6073 44.509C71.0733 43.975 70.6232 43.357 70.257 42.6552C69.8908 41.9533 69.6925 41.1905 69.662 40.3666C69.6315 39.5427 69.8146 38.673 70.2112 37.7575C70.6232 36.8268 71.325 35.8656 72.3168 34.8739ZM73.5984 36.247L79.1827 40.7327C79.9303 39.9851 80.327 39.1917 80.3727 38.3526C80.4338 37.4981 80.0218 36.6285 79.1369 35.7435C78.6944 35.3316 78.2291 35.0493 77.7408 34.8967C77.2678 34.7594 76.7949 34.7137 76.3219 34.7594C75.8642 34.7899 75.4217 34.912 74.9945 35.1256C74.5673 35.3392 74.1858 35.6138 73.8502 35.9495C73.7281 36.0716 73.6442 36.1707 73.5984 36.247Z" fill="white"/>
<path d="M90.58 47.6444L86.1401 43.2045L78.8165 50.5281L77.5349 49.5211L87.3759 39.68L88.7034 40.5497L87.559 41.694L93.1891 46.6832L92.5025 48.7429L85.7281 56.8904L83.8515 55.8377L90.58 47.6444Z" fill="white"/>
<path d="M96.4847 49.2464L97.4459 50.8485C96.5305 51.4893 95.6684 52.1225 94.8598 52.748C94.0664 53.3888 93.3569 54.022 92.7313 54.6476C92.1516 55.2274 91.6633 55.7766 91.2666 56.2954C90.8852 56.8294 90.6105 57.3482 90.4427 57.8517C90.2749 58.3552 90.2367 58.8358 90.3283 59.2935C90.4503 59.7512 90.725 60.1937 91.1522 60.6209C91.4421 60.9108 91.793 61.1091 92.205 61.2159C92.6474 61.3227 93.1585 61.2999 93.7383 61.1473C94.3334 61.01 94.9971 60.7124 95.7294 60.2547C96.4771 59.7817 97.3238 59.118 98.2698 58.2636L101.611 55.1053L102.801 56.4785L93.7841 65.4957L92.5025 64.4887L94.1961 62.7036C93.2959 63.2071 92.4033 63.3825 91.5184 63.2299C90.6487 63.0621 89.8706 62.6349 89.184 61.9483C88.6194 61.3838 88.2609 60.7659 88.1083 60.0945C87.9405 59.4384 87.9405 58.7519 88.1083 58.0348C88.2914 57.3329 88.6271 56.6005 89.1153 55.8377C89.6188 55.0901 90.2444 54.3424 90.992 53.5948C91.6786 52.9082 92.472 52.2064 93.3722 51.4893C94.3029 50.7722 95.3404 50.0246 96.4847 49.2464Z" fill="white"/>
</svg>
