<svg width="999" height="118" viewBox="0 0 999 118" fill="none" xmlns="http://www.w3.org/2000/svg">
<mask id="mask0" mask-type="alpha" maskUnits="userSpaceOnUse" x="0" y="0" width="999" height="118">
<path d="M13.3119 36.7218H4.6592C1.66403 36.7218 1.52588e-05 35.3907 1.52588e-05 32.7286C1.52588e-05 30.0664 1.49765 28.7354 4.6592 28.7354H13.3119V20.914C13.3119 7.43652 20.1341 0.780273 33.6122 0.780273C39.1034 0.780273 43.7625 1.94543 47.4232 3.94202C52.0824 6.77008 54.4119 11.0969 54.4119 16.2553C54.4119 19.7498 53.0807 21.2468 50.4184 21.2468C48.588 21.2468 47.2568 20.0825 46.2584 18.086C45.0937 14.5914 44.0953 12.5949 43.4297 11.7625C41.9321 9.76589 38.6042 8.60073 33.7787 8.60073C25.4588 8.60073 21.6316 12.7608 21.6316 20.914V28.4026H37.4394C40.9337 28.4026 42.7641 29.7337 42.7641 32.3958C42.7641 35.0579 40.9337 36.389 37.4394 36.389H21.6316V86.974C21.6316 90.1358 20.3005 91.6328 17.6382 91.6328C14.9758 91.6328 13.6446 89.9689 13.6446 86.974V36.5558H13.3119V36.7218Z" fill="#5A5A5A"/>
<path d="M84.1964 82.9719V36.8797H72.3828C69.221 36.8797 67.5572 35.5486 67.5572 32.8855C67.5572 30.2234 69.0542 28.8923 72.3828 28.8923H88.0237C90.6858 28.8923 92.1837 31.3886 92.1837 35.7145C97.0093 30.3903 102.334 27.5613 107.659 27.5613C112.317 27.5613 115.646 28.8924 118.308 31.7213C120.97 34.5503 122.301 38.3766 122.301 42.7035C122.301 45.8652 120.97 47.3623 118.308 47.3623C116.81 47.3623 115.646 46.198 115.146 44.2014C113.981 40.5401 113.316 38.5435 113.15 38.2107C111.985 36.2141 109.988 35.049 106.993 35.049C103.998 35.049 101.002 36.2141 98.5072 38.3767C97.0093 39.5418 94.8458 41.8711 92.0169 45.5325V82.3064H106.826C109.988 82.3064 111.652 83.6374 111.652 85.9668C111.652 88.6289 110.155 90.1268 106.826 90.1268H72.2159C69.0542 90.1268 67.3904 88.7957 67.3904 86.1327C67.3904 83.4706 68.8883 82.1395 72.2159 82.1395H84.1964V82.9719Z" fill="#5A5A5A"/>
<path d="M143.766 61.1702V69.9899C143.766 79.4742 150.256 84.1329 163.568 84.1329C168.394 84.1329 172.221 83.6342 175.382 82.4691C176.88 81.9704 179.709 80.4725 183.369 77.8103C185.698 75.6469 187.529 74.4818 188.195 74.4818C190.358 74.4818 191.356 75.6469 191.356 77.9763C191.356 80.3065 189.858 82.8018 186.531 85.464C181.206 89.624 173.385 91.7874 162.902 91.7874C144.599 91.7874 135.447 84.4657 135.447 69.9899V48.0255C135.447 43.0331 137.444 38.5403 141.104 35.0458C146.096 30.2211 153.584 27.8909 163.568 27.8909C181.538 27.8909 190.358 36.8765 190.358 54.8477C190.358 59.1736 188.527 61.503 185.366 61.503H143.6L143.766 61.1702ZM143.766 53.3498H182.87C182.87 41.3693 176.38 35.5454 163.068 35.5454C158.243 35.5454 153.917 36.7105 149.923 38.873C145.93 41.702 143.766 45.0297 143.766 48.691V53.3498Z" fill="#5A5A5A"/>
<path d="M212.157 61.1702V69.9899C212.157 79.4742 218.646 84.1329 231.957 84.1329C236.783 84.1329 240.61 83.6342 243.772 82.4691C245.27 81.9704 248.098 80.4725 251.759 77.8103C254.089 75.6469 255.919 74.4818 256.585 74.4818C258.747 74.4818 259.746 75.6469 259.746 77.9763C259.746 80.3065 258.249 82.8018 254.92 85.464C249.596 89.624 241.775 91.7874 231.292 91.7874C212.989 91.7874 203.836 84.4657 203.836 69.9899V48.0255C203.836 43.0331 205.833 38.5403 209.494 35.0458C214.486 30.2211 221.974 27.8909 231.957 27.8909C249.929 27.8909 258.747 36.8765 258.747 54.8477C258.747 59.1736 256.918 61.503 253.756 61.503H211.99L212.157 61.1702ZM212.157 53.3498H251.26C251.26 41.3693 244.77 35.5454 231.459 35.5454C226.633 35.5454 222.306 36.7105 218.313 38.873C214.153 41.702 212.157 45.0297 212.157 48.691V53.3498Z" fill="#5A5A5A"/>
<path d="M273.558 66.3298V31.8853C273.558 13.7482 283.042 4.92944 301.846 4.92944C309.499 4.92944 315.656 6.75921 320.481 9.92094C325.972 14.081 328.469 19.7389 328.469 26.8938C328.469 30.2215 327.138 31.8853 324.309 31.8853C322.312 31.8853 321.147 30.2215 320.149 27.0598C319.65 24.3976 318.652 21.7355 317.154 19.2393C314.824 14.9133 309.499 12.9158 301.346 12.9158C294.357 12.9158 289.365 14.7465 286.371 18.241C283.542 21.5687 282.044 26.727 282.044 33.8819V62.5025C282.044 69.9902 283.542 75.3154 286.703 78.6431C289.864 82.1376 295.023 84.1342 302.012 84.1342C312.661 84.1342 318.818 80.4737 320.315 72.9851C320.981 70.1571 321.147 68.826 321.147 68.6592C321.812 66.9954 322.978 66.163 324.309 66.163C326.971 66.163 328.469 67.9937 328.469 71.1554C328.469 77.9776 325.64 83.3018 319.983 87.4619C315.323 90.6236 309.499 92.1215 302.012 92.1215C293.359 92.1215 286.537 90.1249 281.545 85.9649C276.054 81.638 273.558 74.9826 273.558 66.3298Z" fill="#5A5A5A"/>
<path d="M341.113 71.1603V48.5304C341.113 34.5533 350.265 27.7302 368.569 27.7302C386.872 27.7302 396.024 34.5533 396.024 48.5304V71.1603C396.024 85.1374 387.038 91.9596 368.901 91.9596C350.265 91.9596 341.113 84.9715 341.113 71.1603ZM388.037 71.1603V48.5304C388.037 39.8775 381.547 35.5516 368.236 35.5516C355.59 35.5516 349.1 39.8775 349.1 48.5304V71.1603C349.1 79.8131 355.59 84.1391 368.735 83.9732C381.714 83.9732 388.037 79.8131 388.037 71.1603Z" fill="#5A5A5A"/>
<path d="M456.093 84.4689C452.433 87.2969 449.105 89.1276 446.276 90.1259C443.281 91.291 439.454 91.9566 435.127 91.9566C427.806 91.9566 421.816 90.2927 417.157 87.2969C411.832 83.8033 409.337 78.4782 409.337 71.1564V48.0278C409.337 41.2056 411.999 35.8805 416.99 32.386C421.317 29.2251 427.307 27.7272 434.296 27.7272C438.955 27.7272 442.782 28.2268 445.777 29.3911C448.773 30.5562 452.1 32.5528 455.595 35.3818V6.92797C455.595 3.26663 456.926 1.27002 459.255 1.27002C461.917 1.27002 463.415 3.26663 463.415 6.92797V87.9634C463.415 90.7914 462.084 92.1225 459.755 92.1225C458.257 92.1225 457.092 91.2911 456.759 89.4604C456.26 87.9634 456.093 86.4655 456.093 84.4689ZM455.595 75.1505V43.3681C451.601 40.5401 448.606 38.5435 446.11 37.7111C442.949 36.3801 439.287 35.7145 435.46 35.7145C430.469 35.7145 426.309 36.546 423.314 38.5435C419.32 41.0388 417.323 44.5333 417.323 48.8593V70.6577C417.323 75.3164 419.32 78.8109 423.48 81.1403C426.641 82.971 430.801 83.9693 435.96 83.9693C440.12 83.9693 443.78 83.3037 446.942 81.9727C449.604 80.4748 452.433 78.1454 455.595 75.1505Z" fill="#5A5A5A"/>
<path d="M485.714 61.1702V69.9899C485.714 79.4742 492.204 84.1329 505.515 84.1329C510.341 84.1329 514.168 83.6342 517.33 82.4691C518.828 81.9704 521.656 80.4725 525.317 77.8103C527.646 75.6469 529.477 74.4818 530.143 74.4818C532.305 74.4818 533.304 75.6469 533.304 77.9763C533.304 80.3065 531.806 82.8018 528.479 85.464C523.154 89.624 515.333 91.7874 504.85 91.7874C486.547 91.7874 477.394 84.4657 477.394 69.9899V48.0255C477.394 43.0331 479.392 38.5403 483.052 35.0458C488.044 30.2211 495.532 27.8909 505.515 27.8909C523.486 27.8909 532.305 36.8765 532.305 54.8477C532.305 59.1736 530.475 61.503 527.314 61.503H485.548L485.714 61.1702ZM485.714 53.3498H524.817C524.817 41.3693 518.328 35.5454 505.016 35.5454C500.191 35.5454 495.865 36.7105 491.871 38.873C487.711 41.702 485.714 45.0297 485.714 48.691V53.3498Z" fill="#5A5A5A"/>
<path d="M547.114 66.3298V31.8853C547.114 13.7482 556.598 4.92944 575.401 4.92944C583.055 4.92944 589.212 6.75921 594.037 9.92094C599.529 14.081 602.025 19.7389 602.025 26.8938C602.025 30.2215 600.694 31.8853 597.865 31.8853C595.868 31.8853 594.703 30.2215 593.705 27.0598C593.205 24.3976 592.207 21.7355 590.71 19.2393C588.38 14.9133 583.055 12.9158 574.902 12.9158C567.913 12.9158 562.922 14.7465 559.926 18.241C557.098 21.5687 555.6 26.727 555.6 33.8819V62.5025C555.6 69.9902 557.098 75.3154 560.258 78.6431C563.42 82.1376 568.579 84.1342 575.568 84.1342C586.217 84.1342 592.374 80.4737 593.871 72.9851C594.537 70.1571 594.703 68.826 594.703 68.6592C595.369 66.9954 596.534 66.163 597.865 66.163C600.527 66.163 602.025 67.9937 602.025 71.1554C602.025 77.9776 599.196 83.3018 593.539 87.4619C588.879 90.6236 583.055 92.1215 575.568 92.1215C566.915 92.1215 560.093 90.1249 555.1 85.9649C549.776 81.638 547.114 74.9826 547.114 66.3298Z" fill="#5A5A5A"/>
<path d="M658.766 84.4689C654.773 87.2978 651.778 89.2944 649.615 90.1268C646.786 91.291 643.291 91.9566 638.965 91.9566C632.476 91.9566 626.985 90.6255 622.825 87.7974C617.999 84.4689 615.503 79.6433 615.503 73.1539C615.503 66.8313 618.165 61.673 623.157 58.1785C627.483 54.8499 633.307 53.353 639.631 53.353C645.122 53.353 651.112 54.684 658.267 57.0134V47.3623C658.267 42.7035 656.104 39.3759 651.778 37.5452C648.782 36.2141 644.955 35.5486 640.629 35.5486C630.312 35.5486 624.988 38.3766 623.823 44.2014C623.323 46.8635 622.991 48.1946 622.991 48.3606C622.325 49.6925 621.161 50.358 619.83 50.358C617.001 50.358 615.503 48.6933 615.503 45.6984C615.503 41.5384 617.001 37.7111 620.328 34.2175C624.323 29.8907 631.477 27.5613 641.461 27.5613C649.448 27.5613 655.438 28.8923 659.432 31.5545C664.091 34.883 666.421 40.3741 666.421 48.0278V76.3156C666.421 79.6433 667.086 81.8067 668.417 82.9719C668.584 83.1378 669.915 83.8033 672.078 84.8016C673.409 85.4672 674.075 86.6323 674.075 88.463C674.075 90.6255 672.91 91.7906 670.581 91.7906C669.915 91.7906 668.75 91.6238 667.086 90.9583C664.091 89.794 662.094 89.1285 661.595 88.9617C660.097 88.1302 659.099 86.6323 658.766 84.4689ZM658.267 76.1488V64.5011C652.111 62.5045 646.287 61.3402 640.962 61.3402C629.147 61.3402 623.323 65.0007 623.323 72.8211C623.323 76.8152 625.154 79.9761 628.649 81.6399C631.477 83.3046 634.972 84.1361 639.298 84.1361C642.958 84.1361 646.453 83.4706 649.615 81.9727C651.944 80.9744 654.773 78.8118 658.267 76.1488Z" fill="#5A5A5A"/>
<path d="M689.216 34.3835C691.213 31.8873 692.877 30.2234 694.208 29.5579C696.039 28.3928 698.202 27.7272 701.03 27.7272C705.357 27.7272 709.017 29.8907 712.346 34.5503C714.508 31.8873 716.505 30.2234 718.336 29.2251C720.332 28.0609 722.994 27.5613 725.99 27.5613C735.475 27.5613 740.134 32.22 740.134 41.5384V86.2996C740.134 89.96 738.802 91.7906 735.974 91.7906C733.311 91.7906 731.98 89.96 731.98 86.2996V44.2014C731.98 38.5435 729.651 35.3817 724.992 35.3817C721.498 35.3817 718.003 37.5452 714.841 41.7052V86.2996C714.841 89.96 713.51 91.7906 710.848 91.7906C708.186 91.7906 706.854 89.96 706.854 86.2996V45.0329C706.854 38.7103 704.192 35.5486 699.2 35.5486C696.039 35.5486 692.877 37.7111 689.549 41.8711V86.2996C689.549 89.96 688.218 91.7906 685.389 91.7906C682.727 91.7906 681.396 89.96 681.396 86.2996V31.5545C681.396 28.8923 682.56 27.5613 684.557 27.5613C685.722 27.5613 686.72 28.3936 687.386 30.0575C688.884 31.2217 689.216 32.8856 689.216 34.3835Z" fill="#5A5A5A"/>
<path d="M760.103 34.3864C766.26 30.0605 773.415 27.7302 781.235 27.7302C797.708 27.7302 806.029 34.886 806.029 48.6963V71.6599C806.029 78.3153 803.699 83.3077 799.039 87.134C794.879 90.4626 789.222 92.1264 782.067 92.1264C773.581 92.1264 766.426 89.963 759.936 85.3042V111.429C759.936 115.422 758.605 117.418 755.943 117.418C753.28 117.418 751.949 115.422 751.949 111.429V33.8878C751.949 29.8937 753.114 27.8971 755.111 27.8971C756.276 27.8971 757.274 28.7294 758.106 30.3933C759.105 31.3916 759.77 33.0554 760.103 34.3864ZM760.103 76.3186C765.76 81.3101 772.749 84.1391 780.736 84.1391C785.728 84.1391 789.721 83.3076 792.717 81.3101C796.377 79.1476 798.208 75.819 798.208 71.6599V48.6963C798.208 43.8707 796.211 40.5431 792.217 38.3796C789.222 36.7158 785.062 35.8843 780.07 35.8843C775.411 35.8843 771.751 36.5499 768.922 37.881C766.26 39.0461 763.431 41.3755 759.936 45.0359V76.3186H760.103Z" fill="#5A5A5A"/>
<path d="M833.151 54.3525C833.151 36.8809 839.141 21.4059 851.121 7.76155C855.448 2.76915 858.943 0.272949 861.438 0.272949C862.27 0.272949 863.269 0.439797 863.767 1.10533C864.267 1.77086 864.933 2.43637 864.933 3.26874C864.933 4.5998 863.435 6.59641 860.274 9.5913C847.794 21.7386 841.47 36.714 841.47 54.6852C841.47 74.653 847.961 90.6267 860.939 102.94C863.601 105.436 864.933 107.267 864.933 108.931C864.933 109.763 864.433 110.761 863.767 111.427C863.102 112.092 862.27 112.591 861.438 112.591C858.443 112.591 854.283 109.097 848.792 102.109C838.143 89.1297 833.151 73.1551 833.151 54.3525Z" fill="#5A5A5A"/>
<path d="M998.38 58.8476C998.38 76.3192 992.39 91.7942 980.411 105.439C976.089 110.43 972.588 112.926 970.1 112.926C969.261 112.926 968.267 112.76 967.766 112.095C967.1 111.429 966.599 110.43 966.599 109.599C966.599 108.268 968.103 106.271 971.257 103.442C983.738 91.2946 990.066 76.3192 990.066 58.348C990.066 38.3802 983.574 22.4065 970.592 10.0932C967.93 7.59705 966.599 5.7664 966.599 4.10257C966.599 3.27111 967.1 2.27278 967.766 1.60634C968.431 0.940805 969.261 0.442139 970.1 0.442139C972.926 0.442139 977.247 3.93663 982.745 10.9247C993.056 24.4031 998.38 40.3777 998.38 58.8476Z" fill="#5A5A5A"/>
<path d="M953.452 108.933H877.746C875.416 108.933 873.086 107.103 873.086 104.275C873.086 101.778 874.917 99.615 877.746 99.615H953.288C955.622 99.615 957.947 101.446 957.947 104.275C957.947 107.103 956.114 108.933 953.452 108.933Z" fill="#5A5A5A"/>
<path d="M899.872 9.92518C899.872 9.92518 906.199 14.252 906.199 22.2384C906.199 36.0496 887.728 51.3587 887.728 65.5017C887.728 80.9767 899.38 90.9606 910.694 93.9564C912.189 94.2892 913.019 92.4585 911.022 91.9589C906.527 90.7947 901.376 84.8039 901.376 75.3197C901.376 66.5 909.691 63.3392 913.019 59.0123C916.51 54.6863 915.681 49.1952 913.684 47.5314C911.688 45.8676 913.019 43.87 916.684 46.3662C920.34 48.8625 923.339 53.688 922.172 58.1808C920.841 64.0047 922.673 67.3324 925.664 67.6651C928.663 67.9979 931.991 66.5 931.654 63.6719C931.325 60.843 929.657 57.8481 930.66 57.8481C932.82 57.8481 937.315 63.1723 937.315 71.6583C937.315 80.1452 930.322 85.9691 928.326 88.1316C926.995 89.4636 928.663 91.2934 930.496 90.2951C931.325 89.9623 933.158 88.7981 934.316 87.9657C939.813 83.9725 948.292 76.1511 948.292 61.3417C948.292 45.8676 942.475 39.0445 936.65 33.3875C930.824 27.5636 929.329 29.0615 930.988 31.8896C935.984 40.5424 932.985 43.3714 929.329 43.3714C924.998 43.3714 924.834 33.7202 923.166 26.2326C919.51 9.75925 904.704 6.93027 901.869 6.76343C899.042 6.76343 896.544 8.42819 899.872 9.92518Z" fill="#5A5A5A"/>
</mask>
<g mask="url(#mask0)">
<path d="M1021.78 -46.6292H-35.7753V144.825H1021.78V-46.6292Z" fill="#D3D3D3"/>
</g>
</svg>
