<svg width="2098" height="1049" viewBox="0 0 2098 1049" fill="none" xmlns="http://www.w3.org/2000/svg">
<g clip-path="url(#clip0)">
<path opacity="0.3" d="M666 579C667.657 579 669 577.657 669 576C669 574.343 667.657 573 666 573C664.343 573 663 574.343 663 576C663 577.657 664.343 579 666 579Z" fill="#999999"/>
<path opacity="0.6" d="M487 186C487.552 186 488 185.552 488 185C488 184.448 487.552 184 487 184C486.448 184 486 184.448 486 185C486 185.552 486.448 186 487 186Z" fill="#999999"/>
<path opacity="0.6" d="M1749.51 150C1750.06 150 1750.51 149.552 1750.51 149C1750.51 148.448 1750.06 148 1749.51 148C1748.96 148 1748.51 148.448 1748.51 149C1748.51 149.552 1748.96 150 1749.51 150Z" fill="#999999"/>
<path opacity="0.15" d="M1763.51 663C1764.06 663 1764.51 662.552 1764.51 662C1764.51 661.448 1764.06 661 1763.51 661C1762.96 661 1762.51 661.448 1762.51 662C1762.51 662.552 1762.96 663 1763.51 663Z" fill="#999999"/>
<path opacity="0.45" d="M202 357C202.552 357 203 356.552 203 356C203 355.448 202.552 355 202 355C201.448 355 201 355.448 201 356C201 356.552 201.448 357 202 357Z" fill="#999999"/>
<path opacity="0.15" d="M708 661C709.657 661 711 659.657 711 658C711 656.343 709.657 655 708 655C706.343 655 705 656.343 705 658C705 659.657 706.343 661 708 661Z" fill="#999999"/>
<path opacity="0.3" d="M1298.04 541C1299.7 541 1301.04 539.657 1301.04 538C1301.04 536.343 1299.7 535 1298.04 535C1296.38 535 1295.04 536.343 1295.04 538C1295.04 539.657 1296.38 541 1298.04 541Z" fill="#999999"/>
<path opacity="0.75" d="M87 6C88.6569 6 90 4.65685 90 3C90 1.34315 88.6569 0 87 0C85.3431 0 84 1.34315 84 3C84 4.65685 85.3431 6 87 6Z" fill="#999999"/>
<path opacity="0.75" d="M778 58C778.552 58 779 57.3284 779 56.5C779 55.6716 778.552 55 778 55C777.448 55 777 55.6716 777 56.5C777 57.3284 777.448 58 778 58Z" fill="#999999"/>
<path opacity="0.3" d="M792 571C792.552 571 793 570.328 793 569.5C793 568.672 792.552 568 792 568C791.448 568 791 568.672 791 569.5C791 570.328 791.448 571 792 571Z" fill="#999999"/>
<path opacity="0.45" d="M1382.04 451C1382.59 451 1383.04 450.328 1383.04 449.5C1383.04 448.672 1382.59 448 1382.04 448C1381.49 448 1381.04 448.672 1381.04 449.5C1381.04 450.328 1381.49 451 1382.04 451Z" fill="#999999"/>
<path opacity="0.3" d="M1618.46 584.602C1618.72 585.09 1619.53 585.171 1620.26 584.783C1620.99 584.395 1621.37 583.685 1621.12 583.197C1620.86 582.709 1620.05 582.628 1619.32 583.015C1618.59 583.403 1618.21 584.114 1618.46 584.602Z" fill="#999999"/>
<path opacity="0.75" d="M1146.51 67C1147.06 67 1147.51 66.3284 1147.51 65.5C1147.51 64.6716 1147.06 64 1146.51 64C1145.96 64 1145.51 64.6716 1145.51 65.5C1145.51 66.3284 1145.96 67 1146.51 67Z" fill="#999999"/>
<path opacity="0.3" d="M1160.51 580C1161.06 580 1161.51 579.328 1161.51 578.5C1161.51 577.672 1161.06 577 1160.51 577C1159.96 577 1159.51 577.672 1159.51 578.5C1159.51 579.328 1159.96 580 1160.51 580Z" fill="#999999"/>
<path opacity="0.6" d="M857.513 138C858.065 138 858.513 137.328 858.513 136.5C858.513 135.672 858.065 135 857.513 135C856.961 135 856.513 135.672 856.513 136.5C856.513 137.328 856.961 138 857.513 138Z" fill="#999999"/>
<path opacity="0.15" d="M871.513 651C872.065 651 872.513 650.328 872.513 649.5C872.513 648.672 872.065 648 871.513 648C870.961 648 870.513 648.672 870.513 649.5C870.513 650.328 870.961 651 871.513 651Z" fill="#999999"/>
<path opacity="0.3" d="M1461.56 531C1462.11 531 1462.56 530.328 1462.56 529.5C1462.56 528.672 1462.11 528 1461.56 528C1461.01 528 1460.56 528.672 1460.56 529.5C1460.56 530.328 1461.01 531 1461.56 531Z" fill="#999999"/>
<path opacity="0.75" d="M1822.51 84C1823.06 84 1823.51 83.3284 1823.51 82.5C1823.51 81.6716 1823.06 81 1822.51 81C1821.96 81 1821.51 81.6716 1821.51 82.5C1821.51 83.3284 1821.96 84 1822.51 84Z" fill="#999999"/>
<path opacity="0.3" d="M1836.51 597C1837.06 597 1837.51 596.328 1837.51 595.5C1837.51 594.672 1837.06 594 1836.51 594C1835.96 594 1835.51 594.672 1835.51 595.5C1835.51 596.328 1835.96 597 1836.51 597Z" fill="#999999"/>
<path opacity="0.6" d="M1076.03 219.47C1076.36 219.913 1077.16 219.871 1077.83 219.376C1078.49 218.881 1078.76 218.121 1078.43 217.678C1078.1 217.235 1077.3 217.277 1076.63 217.772C1075.97 218.267 1075.7 219.028 1076.03 219.47Z" fill="#999999"/>
<path opacity="0.6" d="M2041.03 165.47C2041.36 165.913 2042.16 165.871 2042.83 165.376C2043.49 164.881 2043.76 164.121 2043.43 163.678C2043.1 163.235 2042.3 163.277 2041.63 163.772C2040.97 164.267 2040.7 165.028 2041.03 165.47Z" fill="#999999"/>
<path opacity="0.15" d="M2055.03 678.466C2055.36 678.909 2056.16 678.867 2056.83 678.372C2057.49 677.877 2057.76 677.117 2057.43 676.674C2057.1 676.231 2056.3 676.273 2055.63 676.768C2054.97 677.263 2054.7 678.023 2055.03 678.466Z" fill="#999999"/>
<path opacity="0.6" d="M551 309C552.657 309 554 307.657 554 306C554 304.343 552.657 303 551 303C549.343 303 548 304.343 548 306C548 307.657 549.343 309 551 309Z" fill="#999999"/>
<path opacity="0.75" d="M849.013 29C849.841 29 850.513 28.3284 850.513 27.5C850.513 26.6716 849.841 26 849.013 26C848.185 26 847.513 26.6716 847.513 27.5C847.513 28.3284 848.185 29 849.013 29Z" fill="#999999"/>
<path opacity="0.6" d="M813.013 242C813.841 242 814.513 241.328 814.513 240.5C814.513 239.672 813.841 239 813.013 239C812.185 239 811.513 239.672 811.513 240.5C811.513 241.328 812.185 242 813.013 242Z" fill="#999999"/>
<path opacity="0.15" d="M1417.06 635C1417.89 635 1418.56 634.328 1418.56 633.5C1418.56 632.672 1417.89 632 1417.06 632C1416.23 632 1415.56 632.672 1415.56 633.5C1415.56 634.328 1416.23 635 1417.06 635Z" fill="#999999"/>
<path opacity="0.6" d="M1778.01 188C1778.84 188 1779.51 187.328 1779.51 186.5C1779.51 185.672 1778.84 185 1778.01 185C1777.18 185 1776.51 185.672 1776.51 186.5C1776.51 187.328 1777.18 188 1778.01 188Z" fill="#999999"/>
<path opacity="0.45" d="M352.5 355C353.328 355 354 354.328 354 353.5C354 352.672 353.328 352 352.5 352C351.672 352 351 352.672 351 353.5C351 354.328 351.672 355 352.5 355Z" fill="#999999"/>
<path opacity="0.6" d="M544.5 163C545.328 163 546 162.328 546 161.5C546 160.672 545.328 160 544.5 160C543.672 160 543 160.672 543 161.5C543 162.328 543.672 163 544.5 163Z" fill="#999999"/>
<path opacity="0.15" d="M558.5 676C559.328 676 560 675.328 560 674.5C560 673.672 559.328 673 558.5 673C557.672 673 557 673.672 557 674.5C557 675.328 557.672 676 558.5 676Z" fill="#999999"/>
<path opacity="0.15" d="M674.5 668C675.328 668 676 667.328 676 666.5C676 665.672 675.328 665 674.5 665C673.672 665 673 665.672 673 666.5C673 667.328 673.672 668 674.5 668Z" fill="#999999"/>
<path opacity="0.3" d="M1264.54 548C1265.37 548 1266.04 547.328 1266.04 546.5C1266.04 545.672 1265.37 545 1264.54 545C1263.71 545 1263.04 545.672 1263.04 546.5C1263.04 547.328 1263.71 548 1264.54 548Z" fill="#999999"/>
<path opacity="0.45" d="M1615.01 319C1615.84 319 1616.51 318.328 1616.51 317.5C1616.51 316.672 1615.84 316 1615.01 316C1614.18 316 1613.51 316.672 1613.51 317.5C1613.51 318.328 1614.18 319 1615.01 319Z" fill="#999999"/>
<path opacity="0.3" d="M67.5 526C68.3284 526 69 525.328 69 524.5C69 523.672 68.3284 523 67.5 523C66.6716 523 66 523.672 66 524.5C66 525.328 66.6716 526 67.5 526Z" fill="#999999"/>
<path opacity="0.75" d="M564.915 98.6203C565.41 99.2846 566.35 99.4218 567.014 98.9268C567.679 98.4318 567.816 97.4921 567.321 96.8278C566.826 96.1635 565.886 96.0263 565.222 96.5213C564.558 97.0163 564.42 97.9561 564.915 98.6203Z" fill="#999999"/>
<path opacity="0.15" d="M578.915 611.62C579.41 612.285 580.35 612.422 581.014 611.927C581.679 611.432 581.816 610.492 581.321 609.828C580.826 609.164 579.886 609.026 579.222 609.521C578.558 610.016 578.42 610.956 578.915 611.62Z" fill="#999999"/>
<path opacity="0.75" d="M796.513 19C797.065 19 797.513 18.3284 797.513 17.5C797.513 16.6716 797.065 16 796.513 16C795.961 16 795.513 16.6716 795.513 17.5C795.513 18.3284 795.961 19 796.513 19Z" fill="#999999"/>
<path opacity="0.75" d="M1080.83 88.6852C1081.16 89.1281 1081.96 89.0858 1082.63 88.5908C1083.29 88.0958 1083.56 87.3355 1083.23 86.8927C1082.9 86.4498 1082.1 86.4921 1081.43 86.9871C1080.77 87.4821 1080.5 88.2424 1080.83 88.6852Z" fill="#999999"/>
<path opacity="0.3" d="M1094.83 601.685C1095.16 602.128 1095.96 602.086 1096.63 601.591C1097.29 601.096 1097.56 600.336 1097.23 599.893C1096.9 599.45 1096.1 599.492 1095.43 599.987C1094.77 600.482 1094.5 601.242 1094.83 601.685Z" fill="#999999"/>
<path opacity="0.75" d="M2045.83 34.6852C2046.16 35.1281 2046.96 35.0858 2047.63 34.5908C2048.29 34.0958 2048.56 33.3355 2048.23 32.8927C2047.9 32.4498 2047.1 32.4921 2046.43 32.9871C2045.77 33.4821 2045.5 34.2424 2045.83 34.6852Z" fill="#999999"/>
<path opacity="0.15" d="M455 620C456.657 620 458 618.657 458 617C458 615.343 456.657 614 455 614C453.343 614 452 615.343 452 617C452 618.657 453.343 620 455 620Z" fill="#999999"/>
<path opacity="0.45" d="M763 420C764.657 420 766 418.657 766 417C766 415.343 764.657 414 763 414C761.343 414 760 415.343 760 417C760 418.657 761.343 420 763 420Z" fill="#999999"/>
<path opacity="0.6" d="M156 278C157.657 278 159 276.657 159 275C159 273.343 157.657 272 156 272C154.343 272 153 273.343 153 275C153 276.657 154.343 278 156 278Z" fill="#999999"/>
<path opacity="0.45" d="M2096.51 375C2098.17 375 2099.51 373.657 2099.51 372C2099.51 370.343 2098.17 369 2096.51 369C2094.85 369 2093.51 370.343 2093.51 372C2093.51 373.657 2094.85 375 2096.51 375Z" fill="#999999"/>
<path opacity="0.3" d="M842.513 500C844.17 500 845.513 498.657 845.513 497C845.513 495.343 844.17 494 842.513 494C840.856 494 839.513 495.343 839.513 497C839.513 498.657 840.856 500 842.513 500Z" fill="#999999"/>
<path opacity="0.3" d="M1704.86 595.981C1705.64 597.445 1707.45 598.003 1708.92 597.227C1710.38 596.451 1710.94 594.635 1710.16 593.171C1709.38 591.707 1707.57 591.149 1706.11 591.925C1704.64 592.701 1704.08 594.517 1704.86 595.981Z" fill="#999999"/>
<path opacity="0.3" d="M1741.45 502.202C1740.74 503.699 1741.38 505.488 1742.87 506.198C1744.37 506.909 1746.16 506.271 1746.87 504.774C1747.58 503.277 1746.94 501.488 1745.45 500.778C1743.95 500.067 1742.16 500.705 1741.45 502.202Z" fill="#999999"/>
<path opacity="0.45" d="M1741.79 369.747C1742.78 371.075 1744.66 371.35 1745.99 370.36C1747.32 369.37 1747.6 367.49 1746.61 366.161C1745.62 364.833 1743.74 364.558 1742.41 365.548C1741.08 366.538 1740.8 368.418 1741.79 369.747Z" fill="#999999"/>
<path opacity="0.75" d="M470.5 58C471.328 58 472 57.5523 472 57C472 56.4477 471.328 56 470.5 56C469.672 56 469 56.4477 469 57C469 57.5523 469.672 58 470.5 58Z" fill="#999999"/>
<path opacity="0.3" d="M484.5 571C485.328 571 486 570.552 486 570C486 569.448 485.328 569 484.5 569C483.672 569 483 569.448 483 570C483 570.552 483.672 571 484.5 571Z" fill="#999999"/>
<path opacity="0.6" d="M185.5 229C186.328 229 187 228.552 187 228C187 227.448 186.328 227 185.5 227C184.672 227 184 227.448 184 228C184 228.552 184.672 229 185.5 229Z" fill="#999999"/>
<path opacity="0.6" d="M1179.01 220C1179.84 220 1180.51 219.552 1180.51 219C1180.51 218.448 1179.84 218 1179.01 218C1178.18 218 1177.51 218.448 1177.51 219C1177.51 219.552 1178.18 220 1179.01 220Z" fill="#999999"/>
<path opacity="0.45" d="M1143.01 433C1143.84 433 1144.51 432.552 1144.51 432C1144.51 431.448 1143.84 431 1143.01 431C1142.18 431 1141.51 431.448 1141.51 432C1141.51 432.552 1142.18 433 1143.01 433Z" fill="#999999"/>
<path opacity="0.45" d="M872.013 451C872.841 451 873.513 450.552 873.513 450C873.513 449.448 872.841 449 872.013 449C871.185 449 870.513 449.448 870.513 450C870.513 450.552 871.185 451 872.013 451Z" fill="#999999"/>
<path opacity="0.3" d="M1761.97 599.097C1762.35 599.829 1763.06 600.213 1763.55 599.954C1764.04 599.696 1764.12 598.893 1763.73 598.161C1763.35 597.429 1762.64 597.045 1762.15 597.304C1761.66 597.562 1761.58 598.365 1761.97 599.097Z" fill="#999999"/>
<path opacity="0.45" d="M1837.01 397C1837.84 397 1838.51 396.552 1838.51 396C1838.51 395.448 1837.84 395 1837.01 395C1836.18 395 1835.51 395.448 1835.51 396C1835.51 396.552 1836.18 397 1837.01 397Z" fill="#999999"/>
<path opacity="0.45" d="M833.71 418.122C834.205 418.787 834.965 419.058 835.408 418.728C835.851 418.398 835.809 417.592 835.314 416.927C834.819 416.263 834.058 415.992 833.616 416.322C833.173 416.652 833.215 417.458 833.71 418.122Z" fill="#999999"/>
<path opacity="0.3" d="M1773.08 549.858C1772.72 550.607 1772.84 551.405 1773.34 551.642C1773.84 551.879 1774.53 551.464 1774.88 550.716C1775.24 549.967 1775.12 549.168 1774.62 548.932C1774.12 548.695 1773.43 549.11 1773.08 549.858Z" fill="#999999"/>
<path opacity="0.45" d="M1798.71 364.122C1799.2 364.787 1799.96 365.058 1800.41 364.728C1800.85 364.398 1800.81 363.592 1800.31 362.927C1799.82 362.263 1799.06 361.992 1798.61 362.322C1798.17 362.652 1798.21 363.458 1798.71 364.122Z" fill="#999999"/>
<path opacity="0.75" d="M246 6C247.657 6 249 4.65685 249 3C249 1.34315 247.657 0 246 0C244.343 0 243 1.34315 243 3C243 4.65685 244.343 6 246 6Z" fill="#999999"/>
<path opacity="0.15" d="M986.513 628C988.17 628 989.513 626.657 989.513 625C989.513 623.343 988.17 622 986.513 622C984.856 622 983.513 623.343 983.513 625C983.513 626.657 984.856 628 986.513 628Z" fill="#999999"/>
<path opacity="0.75" d="M1937.51 61C1939.17 61 1940.51 59.6569 1940.51 58C1940.51 56.3431 1939.17 55 1937.51 55C1935.85 55 1934.51 56.3431 1934.51 58C1934.51 59.6569 1935.85 61 1937.51 61Z" fill="#999999"/>
<path opacity="0.3" d="M1951.51 574C1953.17 574 1954.51 572.657 1954.51 571C1954.51 569.343 1953.17 568 1951.51 568C1949.85 568 1948.51 569.343 1948.51 571C1948.51 572.657 1949.85 574 1951.51 574Z" fill="#999999"/>
<path opacity="0.6" d="M1901.51 274C1903.17 274 1904.51 272.657 1904.51 271C1904.51 269.343 1903.17 268 1901.51 268C1899.85 268 1898.51 269.343 1898.51 271C1898.51 272.657 1899.85 274 1901.51 274Z" fill="#999999"/>
<path opacity="0.45" d="M476 441C477.657 441 479 439.657 479 438C479 436.343 477.657 435 476 435C474.343 435 473 436.343 473 438C473 439.657 474.343 441 476 441Z" fill="#999999"/>
<path opacity="0.15" d="M191 612C192.657 612 194 610.657 194 609C194 607.343 192.657 606 191 606C189.343 606 188 607.343 188 609C188 610.657 189.343 612 191 612Z" fill="#999999"/>
<path opacity="0.6" d="M20 144C20.5523 144 21 143.328 21 142.5C21 141.672 20.5523 141 20 141C19.4477 141 19 141.672 19 142.5C19 143.328 19.4477 144 20 144Z" fill="#999999"/>
<path opacity="0.15" d="M34 657C34.5523 657 35 656.328 35 655.5C35 654.672 34.5523 654 34 654C33.4477 654 33 654.672 33 655.5C33 656.328 33.4477 657 34 657Z" fill="#999999"/>
<path opacity="0.75" d="M1031.51 82C1032.06 82 1032.51 81.3284 1032.51 80.5C1032.51 79.6716 1032.06 79 1031.51 79C1030.96 79 1030.51 79.6716 1030.51 80.5C1030.51 81.3284 1030.96 82 1031.51 82Z" fill="#999999"/>
<path opacity="0.3" d="M1045.51 595C1046.06 595 1046.51 594.328 1046.51 593.5C1046.51 592.672 1046.06 592 1045.51 592C1044.96 592 1044.51 592.672 1044.51 593.5C1044.51 594.328 1044.96 595 1045.51 595Z" fill="#999999"/>
<path opacity="0.75" d="M1996.51 28C1997.06 28 1997.51 27.3284 1997.51 26.5C1997.51 25.6716 1997.06 25 1996.51 25C1995.96 25 1995.51 25.6716 1995.51 26.5C1995.51 27.3284 1995.96 28 1996.51 28Z" fill="#999999"/>
<path opacity="0.6" d="M995.513 295C996.065 295 996.513 294.328 996.513 293.5C996.513 292.672 996.065 292 995.513 292C994.961 292 994.513 292.672 994.513 293.5C994.513 294.328 994.961 295 995.513 295Z" fill="#999999"/>
<path opacity="0.6" d="M1960.51 241C1961.06 241 1961.51 240.328 1961.51 239.5C1961.51 238.672 1961.06 238 1960.51 238C1959.96 238 1959.51 238.672 1959.51 239.5C1959.51 240.328 1959.96 241 1960.51 241Z" fill="#999999"/>
<path opacity="0.45" d="M535 408C535.552 408 536 407.328 536 406.5C536 405.672 535.552 405 535 405C534.448 405 534 405.672 534 406.5C534 407.328 534.448 408 535 408Z" fill="#999999"/>
<path opacity="0.6" d="M802.977 234.626C803.307 235.069 804.113 235.027 804.777 234.532C805.442 234.037 805.713 233.276 805.383 232.834C805.053 232.391 804.247 232.433 803.582 232.928C802.918 233.423 802.647 234.183 802.977 234.626Z" fill="#999999"/>
<path opacity="0.15" d="M1407.02 627.626C1407.35 628.069 1408.15 628.027 1408.82 627.532C1409.48 627.037 1409.75 626.276 1409.42 625.834C1409.09 625.391 1408.29 625.433 1407.62 625.928C1406.96 626.423 1406.69 627.183 1407.02 627.626Z" fill="#999999"/>
<path opacity="0.6" d="M1767.98 180.626C1768.31 181.069 1769.11 181.027 1769.78 180.532C1770.44 180.037 1770.71 179.277 1770.38 178.834C1770.05 178.391 1769.25 178.433 1768.58 178.928C1767.92 179.423 1767.65 180.184 1767.98 180.626Z" fill="#999999"/>
<path opacity="0.15" d="M151 685C152.657 685 154 683.657 154 682C154 680.343 152.657 679 151 679C149.343 679 148 680.343 148 682C148 683.657 149.343 685 151 685Z" fill="#999999"/>
<path opacity="0.6" d="M68 241C69.6569 241 71 239.657 71 238C71 236.343 69.6569 235 68 235C66.3431 235 65 236.343 65 238C65 239.657 66.3431 241 68 241Z" fill="#999999"/>
<path opacity="0.75" d="M211.5 114C212.328 114 213 113.328 213 112.5C213 111.672 212.328 111 211.5 111C210.672 111 210 111.672 210 112.5C210 113.328 210.672 114 211.5 114Z" fill="#999999"/>
<path opacity="0.15" d="M225.5 627C226.328 627 227 626.328 227 625.5C227 624.672 226.328 624 225.5 624C224.672 624 224 624.672 224 625.5C224 626.328 224.672 627 225.5 627Z" fill="#999999"/>
<path opacity="0.75" d="M1492.01 25C1492.84 25 1493.51 24.3284 1493.51 23.5C1493.51 22.6716 1492.84 22 1492.01 22C1491.18 22 1490.51 22.6716 1490.51 23.5C1490.51 24.3284 1491.18 25 1492.01 25Z" fill="#999999"/>
<path opacity="0.45" d="M5 406C6.65685 406 8 404.657 8 403C8 401.343 6.65685 400 5 400C3.34315 400 2 401.343 2 403C2 404.657 3.34315 406 5 406Z" fill="#999999"/>
<path opacity="0.6" d="M342.5 167C343.328 167 344 166.328 344 165.5C344 164.672 343.328 164 342.5 164C341.672 164 341 164.672 341 165.5C341 166.328 341.672 167 342.5 167Z" fill="#999999"/>
<path opacity="0.15" d="M356.5 680C357.328 680 358 679.328 358 678.5C358 677.672 357.328 677 356.5 677C355.672 677 355 677.672 355 678.5C355 679.328 355.672 680 356.5 680Z" fill="#999999"/>
<path opacity="0.3" d="M664.5 480C665.328 480 666 479.328 666 478.5C666 477.672 665.328 477 664.5 477C663.672 477 663 477.672 663 478.5C663 479.328 663.672 480 664.5 480Z" fill="#999999"/>
<path opacity="0.45" d="M1254.54 360C1255.37 360 1256.04 359.328 1256.04 358.5C1256.04 357.672 1255.37 357 1254.54 357C1253.71 357 1253.04 357.672 1253.04 358.5C1253.04 359.328 1253.71 360 1254.54 360Z" fill="#999999"/>
<path opacity="0.6" d="M1605.01 131C1605.84 131 1606.51 130.328 1606.51 129.5C1606.51 128.672 1605.84 128 1605.01 128C1604.18 128 1603.51 128.672 1603.51 129.5C1603.51 130.328 1604.18 131 1605.01 131Z" fill="#999999"/>
<path opacity="0.15" d="M1619.01 644C1619.84 644 1620.51 643.328 1620.51 642.5C1620.51 641.672 1619.84 641 1619.01 641C1618.18 641 1617.51 641.672 1617.51 642.5C1617.51 643.328 1618.18 644 1619.01 644Z" fill="#999999"/>
<path opacity="0.45" d="M57.5 338C58.3284 338 59 337.328 59 336.5C59 335.672 58.3284 335 57.5 335C56.6716 335 56 335.672 56 336.5C56 337.328 56.6716 338 57.5 338Z" fill="#999999"/>
<path opacity="0.3" d="M266 482C267.657 482 269 480.657 269 479C269 477.343 267.657 476 266 476C264.343 476 263 477.343 263 479C263 480.657 264.343 482 266 482Z" fill="#999999"/>
<path opacity="0.45" d="M1528.51 446C1530.17 446 1531.51 444.657 1531.51 443C1531.51 441.343 1530.17 440 1528.51 440C1526.85 440 1525.51 441.343 1525.51 443C1525.51 444.657 1526.85 446 1528.51 446Z" fill="#999999"/>
<path opacity="0.45" d="M321.5 378C322.328 378 323 377.328 323 376.5C323 375.672 322.328 375 321.5 375C320.672 375 320 375.672 320 376.5C320 377.328 320.672 378 321.5 378Z" fill="#999999"/>
<path opacity="0.6" d="M513.5 186C514.328 186 515 185.328 515 184.5C515 183.672 514.328 183 513.5 183C512.672 183 512 183.672 512 184.5C512 185.328 512.672 186 513.5 186Z" fill="#999999"/>
<path opacity="0.3" d="M1233.54 571C1234.37 571 1235.04 570.328 1235.04 569.5C1235.04 568.672 1234.37 568 1233.54 568C1232.71 568 1232.04 568.672 1232.04 569.5C1232.04 570.328 1232.71 571 1233.54 571Z" fill="#999999"/>
<path opacity="0.45" d="M1584.01 342C1584.84 342 1585.51 341.328 1585.51 340.5C1585.51 339.672 1584.84 339 1584.01 339C1583.18 339 1582.51 339.672 1582.51 340.5C1582.51 341.328 1583.18 342 1584.01 342Z" fill="#999999"/>
<path opacity="0.3" d="M36.5 549C37.3284 549 38 548.328 38 547.5C38 546.672 37.3284 546 36.5 546C35.6716 546 35 546.672 35 547.5C35 548.328 35.6716 549 36.5 549Z" fill="#999999"/>
<path opacity="0.6" d="M273.5 286C274.328 286 275 285.328 275 284.5C275 283.672 274.328 283 273.5 283C272.672 283 272 283.672 272 284.5C272 285.328 272.672 286 273.5 286Z" fill="#999999"/>
<path opacity="0.6" d="M1536.01 250C1536.84 250 1537.51 249.328 1537.51 248.5C1537.51 247.672 1536.84 247 1536.01 247C1535.18 247 1534.51 247.672 1534.51 248.5C1534.51 249.328 1535.18 250 1536.01 250Z" fill="#999999"/>
<path opacity="0.6" d="M161.5 285C162.328 285 163 284.328 163 283.5C163 282.672 162.328 282 161.5 282C160.672 282 160 282.672 160 283.5C160 284.328 160.672 285 161.5 285Z" fill="#999999"/>
<path opacity="0.6" d="M1424.01 249C1424.84 249 1425.51 248.328 1425.51 247.5C1425.51 246.672 1424.84 246 1424.01 246C1423.18 246 1422.51 246.672 1422.51 247.5C1422.51 248.328 1423.18 249 1424.01 249Z" fill="#999999"/>
<path opacity="0.15" d="M1452.51 623C1454.17 623 1455.51 621.657 1455.51 620C1455.51 618.343 1454.17 617 1452.51 617C1450.85 617 1449.51 618.343 1449.51 620C1449.51 621.657 1450.85 623 1452.51 623Z" fill="#999999"/>
<path opacity="0.75" d="M1360.51 10C1361.06 10 1361.51 9.32843 1361.51 8.5C1361.51 7.67157 1361.06 7 1360.51 7C1359.96 7 1359.51 7.67157 1359.51 8.5C1359.51 9.32843 1359.96 10 1360.51 10Z" fill="#999999"/>
<path opacity="0.75" d="M1279.01 19C1279.84 19 1280.51 18.3284 1280.51 17.5C1280.51 16.6716 1279.84 16 1279.01 16C1278.18 16 1277.51 16.6716 1277.51 17.5C1277.51 18.3284 1278.18 19 1279.01 19Z" fill="#999999"/>
<path opacity="0.6" d="M1289.01 227C1289.84 227 1290.51 226.328 1290.51 225.5C1290.51 224.672 1289.84 224 1289.01 224C1288.18 224 1287.51 224.672 1287.51 225.5C1287.51 226.328 1288.18 227 1289.01 227Z" fill="#999999"/>
</g>
<defs>
<clipPath id="clip0">
<rect width="2098" height="1049" fill="white"/>
</clipPath>
</defs>
</svg>
