<svg width="1440" height="864" viewBox="0 0 1440 864" fill="none" xmlns="http://www.w3.org/2000/svg">
<path d="M90 254.859C90 232.69 108.19 214.718 130.629 214.718L512.353 209.099C534.791 209.099 553.17 232.69 553.17 254.859C553.17 277.028 534.98 295 512.541 295H130.629C108.19 295 90 277.028 90 254.859Z" fill="white"/>
<path d="M407.597 165.746C407.597 220.283 363.577 264.493 309.275 264.493C254.973 264.493 210.953 220.283 210.953 165.746C210.953 111.21 254.973 67 309.275 67C363.577 67 407.597 111.21 407.597 165.746Z" fill="white"/>
<path d="M276.893 209.099C276.893 245.899 242.696 275.732 200.511 275.732C158.326 275.732 124.128 245.899 124.128 209.099C124.128 172.298 158.326 142.465 200.511 142.465C242.696 142.465 276.893 172.298 276.893 209.099Z" fill="white"/>
<path d="M512.353 209.099C512.353 255.654 473.789 293.394 426.219 293.394C378.649 293.394 340.086 255.654 340.086 209.099C340.086 162.543 378.649 124.803 426.219 124.803C473.789 124.803 512.353 162.543 512.353 209.099Z" fill="white"/>
<path d="M322 696.669C322 691.516 326.359 687.338 331.737 687.338L423.218 686.032C428.596 686.032 433 691.516 433 696.669C433 701.822 428.641 706 423.263 706H331.737C326.359 706 322 701.822 322 696.669Z" fill="white"/>
<path d="M398.113 675.954C398.113 688.631 387.563 698.908 374.55 698.908C361.536 698.908 350.987 688.631 350.987 675.954C350.987 663.277 361.536 653 374.55 653C387.563 653 398.113 663.277 398.113 675.954Z" fill="white"/>
<path d="M366.789 686.032C366.789 694.586 358.594 701.521 348.484 701.521C338.374 701.521 330.179 694.586 330.179 686.032C330.179 677.477 338.374 670.542 348.484 670.542C358.594 670.542 366.789 677.477 366.789 686.032Z" fill="white"/>
<path d="M423.218 686.032C423.218 696.854 413.976 705.627 402.576 705.627C391.176 705.627 381.934 696.854 381.934 686.032C381.934 675.21 391.176 666.437 402.576 666.437C413.976 666.437 423.218 675.21 423.218 686.032Z" fill="white"/>
<path d="M1018 339.923C1018 330.491 1025.97 322.845 1035.81 322.845L1203.11 320.454C1212.94 320.454 1221 330.491 1221 339.923C1221 349.354 1213.03 357 1203.19 357H1035.81C1025.97 357 1018 349.354 1018 339.923Z" fill="white"/>
<path d="M1157.2 302.011C1157.2 325.212 1137.9 344.021 1114.1 344.021C1090.31 344.021 1071.01 325.212 1071.01 302.011C1071.01 278.809 1090.31 260 1114.1 260C1137.9 260 1157.2 278.809 1157.2 302.011Z" fill="white"/>
<path d="M1099.91 320.454C1099.91 336.111 1084.92 348.803 1066.44 348.803C1047.95 348.803 1032.96 336.111 1032.96 320.454C1032.96 304.798 1047.95 292.106 1066.44 292.106C1084.92 292.106 1099.91 304.798 1099.91 320.454Z" fill="white"/>
<path d="M1203.11 320.454C1203.11 340.261 1186.21 356.317 1165.36 356.317C1144.51 356.317 1127.61 340.261 1127.61 320.454C1127.61 300.648 1144.51 284.592 1165.36 284.592C1186.21 284.592 1203.11 300.648 1203.11 320.454Z" fill="white"/>
</svg>
