<svg width="1440" height="864" viewBox="0 0 1440 864" fill="none" xmlns="http://www.w3.org/2000/svg">
<g clip-path="url(#clip0)">
<path d="M597.181 472.695C606.735 456.266 579.117 409.413 568.729 401.759L483.178 338.718C459.643 322.103 422.175 343.446 422.483 359.041C422.791 374.637 432.35 378.69 447.29 383.91C489.325 398.599 547.963 423.186 575.128 455.976C586.337 469.505 592.67 480.453 597.181 472.695Z" fill="white"/>
<path d="M504.414 354.367C491.659 371.676 512.183 388.658 530.11 401.868C548.038 415.079 563.324 429.994 576.079 412.684C588.834 395.374 577.898 360.154 559.97 346.944C542.043 333.734 517.17 337.057 504.414 354.367Z" fill="white"/>
<path d="M475.378 345.492C464.559 360.175 466.066 356.534 478.967 366.04C491.869 375.547 511.278 394.601 522.097 379.919C532.916 365.236 531.229 345.627 518.327 336.121C505.426 326.614 486.197 330.81 475.378 345.492Z" fill="white"/>
<path d="M451.508 199.753C457.037 180.613 525.919 111.58 545.291 117.177L876.252 207.527C895.624 213.123 905.607 238.074 900.078 257.214C894.549 276.353 874.363 287.332 854.991 281.736C740.556 197.682 668.488 177.01 525.269 186.487C487.72 188.972 445.979 218.892 451.508 199.753Z" fill="white"/>
<path d="M796.624 143.973C783.023 191.057 737.3 199.197 690.419 185.655C643.538 172.112 613.251 142.013 626.852 94.93C640.454 47.8466 689.484 20.6565 736.365 34.1994C783.247 47.7422 810.225 96.8896 796.624 143.973Z" fill="white"/>
<path d="M672.969 148.803C663.791 180.575 618.247 172.586 581.827 162.065C545.407 151.544 531.903 142.475 541.081 110.704C550.259 78.9319 587.223 61.7047 623.643 72.2256C660.063 82.7465 682.147 117.031 672.969 148.803Z" fill="white"/>
<path d="M876.252 207.527C864.641 247.72 840.608 243.393 799.539 231.529C758.47 219.665 715.915 204.757 727.526 164.564C739.137 124.37 781.843 101.405 822.912 113.269C863.982 125.133 887.863 167.334 876.252 207.527Z" fill="white"/>
<path d="M814.967 756.106C825.849 752.005 862.834 708.736 858.683 697.722L790.823 509.322C786.672 498.309 771.693 493.653 760.811 497.754C749.93 501.855 744.474 514.108 748.625 525.122C802.819 587.824 818.177 628.803 819.279 712.574C819.567 734.537 804.086 760.207 814.967 756.106Z" fill="white"/>
<path d="M831.481 552.719C804.713 562.808 802.088 589.789 812.134 616.441C822.18 643.094 841.092 659.326 867.86 649.237C894.628 639.148 908.183 609.363 898.138 582.71C888.092 556.057 858.249 542.63 831.481 552.719Z" fill="white"/>
<path d="M834.383 624.892C816.32 631.7 823.072 657.832 830.876 678.537C838.681 699.243 844.581 706.681 862.644 699.873C880.707 693.065 889.023 670.761 881.219 650.056C873.415 629.35 852.445 618.084 834.383 624.892Z" fill="white"/>
<path d="M790.823 509.322C767.972 517.935 771.6 531.719 780.401 555.068C789.201 578.416 799.841 602.488 822.692 593.875C845.543 585.263 856.932 559.353 848.132 536.004C839.332 512.656 813.673 500.71 790.823 509.322Z" fill="white"/>
<path d="M943.468 428.271C973.106 415.993 1045.26 472.759 1055.72 491.863L1141.89 649.192C1164.38 692.31 1120.22 750.176 1094.2 746.145C1068.18 742.113 1063.56 725.207 1058.2 699.038C1043.1 625.407 1015.19 521.771 966.465 468.932C946.36 447.131 929.473 434.069 943.468 428.271Z" fill="white"/>
<path d="M1120.5 610.138C1088.67 627.573 1064.89 589.411 1046.83 556.442C1028.77 523.473 1007.27 494.539 1039.1 477.104C1070.93 459.669 1127.39 485.905 1145.44 518.875C1163.5 551.844 1152.33 592.704 1120.5 610.138Z" fill="white"/>
<path d="M1128.8 660.713C1101.8 675.501 1108.23 673.801 1095.23 650.075C1082.24 626.35 1054.74 589.584 1081.74 574.796C1108.74 560.008 1141.16 567.252 1154.16 590.978C1167.15 614.703 1155.8 645.925 1128.8 660.713Z" fill="white"/>
<path d="M493.872 625.376C500.981 620.185 510.968 621.764 516.18 628.901L559.099 687.683C564.31 694.821 562.772 704.815 555.663 710.005C548.554 715.196 538.566 713.617 533.355 706.48C525.459 678.66 515.192 666.268 490.436 647.698C485.225 640.56 486.763 630.566 493.872 625.376Z" fill="white"/>
<path d="M548.445 673.092C535.603 682.468 520.676 673.586 511.682 661.268C502.688 648.95 503.033 637.861 515.875 628.484C528.717 619.108 546.419 621.493 555.413 633.811C564.406 646.129 561.287 663.715 548.445 673.092Z" fill="white"/>
<path d="M553.991 693.33C543.098 701.283 539.19 693.119 532.718 684.255C526.246 675.391 519.66 669.182 530.553 661.229C541.446 653.276 555.523 654.014 561.995 662.879C568.467 671.743 564.884 685.377 553.991 693.33Z" fill="white"/>
</g>
<defs>
<clipPath id="clip0">
<rect width="1440" height="864" fill="white"/>
</clipPath>
</defs>
</svg>
