<svg width="50" height="50" viewBox="0 0 50 50" fill="none" xmlns="http://www.w3.org/2000/svg">
<circle cx="25" cy="25" r="25" fill="#D3D3D3"/>
<g clip-path="url(#clip0)">
<rect x="9" y="7" width="31.5" height="36" fill="white"/>
<path d="M40.4286 7H9.56339C8.14911 7 7 8.16518 7 9.59554V40.4045C7 41.8348 8.14911 43 9.56339 43H40.4286C41.8429 43 43 41.8348 43 40.4045V9.59554C43 8.16518 41.8429 7 40.4286 7ZM17.8804 37.8571H12.5446V20.6768H17.8884V37.8571H17.8804ZM15.2125 18.3304C13.5009 18.3304 12.1187 16.9402 12.1187 15.2366C12.1187 13.533 13.5009 12.1429 15.2125 12.1429C16.9161 12.1429 18.3062 13.533 18.3062 15.2366C18.3062 16.9482 16.9241 18.3304 15.2125 18.3304V18.3304ZM37.8812 37.8571H32.5455V29.5C32.5455 27.5071 32.5054 24.9437 29.7732 24.9437C26.9929 24.9437 26.567 27.1134 26.567 29.3554V37.8571H21.2313V20.6768H26.35V23.0232H26.4223C27.1375 21.6732 28.8813 20.2509 31.4768 20.2509C36.8768 20.2509 37.8812 23.8107 37.8812 28.4393V37.8571V37.8571Z" fill="#D3D3D3"/>
</g>
<rect x="9" y="7" width="31.5" height="36" stroke="#D3D3D3"/>
<rect x="9" y="39" width="32" height="4" fill="#D3D3D3"/>
<rect x="9" y="6" width="32" height="5" fill="#D3D3D3"/>
<defs>
<clipPath id="clip0">
<rect x="9" y="7" width="31.5" height="36" fill="white"/>
</clipPath>
</defs>
</svg>
