<svg width="640" height="511" viewBox="0 0 640 511" fill="none" xmlns="http://www.w3.org/2000/svg">
<path d="M512.109 190.888L503.909 205.188C500.909 210.488 494.509 212.688 488.809 210.588C477.009 206.188 466.209 199.888 456.709 191.988C452.109 188.188 450.909 181.488 453.909 176.288L462.109 161.988C455.209 153.988 449.809 144.688 446.209 134.588H429.709C423.709 134.588 418.509 130.288 417.509 124.288C415.509 112.288 415.409 99.6876 417.509 87.1876C418.509 81.1876 423.709 76.7876 429.709 76.7876H446.209C449.809 66.6876 455.209 57.3876 462.109 49.3876L453.909 35.0876C450.909 29.8876 452.009 23.1876 456.709 19.3876C466.209 11.4876 477.109 5.18762 488.809 0.787617C494.509 -1.31238 500.909 0.887617 503.909 6.18762L512.109 20.4876C522.609 18.5876 533.309 18.5876 543.809 20.4876L552.009 6.18762C555.009 0.887617 561.409 -1.31238 567.109 0.787617C578.909 5.18762 589.709 11.4876 599.209 19.3876C603.809 23.1876 605.009 29.8876 602.009 35.0876L593.809 49.3876C600.709 57.3876 606.109 66.6876 609.709 76.7876H626.209C632.209 76.7876 637.409 81.0876 638.409 87.0876C640.409 99.0876 640.509 111.688 638.409 124.188C637.409 130.188 632.209 134.588 626.209 134.588H609.709C606.109 144.688 600.709 153.988 593.809 161.988L602.009 176.288C605.009 181.488 603.909 188.188 599.209 191.988C589.709 199.888 578.809 206.188 567.109 210.588C561.409 212.688 555.009 210.488 552.009 205.188L543.809 190.888C533.409 192.788 522.609 192.788 512.109 190.888V190.888ZM501.609 132.088C540.109 161.688 584.009 117.788 554.409 79.2876C515.909 49.5876 472.009 93.5876 501.609 132.088V132.088ZM386.309 285.988L420.009 302.788C430.109 308.588 434.509 320.888 430.509 331.888C421.609 356.088 404.109 378.288 387.909 397.688C380.509 406.588 367.709 408.788 357.609 402.988L328.509 386.188C312.509 399.888 293.909 410.788 273.609 417.888V451.488C273.609 463.088 265.309 473.088 253.909 475.088C229.309 479.288 203.509 479.488 178.009 475.088C166.509 473.088 158.009 463.188 158.009 451.488V417.888C137.709 410.688 119.109 399.888 103.109 386.188L74.0094 402.888C64.0094 408.688 51.1094 406.488 43.7094 397.588C27.5094 378.188 10.4094 355.988 1.50939 331.888C-2.49061 320.988 1.90939 308.688 12.0094 302.788L45.3094 285.988C41.4094 265.088 41.4094 243.588 45.3094 222.588L12.0094 205.688C1.90939 199.888 -2.59061 187.588 1.50939 176.688C10.4094 152.488 27.5094 130.288 43.7094 110.888C51.1094 101.988 63.9094 99.7876 74.0094 105.588L103.109 122.388C119.109 108.688 137.709 97.7876 158.009 90.6876V56.9876C158.009 45.4876 166.209 35.4876 177.609 33.4876C202.209 29.2876 228.109 29.0876 253.609 33.3876C265.109 35.3876 273.609 45.2876 273.609 56.9876V90.5876C293.909 97.7876 312.509 108.588 328.509 122.288L357.609 105.488C367.609 99.6876 380.509 101.888 387.909 110.788C404.109 130.188 421.109 152.388 430.009 176.588C434.009 187.488 430.109 199.788 420.009 205.688L386.309 222.488C390.209 243.488 390.209 264.988 386.309 285.988V285.988ZM268.709 307.088C327.909 230.088 240.009 142.188 163.009 201.388C103.809 278.388 191.709 366.288 268.709 307.088ZM512.109 489.788L503.909 504.088C500.909 509.388 494.509 511.588 488.809 509.488C477.009 505.088 466.209 498.788 456.709 490.888C452.109 487.088 450.909 480.388 453.909 475.188L462.109 460.888C455.209 452.888 449.809 443.588 446.209 433.488H429.709C423.709 433.488 418.509 429.188 417.509 423.188C415.509 411.188 415.409 398.588 417.509 386.088C418.509 380.088 423.709 375.688 429.709 375.688H446.209C449.809 365.588 455.209 356.288 462.109 348.288L453.909 333.988C450.909 328.788 452.009 322.088 456.709 318.288C466.209 310.388 477.109 304.088 488.809 299.688C494.509 297.588 500.909 299.788 503.909 305.088L512.109 319.388C522.609 317.488 533.309 317.488 543.809 319.388L552.009 305.088C555.009 299.788 561.409 297.588 567.109 299.688C578.909 304.088 589.709 310.388 599.209 318.288C603.809 322.088 605.009 328.788 602.009 333.988L593.809 348.288C600.709 356.288 606.109 365.588 609.709 375.688H626.209C632.209 375.688 637.409 379.988 638.409 385.988C640.409 397.988 640.509 410.588 638.409 423.088C637.409 429.088 632.209 433.488 626.209 433.488H609.709C606.109 443.588 600.709 452.888 593.809 460.888L602.009 475.188C605.009 480.388 603.909 487.088 599.209 490.888C589.709 498.788 578.809 505.088 567.109 509.488C561.409 511.588 555.009 509.388 552.009 504.088L543.809 489.788C533.409 491.688 522.609 491.688 512.109 489.788ZM501.609 430.888C540.109 460.488 584.009 416.588 554.409 378.088C515.909 348.488 472.009 392.388 501.609 430.888V430.888Z" fill="#B7B7B7" fill-opacity="0.05"/>
</svg>
