<svg width="411" height="94" viewBox="0 0 411 94" fill="none" xmlns="http://www.w3.org/2000/svg">
<path d="M320.005 114.729C320.005 142.194 298.737 164.458 272.503 164.458C246.268 164.458 225 142.194 225 114.729C225 87.2645 246.268 65 272.503 65C298.737 65 320.005 87.2645 320.005 114.729Z" fill="white"/>
<path d="M89.65 92.7784C89.65 144.018 50.1056 185.557 1.32502 185.557C-47.4555 185.557 -87 144.018 -87 92.7784C-87 41.5383 -47.4555 0 1.32502 0C50.1056 0 89.65 41.5383 89.65 92.7784Z" fill="white"/>
<path d="M193 122C193 160.108 163.451 191 127 191C90.5492 191 61 160.108 61 122C61 83.8924 90.5492 53 127 53C163.451 53 193 83.8924 193 122Z" fill="white"/>
<path d="M258.878 92.0456C258.878 119.51 237.61 141.775 211.375 141.775C185.14 141.775 163.873 119.51 163.873 92.0456C163.873 64.5809 185.14 42.3164 211.375 42.3164C237.61 42.3164 258.878 64.5809 258.878 92.0456Z" fill="white"/>
<path d="M496.39 97.9831C496.39 125.448 475.123 147.712 448.888 147.712C422.653 147.712 401.385 125.448 401.385 97.9831C401.385 70.5184 422.653 48.2539 448.888 48.2539C475.123 48.2539 496.39 70.5184 496.39 97.9831Z" fill="white"/>
<path d="M413.261 85.357C413.261 121.84 385.015 151.415 350.172 151.415C315.329 151.415 287.083 121.84 287.083 85.357C287.083 48.8741 315.329 19.2988 350.172 19.2988C385.015 19.2988 413.261 48.8741 413.261 85.357Z" fill="white"/>
<path d="M454.826 40.8308C454.826 58.8673 440.869 73.4888 423.652 73.4888C406.435 73.4888 392.479 58.8673 392.479 40.8308C392.479 22.7943 406.435 8.17285 423.652 8.17285C440.869 8.17285 454.826 22.7943 454.826 40.8308Z" fill="white"/>
<path d="M318.005 118.729C318.005 146.194 296.737 168.458 270.503 168.458C244.268 168.458 223 146.194 223 118.729C223 91.2645 244.268 69 270.503 69C296.737 69 318.005 91.2645 318.005 118.729Z" fill="#F8F8F8"/>
<path d="M87.65 96.7784C87.65 148.018 48.1056 189.557 -0.674985 189.557C-49.4555 189.557 -89 148.018 -89 96.7784C-89 45.5383 -49.4555 4 -0.674985 4C48.1056 4 87.65 45.5383 87.65 96.7784Z" fill="#F8F8F8"/>
<path d="M191 126C191 164.108 161.451 195 125 195C88.5492 195 59 164.108 59 126C59 87.8924 88.5492 57 125 57C161.451 57 191 87.8924 191 126Z" fill="#F8F8F8"/>
<path d="M256.878 96.0456C256.878 123.51 235.61 145.775 209.375 145.775C183.14 145.775 161.873 123.51 161.873 96.0456C161.873 68.5809 183.14 46.3164 209.375 46.3164C235.61 46.3164 256.878 68.5809 256.878 96.0456Z" fill="#F8F8F8"/>
<path d="M494.39 101.983C494.39 129.448 473.123 151.712 446.888 151.712C420.653 151.712 399.385 129.448 399.385 101.983C399.385 74.5184 420.653 52.2539 446.888 52.2539C473.123 52.2539 494.39 74.5184 494.39 101.983Z" fill="#F8F8F8"/>
<path d="M411.261 89.357C411.261 125.84 383.015 155.415 348.172 155.415C313.329 155.415 285.083 125.84 285.083 89.357C285.083 52.8741 313.329 23.2988 348.172 23.2988C383.015 23.2988 411.261 52.8741 411.261 89.357Z" fill="#F8F8F8"/>
<path d="M452.826 44.8308C452.826 62.8673 438.869 77.4888 421.652 77.4888C404.435 77.4888 390.479 62.8673 390.479 44.8308C390.479 26.7943 404.435 12.1729 421.652 12.1729C438.869 12.1729 452.826 26.7943 452.826 44.8308Z" fill="#F8F8F8"/>
</svg>
