<svg width="19" height="18" viewBox="0 0 19 18" fill="none" xmlns="http://www.w3.org/2000/svg">
<g clip-path="url(#clip0)">
<path d="M18.2681 3.07659C18.0352 2.75921 17.6682 2.57907 17.2862 2.5791C17.1875 2.5791 17.0877 2.59115 16.989 2.61601L1.56554 6.49847C1.08824 6.61855 0.730263 7.01423 0.658154 7.50105C0.586189 7.9879 0.814276 8.47024 1.23629 8.7234L4.49778 10.6803V14.9729C4.49778 15.1354 4.59037 15.2837 4.73628 15.3551C4.88224 15.4264 5.05613 15.4084 5.18432 15.3086L8.24333 12.9277L10.7563 14.4354C10.9524 14.5531 11.1683 14.6091 11.3817 14.6091C11.7908 14.6091 12.19 14.4029 12.4198 14.0294L18.3232 4.43495C18.5829 4.01307 18.561 3.476 18.2681 3.07659ZM11.3087 13.0879L7.48479 10.7935L11.3643 7.45054C11.4186 7.40372 11.4313 7.32463 11.3944 7.26316C11.3576 7.20169 11.2818 7.17564 11.215 7.20151L5.30581 9.48617L2.43574 7.76405L16.811 4.14546L11.3087 13.0879Z" fill="#ABABAB"/>
</g>
<defs>
<clipPath id="clip0">
<rect width="17.8589" height="17.8589" fill="white" transform="translate(0.64502 0.0595703)"/>
</clipPath>
</defs>
</svg>
