<svg width="2098" height="1049" viewBox="0 0 2098 1049" fill="none" xmlns="http://www.w3.org/2000/svg">
<g clip-path="url(#clip0)">
<g filter="url(#filter0_f)">
<circle cx="82" cy="739" r="8" fill="white"/>
</g>
<circle cx="1120.51" cy="57" r="3" fill="white"/>
<circle cx="2085.51" cy="3" r="3" fill="white"/>
<circle cx="1075.01" cy="64.5" r="1.5" fill="white"/>
<circle cx="2040.01" cy="10.5" r="1.5" fill="white"/>
<circle cx="460" cy="619" r="3" fill="white"/>
<circle cx="652" cy="427" r="3" fill="white"/>
<circle cx="666" cy="940" r="3" fill="white"/>
<circle cx="1256.04" cy="820" r="3" fill="white"/>
<circle cx="782" cy="932" r="3" fill="white"/>
<circle cx="1372.04" cy="812" r="3" fill="white"/>
<circle cx="1616.44" cy="938.361" r="3" transform="rotate(62.0741 1616.44 938.361)" fill="white"/>
<circle cx="1722.51" cy="583" r="3" fill="white"/>
<circle cx="175" cy="790" r="3" fill="white"/>
<circle cx="487" cy="549" r="1" fill="white"/>
<circle cx="1749.51" cy="513" r="1" fill="white"/>
<circle cx="1763.51" cy="1026" r="1" fill="white"/>
<circle cx="202" cy="720" r="1" fill="white"/>
<circle cx="1120.51" cy="57" r="3" fill="white"/>
<circle cx="2085.51" cy="3" r="3" fill="white"/>
<circle cx="1075.01" cy="64.5" r="1.5" fill="white"/>
<circle cx="2040.01" cy="10.5" r="1.5" fill="white"/>
<circle cx="848.513" cy="52" r="3" fill="white"/>
<circle cx="1813.51" cy="-2" r="3" fill="white"/>
<ellipse cx="843.513" cy="59.5" rx="1" ry="1.5" fill="white"/>
<ellipse cx="1808.51" cy="5.5" rx="1" ry="1.5" fill="white"/>
<circle cx="523" cy="276" r="3" fill="white"/>
<circle cx="750.745" cy="146.313" r="3" transform="rotate(80.319 750.745 146.313)" fill="white"/>
<ellipse cx="815.513" cy="182.5" rx="1" ry="1.5" fill="white"/>
<ellipse cx="1780.51" cy="128.5" rx="1" ry="1.5" fill="white"/>
<circle cx="372" cy="196" r="3" fill="white"/>
<circle cx="564" cy="4" r="3" fill="white"/>
<circle cx="694" cy="509" r="3" fill="white"/>
<circle cx="708" cy="1022" r="3" fill="white"/>
<circle cx="1298.04" cy="902" r="3" fill="white"/>
<circle cx="1502.26" cy="915.128" r="3" transform="rotate(62.0741 1502.26 915.128)" fill="white"/>
<circle cx="1652.51" cy="107" r="3" fill="white"/>
<circle cx="87" cy="367" r="3" fill="white"/>
<ellipse cx="456" cy="107.5" rx="1" ry="1.5" fill="white"/>
<ellipse cx="778" cy="420.5" rx="1" ry="1.5" fill="white"/>
<ellipse cx="792" cy="933.5" rx="1" ry="1.5" fill="white"/>
<ellipse cx="1382.04" cy="813.5" rx="1" ry="1.5" fill="white"/>
<ellipse cx="1619.79" cy="947.899" rx="1" ry="1.5" transform="rotate(62.0741 1619.79 947.899)" fill="white"/>
<ellipse cx="1565" cy="60.5" rx="1" ry="1.5" fill="white"/>
<ellipse cx="171" cy="278.5" rx="1" ry="1.5" fill="white"/>
<ellipse cx="1182.51" cy="216.5" rx="1" ry="1.5" fill="white"/>
<ellipse cx="1146.51" cy="429.5" rx="1" ry="1.5" fill="white"/>
<ellipse cx="1160.51" cy="942.5" rx="1" ry="1.5" fill="white"/>
<ellipse cx="857.513" cy="500.5" rx="1" ry="1.5" fill="white"/>
<ellipse cx="871.513" cy="1013.5" rx="1" ry="1.5" fill="white"/>
<ellipse cx="1461.56" cy="893.5" rx="1" ry="1.5" fill="white"/>
<ellipse cx="1822.51" cy="446.5" rx="1" ry="1.5" fill="white"/>
<ellipse cx="1836.51" cy="959.5" rx="1" ry="1.5" fill="white"/>
<ellipse cx="1077.23" cy="582.574" rx="1" ry="1.5" transform="rotate(53.3072 1077.23 582.574)" fill="white"/>
<ellipse cx="2042.23" cy="528.574" rx="1" ry="1.5" transform="rotate(53.3072 2042.23 528.574)" fill="white"/>
<ellipse cx="2056.23" cy="1041.57" rx="1" ry="1.5" transform="rotate(53.3072 2056.23 1041.57)" fill="white"/>
<circle cx="32" cy="306" r="3" fill="white"/>
<circle cx="580" cy="347" r="3" fill="white"/>
<circle cx="690.342" cy="214.441" r="3" transform="rotate(80.319 690.342 214.441)" fill="white"/>
<circle cx="551" cy="670" r="3" fill="white"/>
<circle cx="262" cy="741" r="3" fill="white"/>
<circle cx="1524.51" cy="705" r="3" fill="white"/>
<circle cx="122.5" cy="282.5" r="1.5" fill="white"/>
<circle cx="849.013" cy="391.5" r="1.5" fill="white"/>
<circle cx="1814.01" cy="337.5" r="1.5" fill="white"/>
<circle cx="813.013" cy="604.5" r="1.5" fill="white"/>
<circle cx="1417.06" cy="997.5" r="1.5" fill="white"/>
<circle cx="1778.01" cy="550.5" r="1.5" fill="white"/>
<circle cx="352.5" cy="717.5" r="1.5" fill="white"/>
<circle cx="544.5" cy="525.5" r="1.5" fill="white"/>
<circle cx="558.5" cy="1038.5" r="1.5" fill="white"/>
<circle cx="674.5" cy="1030.5" r="1.5" fill="white"/>
<circle cx="1264.54" cy="910.5" r="1.5" fill="white"/>
<circle cx="1615.01" cy="681.5" r="1.5" fill="white"/>
<circle cx="67.5" cy="888.5" r="1.5" fill="white"/>
<circle cx="566.118" cy="461.724" r="1.5" transform="rotate(53.3072 566.118 461.724)" fill="white"/>
<circle cx="580.118" cy="974.724" r="1.5" transform="rotate(53.3072 580.118 974.724)" fill="white"/>
<circle cx="304" cy="3" r="3" fill="white"/>
<circle cx="19" cy="174" r="3" fill="white"/>
<circle cx="1030.51" cy="112" r="3" fill="white"/>
<circle cx="1995.51" cy="58" r="3" fill="white"/>
<circle cx="994.513" cy="325" r="3" fill="white"/>
<circle cx="1959.51" cy="271" r="3" fill="white"/>
<circle cx="906.513" cy="267" r="3" fill="white"/>
<circle cx="1871.51" cy="213" r="3" fill="white"/>
<circle cx="1070.2" cy="398.252" r="3" transform="rotate(53.3072 1070.2 398.252)" fill="white"/>
<circle cx="2035.2" cy="344.252" r="3" transform="rotate(53.3072 2035.2 344.252)" fill="white"/>
<ellipse cx="354" cy="25.5" rx="1" ry="1.5" fill="white"/>
<ellipse cx="69" cy="196.5" rx="1" ry="1.5" fill="white"/>
<ellipse cx="1080.51" cy="134.5" rx="1" ry="1.5" fill="white"/>
<ellipse cx="2045.51" cy="80.5" rx="1" ry="1.5" fill="white"/>
<ellipse cx="1044.51" cy="347.5" rx="1" ry="1.5" fill="white"/>
<ellipse cx="2009.51" cy="293.5" rx="1" ry="1.5" fill="white"/>
<ellipse cx="796.513" cy="381.5" rx="1" ry="1.5" fill="white"/>
<ellipse cx="1761.51" cy="327.5" rx="1" ry="1.5" fill="white"/>
<ellipse cx="1082.03" cy="451.789" rx="1" ry="1.5" transform="rotate(53.3072 1082.03 451.789)" fill="white"/>
<ellipse cx="1096.03" cy="964.789" rx="1" ry="1.5" transform="rotate(53.3072 1096.03 964.789)" fill="white"/>
<ellipse cx="2047.03" cy="397.789" rx="1" ry="1.5" transform="rotate(53.3072 2047.03 397.789)" fill="white"/>
<circle cx="441" cy="468" r="3" fill="white"/>
<circle cx="455" cy="981" r="3" fill="white"/>
<circle cx="633" cy="276" r="3" fill="white"/>
<circle cx="769.243" cy="254.747" r="3" transform="rotate(80.319 769.243 254.747)" fill="white"/>
<circle cx="763" cy="781" r="3" fill="white"/>
<circle cx="1740.95" cy="850.856" r="3" transform="rotate(62.0741 1740.95 850.856)" fill="white"/>
<circle cx="1721.51" cy="379" r="3" fill="white"/>
<circle cx="156" cy="639" r="3" fill="white"/>
<circle cx="1149.51" cy="630" r="3" fill="white"/>
<circle cx="1131.51" cy="790" r="3" fill="white"/>
<circle cx="2096.51" cy="736" r="3" fill="white"/>
<circle cx="842.513" cy="861" r="3" fill="white"/>
<circle cx="1432.56" cy="741" r="3" fill="white"/>
<circle cx="1707.51" cy="958.576" r="3" transform="rotate(62.0741 1707.51 958.576)" fill="white"/>
<circle cx="1807.51" cy="807" r="3" fill="white"/>
<circle cx="779.198" cy="785.954" r="3" transform="rotate(53.3072 779.198 785.954)" fill="white"/>
<circle cx="1744.16" cy="867.488" r="3" transform="rotate(115.381 1744.16 867.488)" fill="white"/>
<circle cx="1744.2" cy="731.954" r="3" transform="rotate(53.3072 1744.2 731.954)" fill="white"/>
<ellipse cx="470.5" cy="421" rx="1.5" ry="1" fill="white"/>
<ellipse cx="484.5" cy="934" rx="1.5" ry="1" fill="white"/>
<ellipse cx="1751.01" cy="332" rx="1.5" ry="1" fill="white"/>
<ellipse cx="185.5" cy="592" rx="1.5" ry="1" fill="white"/>
<ellipse cx="1179.01" cy="583" rx="1.5" ry="1" fill="white"/>
<ellipse cx="1143.01" cy="796" rx="1.5" ry="1" fill="white"/>
<ellipse cx="872.013" cy="814" rx="1.5" ry="1" fill="white"/>
<ellipse cx="1762.85" cy="962.629" rx="1.5" ry="1" transform="rotate(62.0741 1762.85 962.629)" fill="white"/>
<ellipse cx="1837.01" cy="760" rx="1.5" ry="1" fill="white"/>
<ellipse cx="834.512" cy="781.525" rx="1.5" ry="1" transform="rotate(53.3072 834.512 781.525)" fill="white"/>
<ellipse cx="1773.98" cy="914.287" rx="1.5" ry="1" transform="rotate(115.381 1773.98 914.287)" fill="white"/>
<ellipse cx="1799.51" cy="727.525" rx="1.5" ry="1" transform="rotate(53.3072 1799.51 727.525)" fill="white"/>
<circle cx="246" cy="367" r="3" fill="white"/>
<circle cx="1526.51" cy="278" r="3" fill="white"/>
<circle cx="972.513" cy="476" r="3" fill="white"/>
<circle cx="986.513" cy="989" r="3" fill="white"/>
<circle cx="1576.56" cy="869" r="3" fill="white"/>
<circle cx="1937.51" cy="422" r="3" fill="white"/>
<circle cx="1951.51" cy="935" r="3" fill="white"/>
<circle cx="936.513" cy="689" r="3" fill="white"/>
<circle cx="1901.51" cy="635" r="3" fill="white"/>
<circle cx="476" cy="802" r="3" fill="white"/>
<circle cx="1738.51" cy="766" r="3" fill="white"/>
<circle cx="191" cy="973" r="3" fill="white"/>
<circle cx="572.155" cy="611.243" r="3" transform="rotate(53.3072 572.155 611.243)" fill="white"/>
<circle cx="1176.2" cy="1004.24" r="3" transform="rotate(53.3072 1176.2 1004.24)" fill="white"/>
<ellipse cx="305" cy="335.5" rx="1" ry="1.5" fill="white"/>
<ellipse cx="1585.51" cy="246.5" rx="1" ry="1.5" fill="white"/>
<ellipse cx="20" cy="506.5" rx="1" ry="1.5" fill="white"/>
<ellipse cx="34" cy="1019.5" rx="1" ry="1.5" fill="white"/>
<ellipse cx="1031.51" cy="444.5" rx="1" ry="1.5" fill="white"/>
<ellipse cx="1045.51" cy="957.5" rx="1" ry="1.5" fill="white"/>
<ellipse cx="1996.51" cy="390.5" rx="1" ry="1.5" fill="white"/>
<ellipse cx="995.513" cy="657.5" rx="1" ry="1.5" fill="white"/>
<ellipse cx="1960.51" cy="603.5" rx="1" ry="1.5" fill="white"/>
<ellipse cx="535" cy="770.5" rx="1" ry="1.5" fill="white"/>
<ellipse cx="804.18" cy="597.73" rx="1" ry="1.5" transform="rotate(53.3072 804.18 597.73)" fill="white"/>
<ellipse cx="1408.22" cy="990.73" rx="1" ry="1.5" transform="rotate(53.3072 1408.22 990.73)" fill="white"/>
<ellipse cx="1769.18" cy="543.73" rx="1" ry="1.5" transform="rotate(53.3072 1769.18 543.73)" fill="white"/>
<circle cx="137" cy="533" r="3" fill="white"/>
<circle cx="151" cy="1046" r="3" fill="white"/>
<circle cx="68" cy="602" r="3" fill="white"/>
<circle cx="211.5" cy="476.5" r="1.5" fill="white"/>
<circle cx="225.5" cy="989.5" r="1.5" fill="white"/>
<circle cx="1492.01" cy="387.5" r="1.5" fill="white"/>
<circle cx="290" cy="596" r="3" fill="white"/>
<circle cx="1552.51" cy="560" r="3" fill="white"/>
<circle cx="5" cy="767" r="3" fill="white"/>
<circle cx="342.5" cy="529.5" r="1.5" fill="white"/>
<circle cx="356.5" cy="1042.5" r="1.5" fill="white"/>
<circle cx="534.5" cy="337.5" r="1.5" fill="white"/>
<circle cx="692.055" cy="167.992" r="1.5" transform="rotate(80.319 692.055 167.992)" fill="white"/>
<circle cx="664.5" cy="842.5" r="1.5" fill="white"/>
<circle cx="1254.54" cy="722.5" r="1.5" fill="white"/>
<circle cx="1605.01" cy="493.5" r="1.5" fill="white"/>
<circle cx="1619.01" cy="1006.5" r="1.5" fill="white"/>
<circle cx="57.5" cy="700.5" r="1.5" fill="white"/>
<circle cx="266" cy="843" r="3" fill="white"/>
<circle cx="1528.51" cy="807" r="3" fill="white"/>
<circle cx="321.5" cy="740.5" r="1.5" fill="white"/>
<circle cx="513.5" cy="548.5" r="1.5" fill="white"/>
<circle cx="1233.54" cy="933.5" r="1.5" fill="white"/>
<circle cx="1584.01" cy="704.5" r="1.5" fill="white"/>
<circle cx="36.5" cy="911.5" r="1.5" fill="white"/>
<circle cx="207" cy="143" r="3" fill="white"/>
<circle cx="1487.51" cy="54" r="3" fill="white"/>
<circle cx="273.5" cy="648.5" r="1.5" fill="white"/>
<circle cx="1536.01" cy="612.5" r="1.5" fill="white"/>
<circle cx="82.5" cy="739.5" r="7.5" fill="white"/>
<circle cx="161.5" cy="647.5" r="1.5" fill="white"/>
<circle cx="1424.01" cy="611.5" r="1.5" fill="white"/>
<circle cx="1120.51" cy="57" r="3" fill="white"/>
<circle cx="2085.51" cy="3" r="3" fill="white"/>
<circle cx="1075.01" cy="64.5" r="1.5" fill="white"/>
<circle cx="2040.01" cy="10.5" r="1.5" fill="white"/>
<circle cx="1438.51" cy="471" r="3" fill="white"/>
<circle cx="1452.51" cy="984" r="3" fill="white"/>
<ellipse cx="1360.51" cy="372.5" rx="1" ry="1.5" fill="white"/>
<circle cx="1120.51" cy="57" r="3" fill="white"/>
<circle cx="2085.51" cy="3" r="3" fill="white"/>
<circle cx="1075.01" cy="64.5" r="1.5" fill="white"/>
<circle cx="2040.01" cy="10.5" r="1.5" fill="white"/>
<circle cx="1179.51" cy="221" r="3" fill="white"/>
<ellipse cx="1038.51" cy="158.5" rx="1" ry="1.5" fill="white"/>
<ellipse cx="2003.51" cy="104.5" rx="1" ry="1.5" fill="white"/>
<circle cx="1217" cy="73" r="3" fill="white"/>
<circle cx="1304.01" cy="42.5" r="1.5" fill="white"/>
<circle cx="1561.51" cy="101" r="3" fill="white"/>
<circle cx="1451.01" cy="102.5" r="1.5" fill="white"/>
<circle cx="1381.51" cy="293" r="3" fill="white"/>
<ellipse cx="1299.51" cy="161.5" rx="1" ry="1.5" fill="white"/>
<circle cx="1147.51" cy="484" r="3" fill="white"/>
<circle cx="1161.51" cy="997" r="3" fill="white"/>
<ellipse cx="1086.01" cy="296" rx="1.5" ry="1" fill="white"/>
<ellipse cx="2051.01" cy="242" rx="1.5" ry="1" fill="white"/>
<circle cx="1376.51" cy="704" r="3" fill="white"/>
<circle cx="1279.01" cy="381.5" r="1.5" fill="white"/>
<circle cx="1507.51" cy="800" r="3" fill="white"/>
<circle cx="1289.01" cy="589.5" r="1.5" fill="white"/>
<circle cx="1554.08" cy="199.536" r="5.05764" transform="rotate(43.5857 1554.08 199.536)" fill="white"/>
<g filter="url(#filter1_f)">
<path d="M1557.74 203.021C1555.82 205.044 1552.61 205.123 1550.59 203.198C1550.41 203.023 1494.67 250.567 1494.52 250.373C1494.37 250.191 1549.82 202.274 1549.7 202.078C1548.6 200.183 1548.83 197.715 1550.41 196.047C1552.34 194.024 1555.54 193.945 1557.56 195.871C1557.82 196.11 1611.32 149.191 1611.51 149.465C1611.61 149.612 1558.43 196.941 1558.51 197.097C1559.54 198.977 1559.3 201.384 1557.74 203.021Z" fill="white"/>
</g>
</g>
<defs>
<filter id="filter0_f" x="63" y="720" width="38" height="38" filterUnits="userSpaceOnUse" color-interpolation-filters="sRGB">
<feFlood flood-opacity="0" result="BackgroundImageFix"/>
<feBlend mode="normal" in="SourceGraphic" in2="BackgroundImageFix" result="shape"/>
<feGaussianBlur stdDeviation="5.5" result="effect1_foregroundBlur"/>
</filter>
<filter id="filter1_f" x="1488.52" y="143.463" width="128.994" height="112.911" filterUnits="userSpaceOnUse" color-interpolation-filters="sRGB">
<feFlood flood-opacity="0" result="BackgroundImageFix"/>
<feBlend mode="normal" in="SourceGraphic" in2="BackgroundImageFix" result="shape"/>
<feGaussianBlur stdDeviation="3" result="effect1_foregroundBlur"/>
</filter>
<clipPath id="clip0">
<rect width="2098" height="1049" fill="white"/>
</clipPath>
</defs>
</svg>
