<svg width="50" height="50" viewBox="0 0 50 50" fill="none" xmlns="http://www.w3.org/2000/svg">
<circle cx="25" cy="25" r="25" fill="#D3D3D3"/>
<g clip-path="url(#clip0)">
<rect x="9" y="7" width="31.5" height="36" fill="white"/>
<path d="M25 14.2964C19.158 14.2964 14.4089 19.0455 14.4009 24.8875C14.4009 26.8884 14.9634 28.8411 16.0241 30.5205L16.2732 30.9223L15.2045 34.8277L19.2143 33.775L19.6 34.008C21.2232 34.9723 23.0875 35.4866 24.992 35.4866H25C30.8339 35.4866 35.7116 30.7375 35.7116 24.8955C35.7116 22.067 34.4902 19.4071 32.4893 17.4062C30.4804 15.3973 27.8286 14.2964 25 14.2964ZM31.2277 29.4357C30.9625 30.183 29.6929 30.858 29.0821 30.9464C28.0696 31.0991 27.2821 31.0187 25.2652 30.1509C22.075 28.7687 19.9857 25.5545 19.825 25.3455C19.6643 25.1366 18.5232 23.6179 18.5232 22.0509C18.5232 20.4839 19.3429 19.7125 19.6402 19.3911C19.9295 19.0696 20.275 18.9893 20.492 18.9893C20.7009 18.9893 20.9179 18.9893 21.1027 18.9973C21.2955 19.0054 21.5607 18.925 21.8179 19.5437C22.083 20.1786 22.7179 21.7455 22.7982 21.9062C22.8786 22.067 22.9348 22.2518 22.8223 22.4607C22.2116 23.6821 21.5607 23.6339 21.8902 24.1964C23.1196 26.3098 24.3491 27.0411 26.2214 27.9812C26.5429 28.142 26.7277 28.1179 26.9125 27.9009C27.0973 27.692 27.708 26.9687 27.917 26.6554C28.1259 26.3339 28.3429 26.3902 28.6321 26.4946C28.9214 26.5991 30.4884 27.3705 30.8098 27.5312C31.1312 27.692 31.3402 27.7723 31.4205 27.9009C31.4929 28.0536 31.4929 28.6964 31.2277 29.4357V29.4357ZM39.1429 7H10.8571C8.72768 7 7 8.72768 7 10.8571V39.1429C7 41.2723 8.72768 43 10.8571 43H39.1429C41.2723 43 43 41.2723 43 39.1429V10.8571C43 8.72768 41.2723 7 39.1429 7ZM24.992 37.6321C22.8545 37.6321 20.7571 37.0937 18.9009 36.0812L12.1429 37.8571L13.9509 31.2518C12.8339 29.3232 12.2473 27.1295 12.2473 24.8795C12.2554 17.8562 17.9687 12.1429 24.992 12.1429C28.3991 12.1429 31.5973 13.4687 34.008 15.8795C36.4107 18.2902 37.8571 21.4884 37.8571 24.8955C37.8571 31.9187 32.0152 37.6321 24.992 37.6321Z" fill="#D3D3D3"/>
</g>
<rect x="9" y="7" width="31.5" height="36" stroke="#D3D3D3"/>
<rect x="9" y="40" width="32" height="4" fill="#D3D3D3"/>
<rect x="9" y="6" width="32" height="5" fill="#D3D3D3"/>
<defs>
<clipPath id="clip0">
<rect x="9" y="7" width="31.5" height="36" fill="white"/>
</clipPath>
</defs>
</svg>
