<svg width="61" height="61" viewBox="0 0 61 61" fill="none" xmlns="http://www.w3.org/2000/svg">
<path d="M41.759 30.629C42.6835 20.3781 39.1027 9.9282 31.59 2.41553C31.1336 1.95915 30.3262 1.95915 29.8698 2.41553C22.3571 9.9282 18.7763 20.3664 19.7008 30.629C17.1029 33.4258 15.6753 37.03 15.6753 40.8683C15.6753 44.7416 17.1497 48.4278 19.8295 51.2362C20.4848 51.9267 22.1582 51.6107 21.889 50.0894C21.7486 49.2937 21.5731 48.5214 21.5731 47.7607C21.5731 45.865 22.1465 44.0629 23.2114 42.5417C23.3869 42.6353 23.5858 42.6938 23.7965 42.6938H37.6633C37.874 42.6938 38.0729 42.6353 38.2484 42.5417C39.3133 44.0629 39.8867 45.865 39.8867 47.7607C39.8867 48.5214 39.6878 49.282 39.5708 50.0894C39.325 51.7745 41.0803 51.833 41.6303 51.2362C44.2984 48.4161 45.7845 44.7416 45.7845 40.8683C45.7728 37.03 44.3569 33.4141 41.759 30.629V30.629ZM30.7241 5.03677C32.9006 7.37717 34.6793 10.0101 36.0602 12.8069H25.3996C26.7688 9.99842 28.5475 7.37717 30.7241 5.03677ZM19.2561 46.1108C18.5072 44.4842 18.121 42.7055 18.121 40.8683C18.121 38.3874 18.8348 36.0119 20.1689 33.9758C20.1806 34.0694 21.4561 38.9491 21.9476 40.2013C20.4848 41.8863 19.5604 43.9225 19.2561 46.1108ZM36.8559 40.2481H24.5922C21.1518 32.1737 21.1869 23.1515 24.3114 15.2292H37.1367C40.2612 23.1515 40.2963 32.1737 36.8559 40.2481ZM39.5122 40.2013C40.191 38.4577 41.2792 34.046 41.291 33.9758C42.625 36.0002 43.3388 38.3757 43.3388 40.8683C43.3388 42.7055 42.9409 44.4842 42.2037 46.1108C41.8878 43.9225 40.9633 41.8863 39.5122 40.2013Z" fill="#ABABAB"/>
<path d="M25.7977 44.7305C25.119 44.7305 24.5807 45.2805 24.5807 45.9475V52.0676C24.5807 52.7463 25.1307 53.2846 25.7977 53.2846C26.4647 53.2846 27.0147 52.7346 27.0147 52.0676L27.0147 45.9475C27.0147 45.2688 26.4647 44.7305 25.7977 44.7305Z" fill="#ABABAB"/>
<path d="M30.7242 44.7305C30.3848 44.7305 30.0806 44.8709 29.8582 45.0932C29.8582 45.0932 29.8582 45.0932 29.8465 45.1049C29.7061 45.2454 29.6008 45.4326 29.5423 45.6432C29.5189 45.7485 29.4955 45.8539 29.4955 45.9709V58.1995C29.4955 58.2931 29.5072 58.3867 29.5306 58.4803C29.6593 59.0186 30.1391 59.4165 30.7125 59.4165C31.2859 59.4165 31.7657 59.0186 31.8944 58.4803C31.9178 58.3867 31.9295 58.2931 31.9295 58.1995L31.9295 45.9475C31.9295 45.8305 31.9178 45.7251 31.8827 45.6198C31.754 45.1049 31.2859 44.7305 30.7242 44.7305V44.7305Z" fill="#ABABAB"/>
<path d="M35.6508 44.7305C34.9721 44.7305 34.4338 45.2805 34.4338 45.9475V52.0676C34.4338 52.7463 34.9838 53.2846 35.6508 53.2846C36.3179 53.2846 36.8679 52.7346 36.8679 52.0676V45.9475C36.8796 45.2688 36.3296 44.7305 35.6508 44.7305Z" fill="#ABABAB"/>
</svg>
