<svg width="2098" height="1049" viewBox="0 0 2098 1049" fill="none" xmlns="http://www.w3.org/2000/svg">
<g clip-path="url(#clip0)">
<path opacity="0.75" d="M1120.51 60C1122.17 60 1123.51 58.6569 1123.51 57C1123.51 55.3431 1122.17 54 1120.51 54C1118.85 54 1117.51 55.3431 1117.51 57C1117.51 58.6569 1118.85 60 1120.51 60Z" fill="#484848"/>
<path opacity="0.75" d="M2085.51 6C2087.17 6 2088.51 4.65685 2088.51 3C2088.51 1.34315 2087.17 0 2085.51 0C2083.85 0 2082.51 1.34315 2082.51 3C2082.51 4.65685 2083.85 6 2085.51 6Z" fill="#484848"/>
<path opacity="0.75" d="M1075.01 66C1075.84 66 1076.51 65.3284 1076.51 64.5C1076.51 63.6716 1075.84 63 1075.01 63C1074.18 63 1073.51 63.6716 1073.51 64.5C1073.51 65.3284 1074.18 66 1075.01 66Z" fill="#484848"/>
<path opacity="0.75" d="M2040.01 12C2040.84 12 2041.51 11.3284 2041.51 10.5C2041.51 9.67157 2040.84 9 2040.01 9C2039.18 9 2038.51 9.67157 2038.51 10.5C2038.51 11.3284 2039.18 12 2040.01 12Z" fill="#484848"/>
<path opacity="0.6" d="M460 622C461.657 622 463 620.657 463 619C463 617.343 461.657 616 460 616C458.343 616 457 617.343 457 619C457 620.657 458.343 622 460 622Z" fill="#484848"/>
<path opacity="0.75" d="M652 430C653.657 430 655 428.657 655 427C655 425.343 653.657 424 652 424C650.343 424 649 425.343 649 427C649 428.657 650.343 430 652 430Z" fill="#484848"/>
<path opacity="0.3" d="M666 943C667.657 943 669 941.657 669 940C669 938.343 667.657 937 666 937C664.343 937 663 938.343 663 940C663 941.657 664.343 943 666 943Z" fill="#484848"/>
<path opacity="0.45" d="M1256.04 823C1257.7 823 1259.04 821.657 1259.04 820C1259.04 818.343 1257.7 817 1256.04 817C1254.38 817 1253.04 818.343 1253.04 820C1253.04 821.657 1254.38 823 1256.04 823Z" fill="#484848"/>
<path opacity="0.3" d="M782 935C783.657 935 785 933.657 785 932C785 930.343 783.657 929 782 929C780.343 929 779 930.343 779 932C779 933.657 780.343 935 782 935Z" fill="#484848"/>
<path opacity="0.45" d="M1372.04 815C1373.7 815 1375.04 813.657 1375.04 812C1375.04 810.343 1373.7 809 1372.04 809C1370.38 809 1369.04 810.343 1369.04 812C1369.04 813.657 1370.38 815 1372.04 815Z" fill="#484848"/>
<path opacity="0.3" d="M1613.79 939.766C1614.57 941.23 1616.38 941.787 1617.84 941.011C1619.31 940.236 1619.87 938.42 1619.09 936.956C1618.31 935.492 1616.5 934.934 1615.04 935.71C1613.57 936.486 1613.01 938.302 1613.79 939.766Z" fill="#484848"/>
<path opacity="0.6" d="M1722.51 586C1724.17 586 1725.51 584.657 1725.51 583C1725.51 581.343 1724.17 580 1722.51 580C1720.85 580 1719.51 581.343 1719.51 583C1719.51 584.657 1720.85 586 1722.51 586Z" fill="#484848"/>
<path opacity="0.45" d="M175 793C176.657 793 178 791.657 178 790C178 788.343 176.657 787 175 787C173.343 787 172 788.343 172 790C172 791.657 173.343 793 175 793Z" fill="#484848"/>
<path opacity="0.6" d="M487 550C487.552 550 488 549.552 488 549C488 548.448 487.552 548 487 548C486.448 548 486 548.448 486 549C486 549.552 486.448 550 487 550Z" fill="#484848"/>
<path opacity="0.6" d="M1749.51 514C1750.06 514 1750.51 513.552 1750.51 513C1750.51 512.448 1750.06 512 1749.51 512C1748.96 512 1748.51 512.448 1748.51 513C1748.51 513.552 1748.96 514 1749.51 514Z" fill="#484848"/>
<path opacity="0.15" d="M1763.51 1027C1764.06 1027 1764.51 1026.55 1764.51 1026C1764.51 1025.45 1764.06 1025 1763.51 1025C1762.96 1025 1762.51 1025.45 1762.51 1026C1762.51 1026.55 1762.96 1027 1763.51 1027Z" fill="#484848"/>
<path opacity="0.45" d="M202 721C202.552 721 203 720.552 203 720C203 719.448 202.552 719 202 719C201.448 719 201 719.448 201 720C201 720.552 201.448 721 202 721Z" fill="#484848"/>
<path opacity="0.75" d="M1120.51 60C1122.17 60 1123.51 58.6569 1123.51 57C1123.51 55.3431 1122.17 54 1120.51 54C1118.85 54 1117.51 55.3431 1117.51 57C1117.51 58.6569 1118.85 60 1120.51 60Z" fill="#484848"/>
<path opacity="0.75" d="M2085.51 6C2087.17 6 2088.51 4.65685 2088.51 3C2088.51 1.34315 2087.17 0 2085.51 0C2083.85 0 2082.51 1.34315 2082.51 3C2082.51 4.65685 2083.85 6 2085.51 6Z" fill="#484848"/>
<path opacity="0.75" d="M1075.01 66C1075.84 66 1076.51 65.3284 1076.51 64.5C1076.51 63.6716 1075.84 63 1075.01 63C1074.18 63 1073.51 63.6716 1073.51 64.5C1073.51 65.3284 1074.18 66 1075.01 66Z" fill="#484848"/>
<path opacity="0.75" d="M2040.01 12C2040.84 12 2041.51 11.3284 2041.51 10.5C2041.51 9.67157 2040.84 9 2040.01 9C2039.18 9 2038.51 9.67157 2038.51 10.5C2038.51 11.3284 2039.18 12 2040.01 12Z" fill="#484848"/>
<path opacity="0.75" d="M848.513 55C850.17 55 851.513 53.6569 851.513 52C851.513 50.3431 850.17 49 848.513 49C846.856 49 845.513 50.3431 845.513 52C845.513 53.6569 846.856 55 848.513 55Z" fill="#484848"/>
<path opacity="0.75" d="M1813.51 1C1815.17 1 1816.51 -0.343146 1816.51 -2C1816.51 -3.65685 1815.17 -5 1813.51 -5C1811.85 -5 1810.51 -3.65685 1810.51 -2C1810.51 -0.343146 1811.85 1 1813.51 1Z" fill="#484848"/>
<path opacity="0.75" d="M843.513 61C844.065 61 844.513 60.3284 844.513 59.5C844.513 58.6716 844.065 58 843.513 58C842.961 58 842.513 58.6716 842.513 59.5C842.513 60.3284 842.961 61 843.513 61Z" fill="#484848"/>
<path opacity="0.75" d="M1808.51 7C1809.06 7 1809.51 6.32843 1809.51 5.5C1809.51 4.67157 1809.06 4 1808.51 4C1807.96 4 1807.51 4.67157 1807.51 5.5C1807.51 6.32843 1807.96 7 1808.51 7Z" fill="#484848"/>
<path opacity="0.75" d="M523 279C524.657 279 526 277.657 526 276C526 274.343 524.657 273 523 273C521.343 273 520 274.343 520 276C520 277.657 521.343 279 523 279Z" fill="#484848"/>
<path opacity="0.75" d="M747.788 146.818C748.066 148.451 749.616 149.549 751.249 149.27C752.883 148.992 753.981 147.442 753.702 145.809C753.424 144.175 751.874 143.077 750.24 143.356C748.607 143.634 747.509 145.184 747.788 146.818Z" fill="#484848"/>
<path opacity="0.75" d="M815.513 184C816.065 184 816.513 183.328 816.513 182.5C816.513 181.672 816.065 181 815.513 181C814.961 181 814.513 181.672 814.513 182.5C814.513 183.328 814.961 184 815.513 184Z" fill="#484848"/>
<path opacity="0.75" d="M1780.51 130C1781.06 130 1781.51 129.328 1781.51 128.5C1781.51 127.672 1781.06 127 1780.51 127C1779.96 127 1779.51 127.672 1779.51 128.5C1779.51 129.328 1779.96 130 1780.51 130Z" fill="#484848"/>
<path opacity="0.75" d="M372 199C373.657 199 375 197.657 375 196C375 194.343 373.657 193 372 193C370.343 193 369 194.343 369 196C369 197.657 370.343 199 372 199Z" fill="#484848"/>
<path opacity="0.75" d="M564 7C565.657 7 567 5.65685 567 4C567 2.34315 565.657 1 564 1C562.343 1 561 2.34315 561 4C561 5.65685 562.343 7 564 7Z" fill="#484848"/>
<path opacity="0.6" d="M694 512C695.657 512 697 510.657 697 509C697 507.343 695.657 506 694 506C692.343 506 691 507.343 691 509C691 510.657 692.343 512 694 512Z" fill="#484848"/>
<path opacity="0.15" d="M708 1025C709.657 1025 711 1023.66 711 1022C711 1020.34 709.657 1019 708 1019C706.343 1019 705 1020.34 705 1022C705 1023.66 706.343 1025 708 1025Z" fill="#484848"/>
<path opacity="0.3" d="M1298.04 905C1299.7 905 1301.04 903.657 1301.04 902C1301.04 900.343 1299.7 899 1298.04 899C1296.38 899 1295.04 900.343 1295.04 902C1295.04 903.657 1296.38 905 1298.04 905Z" fill="#484848"/>
<path opacity="0.3" d="M1499.61 916.533C1500.39 917.997 1502.2 918.555 1503.67 917.779C1505.13 917.003 1505.69 915.187 1504.91 913.723C1504.13 912.259 1502.32 911.701 1500.86 912.477C1499.39 913.253 1498.83 915.069 1499.61 916.533Z" fill="#484848"/>
<path opacity="0.75" d="M1652.51 110C1654.17 110 1655.51 108.657 1655.51 107C1655.51 105.343 1654.17 104 1652.51 104C1650.85 104 1649.51 105.343 1649.51 107C1649.51 108.657 1650.85 110 1652.51 110Z" fill="#484848"/>
<path opacity="0.75" d="M87 370C88.6569 370 90 368.657 90 367C90 365.343 88.6569 364 87 364C85.3431 364 84 365.343 84 367C84 368.657 85.3431 370 87 370Z" fill="#484848"/>
<path opacity="0.75" d="M456 109C456.552 109 457 108.328 457 107.5C457 106.672 456.552 106 456 106C455.448 106 455 106.672 455 107.5C455 108.328 455.448 109 456 109Z" fill="#484848"/>
<path opacity="0.75" d="M778 422C778.552 422 779 421.328 779 420.5C779 419.672 778.552 419 778 419C777.448 419 777 419.672 777 420.5C777 421.328 777.448 422 778 422Z" fill="#484848"/>
<path opacity="0.3" d="M792 935C792.552 935 793 934.328 793 933.5C793 932.672 792.552 932 792 932C791.448 932 791 932.672 791 933.5C791 934.328 791.448 935 792 935Z" fill="#484848"/>
<path opacity="0.45" d="M1382.04 815C1382.59 815 1383.04 814.328 1383.04 813.5C1383.04 812.672 1382.59 812 1382.04 812C1381.49 812 1381.04 812.672 1381.04 813.5C1381.04 814.328 1381.49 815 1382.04 815Z" fill="#484848"/>
<path opacity="0.3" d="M1618.46 948.602C1618.72 949.09 1619.53 949.171 1620.26 948.783C1620.99 948.395 1621.37 947.685 1621.12 947.197C1620.86 946.709 1620.05 946.628 1619.32 947.015C1618.59 947.403 1618.21 948.114 1618.46 948.602Z" fill="#484848"/>
<path opacity="0.75" d="M1565 62C1565.55 62 1566 61.3284 1566 60.5C1566 59.6716 1565.55 59 1565 59C1564.45 59 1564 59.6716 1564 60.5C1564 61.3284 1564.45 62 1565 62Z" fill="#484848"/>
<path opacity="0.75" d="M171 280C171.552 280 172 279.328 172 278.5C172 277.672 171.552 277 171 277C170.448 277 170 277.672 170 278.5C170 279.328 170.448 280 171 280Z" fill="#484848"/>
<path opacity="0.75" d="M1182.51 218C1183.06 218 1183.51 217.328 1183.51 216.5C1183.51 215.672 1183.06 215 1182.51 215C1181.96 215 1181.51 215.672 1181.51 216.5C1181.51 217.328 1181.96 218 1182.51 218Z" fill="#484848"/>
<path opacity="0.75" d="M1146.51 431C1147.06 431 1147.51 430.328 1147.51 429.5C1147.51 428.672 1147.06 428 1146.51 428C1145.96 428 1145.51 428.672 1145.51 429.5C1145.51 430.328 1145.96 431 1146.51 431Z" fill="#484848"/>
<path opacity="0.3" d="M1160.51 944C1161.06 944 1161.51 943.328 1161.51 942.5C1161.51 941.672 1161.06 941 1160.51 941C1159.96 941 1159.51 941.672 1159.51 942.5C1159.51 943.328 1159.96 944 1160.51 944Z" fill="#484848"/>
<path opacity="0.6" d="M857.513 502C858.065 502 858.513 501.328 858.513 500.5C858.513 499.672 858.065 499 857.513 499C856.961 499 856.513 499.672 856.513 500.5C856.513 501.328 856.961 502 857.513 502Z" fill="#484848"/>
<path opacity="0.15" d="M871.513 1015C872.065 1015 872.513 1014.33 872.513 1013.5C872.513 1012.67 872.065 1012 871.513 1012C870.961 1012 870.513 1012.67 870.513 1013.5C870.513 1014.33 870.961 1015 871.513 1015Z" fill="#484848"/>
<path opacity="0.3" d="M1461.56 895C1462.11 895 1462.56 894.328 1462.56 893.5C1462.56 892.672 1462.11 892 1461.56 892C1461.01 892 1460.56 892.672 1460.56 893.5C1460.56 894.328 1461.01 895 1461.56 895Z" fill="#484848"/>
<path opacity="0.75" d="M1822.51 448C1823.06 448 1823.51 447.328 1823.51 446.5C1823.51 445.672 1823.06 445 1822.51 445C1821.96 445 1821.51 445.672 1821.51 446.5C1821.51 447.328 1821.96 448 1822.51 448Z" fill="#484848"/>
<path opacity="0.3" d="M1836.51 961C1837.06 961 1837.51 960.328 1837.51 959.5C1837.51 958.672 1837.06 958 1836.51 958C1835.96 958 1835.51 958.672 1835.51 959.5C1835.51 960.328 1835.96 961 1836.51 961Z" fill="#484848"/>
<path opacity="0.6" d="M1076.03 583.47C1076.36 583.913 1077.16 583.871 1077.83 583.376C1078.49 582.881 1078.76 582.121 1078.43 581.678C1078.1 581.235 1077.3 581.277 1076.63 581.772C1075.97 582.267 1075.7 583.028 1076.03 583.47Z" fill="#484848"/>
<path opacity="0.6" d="M2041.03 529.47C2041.36 529.913 2042.16 529.871 2042.83 529.376C2043.49 528.881 2043.76 528.121 2043.43 527.678C2043.1 527.235 2042.3 527.277 2041.63 527.772C2040.97 528.267 2040.7 529.028 2041.03 529.47Z" fill="#484848"/>
<path opacity="0.15" d="M2055.03 1042.47C2055.36 1042.91 2056.16 1042.87 2056.83 1042.37C2057.49 1041.88 2057.76 1041.12 2057.43 1040.67C2057.1 1040.23 2056.3 1040.27 2055.63 1040.77C2054.97 1041.26 2054.7 1042.02 2055.03 1042.47Z" fill="#484848"/>
<path opacity="0.75" d="M32 309C33.6569 309 35 307.657 35 306C35 304.343 33.6569 303 32 303C30.3431 303 29 304.343 29 306C29 307.657 30.3431 309 32 309Z" fill="#484848"/>
<path opacity="0.75" d="M580 350C581.657 350 583 348.657 583 347C583 345.343 581.657 344 580 344C578.343 344 577 345.343 577 347C577 348.657 578.343 350 580 350Z" fill="#484848"/>
<path opacity="0.75" d="M687.385 214.946C687.663 216.579 689.213 217.677 690.847 217.398C692.48 217.12 693.578 215.57 693.299 213.937C693.021 212.303 691.471 211.205 689.838 211.484C688.204 211.762 687.106 213.312 687.385 214.946Z" fill="#484848"/>
<path opacity="0.6" d="M551 673C552.657 673 554 671.657 554 670C554 668.343 552.657 667 551 667C549.343 667 548 668.343 548 670C548 671.657 549.343 673 551 673Z" fill="#484848"/>
<path opacity="0.45" d="M262 744C263.657 744 265 742.657 265 741C265 739.343 263.657 738 262 738C260.343 738 259 739.343 259 741C259 742.657 260.343 744 262 744Z" fill="#484848"/>
<path opacity="0.45" d="M1524.51 708C1526.17 708 1527.51 706.657 1527.51 705C1527.51 703.343 1526.17 702 1524.51 702C1522.85 702 1521.51 703.343 1521.51 705C1521.51 706.657 1522.85 708 1524.51 708Z" fill="#484848"/>
<path opacity="0.75" d="M122.5 284C123.328 284 124 283.328 124 282.5C124 281.672 123.328 281 122.5 281C121.672 281 121 281.672 121 282.5C121 283.328 121.672 284 122.5 284Z" fill="#484848"/>
<path opacity="0.75" d="M849.013 393C849.841 393 850.513 392.328 850.513 391.5C850.513 390.672 849.841 390 849.013 390C848.185 390 847.513 390.672 847.513 391.5C847.513 392.328 848.185 393 849.013 393Z" fill="#484848"/>
<path opacity="0.75" d="M1814.01 339C1814.84 339 1815.51 338.328 1815.51 337.5C1815.51 336.672 1814.84 336 1814.01 336C1813.18 336 1812.51 336.672 1812.51 337.5C1812.51 338.328 1813.18 339 1814.01 339Z" fill="#484848"/>
<path opacity="0.6" d="M813.013 606C813.841 606 814.513 605.328 814.513 604.5C814.513 603.672 813.841 603 813.013 603C812.185 603 811.513 603.672 811.513 604.5C811.513 605.328 812.185 606 813.013 606Z" fill="#484848"/>
<path opacity="0.15" d="M1417.06 999C1417.89 999 1418.56 998.328 1418.56 997.5C1418.56 996.672 1417.89 996 1417.06 996C1416.23 996 1415.56 996.672 1415.56 997.5C1415.56 998.328 1416.23 999 1417.06 999Z" fill="#484848"/>
<path opacity="0.6" d="M1778.01 552C1778.84 552 1779.51 551.328 1779.51 550.5C1779.51 549.672 1778.84 549 1778.01 549C1777.18 549 1776.51 549.672 1776.51 550.5C1776.51 551.328 1777.18 552 1778.01 552Z" fill="#484848"/>
<path opacity="0.45" d="M352.5 719C353.328 719 354 718.328 354 717.5C354 716.672 353.328 716 352.5 716C351.672 716 351 716.672 351 717.5C351 718.328 351.672 719 352.5 719Z" fill="#484848"/>
<path opacity="0.6" d="M544.5 527C545.328 527 546 526.328 546 525.5C546 524.672 545.328 524 544.5 524C543.672 524 543 524.672 543 525.5C543 526.328 543.672 527 544.5 527Z" fill="#484848"/>
<path opacity="0.15" d="M558.5 1040C559.328 1040 560 1039.33 560 1038.5C560 1037.67 559.328 1037 558.5 1037C557.672 1037 557 1037.67 557 1038.5C557 1039.33 557.672 1040 558.5 1040Z" fill="#484848"/>
<path opacity="0.15" d="M674.5 1032C675.328 1032 676 1031.33 676 1030.5C676 1029.67 675.328 1029 674.5 1029C673.672 1029 673 1029.67 673 1030.5C673 1031.33 673.672 1032 674.5 1032Z" fill="#484848"/>
<path opacity="0.3" d="M1264.54 912C1265.37 912 1266.04 911.328 1266.04 910.5C1266.04 909.672 1265.37 909 1264.54 909C1263.71 909 1263.04 909.672 1263.04 910.5C1263.04 911.328 1263.71 912 1264.54 912Z" fill="#484848"/>
<path opacity="0.45" d="M1615.01 683C1615.84 683 1616.51 682.328 1616.51 681.5C1616.51 680.672 1615.84 680 1615.01 680C1614.18 680 1613.51 680.672 1613.51 681.5C1613.51 682.328 1614.18 683 1615.01 683Z" fill="#484848"/>
<path opacity="0.3" d="M67.5 890C68.3284 890 69 889.328 69 888.5C69 887.672 68.3284 887 67.5 887C66.6716 887 66 887.672 66 888.5C66 889.328 66.6716 890 67.5 890Z" fill="#484848"/>
<path opacity="0.75" d="M564.915 462.62C565.41 463.285 566.35 463.422 567.014 462.927C567.679 462.432 567.816 461.492 567.321 460.828C566.826 460.164 565.886 460.026 565.222 460.521C564.558 461.016 564.42 461.956 564.915 462.62Z" fill="#484848"/>
<path opacity="0.15" d="M578.915 975.62C579.41 976.285 580.35 976.422 581.014 975.927C581.679 975.432 581.816 974.492 581.321 973.828C580.826 973.164 579.886 973.026 579.222 973.521C578.558 974.016 578.42 974.956 578.915 975.62Z" fill="#484848"/>
<path opacity="0.75" d="M304 6C305.657 6 307 4.65685 307 3C307 1.34315 305.657 0 304 0C302.343 0 301 1.34315 301 3C301 4.65685 302.343 6 304 6Z" fill="#484848"/>
<path opacity="0.75" d="M19 177C20.6569 177 22 175.657 22 174C22 172.343 20.6569 171 19 171C17.3431 171 16 172.343 16 174C16 175.657 17.3431 177 19 177Z" fill="#484848"/>
<path opacity="0.75" d="M1030.51 115C1032.17 115 1033.51 113.657 1033.51 112C1033.51 110.343 1032.17 109 1030.51 109C1028.85 109 1027.51 110.343 1027.51 112C1027.51 113.657 1028.85 115 1030.51 115Z" fill="#484848"/>
<path opacity="0.75" d="M1995.51 61C1997.17 61 1998.51 59.6569 1998.51 58C1998.51 56.3431 1997.17 55 1995.51 55C1993.85 55 1992.51 56.3431 1992.51 58C1992.51 59.6569 1993.85 61 1995.51 61Z" fill="#484848"/>
<path opacity="0.75" d="M994.513 328C996.17 328 997.513 326.657 997.513 325C997.513 323.343 996.17 322 994.513 322C992.856 322 991.513 323.343 991.513 325C991.513 326.657 992.856 328 994.513 328Z" fill="#484848"/>
<path opacity="0.75" d="M1959.51 274C1961.17 274 1962.51 272.657 1962.51 271C1962.51 269.343 1961.17 268 1959.51 268C1957.85 268 1956.51 269.343 1956.51 271C1956.51 272.657 1957.85 274 1959.51 274Z" fill="#484848"/>
<path opacity="0.75" d="M906.513 270C908.17 270 909.513 268.657 909.513 267C909.513 265.343 908.17 264 906.513 264C904.856 264 903.513 265.343 903.513 267C903.513 268.657 904.856 270 906.513 270Z" fill="#484848"/>
<path opacity="0.75" d="M1871.51 216C1873.17 216 1874.51 214.657 1874.51 213C1874.51 211.343 1873.17 210 1871.51 210C1869.85 210 1868.51 211.343 1868.51 213C1868.51 214.657 1869.85 216 1871.51 216Z" fill="#484848"/>
<path opacity="0.75" d="M1067.79 400.044C1068.78 401.373 1070.66 401.647 1071.99 400.657C1073.32 399.667 1073.6 397.788 1072.61 396.459C1071.62 395.131 1069.74 394.856 1068.41 395.846C1067.08 396.836 1066.8 398.716 1067.79 400.044Z" fill="#484848"/>
<path opacity="0.75" d="M2032.79 346.044C2033.78 347.373 2035.66 347.647 2036.99 346.657C2038.32 345.667 2038.6 343.788 2037.61 342.459C2036.62 341.131 2034.74 340.856 2033.41 341.846C2032.08 342.836 2031.8 344.716 2032.79 346.044Z" fill="#484848"/>
<path opacity="0.75" d="M354 27C354.552 27 355 26.3284 355 25.5C355 24.6716 354.552 24 354 24C353.448 24 353 24.6716 353 25.5C353 26.3284 353.448 27 354 27Z" fill="#484848"/>
<path opacity="0.75" d="M69 198C69.5523 198 70 197.328 70 196.5C70 195.672 69.5523 195 69 195C68.4477 195 68 195.672 68 196.5C68 197.328 68.4477 198 69 198Z" fill="#484848"/>
<path opacity="0.75" d="M1080.51 136C1081.06 136 1081.51 135.328 1081.51 134.5C1081.51 133.672 1081.06 133 1080.51 133C1079.96 133 1079.51 133.672 1079.51 134.5C1079.51 135.328 1079.96 136 1080.51 136Z" fill="#484848"/>
<path opacity="0.75" d="M2045.51 82C2046.06 82 2046.51 81.3284 2046.51 80.5C2046.51 79.6716 2046.06 79 2045.51 79C2044.96 79 2044.51 79.6716 2044.51 80.5C2044.51 81.3284 2044.96 82 2045.51 82Z" fill="#484848"/>
<path opacity="0.75" d="M1044.51 349C1045.06 349 1045.51 348.328 1045.51 347.5C1045.51 346.672 1045.06 346 1044.51 346C1043.96 346 1043.51 346.672 1043.51 347.5C1043.51 348.328 1043.96 349 1044.51 349Z" fill="#484848"/>
<path opacity="0.75" d="M2009.51 295C2010.06 295 2010.51 294.328 2010.51 293.5C2010.51 292.672 2010.06 292 2009.51 292C2008.96 292 2008.51 292.672 2008.51 293.5C2008.51 294.328 2008.96 295 2009.51 295Z" fill="#484848"/>
<path opacity="0.75" d="M796.513 383C797.065 383 797.513 382.328 797.513 381.5C797.513 380.672 797.065 380 796.513 380C795.961 380 795.513 380.672 795.513 381.5C795.513 382.328 795.961 383 796.513 383Z" fill="#484848"/>
<path opacity="0.75" d="M1761.51 329C1762.06 329 1762.51 328.328 1762.51 327.5C1762.51 326.672 1762.06 326 1761.51 326C1760.96 326 1760.51 326.672 1760.51 327.5C1760.51 328.328 1760.96 329 1761.51 329Z" fill="#484848"/>
<path opacity="0.75" d="M1080.83 452.685C1081.16 453.128 1081.96 453.086 1082.63 452.591C1083.29 452.096 1083.56 451.336 1083.23 450.893C1082.9 450.45 1082.1 450.492 1081.43 450.987C1080.77 451.482 1080.5 452.242 1080.83 452.685Z" fill="#484848"/>
<path opacity="0.3" d="M1094.83 965.685C1095.16 966.128 1095.96 966.086 1096.63 965.591C1097.29 965.096 1097.56 964.336 1097.23 963.893C1096.9 963.45 1096.1 963.492 1095.43 963.987C1094.77 964.482 1094.5 965.242 1094.83 965.685Z" fill="#484848"/>
<path opacity="0.75" d="M2045.83 398.685C2046.16 399.128 2046.96 399.086 2047.63 398.591C2048.29 398.096 2048.56 397.336 2048.23 396.893C2047.9 396.45 2047.1 396.492 2046.43 396.987C2045.77 397.482 2045.5 398.242 2045.83 398.685Z" fill="#484848"/>
<path opacity="0.75" d="M441 471C442.657 471 444 469.657 444 468C444 466.343 442.657 465 441 465C439.343 465 438 466.343 438 468C438 469.657 439.343 471 441 471Z" fill="#484848"/>
<path opacity="0.15" d="M455 984C456.657 984 458 982.657 458 981C458 979.343 456.657 978 455 978C453.343 978 452 979.343 452 981C452 982.657 453.343 984 455 984Z" fill="#484848"/>
<path opacity="0.75" d="M633 279C634.657 279 636 277.657 636 276C636 274.343 634.657 273 633 273C631.343 273 630 274.343 630 276C630 277.657 631.343 279 633 279Z" fill="#484848"/>
<path opacity="0.75" d="M766.286 255.251C766.564 256.885 768.114 257.983 769.747 257.704C771.381 257.426 772.479 255.876 772.2 254.242C771.922 252.609 770.372 251.511 768.739 251.79C767.105 252.068 766.007 253.618 766.286 255.251Z" fill="#484848"/>
<path opacity="0.45" d="M763 784C764.657 784 766 782.657 766 781C766 779.343 764.657 778 763 778C761.343 778 760 779.343 760 781C760 782.657 761.343 784 763 784Z" fill="#484848"/>
<path opacity="0.3" d="M1738.3 852.261C1739.08 853.725 1740.89 854.283 1742.35 853.507C1743.82 852.731 1744.38 850.915 1743.6 849.451C1742.82 847.987 1741.01 847.429 1739.55 848.205C1738.08 848.981 1737.52 850.797 1738.3 852.261Z" fill="#484848"/>
<path opacity="0.75" d="M1721.51 382C1723.17 382 1724.51 380.657 1724.51 379C1724.51 377.343 1723.17 376 1721.51 376C1719.85 376 1718.51 377.343 1718.51 379C1718.51 380.657 1719.85 382 1721.51 382Z" fill="#484848"/>
<path opacity="0.6" d="M156 642C157.657 642 159 640.657 159 639C159 637.343 157.657 636 156 636C154.343 636 153 637.343 153 639C153 640.657 154.343 642 156 642Z" fill="#484848"/>
<path opacity="0.6" d="M1149.51 633C1151.17 633 1152.51 631.657 1152.51 630C1152.51 628.343 1151.17 627 1149.51 627C1147.85 627 1146.51 628.343 1146.51 630C1146.51 631.657 1147.85 633 1149.51 633Z" fill="#484848"/>
<path opacity="0.45" d="M1131.51 793C1133.17 793 1134.51 791.657 1134.51 790C1134.51 788.343 1133.17 787 1131.51 787C1129.85 787 1128.51 788.343 1128.51 790C1128.51 791.657 1129.85 793 1131.51 793Z" fill="#484848"/>
<path opacity="0.45" d="M2096.51 739C2098.17 739 2099.51 737.657 2099.51 736C2099.51 734.343 2098.17 733 2096.51 733C2094.85 733 2093.51 734.343 2093.51 736C2093.51 737.657 2094.85 739 2096.51 739Z" fill="#484848"/>
<path opacity="0.3" d="M842.513 864C844.17 864 845.513 862.657 845.513 861C845.513 859.343 844.17 858 842.513 858C840.856 858 839.513 859.343 839.513 861C839.513 862.657 840.856 864 842.513 864Z" fill="#484848"/>
<path opacity="0.45" d="M1432.56 744C1434.22 744 1435.56 742.657 1435.56 741C1435.56 739.343 1434.22 738 1432.56 738C1430.9 738 1429.56 739.343 1429.56 741C1429.56 742.657 1430.9 744 1432.56 744Z" fill="#484848"/>
<path opacity="0.3" d="M1704.86 959.981C1705.64 961.445 1707.45 962.003 1708.92 961.227C1710.38 960.451 1710.94 958.635 1710.16 957.171C1709.38 955.707 1707.57 955.149 1706.11 955.925C1704.64 956.701 1704.08 958.517 1704.86 959.981Z" fill="#484848"/>
<path opacity="0.45" d="M1807.51 810C1809.17 810 1810.51 808.657 1810.51 807C1810.51 805.343 1809.17 804 1807.51 804C1805.85 804 1804.51 805.343 1804.51 807C1804.51 808.657 1805.85 810 1807.51 810Z" fill="#484848"/>
<path opacity="0.45" d="M776.793 787.747C777.783 789.075 779.662 789.35 780.991 788.36C782.319 787.37 782.594 785.49 781.604 784.161C780.614 782.833 778.734 782.558 777.405 783.548C776.077 784.538 775.802 786.418 776.793 787.747Z" fill="#484848"/>
<path opacity="0.3" d="M1741.45 866.202C1740.74 867.699 1741.38 869.488 1742.87 870.198C1744.37 870.909 1746.16 870.271 1746.87 868.774C1747.58 867.277 1746.94 865.488 1745.45 864.778C1743.95 864.067 1742.16 864.705 1741.45 866.202Z" fill="#484848"/>
<path opacity="0.45" d="M1741.79 733.747C1742.78 735.075 1744.66 735.35 1745.99 734.36C1747.32 733.37 1747.6 731.49 1746.61 730.161C1745.62 728.833 1743.74 728.558 1742.41 729.548C1741.08 730.538 1740.8 732.418 1741.79 733.747Z" fill="#484848"/>
<path opacity="0.75" d="M470.5 422C471.328 422 472 421.552 472 421C472 420.448 471.328 420 470.5 420C469.672 420 469 420.448 469 421C469 421.552 469.672 422 470.5 422Z" fill="#484848"/>
<path opacity="0.3" d="M484.5 935C485.328 935 486 934.552 486 934C486 933.448 485.328 933 484.5 933C483.672 933 483 933.448 483 934C483 934.552 483.672 935 484.5 935Z" fill="#484848"/>
<path opacity="0.75" d="M1751.01 333C1751.84 333 1752.51 332.552 1752.51 332C1752.51 331.448 1751.84 331 1751.01 331C1750.18 331 1749.51 331.448 1749.51 332C1749.51 332.552 1750.18 333 1751.01 333Z" fill="#484848"/>
<path opacity="0.6" d="M185.5 593C186.328 593 187 592.552 187 592C187 591.448 186.328 591 185.5 591C184.672 591 184 591.448 184 592C184 592.552 184.672 593 185.5 593Z" fill="#484848"/>
<path opacity="0.6" d="M1179.01 584C1179.84 584 1180.51 583.552 1180.51 583C1180.51 582.448 1179.84 582 1179.01 582C1178.18 582 1177.51 582.448 1177.51 583C1177.51 583.552 1178.18 584 1179.01 584Z" fill="#484848"/>
<path opacity="0.45" d="M1143.01 797C1143.84 797 1144.51 796.552 1144.51 796C1144.51 795.448 1143.84 795 1143.01 795C1142.18 795 1141.51 795.448 1141.51 796C1141.51 796.552 1142.18 797 1143.01 797Z" fill="#484848"/>
<path opacity="0.45" d="M872.013 815C872.841 815 873.513 814.552 873.513 814C873.513 813.448 872.841 813 872.013 813C871.185 813 870.513 813.448 870.513 814C870.513 814.552 871.185 815 872.013 815Z" fill="#484848"/>
<path opacity="0.3" d="M1761.97 963.097C1762.35 963.829 1763.06 964.213 1763.55 963.954C1764.04 963.696 1764.12 962.893 1763.73 962.161C1763.35 961.429 1762.64 961.045 1762.15 961.304C1761.66 961.562 1761.58 962.365 1761.97 963.097Z" fill="#484848"/>
<path opacity="0.45" d="M1837.01 761C1837.84 761 1838.51 760.552 1838.51 760C1838.51 759.448 1837.84 759 1837.01 759C1836.18 759 1835.51 759.448 1835.51 760C1835.51 760.552 1836.18 761 1837.01 761Z" fill="#484848"/>
<path opacity="0.45" d="M833.71 782.122C834.205 782.787 834.965 783.058 835.408 782.728C835.851 782.398 835.809 781.592 835.314 780.927C834.819 780.263 834.058 779.992 833.616 780.322C833.173 780.652 833.215 781.458 833.71 782.122Z" fill="#484848"/>
<path opacity="0.3" d="M1773.08 913.858C1772.72 914.607 1772.84 915.405 1773.34 915.642C1773.84 915.879 1774.53 915.464 1774.88 914.716C1775.24 913.967 1775.12 913.168 1774.62 912.932C1774.12 912.695 1773.43 913.11 1773.08 913.858Z" fill="#484848"/>
<path opacity="0.45" d="M1798.71 728.122C1799.2 728.787 1799.96 729.058 1800.41 728.728C1800.85 728.398 1800.81 727.592 1800.31 726.927C1799.82 726.263 1799.06 725.992 1798.61 726.322C1798.17 726.652 1798.21 727.458 1798.71 728.122Z" fill="#484848"/>
<path opacity="0.75" d="M246 370C247.657 370 249 368.657 249 367C249 365.343 247.657 364 246 364C244.343 364 243 365.343 243 367C243 368.657 244.343 370 246 370Z" fill="#484848"/>
<path opacity="0.75" d="M1526.51 281C1528.17 281 1529.51 279.657 1529.51 278C1529.51 276.343 1528.17 275 1526.51 275C1524.85 275 1523.51 276.343 1523.51 278C1523.51 279.657 1524.85 281 1526.51 281Z" fill="#484848"/>
<path opacity="0.75" d="M972.513 479C974.17 479 975.513 477.657 975.513 476C975.513 474.343 974.17 473 972.513 473C970.856 473 969.513 474.343 969.513 476C969.513 477.657 970.856 479 972.513 479Z" fill="#484848"/>
<path opacity="0.15" d="M986.513 992C988.17 992 989.513 990.657 989.513 989C989.513 987.343 988.17 986 986.513 986C984.856 986 983.513 987.343 983.513 989C983.513 990.657 984.856 992 986.513 992Z" fill="#484848"/>
<path opacity="0.3" d="M1576.56 872C1578.22 872 1579.56 870.657 1579.56 869C1579.56 867.343 1578.22 866 1576.56 866C1574.9 866 1573.56 867.343 1573.56 869C1573.56 870.657 1574.9 872 1576.56 872Z" fill="#484848"/>
<path opacity="0.75" d="M1937.51 425C1939.17 425 1940.51 423.657 1940.51 422C1940.51 420.343 1939.17 419 1937.51 419C1935.85 419 1934.51 420.343 1934.51 422C1934.51 423.657 1935.85 425 1937.51 425Z" fill="#484848"/>
<path opacity="0.3" d="M1951.51 938C1953.17 938 1954.51 936.657 1954.51 935C1954.51 933.343 1953.17 932 1951.51 932C1949.85 932 1948.51 933.343 1948.51 935C1948.51 936.657 1949.85 938 1951.51 938Z" fill="#484848"/>
<path opacity="0.45" d="M936.513 692C938.17 692 939.513 690.657 939.513 689C939.513 687.343 938.17 686 936.513 686C934.856 686 933.513 687.343 933.513 689C933.513 690.657 934.856 692 936.513 692Z" fill="#484848"/>
<path opacity="0.6" d="M1901.51 638C1903.17 638 1904.51 636.657 1904.51 635C1904.51 633.343 1903.17 632 1901.51 632C1899.85 632 1898.51 633.343 1898.51 635C1898.51 636.657 1899.85 638 1901.51 638Z" fill="#484848"/>
<path opacity="0.45" d="M476 805C477.657 805 479 803.657 479 802C479 800.343 477.657 799 476 799C474.343 799 473 800.343 473 802C473 803.657 474.343 805 476 805Z" fill="#484848"/>
<path opacity="0.45" d="M1738.51 769C1740.17 769 1741.51 767.657 1741.51 766C1741.51 764.343 1740.17 763 1738.51 763C1736.85 763 1735.51 764.343 1735.51 766C1735.51 767.657 1736.85 769 1738.51 769Z" fill="#484848"/>
<path opacity="0.15" d="M191 976C192.657 976 194 974.657 194 973C194 971.343 192.657 970 191 970C189.343 970 188 971.343 188 973C188 974.657 189.343 976 191 976Z" fill="#484848"/>
<path opacity="0.6" d="M569.75 613.036C570.74 614.364 572.619 614.639 573.948 613.649C575.276 612.659 575.551 610.779 574.561 609.45C573.571 608.122 571.691 607.847 570.363 608.837C569.034 609.828 568.76 611.707 569.75 613.036Z" fill="#484848"/>
<path opacity="0.15" d="M1173.79 1006.03C1174.78 1007.36 1176.66 1007.64 1177.99 1006.65C1179.32 1005.66 1179.6 1003.78 1178.61 1002.45C1177.62 1001.12 1175.74 1000.84 1174.41 1001.83C1173.08 1002.82 1172.8 1004.7 1173.79 1006.03Z" fill="#484848"/>
<path opacity="0.75" d="M305 337C305.552 337 306 336.328 306 335.5C306 334.672 305.552 334 305 334C304.448 334 304 334.672 304 335.5C304 336.328 304.448 337 305 337Z" fill="#484848"/>
<path opacity="0.75" d="M1585.51 248C1586.06 248 1586.51 247.328 1586.51 246.5C1586.51 245.672 1586.06 245 1585.51 245C1584.96 245 1584.51 245.672 1584.51 246.5C1584.51 247.328 1584.96 248 1585.51 248Z" fill="#484848"/>
<path opacity="0.6" d="M20 508C20.5523 508 21 507.328 21 506.5C21 505.672 20.5523 505 20 505C19.4477 505 19 505.672 19 506.5C19 507.328 19.4477 508 20 508Z" fill="#484848"/>
<path opacity="0.15" d="M34 1021C34.5523 1021 35 1020.33 35 1019.5C35 1018.67 34.5523 1018 34 1018C33.4477 1018 33 1018.67 33 1019.5C33 1020.33 33.4477 1021 34 1021Z" fill="#484848"/>
<path opacity="0.75" d="M1031.51 446C1032.06 446 1032.51 445.328 1032.51 444.5C1032.51 443.672 1032.06 443 1031.51 443C1030.96 443 1030.51 443.672 1030.51 444.5C1030.51 445.328 1030.96 446 1031.51 446Z" fill="#484848"/>
<path opacity="0.3" d="M1045.51 959C1046.06 959 1046.51 958.328 1046.51 957.5C1046.51 956.672 1046.06 956 1045.51 956C1044.96 956 1044.51 956.672 1044.51 957.5C1044.51 958.328 1044.96 959 1045.51 959Z" fill="#484848"/>
<path opacity="0.75" d="M1996.51 392C1997.06 392 1997.51 391.328 1997.51 390.5C1997.51 389.672 1997.06 389 1996.51 389C1995.96 389 1995.51 389.672 1995.51 390.5C1995.51 391.328 1995.96 392 1996.51 392Z" fill="#484848"/>
<path opacity="0.6" d="M995.513 659C996.065 659 996.513 658.328 996.513 657.5C996.513 656.672 996.065 656 995.513 656C994.961 656 994.513 656.672 994.513 657.5C994.513 658.328 994.961 659 995.513 659Z" fill="#484848"/>
<path opacity="0.6" d="M1960.51 605C1961.06 605 1961.51 604.328 1961.51 603.5C1961.51 602.672 1961.06 602 1960.51 602C1959.96 602 1959.51 602.672 1959.51 603.5C1959.51 604.328 1959.96 605 1960.51 605Z" fill="#484848"/>
<path opacity="0.45" d="M535 772C535.552 772 536 771.328 536 770.5C536 769.672 535.552 769 535 769C534.448 769 534 769.672 534 770.5C534 771.328 534.448 772 535 772Z" fill="#484848"/>
<path opacity="0.6" d="M802.977 598.626C803.307 599.069 804.113 599.027 804.777 598.532C805.442 598.037 805.713 597.276 805.383 596.834C805.053 596.391 804.247 596.433 803.582 596.928C802.918 597.423 802.647 598.183 802.977 598.626Z" fill="#484848"/>
<path opacity="0.15" d="M1407.02 991.626C1407.35 992.069 1408.15 992.027 1408.82 991.532C1409.48 991.037 1409.75 990.276 1409.42 989.834C1409.09 989.391 1408.29 989.433 1407.62 989.928C1406.96 990.423 1406.69 991.183 1407.02 991.626Z" fill="#484848"/>
<path opacity="0.6" d="M1767.98 544.626C1768.31 545.069 1769.11 545.027 1769.78 544.532C1770.44 544.037 1770.71 543.277 1770.38 542.834C1770.05 542.391 1769.25 542.433 1768.58 542.928C1767.92 543.423 1767.65 544.184 1767.98 544.626Z" fill="#484848"/>
<path opacity="0.6" d="M137 536C138.657 536 140 534.657 140 533C140 531.343 138.657 530 137 530C135.343 530 134 531.343 134 533C134 534.657 135.343 536 137 536Z" fill="#484848"/>
<path opacity="0.15" d="M151 1049C152.657 1049 154 1047.66 154 1046C154 1044.34 152.657 1043 151 1043C149.343 1043 148 1044.34 148 1046C148 1047.66 149.343 1049 151 1049Z" fill="#484848"/>
<path opacity="0.6" d="M68 605C69.6569 605 71 603.657 71 602C71 600.343 69.6569 599 68 599C66.3431 599 65 600.343 65 602C65 603.657 66.3431 605 68 605Z" fill="#484848"/>
<path opacity="0.75" d="M211.5 478C212.328 478 213 477.328 213 476.5C213 475.672 212.328 475 211.5 475C210.672 475 210 475.672 210 476.5C210 477.328 210.672 478 211.5 478Z" fill="#484848"/>
<path opacity="0.15" d="M225.5 991C226.328 991 227 990.328 227 989.5C227 988.672 226.328 988 225.5 988C224.672 988 224 988.672 224 989.5C224 990.328 224.672 991 225.5 991Z" fill="#484848"/>
<path opacity="0.75" d="M1492.01 389C1492.84 389 1493.51 388.328 1493.51 387.5C1493.51 386.672 1492.84 386 1492.01 386C1491.18 386 1490.51 386.672 1490.51 387.5C1490.51 388.328 1491.18 389 1492.01 389Z" fill="#484848"/>
<path opacity="0.6" d="M290 599C291.657 599 293 597.657 293 596C293 594.343 291.657 593 290 593C288.343 593 287 594.343 287 596C287 597.657 288.343 599 290 599Z" fill="#484848"/>
<path opacity="0.6" d="M1552.51 563C1554.17 563 1555.51 561.657 1555.51 560C1555.51 558.343 1554.17 557 1552.51 557C1550.85 557 1549.51 558.343 1549.51 560C1549.51 561.657 1550.85 563 1552.51 563Z" fill="#484848"/>
<path opacity="0.45" d="M5 770C6.65685 770 8 768.657 8 767C8 765.343 6.65685 764 5 764C3.34315 764 2 765.343 2 767C2 768.657 3.34315 770 5 770Z" fill="#484848"/>
<path opacity="0.6" d="M342.5 531C343.328 531 344 530.328 344 529.5C344 528.672 343.328 528 342.5 528C341.672 528 341 528.672 341 529.5C341 530.328 341.672 531 342.5 531Z" fill="#484848"/>
<path opacity="0.15" d="M356.5 1044C357.328 1044 358 1043.33 358 1042.5C358 1041.67 357.328 1041 356.5 1041C355.672 1041 355 1041.67 355 1042.5C355 1043.33 355.672 1044 356.5 1044Z" fill="#484848"/>
<path opacity="0.75" d="M534.5 339C535.328 339 536 338.328 536 337.5C536 336.672 535.328 336 534.5 336C533.672 336 533 336.672 533 337.5C533 338.328 533.672 339 534.5 339Z" fill="#484848"/>
<path opacity="0.75" d="M690.576 168.244C690.716 169.061 691.49 169.61 692.307 169.471C693.124 169.331 693.673 168.556 693.533 167.74C693.394 166.923 692.619 166.374 691.803 166.513C690.986 166.653 690.437 167.428 690.576 168.244Z" fill="#484848"/>
<path opacity="0.3" d="M664.5 844C665.328 844 666 843.328 666 842.5C666 841.672 665.328 841 664.5 841C663.672 841 663 841.672 663 842.5C663 843.328 663.672 844 664.5 844Z" fill="#484848"/>
<path opacity="0.45" d="M1254.54 724C1255.37 724 1256.04 723.328 1256.04 722.5C1256.04 721.672 1255.37 721 1254.54 721C1253.71 721 1253.04 721.672 1253.04 722.5C1253.04 723.328 1253.71 724 1254.54 724Z" fill="#484848"/>
<path opacity="0.6" d="M1605.01 495C1605.84 495 1606.51 494.328 1606.51 493.5C1606.51 492.672 1605.84 492 1605.01 492C1604.18 492 1603.51 492.672 1603.51 493.5C1603.51 494.328 1604.18 495 1605.01 495Z" fill="#484848"/>
<path opacity="0.15" d="M1619.01 1008C1619.84 1008 1620.51 1007.33 1620.51 1006.5C1620.51 1005.67 1619.84 1005 1619.01 1005C1618.18 1005 1617.51 1005.67 1617.51 1006.5C1617.51 1007.33 1618.18 1008 1619.01 1008Z" fill="#484848"/>
<path opacity="0.45" d="M57.5 702C58.3284 702 59 701.328 59 700.5C59 699.672 58.3284 699 57.5 699C56.6716 699 56 699.672 56 700.5C56 701.328 56.6716 702 57.5 702Z" fill="#484848"/>
<path opacity="0.3" d="M266 846C267.657 846 269 844.657 269 843C269 841.343 267.657 840 266 840C264.343 840 263 841.343 263 843C263 844.657 264.343 846 266 846Z" fill="#484848"/>
<path opacity="0.45" d="M1528.51 810C1530.17 810 1531.51 808.657 1531.51 807C1531.51 805.343 1530.17 804 1528.51 804C1526.85 804 1525.51 805.343 1525.51 807C1525.51 808.657 1526.85 810 1528.51 810Z" fill="#484848"/>
<path opacity="0.45" d="M321.5 742C322.328 742 323 741.328 323 740.5C323 739.672 322.328 739 321.5 739C320.672 739 320 739.672 320 740.5C320 741.328 320.672 742 321.5 742Z" fill="#484848"/>
<path opacity="0.6" d="M513.5 550C514.328 550 515 549.328 515 548.5C515 547.672 514.328 547 513.5 547C512.672 547 512 547.672 512 548.5C512 549.328 512.672 550 513.5 550Z" fill="#484848"/>
<path opacity="0.3" d="M1233.54 935C1234.37 935 1235.04 934.328 1235.04 933.5C1235.04 932.672 1234.37 932 1233.54 932C1232.71 932 1232.04 932.672 1232.04 933.5C1232.04 934.328 1232.71 935 1233.54 935Z" fill="#484848"/>
<path opacity="0.45" d="M1584.01 706C1584.84 706 1585.51 705.328 1585.51 704.5C1585.51 703.672 1584.84 703 1584.01 703C1583.18 703 1582.51 703.672 1582.51 704.5C1582.51 705.328 1583.18 706 1584.01 706Z" fill="#484848"/>
<path opacity="0.3" d="M36.5 913C37.3284 913 38 912.328 38 911.5C38 910.672 37.3284 910 36.5 910C35.6716 910 35 910.672 35 911.5C35 912.328 35.6716 913 36.5 913Z" fill="#484848"/>
<path opacity="0.75" d="M207 146C208.657 146 210 144.657 210 143C210 141.343 208.657 140 207 140C205.343 140 204 141.343 204 143C204 144.657 205.343 146 207 146Z" fill="#484848"/>
<path opacity="0.75" d="M1487.51 57C1489.17 57 1490.51 55.6569 1490.51 54C1490.51 52.3431 1489.17 51 1487.51 51C1485.85 51 1484.51 52.3431 1484.51 54C1484.51 55.6569 1485.85 57 1487.51 57Z" fill="#484848"/>
<path opacity="0.6" d="M273.5 650C274.328 650 275 649.328 275 648.5C275 647.672 274.328 647 273.5 647C272.672 647 272 647.672 272 648.5C272 649.328 272.672 650 273.5 650Z" fill="#484848"/>
<path opacity="0.6" d="M1536.01 614C1536.84 614 1537.51 613.328 1537.51 612.5C1537.51 611.672 1536.84 611 1536.01 611C1535.18 611 1534.51 611.672 1534.51 612.5C1534.51 613.328 1535.18 614 1536.01 614Z" fill="#484848"/>
<path opacity="0.6" d="M161.5 649C162.328 649 163 648.328 163 647.5C163 646.672 162.328 646 161.5 646C160.672 646 160 646.672 160 647.5C160 648.328 160.672 649 161.5 649Z" fill="#484848"/>
<path opacity="0.6" d="M1424.01 613C1424.84 613 1425.51 612.328 1425.51 611.5C1425.51 610.672 1424.84 610 1424.01 610C1423.18 610 1422.51 610.672 1422.51 611.5C1422.51 612.328 1423.18 613 1424.01 613Z" fill="#484848"/>
<path opacity="0.75" d="M1120.51 60C1122.17 60 1123.51 58.6569 1123.51 57C1123.51 55.3431 1122.17 54 1120.51 54C1118.85 54 1117.51 55.3431 1117.51 57C1117.51 58.6569 1118.85 60 1120.51 60Z" fill="#484848"/>
<path opacity="0.75" d="M2085.51 6C2087.17 6 2088.51 4.65685 2088.51 3C2088.51 1.34315 2087.17 0 2085.51 0C2083.85 0 2082.51 1.34315 2082.51 3C2082.51 4.65685 2083.85 6 2085.51 6Z" fill="#484848"/>
<path opacity="0.75" d="M1075.01 66C1075.84 66 1076.51 65.3284 1076.51 64.5C1076.51 63.6716 1075.84 63 1075.01 63C1074.18 63 1073.51 63.6716 1073.51 64.5C1073.51 65.3284 1074.18 66 1075.01 66Z" fill="#484848"/>
<path opacity="0.75" d="M2040.01 12C2040.84 12 2041.51 11.3284 2041.51 10.5C2041.51 9.67157 2040.84 9 2040.01 9C2039.18 9 2038.51 9.67157 2038.51 10.5C2038.51 11.3284 2039.18 12 2040.01 12Z" fill="#484848"/>
<path opacity="0.75" d="M1438.51 474C1440.17 474 1441.51 472.657 1441.51 471C1441.51 469.343 1440.17 468 1438.51 468C1436.85 468 1435.51 469.343 1435.51 471C1435.51 472.657 1436.85 474 1438.51 474Z" fill="#484848"/>
<path opacity="0.15" d="M1452.51 987C1454.17 987 1455.51 985.657 1455.51 984C1455.51 982.343 1454.17 981 1452.51 981C1450.85 981 1449.51 982.343 1449.51 984C1449.51 985.657 1450.85 987 1452.51 987Z" fill="#484848"/>
<path opacity="0.75" d="M1360.51 374C1361.06 374 1361.51 373.328 1361.51 372.5C1361.51 371.672 1361.06 371 1360.51 371C1359.96 371 1359.51 371.672 1359.51 372.5C1359.51 373.328 1359.96 374 1360.51 374Z" fill="#484848"/>
<path opacity="0.75" d="M1120.51 60C1122.17 60 1123.51 58.6569 1123.51 57C1123.51 55.3431 1122.17 54 1120.51 54C1118.85 54 1117.51 55.3431 1117.51 57C1117.51 58.6569 1118.85 60 1120.51 60Z" fill="#484848"/>
<path opacity="0.75" d="M2085.51 6C2087.17 6 2088.51 4.65685 2088.51 3C2088.51 1.34315 2087.17 0 2085.51 0C2083.85 0 2082.51 1.34315 2082.51 3C2082.51 4.65685 2083.85 6 2085.51 6Z" fill="#484848"/>
<path opacity="0.75" d="M1075.01 66C1075.84 66 1076.51 65.3284 1076.51 64.5C1076.51 63.6716 1075.84 63 1075.01 63C1074.18 63 1073.51 63.6716 1073.51 64.5C1073.51 65.3284 1074.18 66 1075.01 66Z" fill="#484848"/>
<path opacity="0.75" d="M2040.01 12C2040.84 12 2041.51 11.3284 2041.51 10.5C2041.51 9.67157 2040.84 9 2040.01 9C2039.18 9 2038.51 9.67157 2038.51 10.5C2038.51 11.3284 2039.18 12 2040.01 12Z" fill="#484848"/>
<path opacity="0.75" d="M1179.51 224C1181.17 224 1182.51 222.657 1182.51 221C1182.51 219.343 1181.17 218 1179.51 218C1177.85 218 1176.51 219.343 1176.51 221C1176.51 222.657 1177.85 224 1179.51 224Z" fill="#484848"/>
<path opacity="0.75" d="M1038.51 160C1039.06 160 1039.51 159.328 1039.51 158.5C1039.51 157.672 1039.06 157 1038.51 157C1037.96 157 1037.51 157.672 1037.51 158.5C1037.51 159.328 1037.96 160 1038.51 160Z" fill="#484848"/>
<path opacity="0.75" d="M2003.51 106C2004.06 106 2004.51 105.328 2004.51 104.5C2004.51 103.672 2004.06 103 2003.51 103C2002.96 103 2002.51 103.672 2002.51 104.5C2002.51 105.328 2002.96 106 2003.51 106Z" fill="#484848"/>
<path opacity="0.75" d="M1217 76C1218.66 76 1220 74.6569 1220 73C1220 71.3431 1218.66 70 1217 70C1215.34 70 1214 71.3431 1214 73C1214 74.6569 1215.34 76 1217 76Z" fill="#484848"/>
<path opacity="0.75" d="M1304.01 44C1304.84 44 1305.51 43.3284 1305.51 42.5C1305.51 41.6716 1304.84 41 1304.01 41C1303.18 41 1302.51 41.6716 1302.51 42.5C1302.51 43.3284 1303.18 44 1304.01 44Z" fill="#484848"/>
<path opacity="0.75" d="M1561.51 104C1563.17 104 1564.51 102.657 1564.51 101C1564.51 99.3431 1563.17 98 1561.51 98C1559.85 98 1558.51 99.3431 1558.51 101C1558.51 102.657 1559.85 104 1561.51 104Z" fill="#484848"/>
<path opacity="0.75" d="M1451.01 104C1451.84 104 1452.51 103.328 1452.51 102.5C1452.51 101.672 1451.84 101 1451.01 101C1450.18 101 1449.51 101.672 1449.51 102.5C1449.51 103.328 1450.18 104 1451.01 104Z" fill="#484848"/>
<path opacity="0.75" d="M1381.51 296C1383.17 296 1384.51 294.657 1384.51 293C1384.51 291.343 1383.17 290 1381.51 290C1379.85 290 1378.51 291.343 1378.51 293C1378.51 294.657 1379.85 296 1381.51 296Z" fill="#484848"/>
<path opacity="0.75" d="M1299.51 163C1300.06 163 1300.51 162.328 1300.51 161.5C1300.51 160.672 1300.06 160 1299.51 160C1298.96 160 1298.51 160.672 1298.51 161.5C1298.51 162.328 1298.96 163 1299.51 163Z" fill="#484848"/>
<path opacity="0.6" d="M1147.51 487C1149.17 487 1150.51 485.657 1150.51 484C1150.51 482.343 1149.17 481 1147.51 481C1145.85 481 1144.51 482.343 1144.51 484C1144.51 485.657 1145.85 487 1147.51 487Z" fill="#484848"/>
<path opacity="0.15" d="M1161.51 1000C1163.17 1000 1164.51 998.657 1164.51 997C1164.51 995.343 1163.17 994 1161.51 994C1159.85 994 1158.51 995.343 1158.51 997C1158.51 998.657 1159.85 1000 1161.51 1000Z" fill="#484848"/>
<path opacity="0.75" d="M1086.01 297C1086.84 297 1087.51 296.552 1087.51 296C1087.51 295.448 1086.84 295 1086.01 295C1085.18 295 1084.51 295.448 1084.51 296C1084.51 296.552 1085.18 297 1086.01 297Z" fill="#484848"/>
<path opacity="0.75" d="M2051.01 243C2051.84 243 2052.51 242.552 2052.51 242C2052.51 241.448 2051.84 241 2051.01 241C2050.18 241 2049.51 241.448 2049.51 242C2049.51 242.552 2050.18 243 2051.01 243Z" fill="#484848"/>
<path opacity="0.45" d="M1376.51 707C1378.17 707 1379.51 705.657 1379.51 704C1379.51 702.343 1378.17 701 1376.51 701C1374.85 701 1373.51 702.343 1373.51 704C1373.51 705.657 1374.85 707 1376.51 707Z" fill="#484848"/>
<path opacity="0.75" d="M1279.01 383C1279.84 383 1280.51 382.328 1280.51 381.5C1280.51 380.672 1279.84 380 1279.01 380C1278.18 380 1277.51 380.672 1277.51 381.5C1277.51 382.328 1278.18 383 1279.01 383Z" fill="#484848"/>
<path opacity="0.45" d="M1507.51 803C1509.17 803 1510.51 801.657 1510.51 800C1510.51 798.343 1509.17 797 1507.51 797C1505.85 797 1504.51 798.343 1504.51 800C1504.51 801.657 1505.85 803 1507.51 803Z" fill="#484848"/>
<path opacity="0.6" d="M1289.01 591C1289.84 591 1290.51 590.328 1290.51 589.5C1290.51 588.672 1289.84 588 1289.01 588C1288.18 588 1287.51 588.672 1287.51 589.5C1287.51 590.328 1288.18 591 1289.01 591Z" fill="#484848"/>
</g>
<defs>
<clipPath id="clip0">
<rect width="2098" height="1049" fill="white"/>
</clipPath>
</defs>
</svg>
