<svg width="475" height="822" viewBox="0 0 475 822" fill="none" xmlns="http://www.w3.org/2000/svg">
<line x1="182.414" y1="113.414" x2="-111.586" y2="407.414" stroke="#B7B7B7" stroke-width="4"/>
<line x1="182.061" y1="103.061" x2="-111.939" y2="397.061" stroke="#B7B7B7" stroke-width="3"/>
<line x1="218.354" y1="89.3536" x2="-75.6464" y2="383.354" stroke="#B7B7B7"/>
<line x1="218.354" y1="78.3536" x2="-75.6464" y2="372.354" stroke="#B7B7B7"/>
<line x1="205.354" y1="157.354" x2="-88.6464" y2="451.354" stroke="#B7B7B7"/>
<line x1="82.3536" y1="329.354" x2="-211.646" y2="623.354" stroke="#B7B7B7"/>
<line x1="196.354" y1="60.3536" x2="-97.6464" y2="354.354" stroke="#B7B7B7"/>
<line x1="196.354" y1="133.354" x2="-97.6464" y2="427.354" stroke="#B7B7B7"/>
<line x1="73.3536" y1="305.354" x2="-220.646" y2="599.354" stroke="#B7B7B7"/>
<line x1="122.354" y1="109.354" x2="-171.646" y2="403.354" stroke="#B7B7B7"/>
<line x1="48.3536" y1="116.354" x2="-245.646" y2="410.354" stroke="#B7B7B7"/>
<line x1="246.354" y1="29.3536" x2="-47.6464" y2="323.354" stroke="#B7B7B7"/>
<line x1="190.354" y1="162.354" x2="-103.646" y2="456.354" stroke="#B7B7B7"/>
<line x1="67.3536" y1="334.354" x2="-226.646" y2="628.354" stroke="#B7B7B7"/>
<line x1="172.354" y1="78.3536" x2="-121.646" y2="372.354" stroke="#B7B7B7"/>
<line x1="172.354" y1="151.354" x2="-121.646" y2="445.354" stroke="#B7B7B7"/>
<line x1="49.3536" y1="323.354" x2="-244.646" y2="617.354" stroke="#B7B7B7"/>
<line x1="224.354" y1="0.353553" x2="-69.6464" y2="294.354" stroke="#B7B7B7"/>
<line x1="150.354" y1="7.35355" x2="-143.646" y2="301.354" stroke="#B7B7B7"/>
<line x1="234.354" y1="29.3536" x2="-59.6464" y2="323.354" stroke="#B7B7B7"/>
<line x1="234.354" y1="102.354" x2="-59.6464" y2="396.354" stroke="#B7B7B7"/>
<line x1="111.354" y1="274.354" x2="-182.646" y2="568.354" stroke="#B7B7B7"/>
<line x1="160.354" y1="78.3536" x2="-133.646" y2="372.354" stroke="#B7B7B7"/>
<line x1="212.354" y1="0.353553" x2="-81.6464" y2="294.354" stroke="#B7B7B7"/>
<line x1="138.354" y1="7.35355" x2="-155.646" y2="301.354" stroke="#B7B7B7"/>
<line x1="200.354" y1="67.3536" x2="-93.6464" y2="361.354" stroke="#B7B7B7"/>
<line x1="200.354" y1="140.354" x2="-93.6464" y2="434.354" stroke="#B7B7B7"/>
<line x1="77.3536" y1="312.354" x2="-216.646" y2="606.354" stroke="#B7B7B7"/>
<line x1="126.354" y1="116.354" x2="-167.646" y2="410.354" stroke="#B7B7B7"/>
<line x1="178.354" y1="38.3536" x2="-115.646" y2="332.354" stroke="#B7B7B7"/>
<line x1="104.354" y1="45.3536" x2="-189.646" y2="339.354" stroke="#B7B7B7"/>
<line x1="205.354" y1="67.3536" x2="-88.6464" y2="361.354" stroke="#B7B7B7"/>
<line x1="205.354" y1="140.354" x2="-88.6464" y2="434.354" stroke="#B7B7B7"/>
<line x1="82.3536" y1="312.354" x2="-211.646" y2="606.354" stroke="#B7B7B7"/>
<line x1="131.354" y1="116.354" x2="-162.646" y2="410.354" stroke="#B7B7B7"/>
<line x1="183.354" y1="38.3536" x2="-110.646" y2="332.354" stroke="#B7B7B7"/>
<line x1="109.354" y1="45.3536" x2="-184.646" y2="339.354" stroke="#B7B7B7"/>
<line x1="181.707" y1="97.7071" x2="-112.293" y2="391.707" stroke="#B7B7B7" stroke-width="2"/>
<line x1="159.707" y1="68.7071" x2="-134.293" y2="362.707" stroke="#B7B7B7" stroke-width="2"/>
<line x1="85.7071" y1="75.7071" x2="-208.293" y2="369.707" stroke="#B7B7B7" stroke-width="2"/>
<g opacity="0.4">
<line x1="384.729" y1="259.824" x2="-25.8483" y2="670.402" stroke="#B7B7B7" stroke-width="4"/>
<line x1="384.376" y1="245.505" x2="-26.2018" y2="656.083" stroke="#B7B7B7" stroke-width="3"/>
<line x1="435.34" y1="226.645" x2="24.7624" y2="637.222" stroke="#B7B7B7"/>
<line x1="435.34" y1="211.282" x2="24.7624" y2="621.86" stroke="#B7B7B7"/>
<line x1="417.185" y1="321.607" x2="6.60766" y2="732.185" stroke="#B7B7B7"/>
<line x1="245.413" y1="561.81" x2="-165.165" y2="972.387" stroke="#B7B7B7"/>
<line x1="404.617" y1="186.145" x2="-5.96094" y2="596.722" stroke="#B7B7B7"/>
<line x1="404.617" y1="288.092" x2="-5.96094" y2="698.669" stroke="#B7B7B7"/>
<line x1="232.844" y1="528.293" x2="-177.733" y2="938.871" stroke="#B7B7B7"/>
<line x1="301.274" y1="254.574" x2="-109.304" y2="665.152" stroke="#B7B7B7"/>
<line x1="197.931" y1="264.351" x2="-212.646" y2="674.928" stroke="#B7B7B7"/>
<line x1="474.443" y1="142.853" x2="63.8651" y2="553.43" stroke="#B7B7B7"/>
<line x1="396.238" y1="328.59" x2="-14.3401" y2="739.168" stroke="#B7B7B7"/>
<line x1="224.465" y1="568.793" x2="-186.112" y2="979.371" stroke="#B7B7B7"/>
<line x1="371.1" y1="211.282" x2="-39.4775" y2="621.86" stroke="#B7B7B7"/>
<line x1="371.1" y1="313.229" x2="-39.4775" y2="723.806" stroke="#B7B7B7"/>
<line x1="199.328" y1="553.431" x2="-211.25" y2="964.008" stroke="#B7B7B7"/>
<line x1="443.719" y1="102.354" x2="33.1416" y2="512.931" stroke="#B7B7B7"/>
<line x1="340.377" y1="112.13" x2="-70.2009" y2="522.708" stroke="#B7B7B7"/>
<line x1="457.685" y1="142.853" x2="47.1069" y2="553.43" stroke="#B7B7B7"/>
<line x1="457.685" y1="244.798" x2="47.1069" y2="655.376" stroke="#B7B7B7"/>
<line x1="285.912" y1="485.001" x2="-124.665" y2="895.579" stroke="#B7B7B7"/>
<line x1="354.342" y1="211.282" x2="-56.2358" y2="621.86" stroke="#B7B7B7"/>
<line x1="426.961" y1="102.354" x2="16.3833" y2="512.931" stroke="#B7B7B7"/>
<line x1="323.618" y1="112.13" x2="-86.9594" y2="522.708" stroke="#B7B7B7"/>
<line x1="410.203" y1="195.921" x2="-0.375004" y2="606.499" stroke="#B7B7B7"/>
<line x1="410.203" y1="297.866" x2="-0.375004" y2="708.444" stroke="#B7B7B7"/>
<line x1="238.43" y1="538.069" x2="-172.147" y2="948.647" stroke="#B7B7B7"/>
<line x1="306.86" y1="264.351" x2="-103.718" y2="674.928" stroke="#B7B7B7"/>
<line x1="379.479" y1="155.422" x2="-31.0984" y2="566" stroke="#B7B7B7"/>
<line x1="276.137" y1="165.197" x2="-134.441" y2="575.775" stroke="#B7B7B7"/>
<line x1="417.185" y1="195.921" x2="6.60766" y2="606.499" stroke="#B7B7B7"/>
<line x1="417.185" y1="297.866" x2="6.60766" y2="708.444" stroke="#B7B7B7"/>
<line x1="245.413" y1="538.069" x2="-165.165" y2="948.647" stroke="#B7B7B7"/>
<line x1="313.843" y1="264.351" x2="-96.735" y2="674.928" stroke="#B7B7B7"/>
<line x1="386.462" y1="155.422" x2="-24.1157" y2="566" stroke="#B7B7B7"/>
<line x1="283.119" y1="165.197" x2="-127.459" y2="575.775" stroke="#B7B7B7"/>
<line x1="384.022" y1="238.17" x2="-26.5554" y2="648.748" stroke="#B7B7B7" stroke-width="2"/>
<line x1="353.299" y1="197.67" x2="-57.2788" y2="608.248" stroke="#B7B7B7" stroke-width="2"/>
<line x1="249.956" y1="207.446" x2="-160.622" y2="618.024" stroke="#B7B7B7" stroke-width="2"/>
</g>
</svg>
