<svg width="56" height="73" viewBox="0 0 56 73" fill="none" xmlns="http://www.w3.org/2000/svg">
<g filter="url(#filter0_d)">
<path d="M50.8969 21.2749C50.8969 28.5986 43.8053 37.1466 39.9535 41.4874C35.0252 47.0415 31.3106 54.0314 31.3106 54.0314C28.172 54.6087 26.7995 54.7414 25.5697 54.3691C25.5697 54.3691 20.2341 45.9759 16.7896 42.212C10.0357 34.8319 5.64562 30.055 5.64563 21.2749C5.64563 9.4555 15.1011 0 27.9336 0C40.766 0 50.8969 9.71159 50.8969 21.2749Z" fill="white"/>
<path d="M21.5174 27.0157C20.5043 21.2749 19.521 7.76701 27.9633 0C14.1178 0 7.95938 8.92866 16.7897 31.4058C20.5043 40.8612 22.756 42.8874 26.5829 54.0314C26.5829 53.356 22.5305 32.7565 21.5174 27.0157Z" fill="#9ACA6B"/>
<path d="M35.0252 24.6518C35.0356 10.6662 28.6387 0 28.6387 0C41.1335 8.51111e-06 47.6823 11.6123 40.7661 30.055C38.2848 36.6714 34.4386 43.0521 29.622 54.7068C29.622 54.7068 35.0149 38.6375 35.0252 24.6518Z" fill="#9ACA6B"/>
<path d="M47.4697 31.5322C50.8076 24.8796 50.4403 15.3419 46.1692 8.44238C47.7556 10.506 50.0501 12.3256 50.8969 20.2618C50.9759 26.1969 48.8521 28.9914 47.4697 31.5322C47.3768 31.7175 47.281 31.9005 47.1823 32.0811C47.2735 31.8988 47.3697 31.7161 47.4697 31.5322Z" fill="#9ACA6B"/>
<path d="M8.0095 11.1436C4.29437 17.2149 4.51475 29.6571 11.0488 35.4577C5.42323 27.328 6.57279 14.5301 8.0095 11.1436Z" fill="#9ACA6B"/>
<path d="M5.64563 27.1466C5.64563 26.9234 5.87251 26.7717 6.07943 26.8555C19.691 32.369 35.5307 32.687 49.7885 26.8569C49.9944 26.7727 50.2215 26.9233 50.2215 27.1458C50.2215 27.2714 50.1458 27.3849 50.0298 27.433C35.6259 33.4046 19.9082 33.405 5.83586 27.4342C5.72053 27.3853 5.64563 27.2719 5.64563 27.1466Z" fill="#595959"/>
<path d="M24.5566 53.807C24.5566 53.597 24.7758 53.4584 24.9682 53.5425C27.4306 54.6184 29.0079 54.596 31.5785 53.5303C31.7709 53.4506 31.986 53.59 31.986 53.7983C31.986 53.9106 31.9198 54.0134 31.8177 54.06C28.9557 55.3664 27.3433 55.3794 24.7141 54.0622C24.6178 54.014 24.5566 53.9147 24.5566 53.807Z" fill="#595959"/>
<path d="M15.7766 30.0543C21.5965 39.9526 23.883 45.2114 26.2161 54.2313" stroke="#595959"/>
<path d="M41.1038 30.0546C35.2369 39.0475 32.7481 44.4796 30.2684 54.5059" stroke="#595959"/>
<path d="M6.3211 27.3535C8.86127 35.3044 15.7766 35.1205 15.7766 30.055" stroke="#595959"/>
<path d="M16.1143 30.3924C20.9501 39.4686 34.8842 41.1132 40.7661 30.0547" stroke="#595959"/>
<path d="M40.766 30.0546C41.4414 34.4446 45.4937 35.4577 49.5461 27.353" stroke="#595959"/>
<path d="M23.9851 60.8621C23.9851 59.5995 25.14 58.6709 26.3951 58.8084C27.7043 58.9517 28.8598 58.9439 30.1708 58.796C31.4172 58.6554 32.5574 59.5825 32.5574 60.8368V62.4994C32.5574 63.604 31.662 64.4994 30.5574 64.4994H25.9851C24.8805 64.4994 23.9851 63.604 23.9851 62.4994V60.8621Z" fill="#595959"/>
<path d="M23.2058 58.4209C27.1622 58.8768 29.3803 58.916 33.3367 58.4209V59.7717C29.3806 60.3327 27.1619 60.3511 23.2058 59.7717V58.4209Z" fill="#595959"/>
<path d="M26.2095 54.5205L23.5436 59.4349" stroke="#595959"/>
<path d="M30.2975 54.3688L32.9991 59.0965" stroke="#595959"/>
<path d="M26.9205 54.3693L25.9371 58.7594" stroke="#595959"/>
<line x1="29.7652" y1="54.2318" x2="31.116" y2="58.9595" stroke="#595959"/>
</g>
<defs>
<filter id="filter0_d" x="0.45874" y="0" width="54.755" height="72.4998" filterUnits="userSpaceOnUse" color-interpolation-filters="sRGB">
<feFlood flood-opacity="0" result="BackgroundImageFix"/>
<feColorMatrix in="SourceAlpha" type="matrix" values="0 0 0 0 0 0 0 0 0 0 0 0 0 0 0 0 0 0 127 0"/>
<feOffset dy="4"/>
<feGaussianBlur stdDeviation="2"/>
<feColorMatrix type="matrix" values="0 0 0 0 0 0 0 0 0 0 0 0 0 0 0 0 0 0 0.25 0"/>
<feBlend mode="normal" in2="BackgroundImageFix" result="effect1_dropShadow"/>
<feBlend mode="normal" in="SourceGraphic" in2="effect1_dropShadow" result="shape"/>
</filter>
</defs>
</svg>
