<svg width="48" height="65" viewBox="0 0 48 65" fill="none" xmlns="http://www.w3.org/2000/svg">
<path d="M46.8969 21.2749C46.8969 28.5986 39.8053 37.1466 35.9535 41.4874C31.0252 47.0415 27.3106 54.0314 27.3106 54.0314C24.172 54.6087 22.7995 54.7414 21.5697 54.3691C21.5697 54.3691 16.2341 45.9759 12.7896 42.212C6.03569 34.8319 1.64562 30.055 1.64563 21.2749C1.64563 9.4555 11.1011 0 23.9336 0C36.766 0 46.8969 9.71159 46.8969 21.2749Z" fill="white"/>
<path d="M17.5174 27.0157C16.5043 21.2749 15.521 7.76701 23.9633 0C10.1178 0 3.95938 8.92866 12.7897 31.4058C16.5043 40.8612 18.756 42.8874 22.5829 54.0314C22.5829 53.356 18.5305 32.7565 17.5174 27.0157Z" fill="#FF4949"/>
<path d="M31.0252 24.6518C31.0356 10.6662 24.6387 0 24.6387 0C37.1335 8.51111e-06 43.6823 11.6123 36.7661 30.055C34.2848 36.6714 30.4386 43.0521 25.622 54.7068C25.622 54.7068 31.0149 38.6375 31.0252 24.6518Z" fill="#FF4949"/>
<path d="M43.4697 31.5322C46.8076 24.8796 46.4403 15.3419 42.1692 8.44238C43.7556 10.506 46.0501 12.3256 46.8969 20.2618C46.9759 26.1969 44.8521 28.9914 43.4697 31.5322C43.3768 31.7175 43.281 31.9005 43.1823 32.0811C43.2735 31.8988 43.3697 31.7161 43.4697 31.5322Z" fill="#FF4949"/>
<path d="M4.0095 11.1436C0.294365 17.2149 0.514751 29.6571 7.04878 35.4577C1.42323 27.328 2.57279 14.5301 4.0095 11.1436Z" fill="#FF4949"/>
<path d="M1.64563 27.1466C1.64563 26.9234 1.87251 26.7717 2.07943 26.8555C15.691 32.369 31.5307 32.687 45.7885 26.8569C45.9944 26.7727 46.2215 26.9233 46.2215 27.1458C46.2215 27.2714 46.1458 27.3849 46.0298 27.433C31.6259 33.4046 15.9082 33.405 1.83586 27.4342C1.72053 27.3853 1.64563 27.2719 1.64563 27.1466Z" fill="#1B1B1B"/>
<path d="M20.5566 53.807C20.5566 53.597 20.7758 53.4584 20.9682 53.5425C23.4306 54.6184 25.0079 54.596 27.5785 53.5303C27.7709 53.4506 27.986 53.59 27.986 53.7983C27.986 53.9106 27.9198 54.0134 27.8177 54.06C24.9557 55.3664 23.3433 55.3794 20.7141 54.0622C20.6178 54.014 20.5566 53.9147 20.5566 53.807Z" fill="#222222"/>
<path d="M11.7766 30.0543C17.5965 39.9526 19.883 45.2114 22.2161 54.2313" stroke="#222222"/>
<path d="M37.1038 30.0546C31.2369 39.0475 28.7481 44.4796 26.2684 54.5059" stroke="#222222"/>
<path d="M2.3211 27.3535C4.86127 35.3044 11.7766 35.1205 11.7766 30.055" stroke="#222222"/>
<path d="M12.1143 30.3924C16.9501 39.4686 30.8842 41.1132 36.7661 30.0547" stroke="#222222"/>
<path d="M36.766 30.0546C37.4414 34.4446 41.4937 35.4577 45.5461 27.353" stroke="#222222"/>
<path d="M19.9851 60.8621C19.9851 59.5995 21.14 58.6709 22.3951 58.8084C23.7043 58.9517 24.8598 58.9439 26.1708 58.796C27.4172 58.6554 28.5574 59.5825 28.5574 60.8368V62.4994C28.5574 63.604 27.662 64.4994 26.5574 64.4994H21.9851C20.8805 64.4994 19.9851 63.604 19.9851 62.4994V60.8621Z" fill="#222222"/>
<path d="M19.2058 58.4209C23.1622 58.8768 25.3803 58.916 29.3367 58.4209V59.7717C25.3806 60.3327 23.1619 60.3511 19.2058 59.7717V58.4209Z" fill="#222222"/>
<path d="M22.2095 54.5205L19.5436 59.4349" stroke="#222222"/>
<path d="M26.2975 54.3688L28.9991 59.0965" stroke="#222222"/>
<path d="M22.9205 54.3693L21.9371 58.7594" stroke="#222222"/>
<line x1="25.7652" y1="54.2318" x2="27.116" y2="58.9595" stroke="#222222"/>
</svg>
