<svg width="411" height="731" viewBox="0 0 411 731" fill="none" xmlns="http://www.w3.org/2000/svg">
<g clip-path="url(#clip0)">
<path d="M234.846 442.313C237.712 430.959 270.062 422.208 277.937 423.31L342.787 432.379C360.315 435.194 367.632 460.737 360.779 467.477C353.926 474.216 347.968 471.885 339.137 467.75C314.287 456.118 277.859 441.696 251.765 444.444C240.998 445.578 233.493 447.675 234.846 442.313Z" fill="white"/>
<path d="M326.69 430.128C324.855 443.249 308.497 441.892 294.907 439.992C281.317 438.091 268.157 438.08 269.992 424.958C271.827 411.837 291.816 401.028 305.406 402.928C318.995 404.829 328.525 417.006 326.69 430.128Z" fill="white"/>
<path d="M343.307 438.723C341.75 449.853 342.654 447.6 332.875 446.232C323.095 444.864 306.335 444.901 307.892 433.771C309.448 422.641 318.638 414.727 328.418 416.095C338.197 417.463 344.863 427.594 343.307 438.723Z" fill="white"/>
<path d="M427.293 272.534C433.101 261.719 432.481 201.631 421.534 195.753L236.781 93.0161C225.834 87.1381 210.688 93.8329 204.881 104.648C199.074 115.464 203.24 128.996 214.187 134.874C300.816 147.124 341.477 169.056 400.504 234.918C415.98 252.186 421.486 283.349 427.293 272.534Z" fill="white"/>
<path d="M299.243 99.308C284.957 125.914 301.598 149.194 328.089 163.419C354.581 177.644 380.89 177.426 395.176 150.82C409.462 124.214 399.568 91.115 373.077 76.8903C346.586 62.6656 313.529 72.7023 299.243 99.308Z" fill="white"/>
<path d="M351.651 154.696C342.011 172.65 365.521 188.746 386.101 199.796C406.681 210.847 416.537 212.667 426.178 194.714C435.818 176.76 426.949 153.248 406.369 142.198C385.789 131.147 361.291 136.743 351.651 154.696Z" fill="white"/>
<path d="M236.781 93.0161C224.586 115.728 237.039 124.173 260.247 136.634C283.454 149.095 308.627 160.855 320.822 138.142C333.018 115.43 324.091 86.9166 300.883 74.4553C277.676 61.994 248.977 70.304 236.781 93.0161Z" fill="white"/>
<path d="M36.1942 465.546C33.1658 459.052 35.5047 424.056 42.0776 420.99L153.127 367.2C159.699 364.135 168.306 368.535 171.334 375.029C174.362 381.523 171.489 389.272 164.916 392.337C114.029 396.625 89.611 408.067 53.0442 444.507C43.4571 454.061 39.2225 472.04 36.1942 465.546Z" fill="white"/>
<path d="M116.519 368.811C123.969 384.786 113.505 397.805 97.5982 405.223C81.6918 412.641 66.3667 411.648 58.917 395.673C51.4672 379.698 58.3227 360.734 74.2291 353.317C90.1355 345.899 109.069 352.836 116.519 368.811Z" fill="white"/>
<path d="M84.1545 399.364C89.1815 410.144 74.9508 418.751 62.5938 424.513C50.2367 430.276 44.4328 431.012 39.4057 420.232C34.3787 409.452 40.3208 396.042 52.6778 390.28C65.0348 384.517 79.1274 388.584 84.1545 399.364Z" fill="white"/>
<path d="M153.127 367.2C159.486 380.837 151.951 385.349 138.016 391.847C124.082 398.345 109.025 404.369 102.665 390.732C96.3057 377.095 102.446 360.772 116.381 354.274C130.316 347.776 146.767 353.563 153.127 367.2Z" fill="white"/>
<path d="M130.596 253.78C122.825 235.604 66.5815 229.541 53.7428 233.453L-51.9909 265.666C-80.4723 274.98 -85.9401 319.496 -72.7381 328.927C-59.536 338.357 -50.2166 332.899 -36.5812 323.679C1.78373 297.734 58.7192 264.087 102.95 261.792C121.199 260.845 134.266 262.362 130.596 253.78Z" fill="white"/>
<path d="M-25.7449 257.67C-19.227 279.064 7.68872 272.49 29.8457 265.739C52.0027 258.989 73.9408 255.501 67.4229 234.108C60.905 212.714 24.7293 199.96 2.57228 206.711C-19.5847 213.461 -32.2628 236.277 -25.7449 257.67Z" fill="white"/>
<path d="M-51.1847 276.382C-45.6562 294.528 -47.7575 291.009 -31.8127 286.151C-15.868 281.293 12.0849 276.936 6.55638 258.79C1.02783 240.644 -16.3797 229.871 -32.3245 234.729C-48.2693 239.587 -56.7133 258.235 -51.1847 276.382Z" fill="white"/>
<path d="M205.339 512.08C204.442 506.73 199.361 503.124 193.99 504.025L149.76 511.441C144.389 512.342 140.762 517.408 141.659 522.757C142.556 528.106 147.637 531.713 153.008 530.812C168.469 521.954 178.331 520.916 197.238 523.396C202.609 522.495 206.236 517.429 205.339 512.08Z" fill="white"/>
<path d="M160.739 509.6C162.359 519.263 172.763 521.778 182.031 520.224C191.3 518.67 195.924 513.635 194.304 503.972C192.684 494.309 183.856 487.736 174.588 489.29C165.319 490.844 159.119 499.937 160.739 509.6Z" fill="white"/>
<path d="M149.578 516.129C150.953 524.326 156.191 522.412 162.861 521.293C169.531 520.175 175.107 520.275 173.733 512.079C172.358 503.883 165.837 498.145 159.167 499.264C152.497 500.382 148.204 507.933 149.578 516.129Z" fill="white"/>
</g>
<defs>
<clipPath id="clip0">
<rect width="411" height="731" fill="white"/>
</clipPath>
</defs>
</svg>
