<svg width="411" height="731" viewBox="0 0 411 731" fill="none" xmlns="http://www.w3.org/2000/svg">
<g clip-path="url(#clip0)">
<g opacity="0.95">
<path d="M49 357.43C49 353.249 52.4306 349.859 56.6625 349.859L128.654 348.799C132.886 348.799 136.352 353.249 136.352 357.43C136.352 361.611 132.922 365 128.69 365H56.6625C52.4306 365 49 361.611 49 357.43Z" fill="#F5F5F5"/>
<path d="M108.898 340.623C108.898 350.909 100.596 359.246 90.3545 359.246C80.1134 359.246 71.8113 350.909 71.8113 340.623C71.8113 330.338 80.1134 322 90.3545 322C100.596 322 108.898 330.338 108.898 340.623Z" fill="#F5F5F5"/>
<path d="M84.2474 348.799C84.2474 355.74 77.7978 361.366 69.8419 361.366C61.886 361.366 55.4365 355.74 55.4365 348.799C55.4365 341.859 61.886 336.232 69.8419 336.232C77.7978 336.232 84.2474 341.859 84.2474 348.799Z" fill="#F5F5F5"/>
<path d="M128.654 348.799C128.654 357.579 121.381 364.697 112.41 364.697C103.438 364.697 96.1653 357.579 96.1653 348.799C96.1653 340.019 103.438 332.901 112.41 332.901C121.381 332.901 128.654 340.019 128.654 348.799Z" fill="#F5F5F5"/>
</g>
<g opacity="0.72">
<path d="M362 496.741C362 493.822 364.396 491.455 367.351 491.455L417.624 490.715C420.58 490.715 423 493.822 423 496.741C423 499.661 420.604 502.028 417.649 502.028H367.351C364.396 502.028 362 499.661 362 496.741Z" fill="#F5F5F5"/>
<path d="M403.828 485.005C403.828 492.188 398.03 498.01 390.879 498.01C383.727 498.01 377.93 492.188 377.93 485.005C377.93 477.823 383.727 472 390.879 472C398.03 472 403.828 477.823 403.828 485.005Z" fill="#F5F5F5"/>
<path d="M386.614 490.715C386.614 495.561 382.11 499.49 376.554 499.49C370.999 499.49 366.495 495.561 366.495 490.715C366.495 485.868 370.999 481.939 376.554 481.939C382.11 481.939 386.614 485.868 386.614 490.715Z" fill="#F5F5F5"/>
<path d="M417.624 490.715C417.624 496.846 412.545 501.816 406.28 501.816C400.015 501.816 394.937 496.846 394.937 490.715C394.937 484.583 400.015 479.613 406.28 479.613C412.545 479.613 417.624 484.583 417.624 490.715Z" fill="#F5F5F5"/>
</g>
<g opacity="0.6">
<path d="M-16 565.486C-16 561.888 -13.0481 558.972 -9.40671 558.972L52.5397 558.06C56.181 558.06 59.1635 561.888 59.1635 565.486C59.1635 569.084 56.2116 572 52.5702 572H-9.40671C-13.0481 572 -16 569.084 -16 565.486Z" fill="#F5F5F5"/>
<path d="M35.5399 551.025C35.5399 559.875 28.3962 567.049 19.5841 567.049C10.772 567.049 3.62835 559.875 3.62835 551.025C3.62835 542.174 10.772 535 19.5841 535C28.3962 535 35.5399 542.174 35.5399 551.025Z" fill="#F5F5F5"/>
<path d="M14.3291 558.06C14.3291 564.032 8.77954 568.873 1.93375 568.873C-4.91203 568.873 -10.4616 564.032 -10.4616 558.06C-10.4616 552.088 -4.91203 547.246 1.93375 547.246C8.77954 547.246 14.3291 552.088 14.3291 558.06Z" fill="#F5F5F5"/>
<path d="M52.5397 558.06C52.5397 565.615 46.2816 571.739 38.5619 571.739C30.8422 571.739 24.5841 565.615 24.5841 558.06C24.5841 550.505 30.8422 544.38 38.5619 544.38C46.2816 544.38 52.5397 550.505 52.5397 558.06Z" fill="#F5F5F5"/>
</g>
<path d="M209.796 232.254C209.796 227.975 213.306 224.507 217.636 224.507L291.302 223.423C295.633 223.423 299.179 227.975 299.179 232.254C299.179 236.532 295.669 240 291.339 240H217.636C213.306 240 209.796 236.532 209.796 232.254Z" fill="#F5F5F5"/>
<path d="M271.086 215.056C271.086 225.581 262.591 234.113 252.112 234.113C241.633 234.113 233.137 225.581 233.137 215.056C233.137 204.532 241.633 196 252.112 196C262.591 196 271.086 204.532 271.086 215.056Z" fill="#F5F5F5"/>
<path d="M245.863 223.423C245.863 230.524 239.263 236.282 231.122 236.282C222.981 236.282 216.382 230.524 216.382 223.423C216.382 216.321 222.981 210.563 231.122 210.563C239.263 210.563 245.863 216.321 245.863 223.423Z" fill="#F5F5F5"/>
<path d="M291.302 223.423C291.302 232.407 283.86 239.69 274.68 239.69C265.5 239.69 258.058 232.407 258.058 223.423C258.058 214.438 265.5 207.155 274.68 207.155C283.86 207.155 291.302 214.438 291.302 223.423Z" fill="#F5F5F5"/>
</g>
<defs>
<clipPath id="clip0">
<rect width="411" height="731" fill="white"/>
</clipPath>
</defs>
</svg>
