<svg width="1440" height="864" viewBox="0 0 1440 864" fill="none" xmlns="http://www.w3.org/2000/svg">
<path d="M557.181 491.695C566.735 475.266 539.117 428.413 528.729 420.759L443.178 357.718C419.643 341.103 382.175 362.446 382.483 378.041C382.791 393.637 392.35 397.69 407.29 402.91C449.325 417.599 507.963 442.186 535.128 474.976C546.337 488.505 552.67 499.453 557.181 491.695Z" fill="white"/>
<path d="M464.414 373.367C451.659 390.676 472.183 407.658 490.11 420.868C508.038 434.079 523.324 448.994 536.079 431.684C548.834 414.374 537.898 379.154 519.97 365.944C502.043 352.734 477.17 356.057 464.414 373.367Z" fill="white"/>
<path d="M435.378 364.492C424.559 379.175 426.066 375.534 438.967 385.04C451.869 394.547 471.278 413.601 482.097 398.919C492.916 384.236 491.229 364.627 478.327 355.121C465.426 345.614 446.197 349.81 435.378 364.492Z" fill="white"/>
<path d="M398.508 257.753C404.037 238.613 472.919 169.58 492.291 175.177L823.252 265.527C842.624 271.123 852.607 296.074 847.078 315.214C841.549 334.353 821.363 345.332 801.991 339.736C687.556 255.682 615.488 235.01 472.269 244.487C434.72 246.972 392.979 276.892 398.508 257.753Z" fill="white"/>
<path d="M743.624 201.973C730.023 249.057 684.3 257.197 637.419 243.655C590.538 230.112 560.251 200.013 573.852 152.93C587.454 105.847 636.484 78.6565 683.365 92.1994C730.247 105.742 757.225 154.89 743.624 201.973Z" fill="white"/>
<path d="M619.969 206.803C610.791 238.575 565.247 230.586 528.827 220.065C492.407 209.544 478.903 200.475 488.081 168.704C497.259 136.932 534.223 119.705 570.643 130.226C607.063 140.746 629.147 175.031 619.969 206.803Z" fill="white"/>
<path d="M823.252 265.527C811.641 305.72 787.608 301.393 746.539 289.529C705.47 277.665 662.915 262.757 674.526 222.564C686.137 182.37 728.843 159.405 769.912 171.269C810.982 183.133 834.863 225.334 823.252 265.527Z" fill="white"/>
<path d="M781.967 799.105C792.848 795.004 829.834 751.735 825.683 740.722L757.823 552.322C753.672 541.308 738.692 536.652 727.811 540.753C716.93 544.855 711.474 557.108 715.625 568.121C769.819 630.823 785.177 671.802 786.279 755.574C786.567 777.537 771.086 803.207 781.967 799.105Z" fill="white"/>
<path d="M798.481 595.719C771.713 605.808 769.088 632.788 779.134 659.441C789.18 686.094 808.092 702.326 834.86 692.237C861.627 682.148 875.183 652.362 865.138 625.71C855.092 599.057 825.249 585.629 798.481 595.719Z" fill="white"/>
<path d="M801.383 667.892C783.32 674.7 790.072 700.831 797.876 721.537C805.681 742.242 811.581 749.681 829.644 742.873C847.707 736.065 856.023 713.76 848.219 693.055C840.415 672.35 819.445 661.084 801.383 667.892Z" fill="white"/>
<path d="M757.823 552.322C734.972 560.935 738.6 574.718 747.401 598.067C756.201 621.416 766.841 645.488 789.692 636.875C812.543 628.262 823.932 602.353 815.132 579.004C806.332 555.655 780.673 543.709 757.823 552.322Z" fill="white"/>
<path d="M933.468 348.271C963.106 335.993 1035.26 392.759 1045.72 411.863L1131.89 569.192C1154.38 612.31 1110.22 670.176 1084.2 666.145C1058.18 662.113 1053.56 645.207 1048.2 619.038C1033.1 545.407 1005.19 441.771 956.465 388.932C936.36 367.131 919.473 354.069 933.468 348.271Z" fill="white"/>
<path d="M1110.5 530.138C1078.67 547.573 1054.89 509.411 1036.83 476.442C1018.77 443.473 997.268 414.539 1029.1 397.104C1060.93 379.669 1117.39 405.905 1135.44 438.875C1153.5 471.844 1142.33 512.704 1110.5 530.138Z" fill="white"/>
<path d="M1118.8 580.713C1091.8 595.501 1098.23 593.801 1085.23 570.075C1072.24 546.35 1044.74 509.584 1071.74 494.796C1098.74 480.008 1131.16 487.252 1144.16 510.978C1157.15 534.703 1145.8 565.925 1118.8 580.713Z" fill="white"/>
<path d="M542.872 625.376C549.981 620.185 559.968 621.764 565.18 628.901L608.099 687.683C613.31 694.821 611.772 704.815 604.663 710.005C597.554 715.196 587.566 713.617 582.355 706.48C574.459 678.66 564.192 666.268 539.436 647.698C534.225 640.56 535.763 630.566 542.872 625.376Z" fill="white"/>
<path d="M597.445 673.092C584.603 682.468 569.676 673.586 560.682 661.268C551.688 648.95 552.033 637.861 564.875 628.484C577.717 619.108 595.419 621.493 604.413 633.811C613.406 646.129 610.287 663.715 597.445 673.092Z" fill="white"/>
<path d="M602.991 693.33C592.098 701.283 588.19 693.119 581.718 684.255C575.246 675.391 568.66 669.182 579.553 661.229C590.446 653.276 604.523 654.014 610.995 662.879C617.467 671.743 613.884 685.377 602.991 693.33Z" fill="white"/>
</svg>
