<svg width="1440" height="864" viewBox="0 0 1440 864" fill="none" xmlns="http://www.w3.org/2000/svg">
<g clip-path="url(#clip0)">
<path d="M190.968 427.058C181.067 409.771 179.406 312.264 196.904 302.243L492.066 127.378C509.564 117.357 541.599 128.212 551.5 145.5C561.401 162.788 557 194.521 529.5 199.18C389.508 222.896 317.979 249.353 232.759 364.847C203.5 404.5 200.869 444.346 190.968 427.058Z" fill="white"/>
<path d="M391.015 140.357C415.371 182.885 389.408 221.391 347.063 245.643C304.718 269.894 262.027 270.708 237.67 228.18C213.314 185.653 227.896 131.517 270.241 107.265C312.586 83.0135 366.659 97.8292 391.015 140.357Z" fill="white"/>
<path d="M308.452 232.537C324.888 261.235 287.462 288.39 254.566 307.23C221.67 326.071 205.761 329.461 189.325 300.764C172.889 272.066 186.233 233.529 219.129 214.689C252.025 195.849 292.017 203.84 308.452 232.537Z" fill="white"/>
<path d="M492.066 127.378C512.858 163.683 493.029 177.935 455.934 199.18C418.838 220.425 378.523 240.619 357.731 204.315C336.939 168.01 350.155 121.357 387.251 100.112C424.346 78.8666 471.274 91.0742 492.066 127.378Z" fill="white"/>
<path d="M974.271 477.465C985.899 477.465 962.07 411.236 950.631 408.466L756.721 358.481C745.282 355.711 726.554 363.005 722.5 379.745C719.763 391.047 727.5 412.749 760 411.5C825.166 408.996 907 431.5 931 444.5C968.409 464.763 967.5 477.465 974.271 477.465Z" fill="white"/>
<path d="M815.477 349.311C808.745 377.113 829.566 394.472 857.249 401.176C884.932 407.879 908.995 401.387 915.727 373.585C922.459 345.782 905.474 317.81 877.791 311.107C850.108 304.404 822.209 321.508 815.477 349.311Z" fill="white"/>
<path d="M876.759 387.546C872.216 406.307 897.614 415.438 919.12 420.646C940.626 425.853 950.096 425.165 954.639 406.403C959.181 387.642 945.43 368.212 923.924 363.005C902.418 357.797 881.302 368.785 876.759 387.546Z" fill="white"/>
<path d="M756.721 358.481C750.975 382.214 764.409 386.976 788.66 392.849C812.911 398.721 838.796 403.479 844.543 379.745C850.29 356.011 835.289 332.011 811.038 326.139C786.787 320.267 762.468 334.747 756.721 358.481Z" fill="white"/>
<path d="M609.783 496.187C603.473 478.26 549.898 468.897 537.334 471.84L433.867 496.076C405.955 503.216 397.903 545.578 409.973 555.457C422.044 565.337 431.329 560.689 444.992 552.703C483.433 530.232 540.177 501.543 582.754 502.13C600.322 502.372 612.762 504.652 609.783 496.187Z" fill="white"/>
<path d="M459.55 490.06C464.454 510.995 490.69 506.386 512.373 501.307C534.055 496.228 555.321 494.266 550.417 473.331C545.513 452.396 511.612 437.879 489.93 442.958C468.248 448.037 454.646 469.125 459.55 490.06Z" fill="white"/>
<path d="M433.964 506.407C438.124 524.165 436.33 520.656 451.933 517.001C467.536 513.346 494.627 510.929 490.468 493.172C486.308 475.414 470.288 463.982 454.685 467.637C439.082 471.292 429.805 488.65 433.964 506.407Z" fill="white"/>
<path d="M957 151.5C971.248 127.236 1053.72 131.23 1071.14 139.065L1214.63 203.595C1253.17 221.876 1253.84 282.563 1233.5 293.5C1213.16 304.438 1192.59 301.476 1175 286C1125.5 242.457 1089 200.501 1016 176.501C967.898 160.686 950.273 162.957 957 151.5Z" fill="white"/>
<path d="M1179.01 187.577C1165.96 216.61 1129.14 202.479 1099.07 188.957C1069 175.434 1038.65 166.558 1051.71 137.525C1064.76 108.492 1118.14 97.0007 1148.21 110.523C1178.28 124.046 1192.07 158.544 1179.01 187.577Z" fill="white"/>
<path d="M1211.56 218.579C1200.49 243.205 1204.09 238.615 1182.45 228.884C1160.81 219.153 1122.13 207.966 1133.2 183.34C1144.28 158.713 1170.8 146.639 1192.44 156.37C1214.07 166.101 1222.64 193.953 1211.56 218.579Z" fill="white"/>
<path d="M668 626.729C668 617.927 675.164 610.791 684.002 610.791H756.785C765.623 610.791 772.787 617.927 772.787 626.729C772.787 635.531 765.623 642.667 756.785 642.667C729.661 632.639 713.598 633.623 684.002 642.667C675.164 642.667 668 635.531 668 626.729Z" fill="white"/>
<path d="M738.718 610.791C738.718 626.692 722.742 633.509 707.49 633.509C692.238 633.509 683.486 626.692 683.486 610.791C683.486 594.891 695.85 582 711.102 582C726.354 582 738.718 594.891 738.718 610.791Z" fill="white"/>
<path d="M758.333 618.246C758.333 631.733 749.436 630.075 738.46 630.075C727.484 630.075 718.587 631.733 718.587 618.246C718.587 604.759 727.484 593.825 738.46 593.825C749.436 593.825 758.333 604.759 758.333 618.246Z" fill="white"/>
</g>
<defs>
<clipPath id="clip0">
<rect width="1440" height="864" fill="white"/>
</clipPath>
</defs>
</svg>
