<svg width="1440" height="864" viewBox="0 0 1440 864" fill="none" xmlns="http://www.w3.org/2000/svg">
<path d="M401 403.852C401 397.143 406.459 391.704 413.193 391.704L527.75 390.004C534.484 390.004 540 397.143 540 403.852C540 410.561 534.541 416 527.807 416H413.193C406.459 416 401 410.561 401 403.852Z" fill="#F5F5F5"/>
<path d="M496.313 376.884C496.313 393.388 483.102 406.768 466.806 406.768C450.509 406.768 437.299 393.388 437.299 376.884C437.299 360.379 450.509 347 466.806 347C483.102 347 496.313 360.379 496.313 376.884Z" fill="#F5F5F5"/>
<path d="M457.088 390.004C457.088 401.141 446.825 410.169 434.165 410.169C421.505 410.169 411.242 401.141 411.242 390.004C411.242 378.866 421.505 369.838 434.165 369.838C446.825 369.838 457.088 378.866 457.088 390.004Z" fill="#F5F5F5"/>
<path d="M527.75 390.004C527.75 404.093 516.177 415.514 501.901 415.514C487.625 415.514 476.052 404.093 476.052 390.004C476.052 375.914 487.625 364.493 501.901 364.493C516.177 364.493 527.75 375.914 527.75 390.004Z" fill="#F5F5F5"/>
<path d="M890 556.725C890 552.155 893.81 548.451 898.509 548.451L978.452 547.292C983.151 547.292 987 552.155 987 556.725C987 561.295 983.19 565 978.491 565H898.509C893.81 565 890 561.295 890 556.725Z" fill="#F5F5F5"/>
<path d="M956.513 538.356C956.513 549.598 947.294 558.711 935.922 558.711C924.55 558.711 915.331 549.598 915.331 538.356C915.331 527.114 924.55 518 935.922 518C947.294 518 956.513 527.114 956.513 538.356Z" fill="#F5F5F5"/>
<path d="M929.14 547.292C929.14 554.878 921.978 561.028 913.144 561.028C904.309 561.028 897.147 554.878 897.147 547.292C897.147 539.706 904.309 533.556 913.144 533.556C921.978 533.556 929.14 539.706 929.14 547.292Z" fill="#F5F5F5"/>
<path d="M978.452 547.292C978.452 556.889 970.376 564.669 960.413 564.669C950.451 564.669 942.375 556.889 942.375 547.292C942.375 537.695 950.451 529.915 960.413 529.915C970.376 529.915 978.452 537.695 978.452 547.292Z" fill="#F5F5F5"/>
<path d="M953 172.212C953 165.579 958.443 160.201 965.157 160.201L1079.38 158.519C1086.09 158.519 1091.59 165.579 1091.59 172.212C1091.59 178.846 1086.15 184.223 1079.43 184.223H965.157C958.443 184.223 953 178.846 953 172.212Z" fill="#F5F5F5"/>
<path d="M1048.03 145.547C1048.03 161.866 1034.86 175.095 1018.61 175.095C1002.36 175.095 989.192 161.866 989.192 145.547C989.192 129.229 1002.36 116 1018.61 116C1034.86 116 1048.03 129.229 1048.03 145.547Z" fill="#F5F5F5"/>
<path d="M1008.92 158.519C1008.92 169.531 998.69 178.458 986.068 178.458C973.445 178.458 963.212 169.531 963.212 158.519C963.212 147.508 973.445 138.581 986.068 138.581C998.69 138.581 1008.92 147.508 1008.92 158.519Z" fill="#F5F5F5"/>
<path d="M1079.38 158.519C1079.38 172.45 1067.84 183.743 1053.61 183.743C1039.37 183.743 1027.83 172.45 1027.83 158.519C1027.83 144.589 1039.37 133.296 1053.61 133.296C1067.84 133.296 1079.38 144.589 1079.38 158.519Z" fill="#F5F5F5"/>
</svg>
