<svg width="363" height="178" viewBox="0 0 363 178" fill="none" xmlns="http://www.w3.org/2000/svg">
<path d="M0.488647 146.662C0.488647 129.354 14.6898 115.324 32.2077 115.324L330.22 110.937C347.738 110.937 362.086 129.354 362.086 146.662C362.086 163.969 347.885 178 330.367 178H32.2077C14.6898 178 0.488647 163.969 0.488647 146.662Z" fill="white"/>
<path d="M248.437 77.0916C248.437 119.668 214.071 154.183 171.677 154.183C129.284 154.183 94.9169 119.668 94.9169 77.0916C94.9169 34.5151 129.284 0 171.677 0C214.071 0 248.437 34.5151 248.437 77.0916Z" fill="white"/>
<path d="M146.396 110.937C146.396 139.667 119.698 162.958 86.7645 162.958C53.8308 162.958 27.1327 139.667 27.1327 110.937C27.1327 82.2061 53.8308 58.9155 86.7645 58.9155C119.698 58.9155 146.396 82.2061 146.396 110.937Z" fill="white"/>
<path d="M330.22 110.937C330.22 147.282 300.114 176.746 262.976 176.746C225.837 176.746 195.731 147.282 195.731 110.937C195.731 74.5908 225.837 45.1268 262.976 45.1268C300.114 45.1268 330.22 74.5908 330.22 110.937Z" fill="white"/>
</svg>
