<svg width="371" height="186" viewBox="0 0 371 186" fill="none" xmlns="http://www.w3.org/2000/svg">
<g filter="url(#filter0_d)">
<path d="M4.48865 146.662C4.48865 129.354 18.6898 115.324 36.2077 115.324L334.22 110.937C351.738 110.937 366.086 129.354 366.086 146.662C366.086 163.969 351.885 178 334.367 178H36.2077C18.6898 178 4.48865 163.969 4.48865 146.662Z" fill="white"/>
<path d="M252.437 77.0916C252.437 119.668 218.071 154.183 175.677 154.183C133.284 154.183 98.9169 119.668 98.9169 77.0916C98.9169 34.5151 133.284 0 175.677 0C218.071 0 252.437 34.5151 252.437 77.0916Z" fill="white"/>
<path d="M150.396 110.937C150.396 139.667 123.698 162.958 90.7645 162.958C57.8308 162.958 31.1327 139.667 31.1327 110.937C31.1327 82.2061 57.8308 58.9155 90.7645 58.9155C123.698 58.9155 150.396 82.2061 150.396 110.937Z" fill="white"/>
<path d="M334.22 110.937C334.22 147.282 304.114 176.746 266.976 176.746C229.837 176.746 199.731 147.282 199.731 110.937C199.731 74.5908 229.837 45.1268 266.976 45.1268C304.114 45.1268 334.22 74.5908 334.22 110.937Z" fill="white"/>
</g>
<defs>
<filter id="filter0_d" x="0.488647" y="0" width="369.597" height="186" filterUnits="userSpaceOnUse" color-interpolation-filters="sRGB">
<feFlood flood-opacity="0" result="BackgroundImageFix"/>
<feColorMatrix in="SourceAlpha" type="matrix" values="0 0 0 0 0 0 0 0 0 0 0 0 0 0 0 0 0 0 127 0"/>
<feOffset dy="4"/>
<feGaussianBlur stdDeviation="2"/>
<feColorMatrix type="matrix" values="0 0 0 0 0 0 0 0 0 0 0 0 0 0 0 0 0 0 0.25 0"/>
<feBlend mode="normal" in2="BackgroundImageFix" result="effect1_dropShadow"/>
<feBlend mode="normal" in="SourceGraphic" in2="effect1_dropShadow" result="shape"/>
</filter>
</defs>
</svg>
