<svg width="873" height="809" viewBox="0 0 873 809" fill="none" xmlns="http://www.w3.org/2000/svg">
<g filter="url(#filter0_d)">
<circle cx="96.9565" cy="434.19" r="10.8216" transform="rotate(-66.9388 96.9565 434.19)" fill="#BEFF7E"/>
<circle cx="83.1678" cy="428.32" r="10.8216" transform="rotate(-66.9388 83.1678 428.32)" fill="#BEFF7E"/>
<circle cx="87.1287" cy="438.148" r="7.49188" transform="rotate(-66.9388 87.1287 438.148)" fill="#BEFF7E"/>
<circle cx="85.7636" cy="415.854" r="5.82701" transform="rotate(-66.9388 85.7636 415.854)" fill="#BEFF7E"/>
<circle cx="95.1657" cy="417.142" r="10.8216" transform="rotate(-66.9388 95.1657 417.142)" fill="#BEFF7E"/>
<path d="M97.139 434.267L106.655 424.828L98.0007 417.719L108.176 423.755L150.6 414.805L151.598 421.389L108.425 425.402L97.139 434.267Z" fill="#BF3F3F"/>
<circle cx="502.756" cy="709.879" r="8.56136" transform="rotate(-150.113 502.756 709.879)" fill="#BEFF7E"/>
<circle cx="496.849" cy="720.157" r="8.56136" transform="rotate(-150.113 496.849 720.157)" fill="#BEFF7E"/>
<circle cx="504.942" cy="717.971" r="5.9271" transform="rotate(-150.113 504.942 717.971)" fill="#BEFF7E"/>
<circle cx="487.301" cy="716.946" r="4.60996" transform="rotate(-150.113 487.301 716.946)" fill="#BEFF7E"/>
<circle cx="489.197" cy="709.681" r="8.56136" transform="rotate(-150.113 489.197 709.681)" fill="#BEFF7E"/>
<path d="M502.835 709.741L496.314 701.379L489.917 707.508L495.615 700.083L492.573 665.916L497.839 665.752L496.932 700.042L502.835 709.741Z" fill="#BF3F3F"/>
<circle cx="432.676" cy="726.336" r="8.56136" transform="rotate(-141.873 432.676 726.336)" fill="#BEFF7E"/>
<circle cx="425.357" cy="735.664" r="8.56136" transform="rotate(-141.873 425.357 735.664)" fill="#BEFF7E"/>
<circle cx="433.68" cy="734.658" r="5.9271" transform="rotate(-141.873 433.68 734.658)" fill="#BEFF7E"/>
<circle cx="416.367" cy="731.116" r="4.60996" transform="rotate(-141.873 416.367 731.116)" fill="#BEFF7E"/>
<circle cx="419.285" cy="724.199" r="8.56136" transform="rotate(-141.873 419.285 724.199)" fill="#BEFF7E"/>
<path d="M432.773 726.212L427.519 717.002L420.309 722.151L427.013 715.619L428.899 681.369L434.134 681.961L428.321 715.767L432.773 726.212Z" fill="#BF3F3F"/>
<path opacity="0.87" d="M713.431 603.067L640.558 552.813L660.571 523.793L733.444 574.047L738.681 598.369L713.431 603.067Z" fill="#979797"/>
<path opacity="0.87" d="M749.367 576.731L670.308 536.912L686.165 505.428L765.224 545.247L772.211 569.584L749.367 576.731Z" fill="#979797"/>
<rect opacity="0.87" x="719.322" y="580.3" width="9.40043" height="3.91685" transform="rotate(-147.984 719.322 580.3)" fill="#C4C4C4"/>
<rect opacity="0.87" x="711.675" y="593.046" width="9.40043" height="3.91685" transform="rotate(-147.984 711.675 593.046)" fill="#C4C4C4"/>
<rect opacity="0.87" x="702.497" y="569.34" width="9.40043" height="3.91685" transform="rotate(-147.984 702.497 569.34)" fill="#C4C4C4"/>
<rect opacity="0.87" x="694.851" y="582.084" width="9.40043" height="3.91685" transform="rotate(-147.984 694.851 582.084)" fill="#C4C4C4"/>
<rect opacity="0.87" x="750.173" y="552.842" width="9.40043" height="3.91685" transform="rotate(-148.044 750.173 552.842)" fill="#C4C4C4"/>
<rect opacity="0.87" x="742.54" y="565.595" width="9.40043" height="3.91685" transform="rotate(-148.044 742.54 565.595)" fill="#C4C4C4"/>
<rect opacity="0.87" x="726.284" y="541.143" width="9.40043" height="3.91685" transform="rotate(-148.044 726.284 541.143)" fill="#C4C4C4"/>
<rect opacity="0.87" x="718.651" y="553.896" width="9.40043" height="3.91685" transform="rotate(-148.044 718.651 553.896)" fill="#C4C4C4"/>
<path d="M717.493 416.602C746 426.837 761.999 431.468 790.549 438.994L789.709 441.733C760.757 433.786 744.672 429.053 716.654 419.341L717.493 416.602Z" fill="#A52A2A"/>
<path d="M708.691 470.873C738.977 470.545 755.611 471.414 785.05 473.659L785.155 470.796C755.197 468.816 738.449 468.016 708.795 468.01L708.691 470.873Z" fill="#A52A2A"/>
<path d="M791.869 435.931L820.356 439.847L814.649 481.365L786.162 477.449C780.045 460.313 781.609 451.26 791.869 435.931Z" fill="#B8B8B8"/>
<path d="M838.628 464.859L811.53 486.336C807.452 465.734 808.968 454.459 821.126 435.037L838.628 464.859Z" fill="#A52A2A"/>
<rect x="734.221" y="420.982" width="3" height="52" transform="rotate(10.5957 734.221 420.982)" fill="#A52A2A"/>
<rect x="752.529" y="426.442" width="3" height="47" transform="rotate(10.5957 752.529 426.442)" fill="#A52A2A"/>
<rect x="771.821" y="432.085" width="3" height="42" transform="rotate(10.5957 771.821 432.085)" fill="#A52A2A"/>
<rect x="41.8655" y="292.803" width="157.129" height="57.5878" transform="rotate(12.5602 41.8655 292.803)" fill="#909090"/>
<rect x="48.4212" y="298.547" width="8.59613" height="44.8909" transform="rotate(13.6446 48.4212 298.547)" fill="#C4C4C4"/>
<rect x="64.5267" y="301.362" width="8.59613" height="44.8909" transform="rotate(13.6446 64.5267 301.362)" fill="#C4C4C4"/>
<rect x="80.3578" y="305.099" width="8.59613" height="44.8909" transform="rotate(13.6446 80.3578 305.099)" fill="#C4C4C4"/>
<rect x="96.1893" y="308.828" width="8.59613" height="44.8909" transform="rotate(13.6446 96.1893 308.828)" fill="#C4C4C4"/>
<rect x="112.936" y="312.829" width="8.59613" height="44.8909" transform="rotate(13.6446 112.936 312.829)" fill="#C4C4C4"/>
<rect x="168.887" y="154.515" width="88.5207" height="35.2516" transform="rotate(36.7301 168.887 154.515)" fill="#B5B5B5"/>
<rect x="151.831" y="195.462" width="88.5207" height="35.2516" transform="rotate(28.9321 151.831 195.462)" fill="#B5B5B5"/>
<rect x="151.63" y="240.755" width="88.5207" height="35.2516" transform="rotate(20.3792 151.63 240.755)" fill="#B5B5B5"/>
<rect x="162.149" y="177.045" width="9.39903" height="3.91626" transform="rotate(34.1556 162.149 177.045)" fill="#C4C4C4"/>
<rect x="170.266" y="164.591" width="9.39903" height="3.91626" transform="rotate(34.1556 170.266 164.591)" fill="#C4C4C4"/>
<rect x="178.552" y="188.625" width="9.39903" height="3.91626" transform="rotate(34.1556 178.552 188.625)" fill="#C4C4C4"/>
<rect x="186.669" y="176.173" width="9.39903" height="3.91626" transform="rotate(34.1556 186.669 176.173)" fill="#C4C4C4"/>
<rect x="196.074" y="202.119" width="9.39903" height="3.91626" transform="rotate(34.1556 196.074 202.119)" fill="#C4C4C4"/>
<rect x="204.192" y="189.667" width="9.39903" height="3.91626" transform="rotate(34.1556 204.192 189.667)" fill="#C4C4C4"/>
<rect x="150.108" y="219.302" width="9.39903" height="3.91626" transform="rotate(34.1556 150.108 219.302)" fill="#C4C4C4"/>
<rect x="158.225" y="206.85" width="9.39903" height="3.91626" transform="rotate(34.1556 158.225 206.85)" fill="#C4C4C4"/>
<rect x="173.531" y="231.911" width="9.39903" height="3.91626" transform="rotate(34.1556 173.531 231.911)" fill="#C4C4C4"/>
<rect x="181.647" y="219.458" width="9.39903" height="3.91626" transform="rotate(34.1556 181.647 219.458)" fill="#C4C4C4"/>
<rect x="155.313" y="264.391" width="9.39903" height="3.91626" transform="rotate(34.1556 155.313 264.391)" fill="#C4C4C4"/>
<rect x="163.431" y="251.938" width="9.39903" height="3.91626" transform="rotate(34.1556 163.431 251.938)" fill="#C4C4C4"/>
<circle cx="476.402" cy="753.375" r="12.4166" transform="rotate(-150.118 476.402 753.375)" fill="#A3FF4A"/>
<circle cx="467.837" cy="768.279" r="12.4166" transform="rotate(-150.118 467.837 768.279)" fill="#A3FF4A"/>
<circle cx="479.573" cy="765.109" r="8.59613" transform="rotate(-150.118 479.573 765.109)" fill="#A3FF4A"/>
<circle cx="453.987" cy="763.627" r="6.68588" transform="rotate(-150.118 453.987 763.627)" fill="#A3FF4A"/>
<circle cx="456.738" cy="753.088" r="12.4166" transform="rotate(-150.118 456.738 753.088)" fill="#A3FF4A"/>
<path d="M476.516 753.174L467.059 741.047L457.781 749.937L466.045 739.167L461.629 689.615L469.266 689.376L467.954 739.108L476.516 753.174Z" fill="#A52A2A"/>
<circle cx="357.775" cy="100.376" r="8.05548" transform="rotate(25.7884 357.775 100.376)" fill="#BEFF7E"/>
<circle cx="272.695" cy="131.735" r="8.05548" transform="rotate(9.30244 272.695 131.735)" fill="#BEFF7E"/>
<circle cx="253.733" cy="155.512" r="6.06154" transform="rotate(-10.0645 253.733 155.512)" fill="#BEFF7E"/>
<circle cx="232.355" cy="157.526" r="7.76485" transform="rotate(-10.0645 232.355 157.526)" fill="#BEFF7E"/>
<circle cx="362.628" cy="90.3329" r="8.05548" transform="rotate(25.7884 362.628 90.3329)" fill="#BEFF7E"/>
<circle cx="274.497" cy="120.727" r="8.05548" transform="rotate(9.30244 274.497 120.727)" fill="#BEFF7E"/>
<circle cx="252.266" cy="147.249" r="6.06154" transform="rotate(-10.0645 252.266 147.249)" fill="#BEFF7E"/>
<circle cx="230.476" cy="146.94" r="7.76485" transform="rotate(-10.0645 230.476 146.94)" fill="#BEFF7E"/>
<circle cx="355.181" cy="92.9311" r="5.57687" transform="rotate(25.7884 355.181 92.9311)" fill="#BEFF7E"/>
<circle cx="268.094" cy="125.333" r="5.57687" transform="rotate(9.30244 268.094 125.333)" fill="#BEFF7E"/>
<circle cx="248.869" cy="152.115" r="4.19645" transform="rotate(-10.0645 248.869 152.115)" fill="#BEFF7E"/>
<circle cx="226.125" cy="153.174" r="5.37567" transform="rotate(-10.0645 226.125 153.174)" fill="#BEFF7E"/>
<circle cx="371.806" cy="92.701" r="4.33692" transform="rotate(25.7884 371.806 92.701)" fill="#BEFF7E"/>
<circle cx="283.97" cy="120.395" r="4.33692" transform="rotate(9.30244 283.97 120.395)" fill="#BEFF7E"/>
<circle cx="258.907" cy="144.648" r="3.26342" transform="rotate(-10.0645 258.907 144.648)" fill="#BEFF7E"/>
<circle cx="238.984" cy="143.609" r="4.18046" transform="rotate(-10.0645 238.984 143.609)" fill="#BEFF7E"/>
<circle cx="370.515" cy="99.6498" r="8.05548" transform="rotate(25.7884 370.515 99.6498)" fill="#BEFF7E"/>
<circle cx="284.704" cy="127.424" r="8.05548" transform="rotate(9.30244 284.704 127.424)" fill="#BEFF7E"/>
<circle cx="261.183" cy="149.455" r="6.06154" transform="rotate(-10.0645 261.183 149.455)" fill="#BEFF7E"/>
<circle cx="241.899" cy="149.765" r="7.76485" transform="rotate(-10.0645 241.899 149.765)" fill="#BEFF7E"/>
<path d="M357.711 100.51L364.393 107.92L369.985 101.737L365.136 109.089L370.289 140.951L365.358 141.459L363.904 109.216L357.711 100.51Z" fill="#BF3F3F"/>
<path d="M272.671 131.882L281.181 137.091L284.788 129.576L282.225 138.001L296.208 167.091L291.623 168.978L281.079 138.473L272.671 131.882Z" fill="#BF3F3F"/>
<path d="M253.517 156.232L260.662 158.538L261.972 152.403L261.587 159.019L276.955 177.825L273.935 180.015L260.832 159.567L253.517 156.232Z" fill="#BF3F3F"/>
<path d="M232.381 157.667L241.784 159.684L242.663 151.696L243.025 160.178L265.039 182.161L261.473 185.342L242.134 160.973L232.381 157.667Z" fill="#BF3F3F"/>
<path d="M692.239 96.1809C694.584 93.2066 698.897 92.6969 701.871 95.0426C704.846 97.3882 705.355 101.701 703.01 104.675L696.705 112.67L685.934 104.176L692.239 96.1809Z" fill="#978062"/>
<rect width="2.64361" height="119.205" transform="matrix(0.226165 0.974088 -0.686924 0.726728 690.057 100.987)" fill="#978062"/>
<rect width="2.8635" height="19.3893" transform="matrix(-0.69545 0.718572 -0.0738831 -0.997266 683.422 129.031)" fill="#978062"/>
<rect width="2.8635" height="19.3894" transform="matrix(0.536673 -0.843789 0.987016 -0.160614 670.861 123.175)" fill="#978062"/>
<rect width="2.85563" height="22.8783" transform="matrix(-0.721158 0.692769 -0.226093 -0.974104 669.628 150.662)" fill="#978062"/>
<rect width="2.85563" height="22.8784" transform="matrix(0.505587 -0.862774 0.999973 -0.00719735 653.215 141.773)" fill="#978062"/>
<rect width="2.84655" height="26.4283" transform="matrix(-0.743671 0.668543 -0.325446 -0.945559 655.498 172.032)" fill="#978062"/>
<rect width="2.84655" height="26.4284" transform="matrix(0.476781 -0.87902 0.995373 0.0960728 635.556 160.354)" fill="#978062"/>
<rect width="2.86119" height="29.5788" transform="matrix(-0.761765 0.647851 -0.388118 -0.921609 642.445 192.561)" fill="#978062"/>
<rect width="2.86119" height="29.5788" transform="matrix(0.452442 -0.891792 0.986691 0.162601 619.537 178.55)" fill="#978062"/>
<rect width="2.64361" height="117.86" transform="matrix(0.999973 -0.00711761 -0.546592 0.837397 695.426 108.505)" fill="#978062"/>
<path d="M736.754 80.2651L704.168 97.7725L698.233 86.7267C712.637 80.8263 719.676 76.9394 730.82 69.2193L736.754 80.2651Z" fill="#FDFFAE" fill-opacity="0.9"/>
<path d="M736.077 80.0613L704.372 97.0954L698.936 86.9786C712.831 81.2632 719.865 77.389 730.644 69.9487L736.077 80.0613Z" stroke="black" stroke-opacity="0.6"/>
<line x1="735.746" y1="78.3911" x2="703.159" y2="95.8985" stroke="#E8E8E8"/>
<line x1="734.496" y1="76.0606" x2="701.909" y2="93.5679" stroke="#E8E8E8"/>
<line x1="733.247" y1="73.7344" x2="700.661" y2="91.2418" stroke="#E8E8E8"/>
<line x1="731.998" y1="71.4112" x2="699.412" y2="88.9185" stroke="#E8E8E8"/>
<line x1="733.887" y1="81.8123" x2="727.952" y2="70.7665" stroke="#E8E8E8"/>
<line x1="731.941" y1="82.8597" x2="726.007" y2="71.8139" stroke="#E8E8E8"/>
<line x1="729.996" y1="83.907" x2="724.061" y2="72.8612" stroke="#E8E8E8"/>
<line x1="728.051" y1="84.9515" x2="722.116" y2="73.9057" stroke="#E8E8E8"/>
<line x1="726.104" y1="85.9969" x2="720.169" y2="74.9511" stroke="#E8E8E8"/>
<line x1="724.159" y1="87.0403" x2="718.224" y2="75.9945" stroke="#E8E8E8"/>
<line x1="722.213" y1="88.0848" x2="716.279" y2="77.039" stroke="#E8E8E8"/>
<line x1="720.267" y1="89.1317" x2="714.333" y2="78.0858" stroke="#E8E8E8"/>
<line x1="718.321" y1="90.179" x2="712.387" y2="79.1332" stroke="#E8E8E8"/>
<line x1="716.376" y1="91.221" x2="710.442" y2="80.1752" stroke="#E8E8E8"/>
<line x1="714.431" y1="92.2654" x2="708.496" y2="81.2196" stroke="#E8E8E8"/>
<line x1="712.486" y1="93.3113" x2="706.552" y2="82.2655" stroke="#E8E8E8"/>
<line x1="710.541" y1="94.3553" x2="704.606" y2="83.3095" stroke="#E8E8E8"/>
<line x1="708.594" y1="95.4012" x2="702.66" y2="84.3554" stroke="#E8E8E8"/>
<line x1="706.649" y1="96.4495" x2="700.715" y2="85.4037" stroke="#E8E8E8"/>
<path d="M694.452 117.806C684.367 122.139 679.924 123.42 661.866 135.314L655.931 124.268L688.518 106.76L694.452 117.806Z" fill="#FDFFAE" fill-opacity="0.9"/>
<path d="M688.314 107.437L693.753 117.562C692.717 118.005 691.739 118.417 690.797 118.814C682.951 122.122 677.596 124.379 662.047 134.595L656.608 124.472L688.314 107.437Z" stroke="black" stroke-opacity="0.6"/>
<line x1="693.445" y1="115.928" x2="660.858" y2="133.435" stroke="#E8E8E8"/>
<line x1="692.195" y1="113.598" x2="659.609" y2="131.106" stroke="#E8E8E8"/>
<line x1="690.946" y1="111.271" x2="658.36" y2="128.778" stroke="#E8E8E8"/>
<line x1="689.697" y1="108.946" x2="657.11" y2="126.454" stroke="#E8E8E8"/>
<line x1="691.586" y1="119.349" x2="685.651" y2="108.304" stroke="#E8E8E8"/>
<line x1="689.64" y1="120.396" x2="683.706" y2="109.35" stroke="#E8E8E8"/>
<line x1="687.695" y1="121.443" x2="681.76" y2="110.397" stroke="#E8E8E8"/>
<line x1="685.749" y1="122.489" x2="679.815" y2="111.443" stroke="#E8E8E8"/>
<line x1="683.802" y1="123.533" x2="677.868" y2="112.487" stroke="#E8E8E8"/>
<line x1="681.858" y1="124.576" x2="675.923" y2="113.531" stroke="#E8E8E8"/>
<line x1="679.912" y1="125.622" x2="673.978" y2="114.576" stroke="#E8E8E8"/>
<line x1="677.966" y1="126.668" x2="672.032" y2="115.622" stroke="#E8E8E8"/>
<line x1="676.02" y1="127.715" x2="670.086" y2="116.669" stroke="#E8E8E8"/>
<line x1="674.076" y1="128.759" x2="668.141" y2="117.713" stroke="#E8E8E8"/>
<line x1="672.13" y1="129.803" x2="666.196" y2="118.757" stroke="#E8E8E8"/>
<line x1="670.185" y1="130.848" x2="664.25" y2="119.803" stroke="#E8E8E8"/>
<line x1="668.24" y1="131.893" x2="662.305" y2="120.847" stroke="#E8E8E8"/>
<line x1="666.294" y1="132.939" x2="660.359" y2="121.893" stroke="#E8E8E8"/>
<line x1="664.349" y1="133.985" x2="658.414" y2="122.939" stroke="#E8E8E8"/>
<path d="M674.7 61.5879L692.207 94.1743L681.161 100.109C676.016 86.7271 672.116 79.6164 663.654 67.5223L674.7 61.5879Z" fill="#FDFFAE" fill-opacity="0.9"/>
<path d="M674.496 62.265L691.53 93.9705L681.424 99.4001C676.427 86.4853 672.537 79.3843 664.386 67.6968L674.496 62.265Z" stroke="black" stroke-opacity="0.6"/>
<line x1="672.817" y1="62.5998" x2="690.324" y2="95.1862" stroke="#E8E8E8"/>
<line x1="670.491" y1="63.8498" x2="687.999" y2="96.4362" stroke="#E8E8E8"/>
<line x1="668.167" y1="65.0988" x2="685.675" y2="97.6852" stroke="#E8E8E8"/>
<line x1="665.84" y1="66.3469" x2="683.347" y2="98.9333" stroke="#E8E8E8"/>
<line x1="676.244" y1="64.4595" x2="665.198" y2="70.394" stroke="#E8E8E8"/>
<line x1="677.289" y1="66.4048" x2="666.243" y2="72.3393" stroke="#E8E8E8"/>
<line x1="678.334" y1="68.3521" x2="667.289" y2="74.2865" stroke="#E8E8E8"/>
<line x1="679.379" y1="70.2979" x2="668.333" y2="76.2323" stroke="#E8E8E8"/>
<line x1="680.425" y1="72.2403" x2="669.379" y2="78.1747" stroke="#E8E8E8"/>
<line x1="681.47" y1="74.1875" x2="670.424" y2="80.122" stroke="#E8E8E8"/>
<line x1="682.515" y1="76.1338" x2="671.469" y2="82.0683" stroke="#E8E8E8"/>
<line x1="683.56" y1="78.0752" x2="672.515" y2="84.0097" stroke="#E8E8E8"/>
<line x1="684.606" y1="80.0244" x2="673.56" y2="85.9589" stroke="#E8E8E8"/>
<line x1="685.65" y1="81.9663" x2="674.605" y2="87.9008" stroke="#E8E8E8"/>
<line x1="686.696" y1="83.9126" x2="675.651" y2="89.8471" stroke="#E8E8E8"/>
<line x1="687.742" y1="85.8579" x2="676.696" y2="91.7924" stroke="#E8E8E8"/>
<line x1="688.786" y1="87.8042" x2="677.741" y2="93.7387" stroke="#E8E8E8"/>
<line x1="689.832" y1="89.7486" x2="678.787" y2="95.683" stroke="#E8E8E8"/>
<line x1="690.876" y1="91.6973" x2="679.831" y2="97.6318" stroke="#E8E8E8"/>
<path d="M711.294 104.002C716.233 116.454 719.761 123.545 728.801 136.589L717.755 142.523L700.248 109.937L711.294 104.002Z" fill="#FDFFAE" fill-opacity="0.9"/>
<path d="M700.925 110.141L711.036 104.708C715.824 116.727 719.368 123.809 728.072 136.413L717.959 141.846L700.925 110.141Z" stroke="black" stroke-opacity="0.6"/>
<line x1="709.408" y1="105.013" x2="726.916" y2="137.6" stroke="#E8E8E8"/>
<line x1="707.083" y1="106.266" x2="724.59" y2="138.853" stroke="#E8E8E8"/>
<line x1="704.758" y1="107.516" x2="722.265" y2="140.102" stroke="#E8E8E8"/>
<line x1="702.432" y1="108.765" x2="719.939" y2="141.351" stroke="#E8E8E8"/>
<line x1="712.836" y1="106.873" x2="701.79" y2="112.807" stroke="#E8E8E8"/>
<line x1="713.881" y1="108.819" x2="702.835" y2="114.754" stroke="#E8E8E8"/>
<line x1="714.926" y1="110.77" x2="703.88" y2="116.704" stroke="#E8E8E8"/>
<line x1="715.972" y1="112.713" x2="704.926" y2="118.648" stroke="#E8E8E8"/>
<line x1="717.017" y1="114.658" x2="705.971" y2="120.593" stroke="#E8E8E8"/>
<line x1="718.061" y1="116.605" x2="707.016" y2="122.539" stroke="#E8E8E8"/>
<line x1="719.107" y1="118.546" x2="708.061" y2="124.481" stroke="#E8E8E8"/>
<line x1="720.153" y1="120.493" x2="709.107" y2="126.428" stroke="#E8E8E8"/>
<line x1="721.197" y1="122.439" x2="710.152" y2="128.373" stroke="#E8E8E8"/>
<line x1="722.242" y1="124.383" x2="711.197" y2="130.318" stroke="#E8E8E8"/>
<line x1="723.288" y1="126.328" x2="712.242" y2="132.263" stroke="#E8E8E8"/>
<line x1="724.334" y1="128.277" x2="713.288" y2="134.211" stroke="#E8E8E8"/>
<line x1="725.379" y1="130.221" x2="714.333" y2="136.156" stroke="#E8E8E8"/>
<line x1="726.423" y1="132.165" x2="715.377" y2="138.1" stroke="#E8E8E8"/>
<line x1="727.469" y1="134.114" x2="716.423" y2="140.048" stroke="#E8E8E8"/>
<circle cx="696.236" cy="102.475" r="2.67245" transform="rotate(151.753 696.236 102.475)" fill="#E8E8E8"/>
<rect x="576.9" y="93.7246" width="9.05475" height="25.806" transform="rotate(24.0209 576.9 93.7246)" fill="white"/>
<path d="M561.702 121.157L607.603 141.614L593.228 173.869L547.327 153.412L561.702 121.157Z" fill="white"/>
<path d="M595.342 107.398L607.659 141.884L561.461 121.295L595.342 107.398Z" fill="white"/>
<rect x="598.465" y="107.481" width="46.1792" height="4.07464" transform="rotate(159.021 598.465 107.481)" fill="#7D6549"/>
<rect x="597.105" y="103.723" width="46.1792" height="4.07464" transform="rotate(69.0209 597.105 103.723)" fill="#7D6549"/>
<rect x="565.788" y="126.99" width="15.7513" height="14.3931" rx="1.5" transform="rotate(24.0209 565.788 126.99)" fill="#FCFF6F" stroke="#7D6549"/>
<rect x="586.14" y="137.497" width="14.4876" height="30.3334" transform="rotate(24.0209 586.14 137.497)" fill="#7D6549"/>
<line x1="573.251" y1="130.265" x2="567.537" y2="143.084" stroke="#7D6549"/>
<line x1="562.421" y1="133.317" x2="577.721" y2="140.136" stroke="#7D6549"/>
<rect x="580.287" y="151.74" width="2.7157" height="0.452617" transform="rotate(24.0209 580.287 151.74)" fill="#FFF59A"/>
<rect x="580.931" y="152.523" width="0.905235" height="1.35785" transform="rotate(24.0209 580.931 152.523)" fill="#FFF59A"/>
<rect x="586.464" y="135.662" width="15.3931" height="1.81095" transform="rotate(24.0209 586.464 135.662)" fill="#C4C4C4"/>
<rect x="576.855" y="92.7134" width="9.95875" height="2.71602" transform="rotate(24.0209 576.855 92.7134)" fill="#7D6549"/>
<rect x="559.408" y="138.969" width="17.6568" height="2.71643" transform="rotate(24.0209 559.408 138.969)" fill="#C4C4C4"/>
<path d="M715.032 473.38C680.742 627.331 528.143 724.335 374.193 690.046C220.242 655.756 123.238 503.158 157.527 349.207C191.817 195.257 344.416 98.2522 498.366 132.542C652.317 166.831 749.321 319.43 715.032 473.38Z" fill="#B3E482"/>
<path d="M581 165.5C562.662 196.573 565.098 196.46 548.5 214.5M158.5 345C195.429 353.4 192.129 399.569 214 398M444.035 409.091C355.559 352.43 301.542 349.827 264.5 352M444.035 409.091C461.406 328.727 447.191 290.564 469.5 262M444.035 409.091C454.778 478.392 475.689 543.641 459 570.84M444.035 409.091C502.12 413.916 537.706 387.46 567.5 398M326.4 675.216C339.77 637.572 352.901 600.227 373 581.5M692.805 539.079C657.173 520.376 660.82 482.247 612 451.373M264.5 352C256.192 319.928 268.816 288.065 273.141 262M264.5 352C252.65 352.695 227.001 397.067 214 398M303 195.5C296.135 204.209 290.425 213.191 285.823 222.5M273.141 262C236.816 263.331 219.041 262.065 204.5 246.5M273.141 262C275.438 248.153 279.627 235.031 285.823 222.5M285.823 222.5C370 201.5 402.163 204 469.5 262M469.5 262C477.452 251.819 540.018 223.719 548.5 214.5M214 398C191.5 475.091 273.141 471.5 303 478.5C346 478.5 389.5 514.051 373 581.5M373 581.5C391.351 564.401 445.874 592.233 459 570.84M459 570.84C509.014 568.749 521.544 548.264 548.5 570.84M580.5 637C577.164 606.779 565.914 585.425 548.5 570.84M612 451.373C611.992 511.673 598.499 538.057 548.5 570.84M612 451.373C601.65 444.828 583.441 403.639 567.5 398M548.5 214.5C621.5 227.362 592 338 567.5 398" stroke="#EEEEEE" stroke-width="5" stroke-linejoin="round" stroke-dasharray="15 5"/>
<g filter="url(#filter1_d)">
<rect x="380.955" y="137.768" width="0.954873" height="4.77436" transform="rotate(12.5566 380.955 137.768)" fill="#3B3B3B"/>
<rect x="388.413" y="139.429" width="0.954873" height="4.77436" transform="rotate(12.5566 388.413 139.429)" fill="#3B3B3B"/>
<path d="M381.579 130.569C381.292 131.857 380.016 132.668 378.729 132.381C377.442 132.094 376.631 130.818 376.917 129.531C377.204 128.244 378.48 127.433 379.767 127.72C381.054 128.006 381.866 129.282 381.579 130.569Z" fill="white"/>
<path d="M383.859 129.12C383.572 130.407 382.296 131.218 381.009 130.932C379.722 130.645 378.911 129.369 379.197 128.082C379.484 126.795 380.76 125.984 382.047 126.27C383.334 126.557 384.145 127.833 383.859 129.12Z" fill="white"/>
<path d="M383.96 133.057C383.674 134.344 382.398 135.155 381.111 134.869C379.823 134.582 379.012 133.306 379.299 132.019C379.586 130.731 380.862 129.92 382.149 130.207C383.436 130.494 384.247 131.77 383.96 133.057Z" fill="white"/>
<path d="M387.588 129.951C387.301 131.238 386.025 132.049 384.738 131.762C383.451 131.476 382.64 130.2 382.926 128.913C383.213 127.625 384.489 126.814 385.776 127.101C387.063 127.388 387.874 128.664 387.588 129.951Z" fill="white"/>
<path d="M385.1 132.332C384.814 133.62 383.538 134.431 382.25 134.144C380.963 133.857 380.152 132.581 380.439 131.294C380.726 130.007 382.001 129.196 383.289 129.482C384.576 129.769 385.387 131.045 385.1 132.332Z" fill="white"/>
<path d="M389.762 133.371C389.475 134.658 388.199 135.469 386.912 135.182C385.625 134.895 384.814 133.62 385.1 132.332C385.387 131.045 386.663 130.234 387.95 130.521C389.237 130.807 390.048 132.083 389.762 133.371Z" fill="white"/>
<path d="M391.109 131.714C390.823 133.001 389.547 133.812 388.259 133.525C386.972 133.239 386.161 131.963 386.448 130.675C386.735 129.388 388.01 128.577 389.298 128.864C390.585 129.151 391.396 130.426 391.109 131.714Z" fill="white"/>
<path d="M392.351 134.926C392.064 136.213 390.788 137.024 389.501 136.737C388.214 136.451 387.403 135.175 387.689 133.888C387.976 132.6 389.252 131.789 390.539 132.076C391.827 132.363 392.638 133.639 392.351 134.926Z" fill="white"/>
<path d="M388.931 137.1C388.644 138.387 387.368 139.198 386.081 138.911C384.794 138.625 383.983 137.349 384.27 136.061C384.556 134.774 385.832 133.963 387.12 134.25C388.407 134.537 389.218 135.812 388.931 137.1Z" fill="white"/>
<path d="M386.859 137.617C386.572 138.904 385.296 139.715 384.009 139.428C382.722 139.142 381.911 137.866 382.197 136.578C382.484 135.291 383.76 134.48 385.047 134.767C386.335 135.054 387.146 136.329 386.859 137.617Z" fill="white"/>
<path d="M390.38 139.38C390.094 140.667 388.818 141.478 387.531 141.191C386.243 140.904 385.432 139.629 385.719 138.341C386.006 137.054 387.282 136.243 388.569 136.53C389.856 136.816 390.667 138.092 390.38 139.38Z" fill="white"/>
<path d="M392.66 137.93C392.374 139.217 391.098 140.029 389.81 139.742C388.523 139.455 387.712 138.179 387.999 136.892C388.286 135.605 389.561 134.794 390.849 135.08C392.136 135.367 392.947 136.643 392.66 137.93Z" fill="white"/>
<path d="M394.423 134.409C394.136 135.696 392.86 136.507 391.573 136.22C390.286 135.934 389.475 134.658 389.762 133.371C390.048 132.083 391.324 131.272 392.612 131.559C393.899 131.846 394.71 133.122 394.423 134.409Z" fill="white"/>
<path d="M394.631 133.477C394.344 134.764 393.068 135.575 391.781 135.288C390.494 135.001 389.683 133.725 389.969 132.438C390.256 131.151 391.532 130.34 392.819 130.627C394.106 130.913 394.917 132.189 394.631 133.477Z" fill="white"/>
<path d="M395.872 136.689C395.586 137.976 394.31 138.787 393.023 138.5C391.735 138.214 390.924 136.938 391.211 135.65C391.498 134.363 392.774 133.552 394.061 133.839C395.348 134.126 396.159 135.401 395.872 136.689Z" fill="white"/>
<path d="M382.197 136.578C381.911 137.866 380.635 138.677 379.348 138.39C378.06 138.103 377.249 136.827 377.536 135.54C377.823 134.253 379.099 133.442 380.386 133.729C381.673 134.015 382.484 135.291 382.197 136.578Z" fill="white"/>
<path d="M387.274 135.752C386.987 137.039 385.712 137.85 384.424 137.564C383.137 137.277 382.326 136.001 382.613 134.714C382.899 133.427 384.175 132.616 385.463 132.902C386.75 133.189 387.561 134.465 387.274 135.752Z" fill="white"/>
<path d="M384.27 136.061C383.983 137.349 382.707 138.16 381.42 137.873C380.133 137.586 379.322 136.31 379.608 135.023C379.895 133.736 381.171 132.925 382.458 133.212C383.745 133.498 384.556 134.774 384.27 136.061Z" fill="white"/>
<path d="M380.748 134.299C380.462 135.586 379.186 136.397 377.898 136.11C376.611 135.823 375.8 134.548 376.087 133.26C376.374 131.973 377.649 131.162 378.937 131.449C380.224 131.735 381.035 133.011 380.748 134.299Z" fill="white"/>
<path d="M397.683 141.735C397.227 143.782 394.324 142.654 392.74 142.302C391.157 141.949 390.242 140.004 390.698 137.957C391.154 135.91 392.808 134.536 394.391 134.889C395.975 135.242 398.139 139.688 397.683 141.735Z" fill="#3C3C3C"/>
<rect x="378.882" y="138.288" width="0.954873" height="4.77436" transform="rotate(12.5566 378.882 138.288)" fill="#3B3B3B"/>
<rect x="386.341" y="139.947" width="0.954873" height="4.77436" transform="rotate(12.5566 386.341 139.947)" fill="#3B3B3B"/>
</g>
<g filter="url(#filter2_d)">
<rect x="309.152" y="589.428" width="0.954873" height="4.77436" transform="rotate(-131.435 309.152 589.428)" fill="#3B3B3B"/>
<rect x="304.095" y="583.699" width="0.954873" height="4.77436" transform="rotate(-131.435 304.095 583.699)" fill="#3B3B3B"/>
<path d="M304.415 594.884C305.403 594.012 306.912 594.106 307.785 595.094C308.658 596.083 308.564 597.592 307.575 598.465C306.587 599.337 305.078 599.243 304.205 598.255C303.332 597.266 303.426 595.757 304.415 594.884Z" fill="white"/>
<path d="M301.719 594.716C302.707 593.844 304.216 593.938 305.089 594.926C305.962 595.915 305.868 597.424 304.879 598.297C303.89 599.169 302.381 599.075 301.509 598.087C300.636 597.098 300.73 595.589 301.719 594.716Z" fill="white"/>
<path d="M303.951 591.472C304.939 590.599 306.448 590.693 307.321 591.682C308.194 592.671 308.1 594.18 307.111 595.052C306.122 595.925 304.613 595.831 303.741 594.842C302.868 593.854 302.962 592.345 303.951 591.472Z" fill="white"/>
<path d="M299.19 591.852C300.179 590.98 301.688 591.074 302.561 592.062C303.433 593.051 303.339 594.56 302.351 595.433C301.362 596.305 299.853 596.211 298.98 595.223C298.108 594.234 298.202 592.725 299.19 591.852Z" fill="white"/>
<path d="M302.603 591.388C303.591 590.515 305.1 590.609 305.973 591.598C306.846 592.587 306.752 594.096 305.763 594.968C304.774 595.841 303.265 595.747 302.393 594.758C301.52 593.77 301.614 592.261 302.603 591.388Z" fill="white"/>
<path d="M299.442 587.808C300.431 586.935 301.94 587.029 302.813 588.018C303.685 589.006 303.591 590.515 302.603 591.388C301.614 592.261 300.105 592.167 299.232 591.178C298.359 590.189 298.453 588.681 299.442 587.808Z" fill="white"/>
<path d="M297.378 588.356C298.367 587.483 299.876 587.577 300.748 588.566C301.621 589.555 301.527 591.063 300.538 591.936C299.55 592.809 298.041 592.715 297.168 591.726C296.295 590.738 296.389 589.229 297.378 588.356Z" fill="white"/>
<path d="M298.262 585.028C299.251 584.155 300.76 584.249 301.632 585.237C302.505 586.226 302.411 587.735 301.422 588.608C300.434 589.481 298.925 589.387 298.052 588.398C297.179 587.409 297.273 585.9 298.262 585.028Z" fill="white"/>
<path d="M302.306 585.279C303.295 584.407 304.804 584.501 305.677 585.489C306.549 586.478 306.455 587.987 305.467 588.86C304.478 589.733 302.969 589.639 302.096 588.65C301.224 587.661 301.318 586.152 302.306 585.279Z" fill="white"/>
<path d="M304.287 586.08C305.275 585.207 306.784 585.301 307.657 586.289C308.53 587.278 308.436 588.787 307.447 589.66C306.458 590.533 304.949 590.439 304.077 589.45C303.204 588.461 303.298 586.952 304.287 586.08Z" fill="white"/>
<path d="M302.474 582.583C303.463 581.71 304.972 581.804 305.845 582.793C306.717 583.782 306.623 585.291 305.635 586.164C304.646 587.036 303.137 586.942 302.264 585.954C301.392 584.965 301.486 583.456 302.474 582.583Z" fill="white"/>
<path d="M299.778 582.415C300.767 581.543 302.276 581.637 303.148 582.625C304.021 583.614 303.927 585.123 302.938 585.996C301.95 586.868 300.441 586.774 299.568 585.786C298.695 584.797 298.789 583.288 299.778 582.415Z" fill="white"/>
<path d="M296.282 584.227C297.27 583.355 298.779 583.449 299.652 584.437C300.525 585.426 300.431 586.935 299.442 587.808C298.453 588.681 296.945 588.587 296.072 587.598C295.199 586.609 295.293 585.1 296.282 584.227Z" fill="white"/>
<path d="M295.566 584.86C296.554 583.987 298.063 584.081 298.936 585.07C299.809 586.058 299.715 587.567 298.726 588.44C297.737 589.313 296.228 589.219 295.356 588.23C294.483 587.241 294.577 585.732 295.566 584.86Z" fill="white"/>
<path d="M296.45 581.531C297.438 580.659 298.947 580.753 299.82 581.741C300.693 582.73 300.599 584.239 299.61 585.112C298.621 585.984 297.112 585.89 296.24 584.902C295.367 583.913 295.461 582.404 296.45 581.531Z" fill="white"/>
<path d="M307.447 589.66C308.436 588.787 309.945 588.881 310.817 589.87C311.69 590.858 311.596 592.367 310.607 593.24C309.619 594.113 308.11 594.019 307.237 593.03C306.364 592.042 306.458 590.533 307.447 589.66Z" fill="white"/>
<path d="M302.855 587.344C303.843 586.471 305.352 586.565 306.225 587.554C307.098 588.542 307.004 590.051 306.015 590.924C305.026 591.797 303.517 591.703 302.645 590.714C301.772 589.725 301.866 588.216 302.855 587.344Z" fill="white"/>
<path d="M305.467 588.86C306.455 587.987 307.964 588.081 308.837 589.07C309.71 590.058 309.616 591.567 308.627 592.44C307.639 593.313 306.13 593.219 305.257 592.23C304.384 591.241 304.478 589.733 305.467 588.86Z" fill="white"/>
<path d="M307.279 592.356C308.268 591.483 309.777 591.577 310.649 592.566C311.522 593.555 311.428 595.064 310.439 595.936C309.451 596.809 307.942 596.715 307.069 595.726C306.196 594.738 306.29 593.229 307.279 592.356Z" fill="white"/>
<path d="M297.953 576.384C299.525 574.996 301.21 577.615 302.284 578.831C303.358 580.048 302.954 582.159 301.381 583.547C299.809 584.935 297.664 585.073 296.59 583.857C295.517 582.64 296.381 577.772 297.953 576.384Z" fill="#3C3C3C"/>
<rect x="311.134" y="590.226" width="0.954873" height="4.77436" transform="rotate(-131.435 311.134 590.226)" fill="#3B3B3B"/>
<rect x="306.076" y="584.499" width="0.954873" height="4.77436" transform="rotate(-131.435 306.076 584.499)" fill="#3B3B3B"/>
</g>
<g filter="url(#filter3_d)">
<rect width="0.875301" height="4.77437" transform="matrix(-0.976081 -0.217403 -0.217403 0.976081 433.45 158.208)" fill="#3B3B3B"/>
<rect width="0.875301" height="4.77437" transform="matrix(-0.976081 -0.217403 -0.217403 0.976081 426.613 156.683)" fill="#3B3B3B"/>
<path d="M435.863 151.404C435.576 152.691 436.3 153.947 437.48 154.21C438.66 154.473 439.849 153.643 440.136 152.355C440.422 151.068 439.698 149.812 438.518 149.549C437.338 149.286 436.15 150.116 435.863 151.404Z" fill="white"/>
<path d="M434.569 149.158C434.282 150.446 435.006 151.702 436.186 151.965C437.366 152.228 438.555 151.397 438.842 150.11C439.129 148.823 438.404 147.566 437.225 147.304C436.045 147.041 434.856 147.871 434.569 149.158Z" fill="white"/>
<path d="M432.884 152.697C432.597 153.984 433.321 155.241 434.501 155.504C435.681 155.767 436.87 154.936 437.157 153.649C437.443 152.362 436.719 151.105 435.539 150.842C434.359 150.58 433.17 151.41 432.884 152.697Z" fill="white"/>
<path d="M431.151 148.397C430.864 149.684 431.588 150.941 432.768 151.204C433.948 151.466 435.137 150.636 435.424 149.349C435.71 148.062 434.986 146.805 433.806 146.542C432.626 146.279 431.437 147.11 431.151 148.397Z" fill="white"/>
<path d="M432.237 151.575C431.95 152.862 432.674 154.118 433.854 154.381C435.034 154.644 436.223 153.814 436.51 152.526C436.796 151.239 436.072 149.983 434.892 149.72C433.712 149.457 432.523 150.287 432.237 151.575Z" fill="white"/>
<path d="M427.964 150.623C427.677 151.91 428.401 153.167 429.581 153.429C430.761 153.692 431.95 152.862 432.237 151.575C432.523 150.287 431.799 149.031 430.619 148.768C429.439 148.505 428.251 149.336 427.964 150.623Z" fill="white"/>
<path d="M427.525 148.568C427.238 149.855 427.962 151.112 429.142 151.375C430.322 151.637 431.511 150.807 431.797 149.52C432.084 148.232 431.36 146.976 430.18 146.713C429 146.45 427.811 147.281 427.525 148.568Z" fill="white"/>
<path d="M425.192 150.984C424.906 152.271 425.63 153.528 426.81 153.791C427.99 154.054 429.179 153.223 429.465 151.936C429.752 150.649 429.028 149.392 427.848 149.129C426.668 148.866 425.479 149.697 425.192 150.984Z" fill="white"/>
<path d="M427.133 154.352C426.847 155.639 427.571 156.896 428.751 157.159C429.931 157.421 431.12 156.591 431.406 155.304C431.693 154.017 430.969 152.76 429.789 152.497C428.609 152.234 427.42 153.065 427.133 154.352Z" fill="white"/>
<path d="M428.635 155.665C428.348 156.952 429.072 158.209 430.252 158.472C431.432 158.734 432.621 157.904 432.908 156.617C433.194 155.329 432.47 154.073 431.29 153.81C430.11 153.547 428.921 154.378 428.635 155.665Z" fill="white"/>
<path d="M425.009 155.836C424.722 157.123 425.446 158.38 426.626 158.642C427.806 158.905 428.995 158.075 429.282 156.788C429.568 155.5 428.844 154.244 427.664 153.981C426.484 153.718 425.295 154.549 425.009 155.836Z" fill="white"/>
<path d="M423.715 153.591C423.428 154.878 424.152 156.134 425.332 156.397C426.512 156.66 427.701 155.83 427.988 154.542C428.275 153.255 427.55 151.999 426.37 151.736C425.191 151.473 424.002 152.303 423.715 153.591Z" fill="white"/>
<path d="M423.691 149.671C423.404 150.958 424.128 152.215 425.308 152.478C426.488 152.741 427.677 151.91 427.964 150.623C428.251 149.336 427.526 148.079 426.346 147.816C425.167 147.554 423.978 148.384 423.691 149.671Z" fill="white"/>
<path d="M423.899 148.739C423.612 150.026 424.336 151.283 425.516 151.545C426.696 151.808 427.885 150.978 428.171 149.691C428.458 148.403 427.734 147.147 426.554 146.884C425.374 146.621 424.185 147.452 423.899 148.739Z" fill="white"/>
<path d="M421.566 151.155C421.28 152.442 422.004 153.699 423.184 153.962C424.364 154.224 425.553 153.394 425.839 152.107C426.126 150.82 425.402 149.563 424.222 149.3C423.042 149.037 421.853 149.868 421.566 151.155Z" fill="white"/>
<path d="M432.908 156.617C432.621 157.904 433.345 159.16 434.525 159.423C435.705 159.686 436.894 158.856 437.181 157.568C437.467 156.281 436.743 155.025 435.563 154.762C434.383 154.499 433.194 155.329 432.908 156.617Z" fill="white"/>
<path d="M429.05 153.8C428.763 155.088 429.487 156.344 430.667 156.607C431.847 156.87 433.036 156.039 433.323 154.752C433.61 153.465 432.886 152.208 431.706 151.946C430.526 151.683 429.337 152.513 429.05 153.8Z" fill="white"/>
<path d="M431.406 155.304C431.12 156.591 431.844 157.847 433.024 158.11C434.204 158.373 435.392 157.543 435.679 156.255C435.966 154.968 435.242 153.712 434.062 153.449C432.882 153.186 431.693 154.017 431.406 155.304Z" fill="white"/>
<path d="M435.032 155.133C434.746 156.42 435.47 157.677 436.65 157.939C437.83 158.202 439.018 157.372 439.305 156.085C439.592 154.797 438.868 153.541 437.688 153.278C436.508 153.015 435.319 153.846 435.032 155.133Z" fill="white"/>
<path d="M418.018 155.014C417.562 157.061 420.419 157.216 421.871 157.539C423.323 157.863 424.869 156.465 425.325 154.419C425.781 152.372 424.973 150.45 423.522 150.127C422.07 149.804 418.474 152.967 418.018 155.014Z" fill="#3C3C3C"/>
<rect width="0.875301" height="4.77437" transform="matrix(-0.976081 -0.217403 -0.217403 0.976081 434.951 159.519)" fill="#3B3B3B"/>
<rect width="0.875301" height="4.77437" transform="matrix(-0.976081 -0.217403 -0.217403 0.976081 428.115 157.995)" fill="#3B3B3B"/>
<path d="M505.259 130.636C504.773 131.862 505.291 133.217 506.415 133.662C507.539 134.107 508.843 133.474 509.329 132.248C509.814 131.022 509.297 129.667 508.173 129.222C507.049 128.777 505.744 129.41 505.259 130.636Z" fill="white"/>
<path d="M504.334 128.215C503.848 129.441 504.366 130.796 505.49 131.241C506.614 131.686 507.918 131.053 508.404 129.827C508.889 128.601 508.372 127.246 507.248 126.801C506.124 126.356 504.819 126.989 504.334 128.215Z" fill="white"/>
<path d="M502.113 131.445C501.628 132.671 502.145 134.026 503.269 134.471C504.393 134.916 505.698 134.283 506.183 133.057C506.669 131.831 506.151 130.476 505.027 130.031C503.903 129.586 502.599 130.219 502.113 131.445Z" fill="white"/>
<path d="M501.078 126.926C500.592 128.152 501.11 129.507 502.234 129.952C503.358 130.397 504.662 129.764 505.148 128.538C505.633 127.312 505.116 125.957 503.992 125.512C502.868 125.067 501.563 125.7 501.078 126.926Z" fill="white"/>
<path d="M501.651 130.235C501.165 131.461 501.683 132.816 502.807 133.261C503.931 133.706 505.235 133.073 505.721 131.846C506.206 130.62 505.689 129.266 504.565 128.821C503.441 128.375 502.136 129.009 501.651 130.235Z" fill="white"/>
<path d="M497.581 128.623C497.095 129.849 497.613 131.204 498.737 131.649C499.861 132.094 501.165 131.461 501.651 130.235C502.136 129.009 501.619 127.654 500.495 127.209C499.371 126.764 498.066 127.397 497.581 128.623Z" fill="white"/>
<path d="M497.47 126.525C496.984 127.751 497.502 129.106 498.626 129.551C499.75 129.996 501.054 129.363 501.54 128.136C502.025 126.91 501.508 125.556 500.384 125.11C499.26 124.665 497.955 125.299 497.47 126.525Z" fill="white"/>
<path d="M494.787 128.544C494.301 129.77 494.819 131.125 495.943 131.57C497.067 132.015 498.371 131.382 498.857 130.156C499.342 128.93 498.825 127.575 497.701 127.13C496.577 126.685 495.272 127.318 494.787 128.544Z" fill="white"/>
<path d="M496.174 132.175C495.689 133.402 496.206 134.756 497.33 135.201C498.454 135.646 499.759 135.013 500.244 133.787C500.73 132.561 500.212 131.206 499.088 130.761C497.964 130.316 496.66 130.949 496.174 132.175Z" fill="white"/>
<path d="M497.45 133.708C496.965 134.934 497.483 136.289 498.607 136.734C499.73 137.179 501.035 136.546 501.521 135.32C502.006 134.094 501.489 132.739 500.365 132.294C499.241 131.849 497.936 132.482 497.45 133.708Z" fill="white"/>
<path d="M493.843 133.307C493.357 134.533 493.875 135.888 494.999 136.333C496.123 136.778 497.427 136.145 497.913 134.918C498.398 133.692 497.881 132.338 496.757 131.893C495.633 131.447 494.328 132.081 493.843 133.307Z" fill="white"/>
<path d="M492.918 130.886C492.432 132.112 492.95 133.467 494.074 133.912C495.198 134.357 496.503 133.724 496.988 132.498C497.474 131.272 496.956 129.917 495.832 129.472C494.708 129.027 493.403 129.66 492.918 130.886Z" fill="white"/>
<path d="M493.51 127.012C493.025 128.238 493.542 129.592 494.666 130.038C495.79 130.483 497.095 129.849 497.581 128.623C498.066 127.397 497.548 126.042 496.424 125.597C495.301 125.152 493.996 125.785 493.51 127.012Z" fill="white"/>
<path d="M493.862 126.124C493.376 127.35 493.894 128.704 495.018 129.149C496.142 129.594 497.447 128.961 497.932 127.735C498.418 126.509 497.9 125.154 496.776 124.709C495.652 124.264 494.347 124.897 493.862 126.124Z" fill="white"/>
<path d="M491.179 128.143C490.693 129.369 491.211 130.724 492.335 131.169C493.459 131.614 494.764 130.981 495.249 129.755C495.735 128.529 495.217 127.174 494.093 126.729C492.969 126.284 491.664 126.917 491.179 128.143Z" fill="white"/>
<path d="M501.521 135.32C501.035 136.546 501.553 137.901 502.677 138.346C503.801 138.791 505.105 138.157 505.591 136.931C506.076 135.705 505.559 134.35 504.435 133.905C503.311 133.46 502.006 134.094 501.521 135.32Z" fill="white"/>
<path d="M498.154 131.932C497.668 133.158 498.186 134.513 499.31 134.958C500.434 135.403 501.738 134.77 502.224 133.544C502.709 132.317 502.192 130.963 501.068 130.518C499.944 130.073 498.639 130.706 498.154 131.932Z" fill="white"/>
<path d="M500.244 133.787C499.759 135.013 500.276 136.368 501.4 136.813C502.524 137.258 503.829 136.625 504.314 135.399C504.8 134.172 504.282 132.818 503.158 132.373C502.034 131.928 500.73 132.561 500.244 133.787Z" fill="white"/>
<path d="M503.852 134.188C503.367 135.414 503.884 136.769 505.008 137.214C506.132 137.659 507.437 137.026 507.922 135.8C508.408 134.574 507.89 133.219 506.766 132.774C505.642 132.329 504.338 132.962 503.852 134.188Z" fill="white"/>
<path d="M487.068 131.397C486.296 133.346 489.093 133.948 490.476 134.496C491.859 135.044 493.606 133.907 494.378 131.957C495.15 130.007 494.654 127.983 493.272 127.435C491.889 126.888 487.84 129.447 487.068 131.397Z" fill="#3C3C3C"/>
<rect width="0.875301" height="4.77437" transform="matrix(-0.929767 -0.368145 -0.368145 0.929767 503.083 138.507)" fill="#3B3B3B"/>
<rect width="0.875301" height="4.77437" transform="matrix(-0.929767 -0.368145 -0.368145 0.929767 496.571 135.927)" fill="#3B3B3B"/>
</g>
<g filter="url(#filter4_d)">
<rect width="0.875301" height="4.77437" transform="matrix(0.265011 0.964244 0.964244 -0.265011 263.782 552.27)" fill="#3B3B3B"/>
<rect width="0.875301" height="4.77437" transform="matrix(0.265011 0.964244 0.964244 -0.265011 265.636 559.026)" fill="#3B3B3B"/>
<path d="M256.64 553.325C257.911 552.976 258.682 551.748 258.362 550.582C258.042 549.416 256.751 548.755 255.48 549.104C254.208 549.454 253.437 550.682 253.757 551.847C254.078 553.013 255.368 553.675 256.64 553.325Z" fill="white"/>
<path d="M255.262 555.52C256.533 555.17 257.305 553.942 256.984 552.777C256.664 551.611 255.373 550.949 254.102 551.299C252.83 551.648 252.059 552.877 252.379 554.042C252.7 555.208 253.99 555.869 255.262 555.52Z" fill="white"/>
<path d="M259.178 555.352C260.449 555.002 261.22 553.774 260.9 552.608C260.58 551.443 259.289 550.781 258.018 551.131C256.746 551.48 255.975 552.708 256.295 553.874C256.616 555.04 257.906 555.701 259.178 555.352Z" fill="white"/>
<path d="M256.19 558.897C257.462 558.547 258.233 557.319 257.912 556.154C257.592 554.988 256.301 554.326 255.03 554.676C253.758 555.025 252.987 556.253 253.307 557.419C253.628 558.585 254.918 559.246 256.19 558.897Z" fill="white"/>
<path d="M258.489 556.449C259.76 556.1 260.532 554.871 260.211 553.706C259.891 552.54 258.6 551.878 257.329 552.228C256.057 552.577 255.286 553.806 255.606 554.971C255.927 556.137 257.217 556.799 258.489 556.449Z" fill="white"/>
<path d="M259.649 560.67C260.921 560.321 261.692 559.092 261.371 557.927C261.051 556.761 259.76 556.1 258.489 556.449C257.217 556.799 256.446 558.027 256.766 559.192C257.087 560.358 258.377 561.02 259.649 560.67Z" fill="white"/>
<path d="M258.039 562.021C259.311 561.671 260.082 560.443 259.761 559.277C259.441 558.112 258.15 557.45 256.879 557.8C255.607 558.149 254.836 559.377 255.156 560.543C255.477 561.709 256.767 562.37 258.039 562.021Z" fill="white"/>
<path d="M261.266 562.95C262.538 562.6 263.309 561.372 262.988 560.206C262.668 559.041 261.377 558.379 260.106 558.729C258.834 559.078 258.063 560.306 258.383 561.472C258.704 562.638 259.994 563.299 261.266 562.95Z" fill="white"/>
<path d="M263.333 559.658C264.604 559.308 265.376 558.08 265.055 556.914C264.735 555.749 263.444 555.087 262.173 555.437C260.901 555.786 260.13 557.014 260.45 558.18C260.771 559.346 262.061 560.007 263.333 559.658Z" fill="white"/>
<path d="M263.79 557.716C265.061 557.367 265.832 556.138 265.512 554.973C265.192 553.807 263.901 553.146 262.63 553.495C261.358 553.844 260.587 555.073 260.907 556.238C261.228 557.404 262.518 558.066 263.79 557.716Z" fill="white"/>
<path d="M265.639 560.84C266.91 560.49 267.682 559.262 267.361 558.097C267.041 556.931 265.75 556.269 264.479 556.619C263.207 556.968 262.436 558.197 262.756 559.362C263.077 560.528 264.367 561.189 265.639 560.84Z" fill="white"/>
<path d="M264.261 563.035C265.533 562.685 266.304 561.457 265.983 560.291C265.663 559.126 264.372 558.464 263.101 558.813C261.829 559.163 261.058 560.391 261.378 561.557C261.699 562.722 262.989 563.384 264.261 563.035Z" fill="white"/>
<path d="M260.809 564.891C262.081 564.542 262.852 563.314 262.531 562.148C262.211 560.982 260.921 560.321 259.649 560.67C258.377 561.02 257.606 562.248 257.927 563.414C258.247 564.579 259.537 565.241 260.809 564.891Z" fill="white"/>
<path d="M259.888 565.144C261.16 564.795 261.931 563.567 261.61 562.401C261.29 561.235 260 560.574 258.728 560.923C257.456 561.273 256.685 562.501 257.006 563.667C257.326 564.832 258.616 565.494 259.888 565.144Z" fill="white"/>
<path d="M263.115 566.074C264.387 565.724 265.158 564.496 264.837 563.33C264.517 562.165 263.227 561.503 261.955 561.852C260.683 562.202 259.912 563.43 260.233 564.596C260.553 565.761 261.843 566.423 263.115 566.074Z" fill="white"/>
<path d="M262.63 553.495C263.901 553.146 264.672 551.917 264.352 550.752C264.032 549.586 262.741 548.924 261.469 549.274C260.198 549.623 259.427 550.852 259.747 552.017C260.067 553.183 261.358 553.844 262.63 553.495Z" fill="white"/>
<path d="M261.948 558.222C263.219 557.873 263.991 556.645 263.67 555.479C263.35 554.313 262.059 553.652 260.788 554.001C259.516 554.351 258.745 555.579 259.065 556.745C259.386 557.91 260.676 558.572 261.948 558.222Z" fill="white"/>
<path d="M262.173 555.437C263.444 555.087 264.215 553.859 263.895 552.693C263.575 551.528 262.284 550.866 261.013 551.215C259.741 551.565 258.97 552.793 259.29 553.959C259.611 555.124 260.901 555.786 262.173 555.437Z" fill="white"/>
<path d="M260.324 552.313C261.595 551.963 262.366 550.735 262.046 549.569C261.726 548.404 260.435 547.742 259.163 548.092C257.892 548.441 257.121 549.669 257.441 550.835C257.761 552.001 259.052 552.662 260.324 552.313Z" fill="white"/>
<path d="M268.187 567.401C270.209 566.845 269.008 564.249 268.614 562.814C268.22 561.38 266.261 560.668 264.239 561.224C262.217 561.779 260.897 563.393 261.292 564.827C261.686 566.261 266.165 567.956 268.187 567.401Z" fill="#3C3C3C"/>
<rect width="0.875301" height="4.77437" transform="matrix(0.265011 0.964244 0.964244 -0.265011 264.237 550.33)" fill="#3B3B3B"/>
<rect width="0.875301" height="4.77437" transform="matrix(0.265011 0.964244 0.964244 -0.265011 266.092 557.084)" fill="#3B3B3B"/>
</g>
<g filter="url(#filter5_d)">
<rect width="0.875301" height="4.77437" transform="matrix(0.219128 0.975695 0.975695 -0.219128 257.188 505.878)" fill="#3B3B3B"/>
<rect width="0.875301" height="4.77437" transform="matrix(0.219128 0.975695 0.975695 -0.219128 258.722 512.714)" fill="#3B3B3B"/>
<path d="M250.005 506.595C251.291 506.306 252.12 505.115 251.855 503.936C251.59 502.756 250.332 502.034 249.045 502.323C247.759 502.612 246.93 503.803 247.195 504.982C247.46 506.162 248.718 506.884 250.005 506.595Z" fill="white"/>
<path d="M248.525 508.722C249.811 508.433 250.64 507.242 250.375 506.063C250.11 504.883 248.852 504.161 247.565 504.45C246.279 504.739 245.45 505.93 245.715 507.109C245.98 508.289 247.238 509.011 248.525 508.722Z" fill="white"/>
<path d="M252.444 508.739C253.731 508.45 254.559 507.259 254.294 506.08C254.029 504.9 252.771 504.179 251.485 504.467C250.198 504.756 249.37 505.947 249.635 507.126C249.9 508.306 251.157 509.028 252.444 508.739Z" fill="white"/>
<path d="M249.292 512.139C250.579 511.85 251.407 510.659 251.142 509.48C250.877 508.3 249.619 507.578 248.333 507.867C247.046 508.156 246.218 509.347 246.483 510.526C246.747 511.706 248.005 512.428 249.292 512.139Z" fill="white"/>
<path d="M251.704 509.802C252.991 509.513 253.819 508.323 253.554 507.143C253.289 505.964 252.031 505.242 250.745 505.531C249.458 505.82 248.63 507.01 248.895 508.19C249.159 509.369 250.417 510.091 251.704 509.802Z" fill="white"/>
<path d="M252.663 514.074C253.95 513.785 254.778 512.594 254.513 511.415C254.248 510.235 252.991 509.513 251.704 509.802C250.417 510.091 249.589 511.282 249.854 512.461C250.119 513.641 251.377 514.363 252.663 514.074Z" fill="white"/>
<path d="M250.991 515.346C252.278 515.057 253.106 513.867 252.841 512.688C252.577 511.508 251.319 510.786 250.032 511.075C248.745 511.364 247.917 512.555 248.182 513.734C248.447 514.913 249.705 515.635 250.991 515.346Z" fill="white"/>
<path d="M254.171 516.427C255.457 516.138 256.286 514.948 256.021 513.768C255.756 512.589 254.498 511.867 253.211 512.156C251.925 512.445 251.096 513.635 251.361 514.815C251.626 515.994 252.884 516.716 254.171 516.427Z" fill="white"/>
<path d="M256.391 513.236C257.678 512.947 258.506 511.757 258.241 510.578C257.976 509.398 256.718 508.676 255.432 508.965C254.145 509.254 253.317 510.445 253.581 511.624C253.846 512.803 255.104 513.525 256.391 513.236Z" fill="white"/>
<path d="M256.939 511.319C258.226 511.03 259.054 509.839 258.789 508.66C258.524 507.48 257.267 506.758 255.98 507.047C254.693 507.336 253.865 508.527 254.13 509.706C254.395 510.886 255.652 511.608 256.939 511.319Z" fill="white"/>
<path d="M258.638 514.526C259.925 514.237 260.753 513.047 260.489 511.867C260.224 510.688 258.966 509.966 257.679 510.255C256.392 510.544 255.564 511.734 255.829 512.914C256.094 514.093 257.352 514.815 258.638 514.526Z" fill="white"/>
<path d="M257.158 516.653C258.445 516.364 259.273 515.174 259.008 513.995C258.744 512.815 257.486 512.093 256.199 512.382C254.912 512.671 254.084 513.862 254.349 515.041C254.614 516.22 255.872 516.942 257.158 516.653Z" fill="white"/>
<path d="M253.623 518.345C254.909 518.056 255.738 516.865 255.473 515.686C255.208 514.506 253.95 513.785 252.663 514.074C251.377 514.363 250.548 515.553 250.813 516.732C251.078 517.912 252.336 518.634 253.623 518.345Z" fill="white"/>
<path d="M252.691 518.554C253.977 518.265 254.806 517.075 254.541 515.895C254.276 514.716 253.018 513.994 251.731 514.283C250.445 514.572 249.616 515.762 249.881 516.942C250.146 518.121 251.404 518.843 252.691 518.554Z" fill="white"/>
<path d="M255.87 519.635C257.157 519.346 257.985 518.155 257.72 516.976C257.455 515.796 256.197 515.075 254.911 515.363C253.624 515.652 252.796 516.843 253.061 518.022C253.326 519.202 254.583 519.924 255.87 519.635Z" fill="white"/>
<path d="M255.98 507.047C257.267 506.758 258.095 505.568 257.83 504.388C257.565 503.209 256.307 502.487 255.021 502.776C253.734 503.065 252.906 504.255 253.17 505.435C253.435 506.614 254.693 507.336 255.98 507.047Z" fill="white"/>
<path d="M255.075 511.737C256.362 511.448 257.19 510.258 256.925 509.078C256.661 507.899 255.403 507.177 254.116 507.466C252.829 507.755 252.001 508.945 252.266 510.125C252.531 511.304 253.789 512.026 255.075 511.737Z" fill="white"/>
<path d="M255.432 508.965C256.718 508.676 257.547 507.486 257.282 506.306C257.017 505.127 255.759 504.405 254.472 504.694C253.186 504.983 252.357 506.173 252.622 507.353C252.887 508.532 254.145 509.254 255.432 508.965Z" fill="white"/>
<path d="M253.732 505.757C255.019 505.468 255.847 504.278 255.582 503.099C255.318 501.919 254.06 501.197 252.773 501.486C251.486 501.775 250.658 502.966 250.923 504.145C251.188 505.324 252.446 506.046 253.732 505.757Z" fill="white"/>
<path d="M260.873 521.201C262.919 520.741 261.843 518.091 261.517 516.639C261.191 515.188 259.268 514.384 257.222 514.844C255.176 515.303 253.781 516.852 254.107 518.304C254.433 519.755 258.827 521.66 260.873 521.201Z" fill="#3C3C3C"/>
<rect width="0.875301" height="4.77437" transform="matrix(0.219128 0.975695 0.975695 -0.219128 257.735 503.961)" fill="#3B3B3B"/>
<rect width="0.875301" height="4.77437" transform="matrix(0.219128 0.975695 0.975695 -0.219128 259.268 510.797)" fill="#3B3B3B"/>
</g>
<g filter="url(#filter6_d)">
<rect x="383.376" y="164.826" width="0.977818" height="4.77436" transform="rotate(3.88592 383.376 164.826)" fill="#3B3B3B"/>
<rect x="391.372" y="166.421" width="0.977818" height="4.77436" transform="rotate(11.9334 391.372 166.421)" fill="#3B3B3B"/>
<path d="M384.241 157.591C383.968 158.881 382.676 159.701 381.355 159.421C380.034 159.142 379.184 157.87 379.456 156.58C379.729 155.289 381.021 154.47 382.342 154.749C383.663 155.028 384.513 156.301 384.241 157.591Z" fill="white"/>
<path d="M386.549 156.126C386.277 157.417 384.985 158.236 383.664 157.957C382.342 157.678 381.492 156.405 381.765 155.115C382.038 153.825 383.33 153.005 384.651 153.285C385.972 153.564 386.822 154.836 386.549 156.126Z" fill="white"/>
<path d="M386.716 160.066C386.444 161.357 385.152 162.176 383.83 161.897C382.509 161.618 381.659 160.346 381.932 159.055C382.205 157.765 383.497 156.945 384.818 157.225C386.139 157.504 386.989 158.776 386.716 160.066Z" fill="white"/>
<path d="M390.377 156.935C390.104 158.225 388.812 159.045 387.491 158.766C386.17 158.487 385.32 157.214 385.593 155.924C385.865 154.634 387.157 153.814 388.478 154.093C389.8 154.373 390.65 155.645 390.377 156.935Z" fill="white"/>
<path d="M387.871 159.334C387.598 160.624 386.306 161.444 384.985 161.165C383.664 160.886 382.814 159.613 383.086 158.323C383.359 157.033 384.651 156.213 385.972 156.492C387.293 156.772 388.143 158.044 387.871 159.334Z" fill="white"/>
<path d="M392.655 160.345C392.382 161.636 391.09 162.455 389.769 162.176C388.448 161.897 387.598 160.624 387.871 159.334C388.143 158.044 389.435 157.224 390.757 157.504C392.078 157.783 392.928 159.055 392.655 160.345Z" fill="white"/>
<path d="M394.007 158.679C393.734 159.969 392.442 160.788 391.121 160.509C389.8 160.23 388.95 158.958 389.222 157.667C389.495 156.377 390.787 155.558 392.108 155.837C393.43 156.116 394.279 157.388 394.007 158.679Z" fill="white"/>
<path d="M395.328 161.886C395.055 163.177 393.763 163.996 392.442 163.717C391.121 163.438 390.271 162.166 390.544 160.875C390.816 159.585 392.108 158.765 393.43 159.045C394.751 159.324 395.601 160.596 395.328 161.886Z" fill="white"/>
<path d="M391.865 164.083C391.592 165.374 390.3 166.193 388.979 165.914C387.658 165.635 386.808 164.362 387.081 163.072C387.353 161.782 388.645 160.962 389.967 161.241C391.288 161.521 392.138 162.793 391.865 164.083Z" fill="white"/>
<path d="M389.754 164.613C389.481 165.904 388.189 166.723 386.868 166.444C385.547 166.165 384.697 164.892 384.969 163.602C385.242 162.312 386.534 161.492 387.855 161.772C389.176 162.051 390.026 163.323 389.754 164.613Z" fill="white"/>
<path d="M393.384 166.357C393.111 167.647 391.819 168.467 390.498 168.187C389.177 167.908 388.327 166.636 388.599 165.346C388.872 164.055 390.164 163.236 391.485 163.515C392.806 163.794 393.656 165.066 393.384 166.357Z" fill="white"/>
<path d="M395.692 164.892C395.42 166.182 394.128 167.002 392.806 166.723C391.485 166.444 390.635 165.171 390.908 163.881C391.181 162.591 392.473 161.771 393.794 162.05C395.115 162.33 395.965 163.602 395.692 164.892Z" fill="white"/>
<path d="M397.439 161.356C397.167 162.647 395.874 163.466 394.553 163.187C393.232 162.908 392.382 161.636 392.655 160.345C392.928 159.055 394.22 158.235 395.541 158.515C396.862 158.794 397.712 160.066 397.439 161.356Z" fill="white"/>
<path d="M397.637 160.422C397.364 161.712 396.072 162.532 394.751 162.253C393.43 161.973 392.58 160.701 392.852 159.411C393.125 158.121 394.417 157.301 395.738 157.58C397.059 157.859 397.909 159.132 397.637 160.422Z" fill="white"/>
<path d="M398.958 163.63C398.685 164.92 397.393 165.74 396.072 165.461C394.751 165.181 393.901 163.909 394.174 162.619C394.446 161.328 395.738 160.509 397.06 160.788C398.381 161.067 399.231 162.34 398.958 163.63Z" fill="white"/>
<path d="M384.969 163.602C384.697 164.892 383.405 165.712 382.084 165.433C380.762 165.154 379.912 163.881 380.185 162.591C380.458 161.301 381.75 160.481 383.071 160.76C384.392 161.04 385.242 162.312 384.969 163.602Z" fill="white"/>
<path d="M390.149 162.744C389.876 164.035 388.584 164.854 387.263 164.575C385.942 164.296 385.092 163.023 385.364 161.733C385.637 160.443 386.929 159.623 388.25 159.903C389.571 160.182 390.421 161.454 390.149 162.744Z" fill="white"/>
<path d="M387.081 163.072C386.808 164.362 385.516 165.182 384.195 164.903C382.874 164.624 382.024 163.351 382.296 162.061C382.569 160.771 383.861 159.951 385.182 160.23C386.503 160.51 387.353 161.782 387.081 163.072Z" fill="white"/>
<path d="M383.451 161.329C383.178 162.619 381.886 163.439 380.565 163.159C379.244 162.88 378.394 161.608 378.666 160.318C378.939 159.027 380.231 158.208 381.552 158.487C382.873 158.766 383.723 160.038 383.451 161.329Z" fill="white"/>
<path d="M398.752 172.052C397.5 173.734 395.252 171.475 393.919 170.483C392.586 169.491 392.52 167.323 393.772 165.641C395.024 163.958 397.12 163.399 398.453 164.391C399.786 165.383 400.004 170.37 398.752 172.052Z" fill="#3C3C3C"/>
<rect x="381.338" y="164.239" width="0.977818" height="4.77436" transform="rotate(22.7485 381.338 164.239)" fill="#3B3B3B"/>
<rect x="389.571" y="166.971" width="0.977818" height="4.77436" transform="rotate(19.2375 389.571 166.971)" fill="#3B3B3B"/>
</g>
<g filter="url(#filter7_d)">
<rect x="317.251" y="560.211" width="0.977818" height="4.77436" transform="rotate(-140.106 317.251 560.211)" fill="#3B3B3B"/>
<rect x="311.721" y="554.22" width="0.977818" height="4.77436" transform="rotate(-132.058 311.721 554.22)" fill="#3B3B3B"/>
<path d="M312.298 565.556C313.277 564.672 314.804 564.769 315.708 565.771C316.613 566.774 316.553 568.303 315.573 569.186C314.594 570.07 313.067 569.973 312.163 568.97C311.258 567.968 311.319 566.439 312.298 565.556Z" fill="white"/>
<path d="M309.569 565.383C310.548 564.5 312.075 564.596 312.98 565.599C313.884 566.601 313.824 568.13 312.845 569.014C311.866 569.897 310.339 569.8 309.434 568.798C308.53 567.795 308.59 566.266 309.569 565.383Z" fill="white"/>
<path d="M311.751 562.098C312.73 561.214 314.257 561.311 315.161 562.313C316.066 563.316 316.005 564.845 315.026 565.728C314.047 566.612 312.52 566.515 311.616 565.512C310.711 564.51 310.771 562.981 311.751 562.098Z" fill="white"/>
<path d="M306.949 562.479C307.928 561.595 309.455 561.692 310.359 562.694C311.264 563.697 311.203 565.226 310.224 566.109C309.245 566.993 307.718 566.896 306.814 565.893C305.909 564.891 305.969 563.362 306.949 562.479Z" fill="white"/>
<path d="M310.386 562.011C311.365 561.128 312.892 561.224 313.797 562.227C314.702 563.23 314.641 564.758 313.662 565.642C312.683 566.525 311.156 566.429 310.251 565.426C309.347 564.424 309.407 562.895 310.386 562.011Z" fill="white"/>
<path d="M307.111 558.381C308.09 557.497 309.617 557.594 310.521 558.596C311.426 559.599 311.365 561.128 310.386 562.011C309.407 562.895 307.88 562.798 306.976 561.796C306.071 560.793 306.131 559.264 307.111 558.381Z" fill="white"/>
<path d="M305.037 558.934C306.016 558.051 307.543 558.147 308.448 559.15C309.352 560.153 309.292 561.681 308.313 562.565C307.334 563.448 305.807 563.352 304.902 562.349C303.998 561.347 304.058 559.818 305.037 558.934Z" fill="white"/>
<path d="M305.854 555.562C306.833 554.679 308.36 554.776 309.265 555.778C310.17 556.781 310.109 558.31 309.13 559.193C308.151 560.077 306.624 559.98 305.719 558.977C304.815 557.975 304.875 556.446 305.854 555.562Z" fill="white"/>
<path d="M309.947 555.821C310.926 554.938 312.453 555.035 313.358 556.037C314.262 557.04 314.202 558.569 313.223 559.452C312.244 560.335 310.717 560.239 309.812 559.236C308.908 558.234 308.968 556.705 309.947 555.821Z" fill="white"/>
<path d="M311.967 556.634C312.946 555.75 314.473 555.847 315.377 556.85C316.282 557.852 316.221 559.381 315.242 560.264C314.263 561.148 312.736 561.051 311.832 560.049C310.927 559.046 310.987 557.517 311.967 556.634Z" fill="white"/>
<path d="M310.055 553.089C311.034 552.206 312.561 552.303 313.466 553.305C314.37 554.308 314.31 555.837 313.331 556.72C312.352 557.603 310.825 557.507 309.92 556.504C309.016 555.502 309.076 553.973 310.055 553.089Z" fill="white"/>
<path d="M307.327 552.917C308.306 552.033 309.833 552.13 310.737 553.133C311.642 554.135 311.581 555.664 310.602 556.547C309.623 557.431 308.096 557.334 307.192 556.332C306.287 555.329 306.347 553.8 307.327 552.917Z" fill="white"/>
<path d="M303.835 554.75C304.814 553.867 306.341 553.963 307.246 554.966C308.15 555.968 308.09 557.497 307.111 558.381C306.131 559.264 304.604 559.168 303.7 558.165C302.795 557.162 302.856 555.633 303.835 554.75Z" fill="white"/>
<path d="M303.126 555.39C304.105 554.506 305.632 554.603 306.536 555.606C307.441 556.608 307.381 558.137 306.401 559.021C305.422 559.904 303.895 559.807 302.991 558.805C302.086 557.802 302.147 556.273 303.126 555.39Z" fill="white"/>
<path d="M303.943 552.018C304.922 551.135 306.449 551.231 307.354 552.234C308.258 553.236 308.198 554.765 307.219 555.649C306.239 556.532 304.712 556.436 303.808 555.433C302.903 554.43 302.964 552.902 303.943 552.018Z" fill="white"/>
<path d="M315.242 560.264C316.221 559.381 317.748 559.478 318.653 560.48C319.558 561.483 319.497 563.012 318.518 563.895C317.539 564.778 316.012 564.682 315.107 563.679C314.203 562.677 314.263 561.148 315.242 560.264Z" fill="white"/>
<path d="M310.548 557.913C311.527 557.03 313.054 557.127 313.959 558.129C314.864 559.132 314.803 560.661 313.824 561.544C312.845 562.427 311.318 562.331 310.413 561.328C309.509 560.326 309.569 558.797 310.548 557.913Z" fill="white"/>
<path d="M313.223 559.452C314.202 558.569 315.729 558.665 316.634 559.668C317.538 560.67 317.478 562.199 316.499 563.083C315.519 563.966 313.992 563.869 313.088 562.867C312.183 561.864 312.244 560.335 313.223 559.452Z" fill="white"/>
<path d="M315.134 562.996C316.113 562.113 317.64 562.209 318.545 563.212C319.45 564.215 319.389 565.743 318.41 566.627C317.431 567.51 315.904 567.414 314.999 566.411C314.095 565.409 314.155 563.88 315.134 562.996Z" fill="white"/>
<path d="M309.061 545.326C311.062 544.702 311.553 547.851 312.048 549.437C312.543 551.023 311.322 552.815 309.32 553.44C307.318 554.065 305.294 553.285 304.799 551.699C304.304 550.113 307.059 545.951 309.061 545.326Z" fill="#3C3C3C"/>
<rect x="318.554" y="561.884" width="0.977818" height="4.77436" transform="rotate(-121.243 318.554 561.884)" fill="#3B3B3B"/>
<rect x="313.501" y="554.833" width="0.977818" height="4.77436" transform="rotate(-124.754 313.501 554.833)" fill="#3B3B3B"/>
</g>
<circle cx="428.507" cy="64.6186" r="12.4166" transform="rotate(28.9861 428.507 64.6186)" fill="#BEFF7E"/>
<circle cx="436.839" cy="49.5795" r="12.4166" transform="rotate(28.9861 436.839 49.5795)" fill="#BEFF7E"/>
<circle cx="425.154" cy="52.9355" r="8.59613" transform="rotate(28.9861 425.154 52.9355)" fill="#BEFF7E"/>
<circle cx="450.759" cy="54.0161" r="6.68588" transform="rotate(28.9861 450.759 54.0161)" fill="#BEFF7E"/>
<circle cx="448.175" cy="64.5942" r="12.4166" transform="rotate(28.9861 448.175 64.5942)" fill="#BEFF7E"/>
<path d="M428.397 64.8159L438.043 76.7936L447.181 67.7593L439.086 78.657L444.276 128.135L436.644 128.493L437.178 78.7466L428.397 64.8159Z" fill="#BF3F3F"/>
<path d="M314.926 188.174C293.891 203.194 257.037 209.727 247.687 196.634C247.687 196.634 268.157 178.269 291.777 164.756C327.058 144.572 343.54 141.311 343.491 141.499C352.84 154.592 335.961 173.153 314.926 188.174Z" fill="#4BB7FF"/>
<path d="M285.026 167.495L288.78 170.685L286.753 171.548L284.726 172.412L285.026 167.495Z" fill="#F2E1E1"/>
<path d="M279.344 173.27L287.16 171.377L292.667 166.874L292.757 171.343L283.719 175.558L279.344 173.27Z" fill="white"/>
<path d="M279.446 174.95L283.199 178.14L281.173 179.003L279.146 179.867L279.446 174.95Z" fill="#F2E1E1"/>
<path d="M273.763 180.725L281.579 178.832L287.086 174.329L287.176 178.798L278.138 183.013L273.763 180.725Z" fill="white"/>
<path d="M697.447 261.839L713.634 260.56C715.172 261.707 714.854 262.325 713.86 263.417L697.673 264.696L697.447 261.839Z" fill="#7E7E7E"/>
<path d="M704.783 232.158C706.852 230.884 708.225 233.293 708.947 235.659C707.714 235.385 708.564 236.862 707.331 236.588L706.057 234.373L676.974 251.102L675.7 248.887L704.783 232.158Z" fill="#747474"/>
<path d="M685.222 224.558C689.405 222.215 691.68 226.813 694.07 230.968L702.408 245.464C703.614 247.56 702.294 250.208 699.894 250.506C697.494 250.804 696.174 253.452 697.38 255.548L699.967 260.045C701.337 262.427 704.001 263.755 706.727 263.417L707.174 263.361C710.278 262.975 713.299 264.554 714.795 267.3C715.874 269.28 716.907 271.163 717.687 272.661C719.64 276.413 713.783 274.695 710.02 276.626L703.184 280.135C698.911 282.328 693.668 280.779 691.273 276.616L671.97 243.058C669.692 239.097 670.742 234.029 674.492 231.419C679.081 228.224 682.614 226.019 685.222 224.558Z" fill="#FF4848"/>
<circle cx="672.936" cy="246.152" r="4.93758" transform="rotate(60.0917 672.936 246.152)" fill="#1C1D1D"/>
<circle cx="672.69" cy="245.878" r="3.36966" transform="rotate(60.0917 672.69 245.878)" fill="#7B7B7B"/>
<circle cx="699.546" cy="278.622" r="11.605" transform="rotate(60.0917 699.546 278.622)" fill="#1C1D1D"/>
<circle cx="699.305" cy="277.843" r="8.04663" transform="rotate(60.0917 699.305 277.843)" fill="#7B7B7B"/>
<path d="M710.713 269.622C712.24 273.775 714.032 275.919 713.261 280.526C713.02 281.301 711.53 281.469 711.659 280.9C712.737 276.158 710.641 274.129 709.112 269.996L710.713 269.622Z" fill="#FF4848"/>
<path d="M674.643 230.791L686.596 249.402" stroke="black"/>
<path d="M676.662 228.996L688.5 247.76" stroke="black"/>
<line y1="-0.5" x2="21.5896" y2="-0.5" transform="matrix(0.53641 0.843956 -0.858667 0.512532 678.412 228.144)" stroke="black"/>
<path d="M733.767 322.57C730.794 318.008 730.833 314.066 715.326 319.673L715.185 320.569C725.364 316.197 730.181 315.392 733.626 323.466L733.767 322.57Z" fill="white"/>
<path d="M730.213 363.663C730.002 361.536 731.542 359.985 729.102 359.258L728.115 360.258C730.67 360.492 729.579 361.703 730.213 363.663Z" fill="black"/>
<path d="M725.522 342.248L724.729 339.1C720.023 341.179 717.418 342.479 712.137 342.273C712.114 343.877 711.987 344.904 712.93 345.421C717.535 342.942 720.436 342.82 725.522 342.248Z" fill="white"/>
<path d="M721.16 324.932L720.366 321.784C715.563 323.706 712.885 324.869 707.774 324.957C707.784 326.369 707.575 327.29 708.568 328.105C713.096 325.729 716.027 325.544 721.16 324.932Z" fill="white"/>
<path d="M742.571 346.564C744.875 344.525 737.853 339.795 735.748 325.885C735.079 321.466 731.035 318.075 726.677 319.066C721.575 320.226 715.971 321.607 715.446 322.187C714.464 323.271 724.699 357.238 724.699 357.238C734.513 356.217 738.883 350.621 742.571 346.564Z" fill="white"/>
<path d="M723.175 349.533L722.382 346.385C717.621 348.247 714.9 349.082 709.79 349.558C709.701 351.176 709.465 352.265 710.583 352.706C715.176 350.433 718.017 350.003 723.175 349.533Z" fill="white"/>
<path d="M718.614 331.432L717.821 328.284C712.904 330.304 710.149 331.088 705.229 331.457C705.118 333.031 705.172 333.818 706.022 334.605C710.579 332.219 713.365 331.618 718.614 331.432Z" fill="white"/>
<path d="M723.38 353.667C717.729 355.091 713.726 358.535 714.438 361.361C719.553 360.071 718.142 365.03 723.792 363.606C729.443 362.182 729.592 360.052 732.037 351.485C731.325 348.66 729.03 352.243 723.38 353.667Z" fill="white"/>
<path d="M731.233 339.643C729.493 341.186 729.599 344.146 731.469 346.255C733.34 348.363 736.266 348.822 738.005 347.279C739.744 345.736 734.68 343.704 737.84 337.978C735.97 335.87 732.972 338.101 731.233 339.643Z" fill="black"/>
<path d="M727.515 319.705C728.696 318.658 731.147 319.493 732.99 321.571C734.833 323.649 735.37 326.183 734.189 327.23C733.009 328.277 731.056 323.579 726.496 324.743C724.653 322.665 726.334 320.752 727.515 319.705Z" fill="black"/>
<path d="M720.058 331.628C721.238 330.581 720.798 325.409 722.641 327.487C726.103 336.658 727.913 338.106 726.732 339.153C725.551 340.2 724.168 335.875 719.608 337.039C717.765 334.961 718.877 332.675 720.058 331.628Z" fill="black"/>
<path d="M728.639 365.314C728.429 363.187 729.969 361.637 727.529 360.91L726.542 361.91C729.096 362.144 728.006 363.354 728.639 365.314Z" fill="black"/>
<path d="M709.79 349.561C708.983 349.49 708.64 351.093 709.598 352.12C709.502 353.399 710.366 352.763 710.583 352.709C710.8 352.654 711.192 351.806 710.973 350.937C710.754 350.068 710.007 349.507 709.79 349.561Z" fill="black"/>
<path d="M712.122 342.208C711.315 342.137 710.973 343.74 711.93 344.767C711.834 346.046 712.698 345.41 712.915 345.356C713.133 345.301 713.525 344.453 713.306 343.584C713.087 342.715 712.34 342.154 712.122 342.208Z" fill="black"/>
<path d="M705.212 331.396C704.405 331.325 704.063 332.927 705.021 333.955C704.925 335.234 705.788 334.598 706.006 334.543C706.223 334.488 706.615 333.64 706.396 332.771C706.177 331.902 705.43 331.341 705.212 331.396Z" fill="black"/>
<path d="M707.759 324.898C706.952 324.827 706.609 326.43 707.567 327.457C707.471 328.736 708.335 328.1 708.552 328.045C708.769 327.991 709.161 327.143 708.942 326.274C708.723 325.405 707.976 324.844 707.759 324.898Z" fill="black"/>
<path d="M715.318 358.208C714.039 358.112 712.568 360.575 714.141 360.178C712.568 360.575 714.654 362.56 715.523 362.34C716.392 362.121 717.784 361.352 717.288 359.385C716.922 357.934 716.105 358.01 715.318 358.208Z" fill="black"/>
<path d="M713.965 319.631C712.879 319.905 712.197 320.914 712.197 320.914C712.197 320.914 713.276 321.478 714.362 321.205C715.448 320.931 716.24 320.357 716.131 319.922C716.021 319.488 715.052 319.357 713.965 319.631Z" fill="black"/>
<path d="M677.714 334.215C678.686 339.573 681.421 342.412 666.296 348.983L665.579 348.429C675.981 344.618 680.035 341.896 676.997 333.661L677.714 334.215Z" fill="white"/>
<path d="M646.915 306.78C648.222 308.471 650.407 308.54 649.132 310.744L647.728 310.695C649.424 308.771 647.8 308.64 646.915 306.78Z" fill="black"/>
<path d="M658.209 325.57L659.794 328.403C654.945 330.122 652.159 330.965 648.46 334.742C647.343 333.592 646.546 332.932 646.876 331.908C651.926 330.549 654.119 328.646 658.209 325.57Z" fill="white"/>
<path d="M666.927 341.154L668.512 343.988C663.7 345.888 660.954 346.882 657.178 350.326C656.216 349.294 655.432 348.767 655.593 347.493C660.517 346.111 662.775 344.233 666.927 341.154Z" fill="white"/>
<path d="M667.641 310.726C670.716 310.627 668.858 318.887 676.879 330.445C679.427 334.117 678.815 339.359 674.966 341.631C670.461 344.291 665.438 347.134 664.658 347.073C663.199 346.959 647.319 315.237 647.319 315.237C655.155 309.241 662.174 310.309 667.641 310.726Z" fill="white"/>
<path d="M651.501 321.885L653.086 324.718C648.346 326.633 645.794 327.894 641.752 331.057C640.577 329.941 639.657 329.312 640.167 328.223C645.067 326.722 647.428 325.085 651.501 321.885Z" fill="white"/>
<path d="M660.613 338.176L662.198 341.01C657.236 342.916 654.695 344.239 650.864 347.348C649.703 346.28 649.202 345.671 649.28 344.515C654.231 343.12 656.669 341.645 660.613 338.176Z" fill="white"/>
<path d="M648.811 318.739C643.726 321.584 638.45 321.828 637.028 319.285C641.632 316.71 637.201 314.074 642.287 311.23C647.372 308.385 648.944 309.831 656.603 314.382C658.026 316.924 653.897 315.895 648.811 318.739Z" fill="white"/>
<path d="M664.149 323.542C661.825 323.615 659.87 321.39 659.782 318.573C659.694 315.756 661.506 313.413 663.83 313.34C666.154 313.268 663.867 318.223 670.096 320.216C670.185 323.033 666.473 323.469 664.149 323.542Z" fill="black"/>
<path d="M675.137 340.59C676.714 340.541 677.922 338.251 677.835 335.474C677.749 332.698 676.399 330.488 674.822 330.537C673.245 330.586 675.051 335.343 670.936 337.627C671.023 340.403 673.559 340.64 675.137 340.59Z" fill="black"/>
<path d="M661.528 337.042C663.106 336.993 666.336 341.056 666.25 338.279C662.47 329.234 662.791 326.94 661.214 326.989C659.636 327.038 661.6 331.133 657.486 333.417C657.573 336.193 659.951 337.092 661.528 337.042Z" fill="black"/>
<path d="M644.638 306.66C645.945 308.351 648.13 308.42 646.855 310.624L645.451 310.575C647.147 308.651 645.523 308.52 644.638 306.66Z" fill="black"/>
<path d="M641.749 331.054C641.211 331.66 639.862 330.73 639.853 329.326C638.905 328.461 639.97 328.331 640.165 328.221C640.361 328.112 641.228 328.459 641.665 329.242C642.103 330.024 641.945 330.945 641.749 331.054Z" fill="black"/>
<path d="M648.494 334.799C647.956 335.405 646.607 334.475 646.598 333.071C645.65 332.206 646.714 332.076 646.91 331.966C647.105 331.857 647.973 332.204 648.41 332.987C648.848 333.769 648.69 334.69 648.494 334.799Z" fill="black"/>
<path d="M650.895 347.405C650.357 348.01 649.008 347.081 648.999 345.676C648.05 344.812 649.115 344.681 649.311 344.572C649.506 344.463 650.374 344.81 650.811 345.592C651.249 346.374 651.091 347.295 650.895 347.405Z" fill="black"/>
<path d="M657.208 350.38C656.67 350.986 655.32 350.056 655.311 348.652C654.363 347.787 655.428 347.657 655.623 347.547C655.819 347.438 656.686 347.785 657.124 348.568C657.561 349.35 657.403 350.271 657.208 350.38Z" fill="black"/>
<path d="M639.832 320.973C638.968 321.921 636.207 321.14 637.623 320.348C636.207 321.14 636.361 318.265 637.143 317.828C637.926 317.39 639.466 316.994 640.456 318.764C641.187 320.071 640.54 320.577 639.832 320.973Z" fill="black"/>
<path d="M665.336 349.948C664.358 350.495 663.17 350.23 663.17 350.23C663.17 350.23 663.566 349.078 664.544 348.532C665.522 347.985 666.492 347.859 666.711 348.25C666.929 348.641 666.314 349.401 665.336 349.948Z" fill="black"/>
<rect x="335.015" y="742.185" width="9.05475" height="25.806" transform="rotate(-158.521 335.015 742.185)" fill="#FFFBD3"/>
<path d="M348.981 714.107L302.217 695.706L315.148 662.845L361.912 681.246L348.981 714.107Z" fill="#FFFBD3"/>
<path d="M315.985 729.343L302.15 695.438L349.216 713.957L315.985 729.343Z" fill="#FFFBD3"/>
<rect x="312.861" y="729.399" width="46.1792" height="4.07464" transform="rotate(-23.5211 312.861 729.399)" fill="#343434"/>
<rect x="314.387" y="733.092" width="46.1792" height="4.07464" transform="rotate(-113.521 314.387 733.092)" fill="#343434"/>
<rect x="344.641" y="708.46" width="15.7513" height="14.3931" rx="1.5" transform="rotate(-158.521 344.641 708.46)" fill="#FCFF6F" stroke="#343434"/>
<rect x="323.842" y="698.866" width="14.4876" height="30.3334" transform="rotate(-158.521 323.842 698.866)" fill="#343434"/>
<line x1="337.04" y1="705.52" x2="342.179" y2="692.46" stroke="#343434"/>
<line x1="347.724" y1="701.99" x2="332.136" y2="695.856" stroke="#343434"/>
<rect x="329.058" y="684.377" width="2.7157" height="0.452617" transform="rotate(-158.521 329.058 684.377)" fill="#FFF59A"/>
<rect x="328.38" y="683.625" width="0.905235" height="1.35785" transform="rotate(-158.521 328.38 683.625)" fill="#FFF59A"/>
<rect x="323.601" y="700.713" width="15.3931" height="1.81095" transform="rotate(-158.521 323.601 700.713)" fill="#C4C4C4"/>
<rect x="335.104" y="743.194" width="9.95875" height="2.71602" transform="rotate(-158.521 335.104 743.194)" fill="#343434"/>
<rect x="350.483" y="696.21" width="17.6568" height="2.71643" transform="rotate(-158.521 350.483 696.21)" fill="#C4C4C4"/>
<path d="M611.501 677.391C609.452 674.514 610.124 670.52 613.001 668.471C615.879 666.423 619.872 667.094 621.921 669.972C623.969 672.849 622.185 675.279 619.308 677.328C616.43 679.377 613.55 680.268 611.501 677.391Z" fill="#5C5C5C"/>
<path d="M557.405 664.446C557.405 664.446 568.609 645.136 588.054 631.29C607.5 617.444 627.823 614.306 627.823 614.306C641.669 633.752 637.13 660.74 617.684 674.586C598.239 688.432 571.251 683.892 557.405 664.446Z" fill="#E3AEAE"/>
<path d="M594.716 675.824L581.683 696.971L575.761 693.322L588.794 672.175C591.602 672.794 592.987 673.455 594.716 675.824Z" fill="#757575"/>
<rect x="586.7" y="690.725" width="23.847" height="8.94263" transform="rotate(121.645 586.7 690.725)" fill="#757575"/>
<rect x="583.178" y="700.227" width="33.7833" height="12.9171" transform="rotate(121.645 583.178 700.227)" fill="#757575"/>
<path d="M571.64 724.629L567.991 730.551C559.566 730.167 556.32 727.554 551.919 720.646L555.568 714.724L571.64 724.629Z" fill="#C4C4C4"/>
<rect x="225.394" y="641.614" width="62.6743" height="33.7477" transform="rotate(-134.945 225.394 641.614)" fill="#FFDEDE"/>
<path d="M229.986 615.249L222.238 622.982L221.32 622.063L228.753 614.644L224.035 609.916L224.98 608.972L230.092 614.094L229.986 615.249ZM220.497 604.953L223.617 608.079L222.881 608.813L221.859 607.789L215.292 614.342L216.76 615.813L216.051 616.521L212.984 613.815L213.745 613.055L214.768 613.922L221.334 607.368L219.709 605.74L220.497 604.953ZM216.773 602.746L205.512 606.75L205.198 605.542L217.719 601.172L218.663 602.38L211.385 612.266L210.493 611.373L216.773 602.746ZM206.078 591.767L206.997 590.849L211.978 595.84L211.819 596.942L204.885 603.862L203.599 604.097L199.378 599.869L200.14 599.108L203.968 602.943L206.909 600.007L202.82 595.91L203.529 595.202L207.671 599.352L210.665 596.363L206.078 591.767Z" fill="#FF4848"/>
<rect x="171.104" y="588.655" width="62.6743" height="33.7477" transform="rotate(-117.102 171.104 588.655)" fill="#FFDEDE"/>
<path d="M184.061 565.956L174.316 570.944L173.724 569.787L183.073 565.003L180.03 559.057L181.219 558.448L184.516 564.89L184.061 565.956ZM171.982 553.921C171.482 554.302 171.032 554.699 170.632 555.112C170.232 555.525 169.918 555.943 169.69 556.365C169.445 556.783 169.296 557.199 169.245 557.614C169.193 558.03 169.266 558.43 169.464 558.815C169.683 559.245 169.977 559.56 170.344 559.762C170.7 559.968 171.096 560.092 171.534 560.132C171.966 560.161 172.416 560.118 172.885 560.003C173.354 559.888 173.809 559.718 174.25 559.493C174.767 559.228 175.295 558.888 175.833 558.474C176.372 558.059 176.835 557.607 177.223 557.116C177.6 556.631 177.864 556.128 178.014 555.607C178.158 555.074 178.106 554.566 177.859 554.081C177.616 553.608 177.306 553.26 176.928 553.036C176.538 552.819 176.122 552.698 175.679 552.675C175.22 552.646 174.753 552.697 174.279 552.829C173.804 552.96 173.358 553.133 172.939 553.348C172.774 553.432 172.612 553.522 172.452 553.618C172.281 553.719 172.125 553.82 171.982 553.921ZM171.292 552.898C171.457 552.786 171.624 552.679 171.795 552.578C171.955 552.483 172.122 552.39 172.299 552.3C172.882 552.001 173.502 551.774 174.159 551.618C174.805 551.468 175.433 551.418 176.042 551.468C176.651 551.518 177.211 551.689 177.723 551.983C178.234 552.277 178.642 552.721 178.947 553.316C179.223 553.856 179.35 554.444 179.328 555.08C179.296 555.722 179.119 556.368 178.799 557.018C178.462 557.663 177.984 558.29 177.364 558.899C176.739 559.497 175.964 560.032 175.039 560.506C174.434 560.816 173.808 561.046 173.162 561.196C172.516 561.345 171.891 561.387 171.288 561.321C170.684 561.255 170.129 561.066 169.623 560.756C169.117 560.445 168.706 559.982 168.39 559.365C168.069 558.737 167.949 558.11 168.032 557.485C168.104 556.864 168.3 556.271 168.621 555.703C168.942 555.136 169.347 554.609 169.835 554.123C170.311 553.643 170.797 553.235 171.292 552.898ZM173.86 547.165L161.914 547.526L161.985 546.281L175.243 545.957L175.771 547.396L165.814 554.576L165.239 553.453L173.86 547.165ZM167.043 533.437L168.199 532.845L171.412 539.122L170.923 540.122L162.202 544.586L160.906 544.415L158.184 539.097L159.142 538.606L161.61 543.429L165.31 541.536L162.673 536.383L163.565 535.926L166.236 541.146L170.002 539.218L167.043 533.437Z" fill="#FF4848"/>
<rect x="139.316" y="520.183" width="62.6743" height="33.7477" transform="rotate(-104.837 139.316 520.183)" fill="#FFDEDE"/>
<path d="M158.471 507.069L147.889 509.872L147.556 508.617L157.708 505.927L155.997 499.47L157.289 499.128L159.142 506.123L158.471 507.069ZM150.678 496.925L149.946 494.163L146.301 496.78L150.678 496.925ZM157.008 497.053L157.044 498.349L144.371 497.752L144.162 496.963L154.778 489.505L155.405 490.567L150.973 493.546L151.866 496.918L157.008 497.053ZM142.495 491.108L142.342 489.805C142.597 489.801 142.93 489.777 143.34 489.733C143.751 489.688 144.207 489.624 144.71 489.542C145.201 489.464 145.727 489.369 146.286 489.259C146.846 489.149 147.4 489.022 147.951 488.876C148.656 488.689 149.334 488.471 149.985 488.222C150.635 487.973 151.2 487.689 151.678 487.37C152.142 487.043 152.494 486.681 152.734 486.284C152.963 485.891 153.012 485.449 152.882 484.959C152.692 484.242 152.325 483.725 151.781 483.408C151.233 483.08 150.581 482.888 149.824 482.832C149.064 482.765 148.242 482.804 147.359 482.948C146.476 483.092 145.604 483.279 144.743 483.507C144.061 483.687 143.438 483.871 142.874 484.059C142.294 484.238 141.825 484.376 141.467 484.471L141.108 483.26C141.547 483.131 141.998 482.999 142.461 482.863C142.924 482.728 143.401 482.595 143.891 482.465C144.657 482.263 145.416 482.087 146.17 481.938C146.924 481.79 147.658 481.685 148.371 481.624C149.072 481.566 149.739 481.569 150.37 481.632C151.001 481.695 151.57 481.839 152.077 482.063C152.572 482.29 153.001 482.605 153.364 483.008C153.726 483.411 153.99 483.923 154.155 484.545C154.354 485.298 154.31 485.976 154.021 486.577C153.717 487.169 153.261 487.693 152.652 488.149C152.044 488.604 151.329 488.998 150.509 489.331C149.688 489.663 148.854 489.942 148.005 490.167C147.466 490.309 146.937 490.437 146.417 490.549C145.881 490.653 145.374 490.742 144.895 490.818C144.416 490.894 143.973 490.96 143.565 491.017C143.155 491.061 142.798 491.092 142.495 491.108ZM144.549 471.907C144.965 471.835 145.425 471.758 145.928 471.676C146.416 471.585 146.921 471.49 147.445 471.389L150.556 470.815L150.743 471.955L147.304 472.597C147.446 472.649 147.632 472.747 147.862 472.891C148.089 473.023 148.322 473.204 148.563 473.435C148.791 473.669 149.012 473.949 149.227 474.276C149.442 474.603 149.604 474.976 149.715 475.394C149.867 475.968 149.896 476.537 149.802 477.099C149.705 477.649 149.5 478.158 149.189 478.624C148.877 479.091 148.469 479.506 147.964 479.87C147.444 480.225 146.843 480.493 146.162 480.674C145.253 480.915 144.38 481.024 143.542 481.003C142.69 480.973 141.923 480.831 141.241 480.576C140.544 480.313 139.958 479.937 139.484 479.449C138.997 478.963 138.663 478.38 138.482 477.698C138.375 477.292 138.329 476.901 138.345 476.526C138.345 476.142 138.393 475.79 138.487 475.47C138.57 475.154 138.693 474.872 138.858 474.624C139.023 474.375 139.201 474.181 139.394 474.04L140.153 474.876C139.834 475.216 139.634 475.595 139.553 476.014C139.471 476.432 139.485 476.844 139.592 477.251C139.725 477.753 139.976 478.192 140.344 478.568C140.698 478.935 141.144 479.22 141.684 479.422C142.209 479.616 142.813 479.725 143.498 479.748C144.167 479.763 144.878 479.67 145.632 479.471C146.098 479.347 146.537 479.167 146.947 478.93C147.343 478.685 147.676 478.398 147.948 478.07C148.204 477.733 148.385 477.353 148.49 476.928C148.583 476.507 148.563 476.045 148.43 475.543C148.329 475.16 148.154 474.816 147.907 474.511C147.657 474.193 147.369 473.93 147.046 473.722C146.722 473.513 146.376 473.368 146.009 473.286C145.626 473.195 145.257 473.178 144.901 473.234L145.718 476.319L144.57 476.623L142.888 470.274L144.036 469.97L144.549 471.907ZM140.537 462.413L135.694 463.695L135.419 462.655L146.862 459.624L147.071 460.413L141.547 461.876L142.953 467.185L148.477 465.722L148.867 467.193L137.46 470.215L137.013 468.529L141.82 467.255L140.537 462.413Z" fill="#FF4848"/>
</g>
<defs>
<filter id="filter0_d" x="25.3421" y="37.1606" width="817.286" height="751.537" filterUnits="userSpaceOnUse" color-interpolation-filters="sRGB">
<feFlood flood-opacity="0" result="BackgroundImageFix"/>
<feColorMatrix in="SourceAlpha" type="matrix" values="0 0 0 0 0 0 0 0 0 0 0 0 0 0 0 0 0 0 127 0"/>
<feOffset dy="4"/>
<feGaussianBlur stdDeviation="2"/>
<feColorMatrix type="matrix" values="0 0 0 0 0 0 0 0 0 0 0 0 0 0 0 0 0 0 0.25 0"/>
<feBlend mode="normal" in2="BackgroundImageFix" result="effect1_dropShadow"/>
<feBlend mode="normal" in="SourceGraphic" in2="effect1_dropShadow" result="shape"/>
</filter>
<filter id="filter1_d" x="372.029" y="126.213" width="29.7153" height="26.6016" filterUnits="userSpaceOnUse" color-interpolation-filters="sRGB">
<feFlood flood-opacity="0" result="BackgroundImageFix"/>
<feColorMatrix in="SourceAlpha" type="matrix" values="0 0 0 0 0 0 0 0 0 0 0 0 0 0 0 0 0 0 127 0"/>
<feOffset dy="4"/>
<feGaussianBlur stdDeviation="2"/>
<feColorMatrix type="matrix" values="0 0 0 0 0 0 0 0 0 0 0 0 0 0 0 0 0 0 0.25 0"/>
<feBlend mode="normal" in2="BackgroundImageFix" result="effect1_dropShadow"/>
<feBlend mode="normal" in="SourceGraphic" in2="effect1_dropShadow" result="shape"/>
</filter>
<filter id="filter2_d" x="290.758" y="575.989" width="27.9549" height="31.0737" filterUnits="userSpaceOnUse" color-interpolation-filters="sRGB">
<feFlood flood-opacity="0" result="BackgroundImageFix"/>
<feColorMatrix in="SourceAlpha" type="matrix" values="0 0 0 0 0 0 0 0 0 0 0 0 0 0 0 0 0 0 127 0"/>
<feOffset dy="4"/>
<feGaussianBlur stdDeviation="2"/>
<feColorMatrix type="matrix" values="0 0 0 0 0 0 0 0 0 0 0 0 0 0 0 0 0 0 0.25 0"/>
<feBlend mode="normal" in2="BackgroundImageFix" result="effect1_dropShadow"/>
<feBlend mode="normal" in="SourceGraphic" in2="effect1_dropShadow" result="shape"/>
</filter>
<filter id="filter3_d" x="413.97" y="124.567" width="99.5414" height="47.6122" filterUnits="userSpaceOnUse" color-interpolation-filters="sRGB">
<feFlood flood-opacity="0" result="BackgroundImageFix"/>
<feColorMatrix in="SourceAlpha" type="matrix" values="0 0 0 0 0 0 0 0 0 0 0 0 0 0 0 0 0 0 127 0"/>
<feOffset dy="4"/>
<feGaussianBlur stdDeviation="2"/>
<feColorMatrix type="matrix" values="0 0 0 0 0 0 0 0 0 0 0 0 0 0 0 0 0 0 0.25 0"/>
<feBlend mode="normal" in2="BackgroundImageFix" result="effect1_dropShadow"/>
<feBlend mode="normal" in="SourceGraphic" in2="effect1_dropShadow" result="shape"/>
</filter>
<filter id="filter4_d" x="248.307" y="547.998" width="26.6205" height="27.5107" filterUnits="userSpaceOnUse" color-interpolation-filters="sRGB">
<feFlood flood-opacity="0" result="BackgroundImageFix"/>
<feColorMatrix in="SourceAlpha" type="matrix" values="0 0 0 0 0 0 0 0 0 0 0 0 0 0 0 0 0 0 127 0"/>
<feOffset dy="4"/>
<feGaussianBlur stdDeviation="2"/>
<feColorMatrix type="matrix" values="0 0 0 0 0 0 0 0 0 0 0 0 0 0 0 0 0 0 0.25 0"/>
<feBlend mode="normal" in2="BackgroundImageFix" result="effect1_dropShadow"/>
<feBlend mode="normal" in="SourceGraphic" in2="effect1_dropShadow" result="shape"/>
</filter>
<filter id="filter5_d" x="241.666" y="501.422" width="26.4525" height="27.8479" filterUnits="userSpaceOnUse" color-interpolation-filters="sRGB">
<feFlood flood-opacity="0" result="BackgroundImageFix"/>
<feColorMatrix in="SourceAlpha" type="matrix" values="0 0 0 0 0 0 0 0 0 0 0 0 0 0 0 0 0 0 127 0"/>
<feOffset dy="4"/>
<feGaussianBlur stdDeviation="2"/>
<feColorMatrix type="matrix" values="0 0 0 0 0 0 0 0 0 0 0 0 0 0 0 0 0 0 0.25 0"/>
<feBlend mode="normal" in2="BackgroundImageFix" result="effect1_dropShadow"/>
<feBlend mode="normal" in="SourceGraphic" in2="effect1_dropShadow" result="shape"/>
</filter>
<filter id="filter6_d" x="374.616" y="153.23" width="28.966" height="27.4264" filterUnits="userSpaceOnUse" color-interpolation-filters="sRGB">
<feFlood flood-opacity="0" result="BackgroundImageFix"/>
<feColorMatrix in="SourceAlpha" type="matrix" values="0 0 0 0 0 0 0 0 0 0 0 0 0 0 0 0 0 0 127 0"/>
<feOffset dy="4"/>
<feGaussianBlur stdDeviation="2"/>
<feColorMatrix type="matrix" values="0 0 0 0 0 0 0 0 0 0 0 0 0 0 0 0 0 0 0.25 0"/>
<feBlend mode="normal" in2="BackgroundImageFix" result="effect1_dropShadow"/>
<feBlend mode="normal" in="SourceGraphic" in2="effect1_dropShadow" result="shape"/>
</filter>
<filter id="filter7_d" x="298.35" y="545.246" width="28.2864" height="32.5449" filterUnits="userSpaceOnUse" color-interpolation-filters="sRGB">
<feFlood flood-opacity="0" result="BackgroundImageFix"/>
<feColorMatrix in="SourceAlpha" type="matrix" values="0 0 0 0 0 0 0 0 0 0 0 0 0 0 0 0 0 0 127 0"/>
<feOffset dy="4"/>
<feGaussianBlur stdDeviation="2"/>
<feColorMatrix type="matrix" values="0 0 0 0 0 0 0 0 0 0 0 0 0 0 0 0 0 0 0.25 0"/>
<feBlend mode="normal" in2="BackgroundImageFix" result="effect1_dropShadow"/>
<feBlend mode="normal" in="SourceGraphic" in2="effect1_dropShadow" result="shape"/>
</filter>
</defs>
</svg>
