<svg width="872" height="809" viewBox="0 0 872 809" fill="none" xmlns="http://www.w3.org/2000/svg">
<g filter="url(#filter0_d)">
<circle cx="96.3012" cy="434.128" r="10.8216" transform="rotate(-66.9388 96.3012 434.128)" fill="#BEFF7E"/>
<circle cx="82.5126" cy="428.259" r="10.8216" transform="rotate(-66.9388 82.5126 428.259)" fill="#BEFF7E"/>
<circle cx="86.4734" cy="438.087" r="7.49188" transform="rotate(-66.9388 86.4734 438.087)" fill="#BEFF7E"/>
<circle cx="85.1084" cy="415.792" r="5.82701" transform="rotate(-66.9388 85.1084 415.792)" fill="#BEFF7E"/>
<circle cx="94.5105" cy="417.081" r="10.8216" transform="rotate(-66.9388 94.5105 417.081)" fill="#BEFF7E"/>
<path d="M96.4838 434.206L105.999 424.766L97.3455 417.658L107.521 423.694L149.945 414.744L150.942 421.328L107.77 425.34L96.4838 434.206Z" fill="#BF3F3F"/>
<circle cx="502.101" cy="709.817" r="8.56136" transform="rotate(-150.113 502.101 709.817)" fill="#BEFF7E"/>
<circle cx="496.194" cy="720.095" r="8.56136" transform="rotate(-150.113 496.194 720.095)" fill="#BEFF7E"/>
<circle cx="504.287" cy="717.91" r="5.9271" transform="rotate(-150.113 504.287 717.91)" fill="#BEFF7E"/>
<circle cx="486.645" cy="716.885" r="4.60996" transform="rotate(-150.113 486.645 716.885)" fill="#BEFF7E"/>
<circle cx="488.541" cy="709.619" r="8.56136" transform="rotate(-150.113 488.541 709.619)" fill="#BEFF7E"/>
<path d="M502.179 709.68L495.659 701.317L489.261 707.447L494.96 700.021L491.918 665.854L497.184 665.69L496.276 699.98L502.179 709.68Z" fill="#BF3F3F"/>
<circle cx="432.021" cy="726.275" r="8.56136" transform="rotate(-141.873 432.021 726.275)" fill="#BEFF7E"/>
<circle cx="424.702" cy="735.602" r="8.56136" transform="rotate(-141.873 424.702 735.602)" fill="#BEFF7E"/>
<circle cx="433.025" cy="734.596" r="5.9271" transform="rotate(-141.873 433.025 734.596)" fill="#BEFF7E"/>
<circle cx="415.712" cy="731.054" r="4.60996" transform="rotate(-141.873 415.712 731.054)" fill="#BEFF7E"/>
<circle cx="418.63" cy="724.137" r="8.56136" transform="rotate(-141.873 418.63 724.137)" fill="#BEFF7E"/>
<path d="M432.118 726.151L426.864 716.94L419.654 722.09L426.357 715.558L428.244 681.307L433.479 681.899L427.666 715.706L432.118 726.151Z" fill="#BF3F3F"/>
<path opacity="0.87" d="M712.776 603.006L639.903 552.751L659.916 523.731L732.789 573.986L738.025 598.307L712.776 603.006Z" fill="#979797"/>
<path opacity="0.87" d="M748.712 576.669L669.653 536.85L685.51 505.366L764.569 545.185L771.556 569.522L748.712 576.669Z" fill="#979797"/>
<rect opacity="0.87" x="718.667" y="580.239" width="9.40043" height="3.91685" transform="rotate(-147.984 718.667 580.239)" fill="#C4C4C4"/>
<rect opacity="0.87" x="711.02" y="592.984" width="9.40043" height="3.91685" transform="rotate(-147.984 711.02 592.984)" fill="#C4C4C4"/>
<rect opacity="0.87" x="701.842" y="569.279" width="9.40043" height="3.91685" transform="rotate(-147.984 701.842 569.279)" fill="#C4C4C4"/>
<rect opacity="0.87" x="694.196" y="582.023" width="9.40043" height="3.91685" transform="rotate(-147.984 694.196 582.023)" fill="#C4C4C4"/>
<rect opacity="0.87" x="749.518" y="552.781" width="9.40043" height="3.91685" transform="rotate(-148.044 749.518 552.781)" fill="#C4C4C4"/>
<rect opacity="0.87" x="741.885" y="565.533" width="9.40043" height="3.91685" transform="rotate(-148.044 741.885 565.533)" fill="#C4C4C4"/>
<rect opacity="0.87" x="725.629" y="541.081" width="9.40043" height="3.91685" transform="rotate(-148.044 725.629 541.081)" fill="#C4C4C4"/>
<rect opacity="0.87" x="717.996" y="553.835" width="9.40043" height="3.91685" transform="rotate(-148.044 717.996 553.835)" fill="#C4C4C4"/>
<path d="M716.838 416.54C745.345 426.776 761.344 431.406 789.894 438.932L789.054 441.672C760.102 433.724 744.016 428.991 715.998 419.28L716.838 416.54Z" fill="#A52A2A"/>
<path d="M708.036 470.812C738.322 470.483 754.956 471.352 784.395 473.598L784.499 470.734C754.542 468.755 737.793 467.955 708.14 467.948L708.036 470.812Z" fill="#A52A2A"/>
<path d="M791.214 435.87L819.701 439.786L813.993 481.303L785.506 477.387C779.39 460.251 780.954 451.198 791.214 435.87Z" fill="#B8B8B8"/>
<path d="M837.973 464.797L810.874 486.275C806.796 465.672 808.313 454.397 820.471 434.976L837.973 464.797Z" fill="#A52A2A"/>
<rect x="733.566" y="420.921" width="3" height="52" transform="rotate(10.5957 733.566 420.921)" fill="#A52A2A"/>
<rect x="751.874" y="426.38" width="3" height="47" transform="rotate(10.5957 751.874 426.38)" fill="#A52A2A"/>
<rect x="771.165" y="432.024" width="3" height="42" transform="rotate(10.5957 771.165 432.024)" fill="#A52A2A"/>
<rect x="41.2102" y="292.741" width="157.129" height="57.5878" transform="rotate(12.5602 41.2102 292.741)" fill="#909090"/>
<rect x="47.766" y="298.485" width="8.59613" height="44.8909" transform="rotate(13.6446 47.766 298.485)" fill="#C4C4C4"/>
<rect x="63.8715" y="301.3" width="8.59613" height="44.8909" transform="rotate(13.6446 63.8715 301.3)" fill="#C4C4C4"/>
<rect x="79.7025" y="305.037" width="8.59613" height="44.8909" transform="rotate(13.6446 79.7025 305.037)" fill="#C4C4C4"/>
<rect x="95.5341" y="308.767" width="8.59613" height="44.8909" transform="rotate(13.6446 95.5341 308.767)" fill="#C4C4C4"/>
<rect x="112.281" y="312.767" width="8.59613" height="44.8909" transform="rotate(13.6446 112.281 312.767)" fill="#C4C4C4"/>
<rect x="168.231" y="154.453" width="88.5207" height="35.2516" transform="rotate(36.7301 168.231 154.453)" fill="#B5B5B5"/>
<rect x="151.176" y="195.401" width="88.5207" height="35.2516" transform="rotate(28.9321 151.176 195.401)" fill="#B5B5B5"/>
<rect x="150.975" y="240.693" width="88.5207" height="35.2516" transform="rotate(20.3792 150.975 240.693)" fill="#B5B5B5"/>
<rect x="161.494" y="176.983" width="9.39903" height="3.91626" transform="rotate(34.1556 161.494 176.983)" fill="#C4C4C4"/>
<rect x="169.611" y="164.529" width="9.39903" height="3.91626" transform="rotate(34.1556 169.611 164.529)" fill="#C4C4C4"/>
<rect x="177.897" y="188.563" width="9.39903" height="3.91626" transform="rotate(34.1556 177.897 188.563)" fill="#C4C4C4"/>
<rect x="186.014" y="176.111" width="9.39903" height="3.91626" transform="rotate(34.1556 186.014 176.111)" fill="#C4C4C4"/>
<rect x="195.419" y="202.057" width="9.39903" height="3.91626" transform="rotate(34.1556 195.419 202.057)" fill="#C4C4C4"/>
<rect x="203.537" y="189.605" width="9.39903" height="3.91626" transform="rotate(34.1556 203.537 189.605)" fill="#C4C4C4"/>
<rect x="149.453" y="219.241" width="9.39903" height="3.91626" transform="rotate(34.1556 149.453 219.241)" fill="#C4C4C4"/>
<rect x="157.57" y="206.789" width="9.39903" height="3.91626" transform="rotate(34.1556 157.57 206.789)" fill="#C4C4C4"/>
<rect x="172.876" y="231.849" width="9.39903" height="3.91626" transform="rotate(34.1556 172.876 231.849)" fill="#C4C4C4"/>
<rect x="180.992" y="219.396" width="9.39903" height="3.91626" transform="rotate(34.1556 180.992 219.396)" fill="#C4C4C4"/>
<rect x="154.658" y="264.329" width="9.39903" height="3.91626" transform="rotate(34.1556 154.658 264.329)" fill="#C4C4C4"/>
<rect x="162.776" y="251.877" width="9.39903" height="3.91626" transform="rotate(34.1556 162.776 251.877)" fill="#C4C4C4"/>
<circle cx="475.747" cy="753.313" r="12.4166" transform="rotate(-150.118 475.747 753.313)" fill="#A3FF4A"/>
<circle cx="467.182" cy="768.217" r="12.4166" transform="rotate(-150.118 467.182 768.217)" fill="#A3FF4A"/>
<circle cx="478.918" cy="765.047" r="8.59613" transform="rotate(-150.118 478.918 765.047)" fill="#A3FF4A"/>
<circle cx="453.332" cy="763.565" r="6.68588" transform="rotate(-150.118 453.332 763.565)" fill="#A3FF4A"/>
<circle cx="456.083" cy="753.026" r="12.4166" transform="rotate(-150.118 456.083 753.026)" fill="#A3FF4A"/>
<path d="M475.861 753.112L466.404 740.985L457.126 749.876L465.389 739.106L460.973 689.553L468.611 689.314L467.299 739.046L475.861 753.112Z" fill="#A52A2A"/>
<circle cx="357.12" cy="100.315" r="8.05548" transform="rotate(25.7884 357.12 100.315)" fill="#BEFF7E"/>
<circle cx="272.039" cy="131.674" r="8.05548" transform="rotate(9.30244 272.039 131.674)" fill="#BEFF7E"/>
<circle cx="253.077" cy="155.451" r="6.06154" transform="rotate(-10.0645 253.077 155.451)" fill="#BEFF7E"/>
<circle cx="231.7" cy="157.464" r="7.76485" transform="rotate(-10.0645 231.7 157.464)" fill="#BEFF7E"/>
<circle cx="361.972" cy="90.2714" r="8.05548" transform="rotate(25.7884 361.972 90.2714)" fill="#BEFF7E"/>
<circle cx="273.842" cy="120.666" r="8.05548" transform="rotate(9.30244 273.842 120.666)" fill="#BEFF7E"/>
<circle cx="251.61" cy="147.187" r="6.06154" transform="rotate(-10.0645 251.61 147.187)" fill="#BEFF7E"/>
<circle cx="229.821" cy="146.879" r="7.76485" transform="rotate(-10.0645 229.821 146.879)" fill="#BEFF7E"/>
<circle cx="354.526" cy="92.8695" r="5.57687" transform="rotate(25.7884 354.526 92.8695)" fill="#BEFF7E"/>
<circle cx="267.439" cy="125.271" r="5.57687" transform="rotate(9.30244 267.439 125.271)" fill="#BEFF7E"/>
<circle cx="248.214" cy="152.054" r="4.19645" transform="rotate(-10.0645 248.214 152.054)" fill="#BEFF7E"/>
<circle cx="225.47" cy="153.113" r="5.37567" transform="rotate(-10.0645 225.47 153.113)" fill="#BEFF7E"/>
<circle cx="371.151" cy="92.6394" r="4.33692" transform="rotate(25.7884 371.151 92.6394)" fill="#BEFF7E"/>
<circle cx="283.315" cy="120.333" r="4.33692" transform="rotate(9.30244 283.315 120.333)" fill="#BEFF7E"/>
<circle cx="258.252" cy="144.586" r="3.26342" transform="rotate(-10.0645 258.252 144.586)" fill="#BEFF7E"/>
<circle cx="238.329" cy="143.547" r="4.18046" transform="rotate(-10.0645 238.329 143.547)" fill="#BEFF7E"/>
<circle cx="369.86" cy="99.5883" r="8.05548" transform="rotate(25.7884 369.86 99.5883)" fill="#BEFF7E"/>
<circle cx="284.049" cy="127.363" r="8.05548" transform="rotate(9.30244 284.049 127.363)" fill="#BEFF7E"/>
<circle cx="260.527" cy="149.393" r="6.06154" transform="rotate(-10.0645 260.527 149.393)" fill="#BEFF7E"/>
<circle cx="241.244" cy="149.704" r="7.76485" transform="rotate(-10.0645 241.244 149.704)" fill="#BEFF7E"/>
<path d="M357.056 100.449L363.738 107.858L369.33 101.676L364.481 109.028L369.634 140.889L364.702 141.397L363.248 109.155L357.056 100.449Z" fill="#BF3F3F"/>
<path d="M272.016 131.821L280.525 137.03L284.133 129.514L281.57 137.94L295.552 167.029L290.968 168.916L280.424 138.412L272.016 131.821Z" fill="#BF3F3F"/>
<path d="M252.862 156.17L260.006 158.476L261.317 152.342L260.931 158.957L276.299 177.763L273.28 179.953L260.176 159.505L252.862 156.17Z" fill="#BF3F3F"/>
<path d="M231.726 157.605L241.129 159.622L242.008 151.635L242.37 160.116L264.384 182.1L260.818 185.281L241.479 160.911L231.726 157.605Z" fill="#BF3F3F"/>
<path d="M691.584 96.1194C693.929 93.1451 698.242 92.6354 701.216 94.9811V94.9811C704.191 97.3267 704.7 101.639 702.355 104.614L696.05 112.609L685.278 104.114L691.584 96.1194Z" fill="#978062"/>
<rect width="2.64361" height="119.205" transform="matrix(0.226165 0.974088 -0.686924 0.726728 689.402 100.926)" fill="#978062"/>
<rect width="2.8635" height="19.3893" transform="matrix(-0.69545 0.718572 -0.0738831 -0.997266 682.767 128.969)" fill="#978062"/>
<rect width="2.8635" height="19.3894" transform="matrix(0.536673 -0.843789 0.987016 -0.160614 670.206 123.114)" fill="#978062"/>
<rect width="2.85563" height="22.8783" transform="matrix(-0.721158 0.692769 -0.226093 -0.974104 668.972 150.601)" fill="#978062"/>
<rect width="2.85563" height="22.8784" transform="matrix(0.505587 -0.862774 0.999973 -0.00719735 652.56 141.711)" fill="#978062"/>
<rect width="2.84655" height="26.4283" transform="matrix(-0.743671 0.668543 -0.325446 -0.945559 654.843 171.97)" fill="#978062"/>
<rect width="2.84655" height="26.4284" transform="matrix(0.476781 -0.87902 0.995373 0.0960728 634.9 160.292)" fill="#978062"/>
<rect width="2.86119" height="29.5788" transform="matrix(-0.761765 0.647851 -0.388118 -0.921609 641.79 192.5)" fill="#978062"/>
<rect width="2.86119" height="29.5788" transform="matrix(0.452442 -0.891792 0.986691 0.162601 618.882 178.488)" fill="#978062"/>
<rect width="2.64361" height="117.86" transform="matrix(0.999973 -0.00711761 -0.546592 0.837397 694.771 108.444)" fill="#978062"/>
<path d="M736.099 80.2036L703.513 97.711L697.578 86.6651C711.982 80.7648 719.021 76.8779 730.165 69.1578L736.099 80.2036Z" fill="#FDFFAE" fill-opacity="0.9"/>
<path d="M735.422 79.9998L703.716 97.0339L698.281 86.9171C712.176 81.2017 719.21 77.3275 729.989 69.8872L735.422 79.9998Z" stroke="black" stroke-opacity="0.6"/>
<line x1="735.091" y1="78.3296" x2="702.504" y2="95.837" stroke="#E8E8E8"/>
<line x1="733.841" y1="75.999" x2="701.254" y2="93.5064" stroke="#E8E8E8"/>
<line x1="732.592" y1="73.6729" x2="700.005" y2="91.1802" stroke="#E8E8E8"/>
<line x1="731.343" y1="71.3496" x2="698.756" y2="88.857" stroke="#E8E8E8"/>
<line x1="733.232" y1="81.7508" x2="727.297" y2="70.705" stroke="#E8E8E8"/>
<line x1="731.286" y1="82.7982" x2="725.352" y2="71.7523" stroke="#E8E8E8"/>
<line x1="729.341" y1="83.8455" x2="723.406" y2="72.7997" stroke="#E8E8E8"/>
<line x1="727.395" y1="84.89" x2="721.461" y2="73.8441" stroke="#E8E8E8"/>
<line x1="725.449" y1="85.9354" x2="719.514" y2="74.8895" stroke="#E8E8E8"/>
<line x1="723.504" y1="86.9788" x2="717.569" y2="75.933" stroke="#E8E8E8"/>
<line x1="721.558" y1="88.0233" x2="715.624" y2="76.9774" stroke="#E8E8E8"/>
<line x1="719.612" y1="89.0701" x2="713.678" y2="78.0243" stroke="#E8E8E8"/>
<line x1="717.666" y1="90.1175" x2="711.732" y2="79.0717" stroke="#E8E8E8"/>
<line x1="715.721" y1="91.1595" x2="709.786" y2="80.1137" stroke="#E8E8E8"/>
<line x1="713.775" y1="92.2039" x2="707.841" y2="81.1581" stroke="#E8E8E8"/>
<line x1="711.831" y1="93.2498" x2="705.897" y2="82.204" stroke="#E8E8E8"/>
<line x1="709.886" y1="94.2938" x2="703.951" y2="83.2479" stroke="#E8E8E8"/>
<line x1="707.939" y1="95.3397" x2="702.005" y2="84.2938" stroke="#E8E8E8"/>
<line x1="705.994" y1="96.388" x2="700.059" y2="85.3422" stroke="#E8E8E8"/>
<path d="M693.797 117.745C683.712 122.078 679.269 123.359 661.21 135.252L655.276 124.206L687.862 106.699L693.797 117.745Z" fill="#FDFFAE" fill-opacity="0.9"/>
<path d="M687.659 107.376L693.098 117.5C692.062 117.943 691.084 118.356 690.142 118.753C682.296 122.06 676.941 124.318 661.392 134.534L655.953 124.41L687.659 107.376Z" stroke="black" stroke-opacity="0.6"/>
<line x1="692.79" y1="115.866" x2="660.203" y2="133.374" stroke="#E8E8E8"/>
<line x1="691.54" y1="113.537" x2="658.954" y2="131.044" stroke="#E8E8E8"/>
<line x1="690.291" y1="111.209" x2="657.705" y2="128.716" stroke="#E8E8E8"/>
<line x1="689.042" y1="108.885" x2="656.455" y2="126.392" stroke="#E8E8E8"/>
<line x1="690.931" y1="119.288" x2="684.996" y2="108.242" stroke="#E8E8E8"/>
<line x1="688.985" y1="120.334" x2="683.051" y2="109.288" stroke="#E8E8E8"/>
<line x1="687.04" y1="121.382" x2="681.105" y2="110.336" stroke="#E8E8E8"/>
<line x1="685.094" y1="122.427" x2="679.159" y2="111.381" stroke="#E8E8E8"/>
<line x1="683.147" y1="123.472" x2="677.213" y2="112.426" stroke="#E8E8E8"/>
<line x1="681.203" y1="124.515" x2="675.268" y2="113.469" stroke="#E8E8E8"/>
<line x1="679.257" y1="125.56" x2="673.323" y2="114.515" stroke="#E8E8E8"/>
<line x1="677.311" y1="126.607" x2="671.377" y2="115.561" stroke="#E8E8E8"/>
<line x1="675.365" y1="127.654" x2="669.431" y2="116.608" stroke="#E8E8E8"/>
<line x1="673.421" y1="128.697" x2="667.486" y2="117.651" stroke="#E8E8E8"/>
<line x1="671.475" y1="129.742" x2="665.541" y2="118.696" stroke="#E8E8E8"/>
<line x1="669.53" y1="130.787" x2="663.595" y2="119.741" stroke="#E8E8E8"/>
<line x1="667.585" y1="131.831" x2="661.65" y2="120.786" stroke="#E8E8E8"/>
<line x1="665.638" y1="132.877" x2="659.704" y2="121.831" stroke="#E8E8E8"/>
<line x1="663.694" y1="133.924" x2="657.759" y2="122.878" stroke="#E8E8E8"/>
<path d="M674.045 61.5264L691.552 94.1128L680.506 100.047C675.36 86.6656 671.461 79.5549 662.999 67.4608L674.045 61.5264Z" fill="#FDFFAE" fill-opacity="0.9"/>
<path d="M673.841 62.2035L690.875 93.909L680.769 99.3386C675.772 86.4238 671.881 79.3228 663.731 67.6353L673.841 62.2035Z" stroke="black" stroke-opacity="0.6"/>
<line x1="672.162" y1="62.5383" x2="689.669" y2="95.1247" stroke="#E8E8E8"/>
<line x1="669.836" y1="63.7883" x2="687.343" y2="96.3747" stroke="#E8E8E8"/>
<line x1="667.512" y1="65.0373" x2="685.02" y2="97.6237" stroke="#E8E8E8"/>
<line x1="665.185" y1="66.2853" x2="682.692" y2="98.8718" stroke="#E8E8E8"/>
<line x1="675.589" y1="64.398" x2="664.543" y2="70.3324" stroke="#E8E8E8"/>
<line x1="676.634" y1="66.3433" x2="665.588" y2="72.2777" stroke="#E8E8E8"/>
<line x1="677.679" y1="68.2906" x2="666.633" y2="74.225" stroke="#E8E8E8"/>
<line x1="678.723" y1="70.2364" x2="667.678" y2="76.1708" stroke="#E8E8E8"/>
<line x1="679.77" y1="72.1787" x2="668.724" y2="78.1132" stroke="#E8E8E8"/>
<line x1="680.815" y1="74.126" x2="669.769" y2="80.0605" stroke="#E8E8E8"/>
<line x1="681.859" y1="76.0723" x2="670.814" y2="82.0068" stroke="#E8E8E8"/>
<line x1="682.905" y1="78.0137" x2="671.86" y2="83.9482" stroke="#E8E8E8"/>
<line x1="683.951" y1="79.9629" x2="672.905" y2="85.8974" stroke="#E8E8E8"/>
<line x1="684.995" y1="81.9048" x2="673.949" y2="87.8393" stroke="#E8E8E8"/>
<line x1="686.041" y1="83.8511" x2="674.995" y2="89.7856" stroke="#E8E8E8"/>
<line x1="687.087" y1="85.7964" x2="676.041" y2="91.7309" stroke="#E8E8E8"/>
<line x1="688.131" y1="87.7427" x2="677.085" y2="93.6772" stroke="#E8E8E8"/>
<line x1="689.177" y1="89.687" x2="678.132" y2="95.6215" stroke="#E8E8E8"/>
<line x1="690.221" y1="91.6358" x2="679.175" y2="97.5702" stroke="#E8E8E8"/>
<path d="M710.638 103.941C715.578 116.393 719.105 123.484 728.146 136.527L717.1 142.462L699.593 109.875L710.638 103.941Z" fill="#FDFFAE" fill-opacity="0.9"/>
<path d="M700.27 110.079L710.381 104.647C715.169 116.665 718.712 123.747 727.416 136.352L717.304 141.785L700.27 110.079Z" stroke="black" stroke-opacity="0.6"/>
<line x1="708.753" y1="104.952" x2="726.26" y2="137.538" stroke="#E8E8E8"/>
<line x1="706.428" y1="106.205" x2="723.935" y2="138.791" stroke="#E8E8E8"/>
<line x1="704.103" y1="107.454" x2="721.61" y2="140.041" stroke="#E8E8E8"/>
<line x1="701.776" y1="108.703" x2="719.284" y2="141.29" stroke="#E8E8E8"/>
<line x1="712.181" y1="106.811" x2="701.135" y2="112.746" stroke="#E8E8E8"/>
<line x1="713.226" y1="108.758" x2="702.18" y2="114.692" stroke="#E8E8E8"/>
<line x1="714.27" y1="110.708" x2="703.225" y2="116.642" stroke="#E8E8E8"/>
<line x1="715.316" y1="112.652" x2="704.271" y2="118.586" stroke="#E8E8E8"/>
<line x1="716.361" y1="114.597" x2="705.316" y2="120.531" stroke="#E8E8E8"/>
<line x1="717.406" y1="116.543" x2="706.361" y2="122.477" stroke="#E8E8E8"/>
<line x1="718.452" y1="118.485" x2="707.406" y2="124.419" stroke="#E8E8E8"/>
<line x1="719.497" y1="120.432" x2="708.452" y2="126.366" stroke="#E8E8E8"/>
<line x1="720.542" y1="122.377" x2="709.497" y2="128.312" stroke="#E8E8E8"/>
<line x1="721.587" y1="124.322" x2="710.541" y2="130.256" stroke="#E8E8E8"/>
<line x1="722.632" y1="126.267" x2="711.587" y2="132.201" stroke="#E8E8E8"/>
<line x1="723.679" y1="128.215" x2="712.633" y2="134.15" stroke="#E8E8E8"/>
<line x1="724.723" y1="130.16" x2="713.678" y2="136.094" stroke="#E8E8E8"/>
<line x1="725.768" y1="132.104" x2="714.722" y2="138.038" stroke="#E8E8E8"/>
<line x1="726.814" y1="134.052" x2="715.768" y2="139.987" stroke="#E8E8E8"/>
<circle cx="695.581" cy="102.413" r="2.67245" transform="rotate(151.753 695.581 102.413)" fill="#E8E8E8"/>
<rect x="576.244" y="93.6631" width="9.05475" height="25.806" transform="rotate(24.0209 576.244 93.6631)" fill="white"/>
<path d="M561.046 121.095L606.948 141.552L592.573 173.807L546.671 153.35L561.046 121.095Z" fill="white"/>
<path d="M594.686 107.336L607.004 141.822L560.806 121.233L594.686 107.336Z" fill="white"/>
<rect x="597.81" y="107.419" width="46.1792" height="4.07464" transform="rotate(159.021 597.81 107.419)" fill="#7D6549"/>
<rect x="596.449" y="103.662" width="46.1792" height="4.07464" transform="rotate(69.0209 596.449 103.662)" fill="#7D6549"/>
<rect x="565.133" y="126.928" width="15.7513" height="14.3931" rx="1.5" transform="rotate(24.0209 565.133 126.928)" fill="#FCFF6F" stroke="#7D6549"/>
<rect x="585.485" y="137.435" width="14.4876" height="30.3334" transform="rotate(24.0209 585.485 137.435)" fill="#7D6549"/>
<line x1="572.595" y1="130.203" x2="566.882" y2="143.022" stroke="#7D6549"/>
<line x1="561.766" y1="133.256" x2="577.066" y2="140.075" stroke="#7D6549"/>
<rect x="579.632" y="151.679" width="2.7157" height="0.452617" transform="rotate(24.0209 579.632 151.679)" fill="#FFF59A"/>
<rect x="580.275" y="152.461" width="0.905235" height="1.35785" transform="rotate(24.0209 580.275 152.461)" fill="#FFF59A"/>
<rect x="585.809" y="135.6" width="15.3931" height="1.81095" transform="rotate(24.0209 585.809 135.6)" fill="#C4C4C4"/>
<rect x="576.2" y="92.6519" width="9.95875" height="2.71602" transform="rotate(24.0209 576.2 92.6519)" fill="#7D6549"/>
<rect x="558.752" y="138.907" width="17.6568" height="2.71643" transform="rotate(24.0209 558.752 138.907)" fill="#C4C4C4"/>
<path d="M714.376 473.319C680.087 627.269 527.488 724.274 373.538 689.984C219.587 655.695 122.583 503.096 156.872 349.146C191.162 195.195 343.76 98.1907 497.711 132.48C651.661 166.77 748.666 319.368 714.376 473.319Z" fill="#9ACA6B"/>
<path d="M580.345 165.438C562.007 196.511 564.443 196.398 547.845 214.438M157.845 344.938C194.774 353.338 191.474 399.508 213.345 397.938M443.38 409.03C354.904 352.369 300.887 349.766 263.845 351.938M443.38 409.03C460.75 328.665 446.536 290.503 468.845 261.938M443.38 409.03C454.123 478.33 475.034 543.58 458.345 570.779M443.38 409.03C501.465 413.855 537.051 387.399 566.845 397.938M325.745 675.155C339.115 637.51 352.246 600.166 372.345 581.438M692.15 539.018C656.518 520.315 660.165 482.186 611.345 451.312M263.845 351.938C255.537 319.867 268.161 288.003 272.486 261.938M263.845 351.938C251.994 352.634 226.346 397.006 213.345 397.938M302.345 195.438C295.48 204.148 289.77 213.13 285.167 222.438M272.486 261.938C236.161 263.27 218.385 262.004 203.845 246.438M272.486 261.938C274.783 248.092 278.972 234.969 285.167 222.438M285.167 222.438C369.345 201.438 401.508 203.938 468.845 261.938M468.845 261.938C476.797 251.757 539.363 223.657 547.845 214.438M213.345 397.938C190.845 475.03 272.486 471.438 302.345 478.438C345.345 478.438 388.845 513.99 372.345 581.438M372.345 581.438C390.696 564.339 445.219 592.171 458.345 570.779M458.345 570.779C508.359 568.688 520.888 548.203 547.845 570.779M579.845 636.938C576.509 606.718 565.259 585.364 547.845 570.779M611.345 451.312C611.337 511.611 597.844 537.995 547.845 570.779M611.345 451.312C600.995 444.766 582.786 403.578 566.845 397.938M547.845 214.438C620.845 227.3 591.345 337.938 566.845 397.938" stroke="#EEEEEE" stroke-width="5" stroke-linejoin="round" stroke-dasharray="15 5"/>
<g filter="url(#filter1_d)">
<rect x="380.299" y="137.706" width="0.954873" height="4.77436" transform="rotate(12.5566 380.299 137.706)" fill="#3B3B3B"/>
<rect x="387.758" y="139.368" width="0.954873" height="4.77436" transform="rotate(12.5566 387.758 139.368)" fill="#3B3B3B"/>
<path d="M380.924 130.508C380.637 131.795 379.361 132.606 378.074 132.32C376.786 132.033 375.975 130.757 376.262 129.47C376.549 128.182 377.825 127.371 379.112 127.658C380.399 127.945 381.21 129.221 380.924 130.508Z" fill="white"/>
<path d="M383.203 129.059C382.917 130.346 381.641 131.157 380.354 130.87C379.066 130.584 378.255 129.308 378.542 128.02C378.829 126.733 380.105 125.922 381.392 126.209C382.679 126.496 383.49 127.771 383.203 129.059Z" fill="white"/>
<path d="M383.305 132.995C383.018 134.283 381.742 135.094 380.455 134.807C379.168 134.52 378.357 133.244 378.644 131.957C378.93 130.67 380.206 129.859 381.493 130.146C382.781 130.432 383.592 131.708 383.305 132.995Z" fill="white"/>
<path d="M386.933 129.889C386.646 131.176 385.37 131.988 384.083 131.701C382.795 131.414 381.984 130.138 382.271 128.851C382.558 127.564 383.834 126.753 385.121 127.039C386.408 127.326 387.219 128.602 386.933 129.889Z" fill="white"/>
<path d="M384.445 132.271C384.158 133.558 382.882 134.369 381.595 134.082C380.308 133.796 379.497 132.52 379.784 131.233C380.07 129.945 381.346 129.134 382.633 129.421C383.921 129.708 384.732 130.984 384.445 132.271Z" fill="white"/>
<path d="M389.106 133.309C388.82 134.596 387.544 135.407 386.257 135.121C384.969 134.834 384.158 133.558 384.445 132.271C384.732 130.984 386.008 130.173 387.295 130.459C388.582 130.746 389.393 132.022 389.106 133.309Z" fill="white"/>
<path d="M390.454 131.652C390.167 132.939 388.891 133.75 387.604 133.464C386.317 133.177 385.506 131.901 385.793 130.614C386.079 129.327 387.355 128.516 388.642 128.802C389.93 129.089 390.741 130.365 390.454 131.652Z" fill="white"/>
<path d="M391.696 134.864C391.409 136.151 390.133 136.963 388.846 136.676C387.559 136.389 386.747 135.113 387.034 133.826C387.321 132.539 388.597 131.728 389.884 132.014C391.171 132.301 391.982 133.577 391.696 134.864Z" fill="white"/>
<path d="M388.276 137.038C387.989 138.325 386.713 139.136 385.426 138.85C384.139 138.563 383.328 137.287 383.614 136C383.901 134.713 385.177 133.902 386.464 134.188C387.751 134.475 388.563 135.751 388.276 137.038Z" fill="white"/>
<path d="M386.204 137.555C385.917 138.842 384.641 139.653 383.354 139.367C382.067 139.08 381.256 137.804 381.542 136.517C381.829 135.23 383.105 134.419 384.392 134.705C385.679 134.992 386.49 136.268 386.204 137.555Z" fill="white"/>
<path d="M389.725 139.318C389.438 140.605 388.162 141.416 386.875 141.13C385.588 140.843 384.777 139.567 385.064 138.28C385.35 136.993 386.626 136.181 387.914 136.468C389.201 136.755 390.012 138.031 389.725 139.318Z" fill="white"/>
<path d="M392.005 137.869C391.718 139.156 390.442 139.967 389.155 139.68C387.868 139.394 387.057 138.118 387.344 136.831C387.63 135.543 388.906 134.732 390.193 135.019C391.481 135.306 392.292 136.582 392.005 137.869Z" fill="white"/>
<path d="M393.768 134.347C393.481 135.634 392.205 136.446 390.918 136.159C389.631 135.872 388.82 134.596 389.106 133.309C389.393 132.022 390.669 131.211 391.956 131.497C393.243 131.784 394.055 133.06 393.768 134.347Z" fill="white"/>
<path d="M393.975 133.415C393.689 134.702 392.413 135.513 391.126 135.227C389.838 134.94 389.027 133.664 389.314 132.377C389.601 131.09 390.877 130.278 392.164 130.565C393.451 130.852 394.262 132.128 393.975 133.415Z" fill="white"/>
<path d="M395.217 136.627C394.93 137.914 393.654 138.725 392.367 138.439C391.08 138.152 390.269 136.876 390.556 135.589C390.842 134.302 392.118 133.491 393.405 133.777C394.693 134.064 395.504 135.34 395.217 136.627Z" fill="white"/>
<path d="M381.542 136.517C381.256 137.804 379.98 138.615 378.692 138.328C377.405 138.042 376.594 136.766 376.881 135.479C377.167 134.191 378.443 133.38 379.731 133.667C381.018 133.954 381.829 135.23 381.542 136.517Z" fill="white"/>
<path d="M386.619 135.691C386.332 136.978 385.056 137.789 383.769 137.502C382.482 137.215 381.671 135.94 381.957 134.652C382.244 133.365 383.52 132.554 384.807 132.841C386.095 133.127 386.906 134.403 386.619 135.691Z" fill="white"/>
<path d="M383.614 136C383.328 137.287 382.052 138.098 380.765 137.811C379.477 137.525 378.666 136.249 378.953 134.962C379.24 133.674 380.516 132.863 381.803 133.15C383.09 133.437 383.901 134.713 383.614 136Z" fill="white"/>
<path d="M380.093 134.237C379.806 135.524 378.53 136.335 377.243 136.049C375.956 135.762 375.145 134.486 375.432 133.199C375.718 131.912 376.994 131.101 378.281 131.387C379.569 131.674 380.38 132.95 380.093 134.237Z" fill="white"/>
<path d="M397.027 141.674C396.572 143.721 393.669 142.593 392.085 142.24C390.501 141.887 389.587 139.942 390.043 137.895C390.499 135.848 392.152 134.475 393.736 134.828C395.32 135.18 397.483 139.627 397.027 141.674Z" fill="#3C3C3C"/>
<rect x="378.227" y="138.226" width="0.954873" height="4.77436" transform="rotate(12.5566 378.227 138.226)" fill="#3B3B3B"/>
<rect x="385.685" y="139.885" width="0.954873" height="4.77436" transform="rotate(12.5566 385.685 139.885)" fill="#3B3B3B"/>
</g>
<g filter="url(#filter2_d)">
<rect x="308.497" y="589.366" width="0.954873" height="4.77436" transform="rotate(-131.435 308.497 589.366)" fill="#3B3B3B"/>
<rect x="303.44" y="583.638" width="0.954873" height="4.77436" transform="rotate(-131.435 303.44 583.638)" fill="#3B3B3B"/>
<path d="M303.76 594.823C304.748 593.95 306.257 594.044 307.13 595.033C308.003 596.022 307.909 597.53 306.92 598.403C305.931 599.276 304.422 599.182 303.55 598.193C302.677 597.205 302.771 595.696 303.76 594.823Z" fill="white"/>
<path d="M301.063 594.655C302.052 593.782 303.561 593.876 304.434 594.865C305.306 595.854 305.212 597.363 304.224 598.235C303.235 599.108 301.726 599.014 300.853 598.025C299.981 597.037 300.075 595.528 301.063 594.655Z" fill="white"/>
<path d="M303.295 591.411C304.284 590.538 305.793 590.632 306.666 591.621C307.538 592.609 307.444 594.118 306.456 594.991C305.467 595.864 303.958 595.77 303.085 594.781C302.213 593.792 302.307 592.283 303.295 591.411Z" fill="white"/>
<path d="M298.535 591.791C299.524 590.918 301.033 591.012 301.905 592.001C302.778 592.989 302.684 594.498 301.695 595.371C300.707 596.244 299.198 596.15 298.325 595.161C297.452 594.172 297.546 592.663 298.535 591.791Z" fill="white"/>
<path d="M301.947 591.327C302.936 590.454 304.445 590.548 305.318 591.537C306.19 592.525 306.096 594.034 305.108 594.907C304.119 595.78 302.61 595.686 301.737 594.697C300.865 593.708 300.959 592.199 301.947 591.327Z" fill="white"/>
<path d="M298.787 587.746C299.776 586.874 301.285 586.968 302.157 587.956C303.03 588.945 302.936 590.454 301.947 591.327C300.959 592.199 299.45 592.105 298.577 591.117C297.704 590.128 297.798 588.619 298.787 587.746Z" fill="white"/>
<path d="M296.723 588.294C297.711 587.422 299.22 587.516 300.093 588.504C300.966 589.493 300.872 591.002 299.883 591.875C298.894 592.747 297.385 592.653 296.513 591.665C295.64 590.676 295.734 589.167 296.723 588.294Z" fill="white"/>
<path d="M297.607 584.966C298.595 584.093 300.104 584.187 300.977 585.176C301.85 586.165 301.756 587.674 300.767 588.546C299.778 589.419 298.269 589.325 297.397 588.336C296.524 587.348 296.618 585.839 297.607 584.966Z" fill="white"/>
<path d="M301.651 585.218C302.64 584.345 304.149 584.439 305.021 585.428C305.894 586.417 305.8 587.926 304.812 588.798C303.823 589.671 302.314 589.577 301.441 588.588C300.568 587.6 300.662 586.091 301.651 585.218Z" fill="white"/>
<path d="M303.631 586.018C304.62 585.145 306.129 585.239 307.002 586.228C307.874 587.217 307.78 588.726 306.792 589.598C305.803 590.471 304.294 590.377 303.421 589.388C302.549 588.4 302.643 586.891 303.631 586.018Z" fill="white"/>
<path d="M301.819 582.522C302.808 581.649 304.317 581.743 305.189 582.732C306.062 583.72 305.968 585.229 304.979 586.102C303.991 586.975 302.482 586.881 301.609 585.892C300.736 584.903 300.83 583.394 301.819 582.522Z" fill="white"/>
<path d="M299.123 582.354C300.111 581.481 301.62 581.575 302.493 582.564C303.366 583.552 303.272 585.061 302.283 585.934C301.295 586.807 299.786 586.713 298.913 585.724C298.04 584.735 298.134 583.226 299.123 582.354Z" fill="white"/>
<path d="M295.626 584.166C296.615 583.293 298.124 583.387 298.997 584.376C299.87 585.365 299.776 586.874 298.787 587.746C297.798 588.619 296.289 588.525 295.417 587.536C294.544 586.548 294.638 585.039 295.626 584.166Z" fill="white"/>
<path d="M294.91 584.798C295.899 583.925 297.408 584.019 298.281 585.008C299.153 585.997 299.059 587.506 298.071 588.378C297.082 589.251 295.573 589.157 294.7 588.168C293.828 587.18 293.922 585.671 294.91 584.798Z" fill="white"/>
<path d="M295.794 581.47C296.783 580.597 298.292 580.691 299.165 581.68C300.038 582.668 299.944 584.177 298.955 585.05C297.966 585.923 296.457 585.829 295.584 584.84C294.712 583.851 294.806 582.342 295.794 581.47Z" fill="white"/>
<path d="M306.792 589.598C307.78 588.726 309.289 588.82 310.162 589.808C311.035 590.797 310.941 592.306 309.952 593.179C308.963 594.051 307.454 593.957 306.582 592.969C305.709 591.98 305.803 590.471 306.792 589.598Z" fill="white"/>
<path d="M302.199 587.282C303.188 586.409 304.697 586.503 305.57 587.492C306.442 588.481 306.348 589.99 305.36 590.862C304.371 591.735 302.862 591.641 301.989 590.653C301.117 589.664 301.211 588.155 302.199 587.282Z" fill="white"/>
<path d="M304.812 588.798C305.8 587.926 307.309 588.02 308.182 589.008C309.055 589.997 308.961 591.506 307.972 592.379C306.983 593.251 305.474 593.157 304.602 592.169C303.729 591.18 303.823 589.671 304.812 588.798Z" fill="white"/>
<path d="M306.624 592.295C307.612 591.422 309.121 591.516 309.994 592.505C310.867 593.493 310.773 595.002 309.784 595.875C308.795 596.748 307.287 596.654 306.414 595.665C305.541 594.676 305.635 593.167 306.624 592.295Z" fill="white"/>
<path d="M297.298 576.322C298.87 574.935 300.555 577.553 301.628 578.77C302.702 579.986 302.298 582.098 300.726 583.485C299.154 584.873 297.009 585.012 295.935 583.795C294.861 582.579 295.725 577.71 297.298 576.322Z" fill="#3C3C3C"/>
<rect x="310.478" y="590.164" width="0.954873" height="4.77436" transform="rotate(-131.435 310.478 590.164)" fill="#3B3B3B"/>
<rect x="305.421" y="584.438" width="0.954873" height="4.77436" transform="rotate(-131.435 305.421 584.438)" fill="#3B3B3B"/>
</g>
<g filter="url(#filter3_d)">
<rect width="0.875301" height="4.77437" transform="matrix(-0.976081 -0.217403 -0.217403 0.976081 432.795 158.146)" fill="#3B3B3B"/>
<rect width="0.875301" height="4.77437" transform="matrix(-0.976081 -0.217403 -0.217403 0.976081 425.957 156.621)" fill="#3B3B3B"/>
<path d="M435.208 151.342C434.921 152.629 435.645 153.886 436.825 154.149C438.005 154.412 439.194 153.581 439.481 152.294C439.767 151.007 439.043 149.75 437.863 149.487C436.683 149.225 435.494 150.055 435.208 151.342Z" fill="white"/>
<path d="M433.914 149.097C433.627 150.384 434.351 151.641 435.531 151.903C436.711 152.166 437.9 151.336 438.187 150.049C438.473 148.761 437.749 147.505 436.569 147.242C435.389 146.979 434.2 147.81 433.914 149.097Z" fill="white"/>
<path d="M432.229 152.636C431.942 153.923 432.666 155.179 433.846 155.442C435.026 155.705 436.215 154.875 436.502 153.587C436.788 152.3 436.064 151.044 434.884 150.781C433.704 150.518 432.515 151.349 432.229 152.636Z" fill="white"/>
<path d="M430.495 148.336C430.209 149.623 430.933 150.879 432.113 151.142C433.293 151.405 434.482 150.574 434.768 149.287C435.055 148 434.331 146.744 433.151 146.481C431.971 146.218 430.782 147.048 430.495 148.336Z" fill="white"/>
<path d="M431.582 151.513C431.295 152.8 432.019 154.057 433.199 154.32C434.379 154.582 435.568 153.752 435.855 152.465C436.141 151.178 435.417 149.921 434.237 149.658C433.057 149.395 431.868 150.226 431.582 151.513Z" fill="white"/>
<path d="M427.309 150.561C427.022 151.849 427.746 153.105 428.926 153.368C430.106 153.631 431.295 152.8 431.582 151.513C431.868 150.226 431.144 148.969 429.964 148.707C428.784 148.444 427.595 149.274 427.309 150.561Z" fill="white"/>
<path d="M426.869 148.506C426.583 149.794 427.307 151.05 428.487 151.313C429.667 151.576 430.856 150.745 431.142 149.458C431.429 148.171 430.705 146.914 429.525 146.652C428.345 146.389 427.156 147.219 426.869 148.506Z" fill="white"/>
<path d="M424.537 150.923C424.251 152.21 424.975 153.466 426.155 153.729C427.335 153.992 428.524 153.162 428.81 151.874C429.097 150.587 428.373 149.331 427.193 149.068C426.013 148.805 424.824 149.635 424.537 150.923Z" fill="white"/>
<path d="M426.478 154.29C426.191 155.578 426.916 156.834 428.095 157.097C429.275 157.36 430.464 156.529 430.751 155.242C431.038 153.955 430.314 152.698 429.134 152.436C427.954 152.173 426.765 153.003 426.478 154.29Z" fill="white"/>
<path d="M427.98 155.603C427.693 156.891 428.417 158.147 429.597 158.41C430.777 158.673 431.966 157.842 432.253 156.555C432.539 155.268 431.815 154.011 430.635 153.749C429.455 153.486 428.266 154.316 427.98 155.603Z" fill="white"/>
<path d="M424.354 155.774C424.067 157.062 424.791 158.318 425.971 158.581C427.151 158.844 428.34 158.013 428.627 156.726C428.913 155.439 428.189 154.182 427.009 153.92C425.829 153.657 424.64 154.487 424.354 155.774Z" fill="white"/>
<path d="M423.06 153.529C422.773 154.816 423.497 156.073 424.677 156.336C425.857 156.598 427.046 155.768 427.333 154.481C427.619 153.194 426.895 151.937 425.715 151.674C424.535 151.411 423.346 152.242 423.06 153.529Z" fill="white"/>
<path d="M423.036 149.61C422.749 150.897 423.473 152.153 424.653 152.416C425.833 152.679 427.022 151.849 427.309 150.561C427.595 149.274 426.871 148.018 425.691 147.755C424.511 147.492 423.322 148.322 423.036 149.61Z" fill="white"/>
<path d="M423.243 148.677C422.957 149.965 423.681 151.221 424.861 151.484C426.041 151.747 427.23 150.916 427.516 149.629C427.803 148.342 427.079 147.085 425.899 146.823C424.719 146.56 423.53 147.39 423.243 148.677Z" fill="white"/>
<path d="M420.911 151.094C420.625 152.381 421.349 153.637 422.529 153.9C423.709 154.163 424.898 153.332 425.184 152.045C425.471 150.758 424.747 149.501 423.567 149.239C422.387 148.976 421.198 149.806 420.911 151.094Z" fill="white"/>
<path d="M432.253 156.555C431.966 157.842 432.69 159.099 433.87 159.362C435.05 159.625 436.239 158.794 436.526 157.507C436.812 156.22 436.088 154.963 434.908 154.7C433.728 154.438 432.539 155.268 432.253 156.555Z" fill="white"/>
<path d="M428.395 153.739C428.108 155.026 428.832 156.283 430.012 156.545C431.192 156.808 432.381 155.978 432.668 154.691C432.955 153.403 432.23 152.147 431.051 151.884C429.871 151.621 428.682 152.452 428.395 153.739Z" fill="white"/>
<path d="M430.751 155.242C430.464 156.529 431.188 157.786 432.368 158.049C433.548 158.312 434.737 157.481 435.024 156.194C435.311 154.907 434.587 153.65 433.407 153.387C432.227 153.125 431.038 153.955 430.751 155.242Z" fill="white"/>
<path d="M434.377 155.071C434.09 156.359 434.814 157.615 435.994 157.878C437.174 158.141 438.363 157.31 438.65 156.023C438.937 154.736 438.213 153.479 437.033 153.216C435.853 152.954 434.664 153.784 434.377 155.071Z" fill="white"/>
<path d="M417.363 154.953C416.907 156.999 419.764 157.154 421.216 157.478C422.667 157.801 424.214 156.404 424.67 154.357C425.126 152.31 424.318 150.389 422.867 150.065C421.415 149.742 417.819 152.906 417.363 154.953Z" fill="#3C3C3C"/>
<rect width="0.875301" height="4.77437" transform="matrix(-0.976081 -0.217403 -0.217403 0.976081 434.296 159.458)" fill="#3B3B3B"/>
<rect width="0.875301" height="4.77437" transform="matrix(-0.976081 -0.217403 -0.217403 0.976081 427.46 157.933)" fill="#3B3B3B"/>
<path d="M504.603 130.575C504.118 131.801 504.635 133.155 505.759 133.6C506.883 134.045 508.188 133.412 508.674 132.186C509.159 130.96 508.641 129.605 507.518 129.16C506.394 128.715 505.089 129.348 504.603 130.575Z" fill="white"/>
<path d="M503.679 128.154C503.193 129.38 503.711 130.735 504.835 131.18C505.959 131.625 507.263 130.992 507.749 129.765C508.234 128.539 507.717 127.185 506.593 126.739C505.469 126.294 504.164 126.928 503.679 128.154Z" fill="white"/>
<path d="M501.458 131.384C500.972 132.61 501.49 133.965 502.614 134.41C503.738 134.855 505.043 134.221 505.528 132.995C506.014 131.769 505.496 130.414 504.372 129.969C503.248 129.524 501.943 130.158 501.458 131.384Z" fill="white"/>
<path d="M500.422 126.865C499.937 128.091 500.454 129.445 501.578 129.89C502.702 130.335 504.007 129.702 504.493 128.476C504.978 127.25 504.46 125.895 503.337 125.45C502.213 125.005 500.908 125.638 500.422 126.865Z" fill="white"/>
<path d="M500.996 130.173C500.51 131.399 501.028 132.754 502.152 133.199C503.276 133.644 504.58 133.011 505.066 131.785C505.551 130.559 505.034 129.204 503.91 128.759C502.786 128.314 501.481 128.947 500.996 130.173Z" fill="white"/>
<path d="M496.925 128.562C496.44 129.788 496.957 131.143 498.081 131.588C499.205 132.033 500.51 131.399 500.996 130.173C501.481 128.947 500.963 127.592 499.84 127.147C498.716 126.702 497.411 127.336 496.925 128.562Z" fill="white"/>
<path d="M496.815 126.463C496.329 127.689 496.847 129.044 497.971 129.489C499.095 129.934 500.399 129.301 500.885 128.075C501.37 126.849 500.853 125.494 499.729 125.049C498.605 124.604 497.3 125.237 496.815 126.463Z" fill="white"/>
<path d="M494.132 128.483C493.646 129.709 494.164 131.064 495.288 131.509C496.412 131.954 497.716 131.32 498.202 130.094C498.687 128.868 498.17 127.513 497.046 127.068C495.922 126.623 494.617 127.257 494.132 128.483Z" fill="white"/>
<path d="M495.519 132.114C495.033 133.34 495.551 134.695 496.675 135.14C497.799 135.585 499.104 134.952 499.589 133.725C500.075 132.499 499.557 131.145 498.433 130.7C497.309 130.255 496.004 130.888 495.519 132.114Z" fill="white"/>
<path d="M496.795 133.647C496.31 134.873 496.827 136.227 497.951 136.672C499.075 137.118 500.38 136.484 500.866 135.258C501.351 134.032 500.833 132.677 499.709 132.232C498.586 131.787 497.281 132.42 496.795 133.647Z" fill="white"/>
<path d="M493.187 133.245C492.702 134.471 493.22 135.826 494.344 136.271C495.467 136.716 496.772 136.083 497.258 134.857C497.743 133.631 497.226 132.276 496.102 131.831C494.978 131.386 493.673 132.019 493.187 133.245Z" fill="white"/>
<path d="M492.263 130.825C491.777 132.051 492.295 133.405 493.419 133.85C494.543 134.296 495.847 133.662 496.333 132.436C496.818 131.21 496.301 129.855 495.177 129.41C494.053 128.965 492.748 129.598 492.263 130.825Z" fill="white"/>
<path d="M492.855 126.95C492.37 128.176 492.887 129.531 494.011 129.976C495.135 130.421 496.44 129.788 496.925 128.562C497.411 127.336 496.893 125.981 495.769 125.536C494.645 125.091 493.341 125.724 492.855 126.95Z" fill="white"/>
<path d="M493.207 126.062C492.721 127.288 493.239 128.643 494.363 129.088C495.487 129.533 496.791 128.9 497.277 127.674C497.762 126.447 497.245 125.093 496.121 124.648C494.997 124.203 493.692 124.836 493.207 126.062Z" fill="white"/>
<path d="M490.524 128.082C490.038 129.308 490.556 130.662 491.68 131.107C492.804 131.552 494.109 130.919 494.594 129.693C495.079 128.467 494.562 127.112 493.438 126.667C492.314 126.222 491.009 126.855 490.524 128.082Z" fill="white"/>
<path d="M500.866 135.258C500.38 136.484 500.898 137.839 502.022 138.284C503.146 138.729 504.45 138.096 504.936 136.87C505.421 135.644 504.904 134.289 503.78 133.844C502.656 133.399 501.351 134.032 500.866 135.258Z" fill="white"/>
<path d="M497.499 131.87C497.013 133.097 497.531 134.451 498.655 134.896C499.779 135.341 501.083 134.708 501.569 133.482C502.054 132.256 501.537 130.901 500.413 130.456C499.289 130.011 497.984 130.644 497.499 131.87Z" fill="white"/>
<path d="M499.589 133.725C499.104 134.952 499.621 136.306 500.745 136.751C501.869 137.196 503.174 136.563 503.659 135.337C504.145 134.111 503.627 132.756 502.503 132.311C501.379 131.866 500.075 132.499 499.589 133.725Z" fill="white"/>
<path d="M503.197 134.127C502.711 135.353 503.229 136.708 504.353 137.153C505.477 137.598 506.782 136.964 507.267 135.738C507.753 134.512 507.235 133.157 506.111 132.712C504.987 132.267 503.682 132.901 503.197 134.127Z" fill="white"/>
<path d="M486.413 131.335C485.641 133.285 488.438 133.887 489.821 134.434C491.204 134.982 492.95 133.845 493.723 131.896C494.495 129.946 493.999 127.921 492.616 127.374C491.233 126.826 487.185 129.385 486.413 131.335Z" fill="#3C3C3C"/>
<rect width="0.875301" height="4.77437" transform="matrix(-0.929767 -0.368145 -0.368145 0.929767 502.427 138.446)" fill="#3B3B3B"/>
<rect width="0.875301" height="4.77437" transform="matrix(-0.929767 -0.368145 -0.368145 0.929767 495.916 135.865)" fill="#3B3B3B"/>
</g>
<g filter="url(#filter4_d)">
<rect width="0.875301" height="4.77437" transform="matrix(0.265011 0.964244 0.964244 -0.265011 263.126 552.208)" fill="#3B3B3B"/>
<rect width="0.875301" height="4.77437" transform="matrix(0.265011 0.964244 0.964244 -0.265011 264.981 558.964)" fill="#3B3B3B"/>
<path d="M255.984 553.264C257.256 552.914 258.027 551.686 257.707 550.52C257.386 549.355 256.096 548.693 254.824 549.043C253.553 549.392 252.782 550.62 253.102 551.786C253.422 552.952 254.713 553.613 255.984 553.264Z" fill="white"/>
<path d="M254.607 555.458C255.878 555.109 256.649 553.881 256.329 552.715C256.009 551.549 254.718 550.888 253.446 551.237C252.175 551.587 251.404 552.815 251.724 553.981C252.044 555.146 253.335 555.808 254.607 555.458Z" fill="white"/>
<path d="M258.522 555.29C259.794 554.941 260.565 553.712 260.245 552.547C259.924 551.381 258.634 550.72 257.362 551.069C256.091 551.419 255.32 552.647 255.64 553.812C255.96 554.978 257.251 555.64 258.522 555.29Z" fill="white"/>
<path d="M255.535 558.835C256.806 558.486 257.577 557.258 257.257 556.092C256.937 554.926 255.646 554.265 254.375 554.614C253.103 554.964 252.332 556.192 252.652 557.358C252.973 558.523 254.263 559.185 255.535 558.835Z" fill="white"/>
<path d="M257.834 556.388C259.105 556.038 259.876 554.81 259.556 553.644C259.236 552.479 257.945 551.817 256.673 552.166C255.402 552.516 254.631 553.744 254.951 554.91C255.271 556.075 256.562 556.737 257.834 556.388Z" fill="white"/>
<path d="M258.994 560.609C260.265 560.259 261.036 559.031 260.716 557.865C260.396 556.7 259.105 556.038 257.834 556.388C256.562 556.737 255.791 557.965 256.111 559.131C256.432 560.297 257.722 560.958 258.994 560.609Z" fill="white"/>
<path d="M257.384 561.959C258.655 561.61 259.426 560.381 259.106 559.216C258.786 558.05 257.495 557.389 256.224 557.738C254.952 558.087 254.181 559.316 254.501 560.481C254.822 561.647 256.112 562.309 257.384 561.959Z" fill="white"/>
<path d="M260.611 562.888C261.882 562.539 262.653 561.311 262.333 560.145C262.013 558.979 260.722 558.318 259.451 558.667C258.179 559.017 257.408 560.245 257.728 561.41C258.049 562.576 259.339 563.238 260.611 562.888Z" fill="white"/>
<path d="M262.678 559.596C263.949 559.247 264.72 558.018 264.4 556.853C264.08 555.687 262.789 555.026 261.517 555.375C260.246 555.725 259.475 556.953 259.795 558.118C260.115 559.284 261.406 559.946 262.678 559.596Z" fill="white"/>
<path d="M263.134 557.655C264.406 557.305 265.177 556.077 264.857 554.911C264.537 553.746 263.246 553.084 261.974 553.433C260.703 553.783 259.932 555.011 260.252 556.177C260.572 557.342 261.863 558.004 263.134 557.655Z" fill="white"/>
<path d="M264.984 560.778C266.255 560.429 267.026 559.201 266.706 558.035C266.386 556.869 265.095 556.208 263.823 556.557C262.552 556.907 261.781 558.135 262.101 559.301C262.421 560.466 263.712 561.128 264.984 560.778Z" fill="white"/>
<path d="M263.606 562.973C264.877 562.624 265.648 561.395 265.328 560.23C265.008 559.064 263.717 558.402 262.446 558.752C261.174 559.101 260.403 560.33 260.723 561.495C261.044 562.661 262.334 563.323 263.606 562.973Z" fill="white"/>
<path d="M260.154 564.83C261.425 564.48 262.197 563.252 261.876 562.086C261.556 560.921 260.265 560.259 258.994 560.609C257.722 560.958 256.951 562.186 257.271 563.352C257.592 564.518 258.882 565.179 260.154 564.83Z" fill="white"/>
<path d="M259.233 565.083C260.504 564.733 261.276 563.505 260.955 562.34C260.635 561.174 259.344 560.512 258.073 560.862C256.801 561.211 256.03 562.44 256.35 563.605C256.671 564.771 257.961 565.432 259.233 565.083Z" fill="white"/>
<path d="M262.46 566.012C263.731 565.663 264.503 564.434 264.182 563.269C263.862 562.103 262.571 561.441 261.3 561.791C260.028 562.14 259.257 563.369 259.577 564.534C259.898 565.7 261.188 566.362 262.46 566.012Z" fill="white"/>
<path d="M261.974 553.433C263.246 553.084 264.017 551.856 263.697 550.69C263.376 549.524 262.086 548.863 260.814 549.212C259.543 549.562 258.771 550.79 259.092 551.956C259.412 553.121 260.703 553.783 261.974 553.433Z" fill="white"/>
<path d="M261.293 558.161C262.564 557.811 263.335 556.583 263.015 555.417C262.695 554.252 261.404 553.59 260.132 553.94C258.861 554.289 258.09 555.517 258.41 556.683C258.73 557.849 260.021 558.51 261.293 558.161Z" fill="white"/>
<path d="M261.517 555.375C262.789 555.026 263.56 553.797 263.24 552.632C262.919 551.466 261.629 550.804 260.357 551.154C259.086 551.503 258.315 552.732 258.635 553.897C258.955 555.063 260.246 555.725 261.517 555.375Z" fill="white"/>
<path d="M259.668 552.251C260.94 551.902 261.711 550.674 261.391 549.508C261.07 548.342 259.78 547.681 258.508 548.03C257.237 548.38 256.465 549.608 256.786 550.773C257.106 551.939 258.397 552.601 259.668 552.251Z" fill="white"/>
<path d="M267.532 567.339C269.554 566.784 268.353 564.187 267.959 562.753C267.565 561.319 265.606 560.606 263.584 561.162C261.562 561.718 260.242 563.331 260.636 564.765C261.031 566.2 265.51 567.895 267.532 567.339Z" fill="#3C3C3C"/>
<rect width="0.875301" height="4.77437" transform="matrix(0.265011 0.964244 0.964244 -0.265011 263.582 550.268)" fill="#3B3B3B"/>
<rect width="0.875301" height="4.77437" transform="matrix(0.265011 0.964244 0.964244 -0.265011 265.436 557.023)" fill="#3B3B3B"/>
</g>
<g filter="url(#filter5_d)">
<rect width="0.875301" height="4.77437" transform="matrix(0.219128 0.975695 0.975695 -0.219128 256.533 505.817)" fill="#3B3B3B"/>
<rect width="0.875301" height="4.77437" transform="matrix(0.219128 0.975695 0.975695 -0.219128 258.066 512.652)" fill="#3B3B3B"/>
<path d="M249.349 506.533C250.636 506.244 251.464 505.054 251.2 503.874C250.935 502.695 249.677 501.973 248.39 502.262C247.103 502.551 246.275 503.741 246.54 504.921C246.805 506.1 248.063 506.822 249.349 506.533Z" fill="white"/>
<path d="M247.869 508.66C249.156 508.371 249.984 507.181 249.719 506.001C249.455 504.822 248.197 504.1 246.91 504.389C245.623 504.678 244.795 505.868 245.06 507.048C245.325 508.227 246.583 508.949 247.869 508.66Z" fill="white"/>
<path d="M251.789 508.677C253.075 508.388 253.904 507.198 253.639 506.018C253.374 504.839 252.116 504.117 250.83 504.406C249.543 504.695 248.714 505.885 248.979 507.065C249.244 508.244 250.502 508.966 251.789 508.677Z" fill="white"/>
<path d="M248.637 512.077C249.923 511.788 250.752 510.598 250.487 509.418C250.222 508.239 248.964 507.517 247.677 507.806C246.391 508.095 245.562 509.285 245.827 510.465C246.092 511.644 247.35 512.366 248.637 512.077Z" fill="white"/>
<path d="M251.049 509.741C252.335 509.452 253.164 508.261 252.899 507.082C252.634 505.902 251.376 505.181 250.089 505.47C248.803 505.758 247.974 506.949 248.239 508.128C248.504 509.308 249.762 510.03 251.049 509.741Z" fill="white"/>
<path d="M252.008 514.012C253.295 513.723 254.123 512.533 253.858 511.353C253.593 510.174 252.335 509.452 251.049 509.741C249.762 510.03 248.934 511.22 249.199 512.4C249.463 513.579 250.721 514.301 252.008 514.012Z" fill="white"/>
<path d="M250.336 515.285C251.623 514.996 252.451 513.805 252.186 512.626C251.921 511.447 250.663 510.725 249.377 511.014C248.09 511.303 247.262 512.493 247.527 513.672C247.792 514.852 249.049 515.574 250.336 515.285Z" fill="white"/>
<path d="M253.515 516.366C254.802 516.077 255.631 514.886 255.366 513.707C255.101 512.527 253.843 511.805 252.556 512.094C251.27 512.383 250.441 513.574 250.706 514.753C250.971 515.933 252.229 516.654 253.515 516.366Z" fill="white"/>
<path d="M255.736 513.175C257.022 512.886 257.851 511.695 257.586 510.516C257.321 509.337 256.063 508.615 254.776 508.904C253.49 509.193 252.661 510.383 252.926 511.562C253.191 512.742 254.449 513.464 255.736 513.175Z" fill="white"/>
<path d="M256.284 511.257C257.571 510.968 258.399 509.778 258.134 508.598C257.869 507.419 256.611 506.697 255.325 506.986C254.038 507.275 253.21 508.465 253.474 509.645C253.739 510.824 254.997 511.546 256.284 511.257Z" fill="white"/>
<path d="M257.983 514.465C259.27 514.176 260.098 512.985 259.833 511.806C259.568 510.626 258.311 509.905 257.024 510.194C255.737 510.482 254.909 511.673 255.174 512.852C255.439 514.032 256.696 514.754 257.983 514.465Z" fill="white"/>
<path d="M256.503 516.592C257.79 516.303 258.618 515.112 258.353 513.933C258.088 512.754 256.831 512.032 255.544 512.321C254.257 512.61 253.429 513.8 253.694 514.979C253.959 516.159 255.216 516.881 256.503 516.592Z" fill="white"/>
<path d="M252.967 518.283C254.254 517.994 255.082 516.804 254.817 515.624C254.553 514.445 253.295 513.723 252.008 514.012C250.721 514.301 249.893 515.491 250.158 516.671C250.423 517.85 251.681 518.572 252.967 518.283Z" fill="white"/>
<path d="M252.035 518.493C253.322 518.204 254.15 517.013 253.886 515.834C253.621 514.654 252.363 513.932 251.076 514.221C249.789 514.51 248.961 515.701 249.226 516.88C249.491 518.06 250.749 518.782 252.035 518.493Z" fill="white"/>
<path d="M255.215 519.573C256.502 519.284 257.33 518.094 257.065 516.914C256.8 515.735 255.542 515.013 254.256 515.302C252.969 515.591 252.14 516.781 252.405 517.961C252.67 519.14 253.928 519.862 255.215 519.573Z" fill="white"/>
<path d="M255.325 506.986C256.611 506.697 257.44 505.506 257.175 504.327C256.91 503.147 255.652 502.426 254.365 502.715C253.079 503.003 252.25 504.194 252.515 505.373C252.78 506.553 254.038 507.275 255.325 506.986Z" fill="white"/>
<path d="M254.42 511.676C255.707 511.387 256.535 510.196 256.27 509.017C256.005 507.837 254.747 507.115 253.461 507.404C252.174 507.693 251.346 508.884 251.611 510.063C251.876 511.243 253.133 511.965 254.42 511.676Z" fill="white"/>
<path d="M254.776 508.904C256.063 508.615 256.891 507.424 256.627 506.245C256.362 505.065 255.104 504.343 253.817 504.632C252.53 504.921 251.702 506.112 251.967 507.291C252.232 508.471 253.49 509.193 254.776 508.904Z" fill="white"/>
<path d="M253.077 505.696C254.364 505.407 255.192 504.216 254.927 503.037C254.662 501.858 253.404 501.136 252.118 501.425C250.831 501.714 250.003 502.904 250.268 504.083C250.533 505.263 251.79 505.985 253.077 505.696Z" fill="white"/>
<path d="M260.218 521.139C262.264 520.679 261.187 518.029 260.862 516.578C260.536 515.127 258.613 514.323 256.567 514.782C254.521 515.242 253.126 516.791 253.452 518.242C253.778 519.693 258.172 521.599 260.218 521.139Z" fill="#3C3C3C"/>
<rect width="0.875301" height="4.77437" transform="matrix(0.219128 0.975695 0.975695 -0.219128 257.08 503.9)" fill="#3B3B3B"/>
<rect width="0.875301" height="4.77437" transform="matrix(0.219128 0.975695 0.975695 -0.219128 258.613 510.735)" fill="#3B3B3B"/>
</g>
<g filter="url(#filter6_d)">
<rect x="382.72" y="164.764" width="0.977818" height="4.77436" transform="rotate(3.88592 382.72 164.764)" fill="#3B3B3B"/>
<rect x="390.717" y="166.359" width="0.977818" height="4.77436" transform="rotate(11.9334 390.717 166.359)" fill="#3B3B3B"/>
<path d="M383.585 157.529C383.313 158.82 382.021 159.639 380.7 159.36C379.378 159.081 378.529 157.808 378.801 156.518C379.074 155.228 380.366 154.408 381.687 154.688C383.008 154.967 383.858 156.239 383.585 157.529Z" fill="white"/>
<path d="M385.894 156.065C385.622 157.355 384.329 158.175 383.008 157.895C381.687 157.616 380.837 156.344 381.11 155.054C381.383 153.763 382.675 152.944 383.996 153.223C385.317 153.502 386.167 154.775 385.894 156.065Z" fill="white"/>
<path d="M386.061 160.005C385.788 161.295 384.496 162.115 383.175 161.836C381.854 161.556 381.004 160.284 381.277 158.994C381.549 157.704 382.842 156.884 384.163 157.163C385.484 157.442 386.334 158.715 386.061 160.005Z" fill="white"/>
<path d="M389.722 156.874C389.449 158.164 388.157 158.984 386.836 158.704C385.515 158.425 384.665 157.153 384.937 155.863C385.21 154.572 386.502 153.753 387.823 154.032C389.144 154.311 389.994 155.583 389.722 156.874Z" fill="white"/>
<path d="M387.215 159.273C386.943 160.563 385.651 161.383 384.33 161.103C383.008 160.824 382.158 159.552 382.431 158.262C382.704 156.971 383.996 156.152 385.317 156.431C386.638 156.71 387.488 157.982 387.215 159.273Z" fill="white"/>
<path d="M392 160.284C391.727 161.574 390.435 162.394 389.114 162.114C387.793 161.835 386.943 160.563 387.215 159.273C387.488 157.982 388.78 157.163 390.101 157.442C391.422 157.721 392.272 158.994 392 160.284Z" fill="white"/>
<path d="M393.352 158.617C393.079 159.907 391.787 160.727 390.466 160.448C389.145 160.168 388.295 158.896 388.567 157.606C388.84 156.316 390.132 155.496 391.453 155.775C392.774 156.054 393.624 157.327 393.352 158.617Z" fill="white"/>
<path d="M394.673 161.825C394.4 163.115 393.108 163.935 391.787 163.656C390.466 163.376 389.616 162.104 389.888 160.814C390.161 159.524 391.453 158.704 392.774 158.983C394.095 159.262 394.945 160.535 394.673 161.825Z" fill="white"/>
<path d="M391.21 164.022C390.937 165.312 389.645 166.132 388.324 165.852C387.003 165.573 386.153 164.301 386.425 163.011C386.698 161.72 387.99 160.901 389.311 161.18C390.632 161.459 391.482 162.731 391.21 164.022Z" fill="white"/>
<path d="M389.098 164.552C388.826 165.842 387.534 166.662 386.213 166.382C384.891 166.103 384.042 164.831 384.314 163.541C384.587 162.25 385.879 161.431 387.2 161.71C388.521 161.989 389.371 163.262 389.098 164.552Z" fill="white"/>
<path d="M392.728 166.295C392.456 167.585 391.164 168.405 389.843 168.126C388.521 167.847 387.671 166.574 387.944 165.284C388.217 163.994 389.509 163.174 390.83 163.453C392.151 163.733 393.001 165.005 392.728 166.295Z" fill="white"/>
<path d="M395.037 164.831C394.764 166.121 393.472 166.94 392.151 166.661C390.83 166.382 389.98 165.11 390.253 163.82C390.526 162.529 391.818 161.71 393.139 161.989C394.46 162.268 395.31 163.54 395.037 164.831Z" fill="white"/>
<path d="M396.784 161.295C396.511 162.585 395.219 163.405 393.898 163.126C392.577 162.846 391.727 161.574 392 160.284C392.272 158.994 393.564 158.174 394.886 158.453C396.207 158.732 397.057 160.005 396.784 161.295Z" fill="white"/>
<path d="M396.981 160.36C396.709 161.651 395.417 162.47 394.096 162.191C392.774 161.912 391.924 160.64 392.197 159.349C392.47 158.059 393.762 157.239 395.083 157.519C396.404 157.798 397.254 159.07 396.981 160.36Z" fill="white"/>
<path d="M398.303 163.568C398.03 164.859 396.738 165.678 395.417 165.399C394.096 165.12 393.246 163.847 393.518 162.557C393.791 161.267 395.083 160.447 396.404 160.727C397.725 161.006 398.575 162.278 398.303 163.568Z" fill="white"/>
<path d="M384.314 163.541C384.042 164.831 382.749 165.651 381.428 165.371C380.107 165.092 379.257 163.82 379.53 162.53C379.803 161.239 381.095 160.42 382.416 160.699C383.737 160.978 384.587 162.25 384.314 163.541Z" fill="white"/>
<path d="M389.493 162.683C389.221 163.973 387.929 164.793 386.608 164.513C385.286 164.234 384.437 162.962 384.709 161.672C384.982 160.381 386.274 159.562 387.595 159.841C388.916 160.12 389.766 161.393 389.493 162.683Z" fill="white"/>
<path d="M386.425 163.011C386.153 164.301 384.861 165.12 383.54 164.841C382.218 164.562 381.368 163.29 381.641 161.999C381.914 160.709 383.206 159.89 384.527 160.169C385.848 160.448 386.698 161.72 386.425 163.011Z" fill="white"/>
<path d="M382.795 161.267C382.523 162.557 381.231 163.377 379.91 163.098C378.588 162.819 377.739 161.546 378.011 160.256C378.284 158.966 379.576 158.146 380.897 158.425C382.218 158.705 383.068 159.977 382.795 161.267Z" fill="white"/>
<path d="M398.097 171.99C396.845 173.672 394.596 171.414 393.263 170.421C391.931 169.429 391.865 167.261 393.117 165.579C394.369 163.897 396.465 163.337 397.798 164.33C399.131 165.322 399.349 170.308 398.097 171.99Z" fill="#3C3C3C"/>
<rect x="380.683" y="164.178" width="0.977818" height="4.77436" transform="rotate(22.7485 380.683 164.178)" fill="#3B3B3B"/>
<rect x="388.916" y="166.91" width="0.977818" height="4.77436" transform="rotate(19.2375 388.916 166.91)" fill="#3B3B3B"/>
</g>
<g filter="url(#filter7_d)">
<rect x="316.596" y="560.149" width="0.977818" height="4.77436" transform="rotate(-140.106 316.596 560.149)" fill="#3B3B3B"/>
<rect x="311.065" y="554.159" width="0.977818" height="4.77436" transform="rotate(-132.058 311.065 554.159)" fill="#3B3B3B"/>
<path d="M311.642 565.494C312.621 564.611 314.149 564.707 315.053 565.71C315.958 566.712 315.897 568.241 314.918 569.125C313.939 570.008 312.412 569.912 311.507 568.909C310.603 567.906 310.663 566.377 311.642 565.494Z" fill="white"/>
<path d="M308.914 565.321C309.893 564.438 311.42 564.535 312.324 565.537C313.229 566.54 313.169 568.069 312.19 568.952C311.21 569.836 309.683 569.739 308.779 568.736C307.874 567.734 307.935 566.205 308.914 565.321Z" fill="white"/>
<path d="M311.095 562.036C312.074 561.153 313.601 561.249 314.506 562.252C315.41 563.254 315.35 564.783 314.371 565.667C313.392 566.55 311.865 566.453 310.96 565.451C310.056 564.448 310.116 562.919 311.095 562.036Z" fill="white"/>
<path d="M306.293 562.417C307.272 561.534 308.799 561.63 309.704 562.633C310.608 563.635 310.548 565.164 309.569 566.048C308.59 566.931 307.063 566.834 306.158 565.832C305.254 564.829 305.314 563.3 306.293 562.417Z" fill="white"/>
<path d="M309.731 561.95C310.71 561.066 312.237 561.163 313.142 562.165C314.046 563.168 313.986 564.697 313.007 565.58C312.028 566.464 310.5 566.367 309.596 565.365C308.691 564.362 308.752 562.833 309.731 561.95Z" fill="white"/>
<path d="M306.455 558.319C307.434 557.436 308.961 557.532 309.866 558.535C310.77 559.537 310.71 561.066 309.731 561.95C308.752 562.833 307.225 562.737 306.32 561.734C305.416 560.731 305.476 559.203 306.455 558.319Z" fill="white"/>
<path d="M304.382 558.873C305.361 557.989 306.888 558.086 307.792 559.088C308.697 560.091 308.637 561.62 307.657 562.503C306.678 563.387 305.151 563.29 304.247 562.288C303.342 561.285 303.403 559.756 304.382 558.873Z" fill="white"/>
<path d="M305.199 555.501C306.178 554.618 307.705 554.714 308.61 555.717C309.514 556.719 309.454 558.248 308.475 559.132C307.496 560.015 305.968 559.918 305.064 558.916C304.159 557.913 304.22 556.384 305.199 555.501Z" fill="white"/>
<path d="M309.292 555.76C310.271 554.876 311.798 554.973 312.702 555.976C313.607 556.978 313.547 558.507 312.567 559.39C311.588 560.274 310.061 560.177 309.157 559.175C308.252 558.172 308.313 556.643 309.292 555.76Z" fill="white"/>
<path d="M311.311 556.572C312.29 555.689 313.817 555.785 314.722 556.788C315.626 557.791 315.566 559.319 314.587 560.203C313.608 561.086 312.081 560.99 311.176 559.987C310.272 558.985 310.332 557.456 311.311 556.572Z" fill="white"/>
<path d="M309.4 553.028C310.379 552.145 311.906 552.241 312.81 553.244C313.715 554.246 313.655 555.775 312.675 556.659C311.696 557.542 310.169 557.445 309.265 556.443C308.36 555.44 308.421 553.911 309.4 553.028Z" fill="white"/>
<path d="M306.671 552.855C307.65 551.972 309.177 552.069 310.082 553.071C310.986 554.074 310.926 555.603 309.947 556.486C308.968 557.369 307.441 557.273 306.536 556.27C305.632 555.268 305.692 553.739 306.671 552.855Z" fill="white"/>
<path d="M303.179 554.689C304.159 553.805 305.686 553.902 306.59 554.904C307.495 555.907 307.434 557.436 306.455 558.319C305.476 559.203 303.949 559.106 303.044 558.103C302.14 557.101 302.2 555.572 303.179 554.689Z" fill="white"/>
<path d="M302.47 555.328C303.449 554.445 304.976 554.542 305.881 555.544C306.786 556.547 306.725 558.076 305.746 558.959C304.767 559.842 303.24 559.746 302.335 558.743C301.431 557.741 301.491 556.212 302.47 555.328Z" fill="white"/>
<path d="M303.287 551.957C304.267 551.073 305.794 551.17 306.698 552.172C307.603 553.175 307.542 554.704 306.563 555.587C305.584 556.471 304.057 556.374 303.152 555.372C302.248 554.369 302.308 552.84 303.287 551.957Z" fill="white"/>
<path d="M314.587 560.203C315.566 559.319 317.093 559.416 317.998 560.419C318.902 561.421 318.842 562.95 317.863 563.833C316.884 564.717 315.356 564.62 314.452 563.618C313.547 562.615 313.608 561.086 314.587 560.203Z" fill="white"/>
<path d="M309.893 557.852C310.872 556.969 312.399 557.065 313.304 558.068C314.208 559.07 314.148 560.599 313.169 561.483C312.19 562.366 310.662 562.269 309.758 561.267C308.853 560.264 308.914 558.735 309.893 557.852Z" fill="white"/>
<path d="M312.567 559.39C313.547 558.507 315.074 558.604 315.978 559.606C316.883 560.609 316.822 562.138 315.843 563.021C314.864 563.904 313.337 563.808 312.432 562.805C311.528 561.803 311.588 560.274 312.567 559.39Z" fill="white"/>
<path d="M314.479 562.935C315.458 562.051 316.985 562.148 317.89 563.15C318.794 564.153 318.734 565.682 317.755 566.565C316.776 567.449 315.248 567.352 314.344 566.35C313.439 565.347 313.5 563.818 314.479 562.935Z" fill="white"/>
<path d="M308.405 545.265C310.407 544.64 310.898 547.789 311.393 549.375C311.888 550.962 310.666 552.754 308.664 553.379C306.663 554.003 304.638 553.224 304.143 551.638C303.648 550.052 306.403 545.89 308.405 545.265Z" fill="#3C3C3C"/>
<rect x="317.899" y="561.822" width="0.977818" height="4.77436" transform="rotate(-121.243 317.899 561.822)" fill="#3B3B3B"/>
<rect x="312.845" y="554.772" width="0.977818" height="4.77436" transform="rotate(-124.754 312.845 554.772)" fill="#3B3B3B"/>
</g>
<circle cx="427.852" cy="64.5571" r="12.4166" transform="rotate(28.9861 427.852 64.5571)" fill="#BEFF7E"/>
<circle cx="436.184" cy="49.518" r="12.4166" transform="rotate(28.9861 436.184 49.518)" fill="#BEFF7E"/>
<circle cx="424.498" cy="52.874" r="8.59613" transform="rotate(28.9861 424.498 52.874)" fill="#BEFF7E"/>
<circle cx="450.104" cy="53.9546" r="6.68588" transform="rotate(28.9861 450.104 53.9546)" fill="#BEFF7E"/>
<circle cx="447.52" cy="64.5327" r="12.4166" transform="rotate(28.9861 447.52 64.5327)" fill="#BEFF7E"/>
<path d="M427.742 64.7544L437.388 76.7321L446.525 67.6978L438.431 78.5955L443.621 128.073L435.989 128.431L436.523 78.685L427.742 64.7544Z" fill="#BF3F3F"/>
<path d="M314.27 188.112C293.235 203.133 256.382 209.666 247.032 196.573C247.032 196.573 267.501 178.208 291.121 164.695C326.403 144.511 342.885 141.249 342.835 141.437C352.185 154.531 335.306 173.092 314.27 188.112Z" fill="#4BB7FF"/>
<path d="M284.371 167.433L288.125 170.623L286.098 171.487L284.071 172.35L284.371 167.433Z" fill="#F2E1E1"/>
<path d="M278.688 173.208L286.505 171.315L292.012 166.813L292.101 171.282L283.064 175.496L278.688 173.208Z" fill="white"/>
<path d="M278.79 174.888L282.544 178.078L280.517 178.942L278.491 179.805L278.79 174.888Z" fill="#F2E1E1"/>
<path d="M273.107 180.663L280.924 178.77L286.431 174.268L286.52 178.737L277.482 182.951L273.107 180.663Z" fill="white"/>
<path d="M696.792 261.778L712.979 260.499C714.517 261.646 714.199 262.264 713.204 263.355L697.018 264.634L696.792 261.778Z" fill="#7E7E7E"/>
<path d="M704.128 232.097C706.197 230.823 707.57 233.231 708.292 235.597C707.059 235.324 707.909 236.8 706.676 236.527L705.402 234.312L676.319 251.041L675.045 248.826L704.128 232.097Z" fill="#747474"/>
<path d="M684.567 224.496C688.75 222.154 691.025 226.751 693.415 230.906L701.753 245.402C702.959 247.498 701.639 250.146 699.239 250.444V250.444C696.839 250.743 695.519 253.39 696.725 255.486L699.312 259.984C700.682 262.366 703.346 263.694 706.072 263.355L706.519 263.299C709.623 262.914 712.644 264.492 714.14 267.239C715.219 269.218 716.252 271.102 717.032 272.6C718.985 276.352 713.128 274.633 709.365 276.565L702.529 280.074C698.256 282.267 693.013 280.718 690.618 276.554L671.315 242.996C669.037 239.036 670.087 233.968 673.837 231.357C678.426 228.163 681.959 225.958 684.567 224.496Z" fill="#FF4848"/>
<circle cx="672.281" cy="246.091" r="4.93758" transform="rotate(60.0917 672.281 246.091)" fill="#1C1D1D"/>
<circle cx="672.035" cy="245.817" r="3.36966" transform="rotate(60.0917 672.035 245.817)" fill="#7B7B7B"/>
<circle cx="698.891" cy="278.56" r="11.605" transform="rotate(60.0917 698.891 278.56)" fill="#1C1D1D"/>
<circle cx="698.65" cy="277.782" r="8.04663" transform="rotate(60.0917 698.65 277.782)" fill="#7B7B7B"/>
<path d="M710.058 269.56C711.585 273.714 713.377 275.858 712.606 280.465C712.365 281.24 710.875 281.408 711.004 280.839C712.082 276.096 709.986 274.068 708.457 269.934L710.058 269.56Z" fill="#FF4848"/>
<path d="M673.987 230.729L685.941 249.341" stroke="black"/>
<path d="M676.006 228.935L687.845 247.699" stroke="black"/>
<line y1="-0.5" x2="21.5896" y2="-0.5" transform="matrix(0.53641 0.843956 -0.858667 0.512532 677.757 228.082)" stroke="black"/>
<path d="M733.111 322.509C730.139 317.946 730.178 314.004 714.671 319.612L714.53 320.507C724.709 316.136 729.525 315.331 732.971 323.404L733.111 322.509Z" fill="white"/>
<path d="M729.557 363.602C729.347 361.474 730.887 359.924 728.447 359.197L727.46 360.197C730.014 360.431 728.924 361.642 729.557 363.602Z" fill="black"/>
<path d="M724.867 342.186L724.073 339.038C719.368 341.118 716.763 342.418 711.481 342.212C711.459 343.815 711.332 344.842 712.275 345.36C716.88 342.88 719.781 342.758 724.867 342.186Z" fill="white"/>
<path d="M720.504 324.87L719.711 321.722C714.908 323.644 712.229 324.807 707.119 324.896C707.128 326.307 706.92 327.228 707.912 328.044C712.44 325.668 715.372 325.482 720.504 324.87Z" fill="white"/>
<path d="M741.916 346.502C744.219 344.463 737.198 339.734 735.093 325.823C734.424 321.405 730.379 318.013 726.022 319.004C720.92 320.164 715.316 321.545 714.79 322.125C713.808 323.21 724.044 357.177 724.044 357.177C733.858 356.155 738.227 350.56 741.916 346.502Z" fill="white"/>
<path d="M722.52 349.471L721.727 346.323C716.966 348.185 714.245 349.021 709.135 349.497C709.046 351.114 708.81 352.203 709.928 352.645C714.521 350.372 717.362 349.941 722.52 349.471Z" fill="white"/>
<path d="M717.959 331.37L717.165 328.222C712.249 330.243 709.493 331.026 704.573 331.396C704.463 332.969 704.517 333.756 705.367 334.544C709.924 332.158 712.71 331.556 717.959 331.37Z" fill="white"/>
<path d="M722.725 353.605C717.074 355.029 713.071 358.474 713.783 361.299C718.898 360.01 717.487 364.969 723.137 363.545C728.788 362.121 728.937 359.991 731.382 351.423C730.67 348.598 728.375 352.181 722.725 353.605Z" fill="white"/>
<path d="M730.577 339.582C728.838 341.125 728.944 344.084 730.814 346.193C732.684 348.302 735.61 348.76 737.35 347.218C739.089 345.675 734.025 343.642 737.185 337.917C735.315 335.808 732.317 338.039 730.577 339.582Z" fill="black"/>
<path d="M726.86 319.643C728.04 318.596 730.492 319.432 732.335 321.51C734.178 323.588 734.715 326.121 733.534 327.168C732.353 328.215 730.4 323.518 725.841 324.682C723.998 322.604 725.679 320.691 726.86 319.643Z" fill="black"/>
<path d="M719.403 331.566C720.583 330.519 720.143 325.347 721.986 327.425C725.448 336.597 727.257 338.044 726.077 339.091C724.896 340.139 723.513 335.814 718.953 336.978C717.11 334.9 718.222 332.614 719.403 331.566Z" fill="black"/>
<path d="M727.984 365.253C727.773 363.126 729.314 361.575 726.874 360.848L725.886 361.848C728.441 362.082 727.35 363.293 727.984 365.253Z" fill="black"/>
<path d="M709.135 349.5C708.328 349.429 707.985 351.031 708.943 352.059C708.847 353.338 709.711 352.702 709.928 352.647C710.145 352.592 710.537 351.744 710.318 350.875C710.099 350.006 709.352 349.445 709.135 349.5Z" fill="black"/>
<path d="M711.467 342.147C710.66 342.076 710.317 343.678 711.275 344.705C711.179 345.985 712.043 345.349 712.26 345.294C712.478 345.239 712.87 344.391 712.651 343.522C712.432 342.653 711.684 342.092 711.467 342.147Z" fill="black"/>
<path d="M704.557 331.334C703.75 331.263 703.408 332.866 704.365 333.893C704.269 335.172 705.133 334.536 705.35 334.482C705.568 334.427 705.96 333.579 705.741 332.71C705.522 331.841 704.775 331.28 704.557 331.334Z" fill="black"/>
<path d="M707.103 324.837C706.296 324.766 705.954 326.368 706.911 327.395C706.816 328.675 707.679 328.039 707.897 327.984C708.114 327.929 708.506 327.081 708.287 326.212C708.068 325.343 707.321 324.782 707.103 324.837Z" fill="black"/>
<path d="M714.663 358.147C713.384 358.051 711.912 360.513 713.486 360.117C711.912 360.513 713.999 362.498 714.868 362.279C715.737 362.06 717.129 361.291 716.633 359.324C716.267 357.872 715.45 357.948 714.663 358.147Z" fill="black"/>
<path d="M713.31 319.57C712.224 319.843 711.542 320.852 711.542 320.852C711.542 320.852 712.621 321.417 713.707 321.143C714.793 320.869 715.585 320.295 715.476 319.861C715.366 319.426 714.397 319.296 713.31 319.57Z" fill="black"/>
<path d="M677.059 334.154C678.03 339.512 680.766 342.351 665.641 348.922L664.924 348.367C675.326 344.556 679.38 341.834 676.342 333.599L677.059 334.154Z" fill="white"/>
<path d="M646.26 306.718C647.567 308.409 649.752 308.479 648.477 310.683L647.073 310.634C648.769 308.71 647.145 308.578 646.26 306.718Z" fill="black"/>
<path d="M657.554 325.508L659.139 328.342C654.289 330.061 651.503 330.904 647.805 334.68C646.687 333.53 645.89 332.87 646.22 331.847C651.27 330.487 653.464 328.584 657.554 325.508Z" fill="white"/>
<path d="M666.272 341.093L667.856 343.926C663.045 345.827 660.299 346.82 656.523 350.265C655.56 349.232 654.776 348.706 654.938 347.431C659.862 346.05 662.12 344.172 666.272 341.093Z" fill="white"/>
<path d="M666.986 310.665C670.06 310.565 668.203 318.825 676.224 330.384C678.772 334.055 678.16 339.298 674.311 341.57C669.806 344.229 664.783 347.073 664.003 347.012C662.544 346.898 646.663 315.175 646.663 315.175C654.5 309.18 661.518 310.248 666.986 310.665Z" fill="white"/>
<path d="M650.846 321.823L652.43 324.657C647.691 326.571 645.139 327.833 641.097 330.995C639.922 329.88 639.002 329.251 639.512 328.162C644.412 326.661 646.773 325.023 650.846 321.823Z" fill="white"/>
<path d="M659.958 338.115L661.543 340.948C656.581 342.855 654.039 344.177 650.209 347.287C649.048 346.219 648.547 345.61 648.624 344.453C653.576 343.059 656.014 341.583 659.958 338.115Z" fill="white"/>
<path d="M648.156 318.678C643.07 321.522 637.795 321.766 636.373 319.224C640.977 316.649 636.546 314.012 641.631 311.168C646.717 308.324 648.289 309.77 655.948 314.32C657.37 316.863 653.242 315.833 648.156 318.678Z" fill="white"/>
<path d="M663.494 323.48C661.17 323.553 659.215 321.328 659.127 318.511C659.038 315.694 660.851 313.352 663.175 313.279C665.498 313.206 663.212 318.161 669.441 320.154C669.529 322.971 665.818 323.408 663.494 323.48Z" fill="black"/>
<path d="M674.481 340.529C676.059 340.48 677.267 338.189 677.18 335.413C677.093 332.637 675.744 330.426 674.167 330.476C672.589 330.525 674.395 335.281 670.281 337.566C670.368 340.342 672.904 340.578 674.481 340.529Z" fill="black"/>
<path d="M660.873 336.981C662.45 336.931 665.681 340.994 665.594 338.218C661.814 329.173 662.136 326.878 660.559 326.928C658.981 326.977 660.945 331.071 656.831 333.356C656.917 336.132 659.296 337.03 660.873 336.981Z" fill="black"/>
<path d="M643.983 306.598C645.29 308.289 647.475 308.359 646.2 310.563L644.795 310.514C646.492 308.59 644.868 308.458 643.983 306.598Z" fill="black"/>
<path d="M641.094 330.992C640.556 331.598 639.207 330.668 639.198 329.264C638.25 328.4 639.314 328.269 639.51 328.16C639.705 328.05 640.573 328.398 641.01 329.18C641.448 329.962 641.29 330.883 641.094 330.992Z" fill="black"/>
<path d="M647.839 334.738C647.301 335.343 645.952 334.414 645.943 333.009C644.994 332.145 646.059 332.014 646.255 331.905C646.45 331.796 647.317 332.143 647.755 332.925C648.192 333.707 648.034 334.628 647.839 334.738Z" fill="black"/>
<path d="M650.24 347.343C649.702 347.949 648.352 347.019 648.343 345.615C647.395 344.75 648.46 344.62 648.656 344.51C648.851 344.401 649.718 344.748 650.156 345.531C650.593 346.313 650.435 347.234 650.24 347.343Z" fill="black"/>
<path d="M656.552 350.319C656.014 350.925 654.665 349.995 654.656 348.59C653.708 347.726 654.773 347.595 654.968 347.486C655.164 347.377 656.031 347.724 656.468 348.506C656.906 349.288 656.748 350.209 656.552 350.319Z" fill="black"/>
<path d="M639.177 320.911C638.312 321.859 635.552 321.079 636.968 320.287C635.552 321.079 635.706 318.204 636.488 317.766C637.27 317.329 638.811 316.932 639.801 318.703C640.531 320.009 639.885 320.515 639.177 320.911Z" fill="black"/>
<path d="M664.681 349.886C663.703 350.433 662.514 350.168 662.514 350.168C662.514 350.168 662.911 349.017 663.889 348.47C664.867 347.923 665.837 347.797 666.055 348.188C666.274 348.579 665.659 349.34 664.681 349.886Z" fill="black"/>
<rect x="334.36" y="742.124" width="9.05475" height="25.806" transform="rotate(-158.521 334.36 742.124)" fill="#FFFBD3"/>
<path d="M348.326 714.045L301.562 695.645L314.493 662.783L361.257 681.184L348.326 714.045Z" fill="#FFFBD3"/>
<path d="M315.33 729.282L301.495 695.376L348.561 713.896L315.33 729.282Z" fill="#FFFBD3"/>
<rect x="312.205" y="729.338" width="46.1792" height="4.07464" transform="rotate(-23.5211 312.205 729.338)" fill="#343434"/>
<rect x="313.732" y="733.031" width="46.1792" height="4.07464" transform="rotate(-113.521 313.732 733.031)" fill="#343434"/>
<rect x="343.985" y="708.399" width="15.7513" height="14.3931" rx="1.5" transform="rotate(-158.521 343.985 708.399)" fill="#FCFF6F" stroke="#343434"/>
<rect x="323.187" y="698.805" width="14.4876" height="30.3334" transform="rotate(-158.521 323.187 698.805)" fill="#343434"/>
<line x1="336.385" y1="705.459" x2="341.524" y2="692.398" stroke="#343434"/>
<line x1="347.068" y1="701.928" x2="331.48" y2="695.795" stroke="#343434"/>
<rect x="328.402" y="684.316" width="2.7157" height="0.452617" transform="rotate(-158.521 328.402 684.316)" fill="#FFF59A"/>
<rect x="327.725" y="683.563" width="0.905235" height="1.35785" transform="rotate(-158.521 327.725 683.563)" fill="#FFF59A"/>
<rect x="322.946" y="700.652" width="15.3931" height="1.81095" transform="rotate(-158.521 322.946 700.652)" fill="#C4C4C4"/>
<rect x="334.449" y="743.133" width="9.95875" height="2.71602" transform="rotate(-158.521 334.449 743.133)" fill="#343434"/>
<rect x="349.828" y="696.148" width="17.6568" height="2.71643" transform="rotate(-158.521 349.828 696.148)" fill="#C4C4C4"/>
<path d="M610.846 677.329C608.797 674.452 609.469 670.459 612.346 668.41C615.223 666.361 619.217 667.033 621.266 669.91C623.314 672.788 621.53 675.218 618.652 677.267C615.775 679.315 612.895 680.207 610.846 677.329Z" fill="#5C5C5C"/>
<path d="M556.75 664.385C556.75 664.385 567.954 645.074 587.399 631.228C606.845 617.383 627.168 614.245 627.168 614.245C641.014 633.69 636.475 660.678 617.029 674.524C597.583 688.37 570.595 683.83 556.75 664.385Z" fill="#E3AEAE"/>
<path d="M594.06 675.762L581.028 696.909L575.106 693.26L588.139 672.113C590.947 672.732 592.332 673.393 594.06 675.762Z" fill="#757575"/>
<rect x="586.044" y="690.663" width="23.847" height="8.94263" transform="rotate(121.645 586.044 690.663)" fill="#757575"/>
<rect x="582.522" y="700.166" width="33.7833" height="12.9171" transform="rotate(121.645 582.522 700.166)" fill="#757575"/>
<path d="M570.985 724.568L567.335 730.489C558.911 730.105 555.665 727.492 551.264 720.584L554.913 714.663L570.985 724.568Z" fill="#C4C4C4"/>
<rect x="224.739" y="641.552" width="62.6743" height="33.7477" transform="rotate(-134.945 224.739 641.552)" fill="#FFDEDE"/>
<path d="M229.331 615.187L221.582 622.921L220.665 622.001L228.098 614.583L223.379 609.855L224.325 608.911L229.437 614.033L229.331 615.187ZM219.842 604.892L222.961 608.017L222.226 608.751L221.203 607.727L214.637 614.281L216.105 615.752L215.396 616.46L212.328 613.754L213.09 612.994L214.113 613.861L220.679 607.307L219.054 605.678L219.842 604.892ZM216.118 602.684L204.857 606.688L204.543 605.481L217.064 601.111L218.007 602.319L210.729 612.204L209.838 611.311L216.118 602.684ZM205.422 591.705L206.342 590.788L211.322 595.778L211.164 596.88L204.23 603.801L202.944 604.036L198.723 599.807L199.485 599.047L203.312 602.882L206.254 599.946L202.164 595.848L202.874 595.14L207.016 599.29L210.01 596.302L205.422 591.705Z" fill="#FF4848"/>
<rect x="170.449" y="588.594" width="62.6743" height="33.7477" transform="rotate(-117.102 170.449 588.594)" fill="#FFDEDE"/>
<path d="M183.406 565.895L173.66 570.882L173.069 569.726L182.417 564.941L179.374 558.995L180.564 558.386L183.86 564.828L183.406 565.895ZM171.327 553.859C170.827 554.24 170.377 554.637 169.977 555.05C169.577 555.463 169.263 555.881 169.034 556.304C168.789 556.721 168.641 557.137 168.59 557.553C168.538 557.968 168.611 558.369 168.808 558.754C169.028 559.183 169.322 559.499 169.689 559.7C170.045 559.907 170.441 560.03 170.879 560.071C171.31 560.1 171.761 560.057 172.23 559.942C172.699 559.827 173.154 559.656 173.594 559.431C174.112 559.166 174.64 558.827 175.178 558.412C175.716 557.998 176.18 557.545 176.568 557.055C176.945 556.57 177.209 556.067 177.359 555.545C177.503 555.013 177.451 554.504 177.203 554.02C176.961 553.546 176.651 553.198 176.272 552.975C175.883 552.757 175.467 552.637 175.024 552.613C174.565 552.584 174.098 552.636 173.623 552.767C173.149 552.899 172.702 553.072 172.284 553.286C172.119 553.371 171.956 553.461 171.797 553.556C171.626 553.657 171.469 553.758 171.327 553.859ZM170.637 552.837C170.801 552.725 170.969 552.618 171.14 552.517C171.299 552.421 171.467 552.328 171.643 552.238C172.227 551.939 172.847 551.712 173.504 551.557C174.15 551.407 174.777 551.357 175.386 551.406C175.995 551.456 176.556 551.628 177.067 551.922C177.579 552.216 177.987 552.66 178.291 553.255C178.568 553.794 178.695 554.382 178.673 555.019C178.64 555.661 178.464 556.307 178.144 556.957C177.807 557.602 177.328 558.229 176.709 558.838C176.084 559.435 175.309 559.971 174.384 560.444C173.778 560.754 173.153 560.984 172.507 561.134C171.861 561.284 171.236 561.326 170.633 561.26C170.029 561.193 169.474 561.005 168.968 560.694C168.461 560.384 168.05 559.92 167.735 559.303C167.413 558.676 167.294 558.049 167.377 557.423C167.448 556.803 167.645 556.209 167.966 555.642C168.287 555.074 168.691 554.548 169.179 554.062C169.656 553.582 170.142 553.173 170.637 552.837ZM173.205 547.103L161.259 547.464L161.33 546.219L174.588 545.896L175.116 547.334L165.159 554.515L164.584 553.391L173.205 547.103ZM166.388 533.376L167.544 532.784L170.756 539.06L170.268 540.061L161.547 544.524L160.251 544.354L157.529 539.035L158.487 538.545L160.955 543.368L164.655 541.474L162.017 536.321L162.909 535.865L165.581 541.084L169.347 539.157L166.388 533.376Z" fill="#FF4848"/>
<rect x="138.661" y="520.122" width="62.6743" height="33.7477" transform="rotate(-104.837 138.661 520.122)" fill="#FFDEDE"/>
<path d="M157.816 507.007L147.233 509.811L146.901 508.555L157.053 505.866L155.342 499.409L156.633 499.067L158.487 506.062L157.816 507.007ZM150.023 496.864L149.291 494.102L145.646 496.718L150.023 496.864ZM156.352 496.991L156.389 498.287L143.715 497.69L143.506 496.901L154.123 489.444L154.75 490.506L150.318 493.484L151.211 496.856L156.352 496.991ZM141.84 491.047L141.687 489.743C141.942 489.74 142.275 489.716 142.685 489.671C143.096 489.626 143.552 489.563 144.055 489.481C144.546 489.402 145.071 489.308 145.631 489.198C146.191 489.088 146.745 488.96 147.295 488.814C148.001 488.628 148.679 488.41 149.33 488.16C149.98 487.911 150.545 487.627 151.023 487.309C151.487 486.981 151.839 486.619 152.079 486.223C152.308 485.829 152.357 485.388 152.227 484.897C152.037 484.18 151.67 483.663 151.125 483.347C150.578 483.018 149.926 482.826 149.169 482.771C148.409 482.704 147.587 482.742 146.704 482.886C145.821 483.031 144.949 483.217 144.088 483.445C143.406 483.626 142.783 483.81 142.219 483.998C141.639 484.177 141.17 484.314 140.811 484.409L140.452 483.199C140.892 483.07 141.343 482.937 141.806 482.802C142.269 482.666 142.746 482.534 143.236 482.404C144.001 482.201 144.761 482.025 145.515 481.877C146.269 481.728 147.003 481.624 147.716 481.563C148.417 481.505 149.083 481.507 149.714 481.571C150.345 481.634 150.914 481.777 151.422 482.001C151.917 482.228 152.346 482.544 152.709 482.946C153.071 483.349 153.335 483.862 153.5 484.484C153.699 485.237 153.655 485.914 153.366 486.515C153.062 487.108 152.606 487.632 151.997 488.087C151.389 488.543 150.674 488.937 149.854 489.269C149.033 489.602 148.198 489.88 147.349 490.105C146.811 490.248 146.282 490.375 145.762 490.488C145.226 490.591 144.719 490.681 144.24 490.756C143.761 490.832 143.317 490.898 142.91 490.955C142.5 491 142.143 491.03 141.84 491.047ZM143.894 471.845C144.31 471.773 144.77 471.696 145.273 471.614C145.76 471.524 146.266 471.428 146.79 471.328L149.901 470.753L150.088 471.894L146.649 472.536C146.791 472.588 146.977 472.686 147.207 472.83C147.434 472.961 147.667 473.143 147.908 473.373C148.136 473.607 148.357 473.888 148.572 474.215C148.787 474.542 148.949 474.914 149.06 475.333C149.212 475.907 149.241 476.475 149.147 477.037C149.05 477.588 148.845 478.096 148.534 478.563C148.222 479.029 147.814 479.444 147.309 479.809C146.789 480.164 146.188 480.432 145.506 480.612C144.598 480.853 143.725 480.963 142.887 480.942C142.035 480.911 141.268 480.769 140.586 480.515C139.889 480.251 139.303 479.875 138.828 479.387C138.342 478.902 138.008 478.318 137.827 477.637C137.72 477.23 137.674 476.839 137.689 476.464C137.69 476.08 137.738 475.728 137.832 475.409C137.915 475.093 138.038 474.81 138.203 474.562C138.367 474.314 138.546 474.119 138.739 473.979L139.498 474.814C139.179 475.155 138.979 475.534 138.897 475.952C138.816 476.37 138.83 476.783 138.937 477.189C139.07 477.691 139.321 478.131 139.689 478.506C140.042 478.874 140.489 479.158 141.029 479.361C141.554 479.554 142.158 479.663 142.843 479.686C143.512 479.701 144.223 479.609 144.977 479.409C145.443 479.286 145.881 479.105 146.292 478.869C146.688 478.623 147.021 478.336 147.293 478.009C147.549 477.672 147.73 477.291 147.835 476.867C147.928 476.445 147.908 475.984 147.775 475.481C147.674 475.099 147.499 474.755 147.252 474.449C147.002 474.132 146.714 473.869 146.39 473.66C146.066 473.452 145.721 473.306 145.354 473.225C144.971 473.134 144.602 473.116 144.246 473.172L145.063 476.257L143.915 476.562L142.233 470.212L143.381 469.908L143.894 471.845ZM139.882 462.351L135.039 463.634L134.764 462.594L146.207 459.562L146.416 460.351L140.892 461.815L142.298 467.124L147.822 465.66L148.212 467.131L136.805 470.153L136.358 468.467L141.165 467.194L139.882 462.351Z" fill="#FF4848"/>
</g>
<defs>
<filter id="filter0_d" x="24.6869" y="32.6396" width="822.084" height="760.53" filterUnits="userSpaceOnUse" color-interpolation-filters="sRGB">
<feFlood flood-opacity="0" result="BackgroundImageFix"/>
<feColorMatrix in="SourceAlpha" type="matrix" values="0 0 0 0 0 0 0 0 0 0 0 0 0 0 0 0 0 0 127 0"/>
<feOffset dy="4"/>
<feGaussianBlur stdDeviation="2"/>
<feColorMatrix type="matrix" values="0 0 0 0 0 0 0 0 0 0 0 0 0 0 0 0 0 0 0.25 0"/>
<feBlend mode="normal" in2="BackgroundImageFix" result="effect1_dropShadow"/>
<feBlend mode="normal" in="SourceGraphic" in2="effect1_dropShadow" result="shape"/>
</filter>
<filter id="filter1_d" x="370.29" y="125.274" width="32.0352" height="27.4786" filterUnits="userSpaceOnUse" color-interpolation-filters="sRGB">
<feFlood flood-opacity="0" result="BackgroundImageFix"/>
<feColorMatrix in="SourceAlpha" type="matrix" values="0 0 0 0 0 0 0 0 0 0 0 0 0 0 0 0 0 0 127 0"/>
<feOffset dy="4"/>
<feGaussianBlur stdDeviation="2"/>
<feColorMatrix type="matrix" values="0 0 0 0 0 0 0 0 0 0 0 0 0 0 0 0 0 0 0.25 0"/>
<feBlend mode="normal" in2="BackgroundImageFix" result="effect1_dropShadow"/>
<feBlend mode="normal" in="SourceGraphic" in2="effect1_dropShadow" result="shape"/>
</filter>
<filter id="filter2_d" x="286.424" y="575.216" width="31.6336" height="34.0319" filterUnits="userSpaceOnUse" color-interpolation-filters="sRGB">
<feFlood flood-opacity="0" result="BackgroundImageFix"/>
<feColorMatrix in="SourceAlpha" type="matrix" values="0 0 0 0 0 0 0 0 0 0 0 0 0 0 0 0 0 0 127 0"/>
<feOffset dy="4"/>
<feGaussianBlur stdDeviation="2"/>
<feColorMatrix type="matrix" values="0 0 0 0 0 0 0 0 0 0 0 0 0 0 0 0 0 0 0.25 0"/>
<feBlend mode="normal" in2="BackgroundImageFix" result="effect1_dropShadow"/>
<feBlend mode="normal" in="SourceGraphic" in2="effect1_dropShadow" result="shape"/>
</filter>
<filter id="filter3_d" x="413" y="121.421" width="101.256" height="50.6962" filterUnits="userSpaceOnUse" color-interpolation-filters="sRGB">
<feFlood flood-opacity="0" result="BackgroundImageFix"/>
<feColorMatrix in="SourceAlpha" type="matrix" values="0 0 0 0 0 0 0 0 0 0 0 0 0 0 0 0 0 0 127 0"/>
<feOffset dy="4"/>
<feGaussianBlur stdDeviation="2"/>
<feColorMatrix type="matrix" values="0 0 0 0 0 0 0 0 0 0 0 0 0 0 0 0 0 0 0.25 0"/>
<feBlend mode="normal" in2="BackgroundImageFix" result="effect1_dropShadow"/>
<feBlend mode="normal" in="SourceGraphic" in2="effect1_dropShadow" result="shape"/>
</filter>
<filter id="filter4_d" x="246.68" y="546.638" width="27.5921" height="30.2823" filterUnits="userSpaceOnUse" color-interpolation-filters="sRGB">
<feFlood flood-opacity="0" result="BackgroundImageFix"/>
<feColorMatrix in="SourceAlpha" type="matrix" values="0 0 0 0 0 0 0 0 0 0 0 0 0 0 0 0 0 0 127 0"/>
<feOffset dy="4"/>
<feGaussianBlur stdDeviation="2"/>
<feColorMatrix type="matrix" values="0 0 0 0 0 0 0 0 0 0 0 0 0 0 0 0 0 0 0.25 0"/>
<feBlend mode="normal" in2="BackgroundImageFix" result="effect1_dropShadow"/>
<feBlend mode="normal" in="SourceGraphic" in2="effect1_dropShadow" result="shape"/>
</filter>
<filter id="filter5_d" x="240.197" y="500.273" width="27.2665" height="30.1731" filterUnits="userSpaceOnUse" color-interpolation-filters="sRGB">
<feFlood flood-opacity="0" result="BackgroundImageFix"/>
<feColorMatrix in="SourceAlpha" type="matrix" values="0 0 0 0 0 0 0 0 0 0 0 0 0 0 0 0 0 0 127 0"/>
<feOffset dy="4"/>
<feGaussianBlur stdDeviation="2"/>
<feColorMatrix type="matrix" values="0 0 0 0 0 0 0 0 0 0 0 0 0 0 0 0 0 0 0.25 0"/>
<feBlend mode="normal" in2="BackgroundImageFix" result="effect1_dropShadow"/>
<feBlend mode="normal" in="SourceGraphic" in2="effect1_dropShadow" result="shape"/>
</filter>
<filter id="filter6_d" x="372.925" y="152.313" width="32.7341" height="29.0187" filterUnits="userSpaceOnUse" color-interpolation-filters="sRGB">
<feFlood flood-opacity="0" result="BackgroundImageFix"/>
<feColorMatrix in="SourceAlpha" type="matrix" values="0 0 0 0 0 0 0 0 0 0 0 0 0 0 0 0 0 0 127 0"/>
<feOffset dy="4"/>
<feGaussianBlur stdDeviation="2"/>
<feColorMatrix type="matrix" values="0 0 0 0 0 0 0 0 0 0 0 0 0 0 0 0 0 0 0.25 0"/>
<feBlend mode="normal" in2="BackgroundImageFix" result="effect1_dropShadow"/>
<feBlend mode="normal" in="SourceGraphic" in2="effect1_dropShadow" result="shape"/>
</filter>
<filter id="filter7_d" x="293.969" y="544.767" width="32.0121" height="35.2374" filterUnits="userSpaceOnUse" color-interpolation-filters="sRGB">
<feFlood flood-opacity="0" result="BackgroundImageFix"/>
<feColorMatrix in="SourceAlpha" type="matrix" values="0 0 0 0 0 0 0 0 0 0 0 0 0 0 0 0 0 0 127 0"/>
<feOffset dy="4"/>
<feGaussianBlur stdDeviation="2"/>
<feColorMatrix type="matrix" values="0 0 0 0 0 0 0 0 0 0 0 0 0 0 0 0 0 0 0.25 0"/>
<feBlend mode="normal" in2="BackgroundImageFix" result="effect1_dropShadow"/>
<feBlend mode="normal" in="SourceGraphic" in2="effect1_dropShadow" result="shape"/>
</filter>
</defs>
</svg>
