<svg width="890" height="824" viewBox="0 0 890 824" fill="none" xmlns="http://www.w3.org/2000/svg">
<circle cx="93.853" cy="442.923" r="11.2232" transform="rotate(-66.9388 93.853 442.923)" fill="#BEFF7E"/>
<circle cx="79.5526" cy="436.836" r="11.2232" transform="rotate(-66.9388 79.5526 436.836)" fill="#BEFF7E"/>
<circle cx="83.6605" cy="447.028" r="7.76988" transform="rotate(-66.9388 83.6605 447.028)" fill="#BEFF7E"/>
<circle cx="82.2449" cy="423.906" r="6.04324" transform="rotate(-66.9388 82.2449 423.906)" fill="#BEFF7E"/>
<circle cx="91.9956" cy="425.243" r="11.2232" transform="rotate(-66.9388 91.9956 425.243)" fill="#BEFF7E"/>
<path d="M94.0422 443.003L103.911 433.213L94.9359 425.841L105.489 432.101L149.488 422.819L150.522 429.647L105.747 433.808L94.0422 443.003Z" fill="#BF3F3F"/>
<circle cx="514.711" cy="728.84" r="8.87905" transform="rotate(-150.113 514.711 728.84)" fill="#BEFF7E"/>
<circle cx="508.585" cy="739.5" r="8.87905" transform="rotate(-150.113 508.585 739.5)" fill="#BEFF7E"/>
<circle cx="516.978" cy="737.233" r="6.14703" transform="rotate(-150.113 516.978 737.233)" fill="#BEFF7E"/>
<circle cx="498.682" cy="736.171" r="4.78103" transform="rotate(-150.113 498.682 736.171)" fill="#BEFF7E"/>
<circle cx="500.648" cy="728.636" r="8.87905" transform="rotate(-150.113 500.648 728.636)" fill="#BEFF7E"/>
<path d="M514.792 728.698L508.03 720.026L501.395 726.383L507.305 718.682L504.15 683.247L509.611 683.076L508.67 718.639L514.792 728.698Z" fill="#BF3F3F"/>
<circle cx="442.031" cy="745.909" r="8.87905" transform="rotate(-141.873 442.031 745.909)" fill="#BEFF7E"/>
<circle cx="434.44" cy="755.583" r="8.87905" transform="rotate(-141.873 434.44 755.583)" fill="#BEFF7E"/>
<circle cx="443.071" cy="754.54" r="6.14703" transform="rotate(-141.873 443.071 754.54)" fill="#BEFF7E"/>
<circle cx="425.116" cy="750.867" r="4.78103" transform="rotate(-141.873 425.116 750.867)" fill="#BEFF7E"/>
<circle cx="428.142" cy="743.694" r="8.87905" transform="rotate(-141.873 428.142 743.694)" fill="#BEFF7E"/>
<path d="M442.131 745.781L436.682 736.229L429.204 741.569L436.157 734.795L438.113 699.274L443.543 699.888L437.514 734.949L442.131 745.781Z" fill="#BF3F3F"/>
<g opacity="0.87" filter="url(#filter0_d)">
<path d="M727.363 618.375L659.139 556.944L683.603 529.775L751.827 591.206L753.959 616.921L727.363 618.375Z" fill="#979797"/>
</g>
<g opacity="0.87" filter="url(#filter1_d)">
<path d="M767.845 596.096L691.862 544.57L712.382 514.312L788.364 565.838L792.294 591.802L767.845 596.096Z" fill="#979797"/>
</g>
<rect opacity="0.87" x="736.467" y="595.749" width="9.74925" height="4.06219" transform="rotate(-140.573 736.467 595.749)" fill="#C4C4C4"/>
<rect opacity="0.87" x="726.898" y="607.834" width="9.74925" height="4.06219" transform="rotate(-140.573 726.898 607.834)" fill="#C4C4C4"/>
<rect opacity="0.87" x="720.63" y="582.227" width="9.74925" height="4.06219" transform="rotate(-140.573 720.63 582.227)" fill="#C4C4C4"/>
<rect opacity="0.87" x="711.061" y="594.311" width="9.74925" height="4.06219" transform="rotate(-140.573 711.061 594.311)" fill="#C4C4C4"/>
<rect opacity="0.87" x="771.868" y="571.636" width="9.74926" height="4.06219" transform="rotate(-140.634 771.868 571.636)" fill="#C4C4C4"/>
<rect opacity="0.87" x="762.313" y="583.73" width="9.74926" height="4.06219" transform="rotate(-140.634 762.313 583.73)" fill="#C4C4C4"/>
<rect opacity="0.87" x="748.865" y="556.408" width="9.74926" height="4.06219" transform="rotate(-140.634 748.865 556.408)" fill="#C4C4C4"/>
<rect opacity="0.87" x="739.309" y="568.504" width="9.74926" height="4.06219" transform="rotate(-140.634 739.309 568.504)" fill="#C4C4C4"/>
<path d="M737.592 419.61C767.337 429.71 784.011 434.224 813.751 441.513L812.929 444.369C782.764 436.65 765.999 432.032 736.771 422.466L737.592 419.61Z" fill="#A52A2A"/>
<path d="M729.443 476.046C760.843 475.16 778.106 475.761 808.674 477.559L808.731 474.588C777.63 473.075 760.249 472.547 729.5 473.075L729.443 476.046Z" fill="#A52A2A"/>
<path d="M815.065 438.314L844.675 441.861L839.505 485.016L809.895 481.468C803.244 463.81 804.702 454.394 815.065 438.314Z" fill="#B8B8B8"/>
<path d="M863.838 468.593L834.452 489.148C831.508 467.566 833.777 455.988 847.567 436.636L863.838 468.593Z" fill="#A52A2A"/>
<rect x="759.488" y="425.906" width="2.9717" height="52.5001" transform="rotate(16.0452 759.488 425.906)" fill="#A52A2A"/>
<rect x="773.494" y="428.188" width="2.9717" height="50.3865" transform="rotate(10.0154 773.494 428.188)" fill="#A52A2A"/>
<rect x="801.367" y="436.881" width="2.9717" height="47.5906" transform="rotate(28.4365 801.367 436.881)" fill="#A52A2A"/>
<rect x="32.7598" y="276.368" width="162.96" height="59.7247" transform="rotate(9.40345 32.7598 276.368)" fill="#909090"/>
<rect x="39.8766" y="281.942" width="8.91511" height="46.5567" transform="rotate(10.4879 39.8766 281.942)" fill="#C4C4C4"/>
<rect x="56.715" y="283.938" width="8.91511" height="46.5567" transform="rotate(10.4879 56.715 283.938)" fill="#C4C4C4"/>
<rect x="73.322" y="286.902" width="8.91511" height="46.5567" transform="rotate(10.4879 73.322 286.902)" fill="#C4C4C4"/>
<rect x="89.929" y="289.861" width="8.91511" height="46.5567" transform="rotate(10.4879 89.929 289.861)" fill="#C4C4C4"/>
<rect x="107.5" y="293.047" width="8.91511" height="46.5567" transform="rotate(10.4879 107.5 293.047)" fill="#C4C4C4"/>
<rect x="159.691" y="160.929" width="91.8054" height="36.5597" transform="rotate(35.7344 159.691 160.929)" fill="#B5B5B5"/>
<rect x="147.043" y="200.494" width="91.8054" height="36.5597" transform="rotate(27.9364 147.043 200.494)" fill="#B5B5B5"/>
<rect x="147.651" y="247.465" width="91.8054" height="36.5597" transform="rotate(19.3835 147.651 247.465)" fill="#B5B5B5"/>
<rect x="153.11" y="184.411" width="9.7478" height="4.06158" transform="rotate(33.1599 153.11 184.411)" fill="#C4C4C4"/>
<rect x="161.303" y="171.352" width="9.7478" height="4.06158" transform="rotate(33.1599 161.303 171.352)" fill="#C4C4C4"/>
<rect x="170.328" y="196.124" width="9.7478" height="4.06158" transform="rotate(33.1599 170.328 196.124)" fill="#C4C4C4"/>
<rect x="178.521" y="183.065" width="9.7478" height="4.06158" transform="rotate(33.1599 178.521 183.065)" fill="#C4C4C4"/>
<rect x="188.741" y="209.8" width="9.7478" height="4.06158" transform="rotate(33.1599 188.741 209.8)" fill="#C4C4C4"/>
<rect x="196.934" y="196.742" width="9.7478" height="4.06158" transform="rotate(33.1599 196.934 196.742)" fill="#C4C4C4"/>
<rect x="145.686" y="225.246" width="9.7478" height="4.06158" transform="rotate(33.1599 145.686 225.246)" fill="#C4C4C4"/>
<rect x="153.879" y="212.188" width="9.7478" height="4.06158" transform="rotate(33.1599 153.879 212.188)" fill="#C4C4C4"/>
<rect x="170.202" y="237.899" width="9.7478" height="4.06158" transform="rotate(33.1599 170.202 237.899)" fill="#C4C4C4"/>
<rect x="178.393" y="224.84" width="9.7478" height="4.06158" transform="rotate(33.1599 178.393 224.84)" fill="#C4C4C4"/>
<rect x="151.896" y="271.907" width="9.7478" height="4.06158" transform="rotate(33.1599 151.896 271.907)" fill="#C4C4C4"/>
<rect x="160.089" y="258.849" width="9.7478" height="4.06158" transform="rotate(33.1599 160.089 258.849)" fill="#C4C4C4"/>
<circle cx="493.661" cy="773.173" r="12.8774" transform="rotate(-151.114 493.661 773.173)" fill="#A3FF4A"/>
<circle cx="485.049" cy="788.782" r="12.8774" transform="rotate(-151.114 485.049 788.782)" fill="#A3FF4A"/>
<circle cx="497.161" cy="785.284" r="8.91511" transform="rotate(-151.114 497.161 785.284)" fill="#A3FF4A"/>
<circle cx="470.603" cy="784.208" r="6.93398" transform="rotate(-151.114 470.603 784.208)" fill="#A3FF4A"/>
<circle cx="473.266" cy="773.231" r="12.8774" transform="rotate(-151.114 473.266 773.231)" fill="#A3FF4A"/>
<path d="M493.776 772.963L483.751 760.558L474.291 769.944L482.665 758.628L477.193 707.323L485.108 706.938L484.644 758.531L493.776 772.963Z" fill="#A52A2A"/>
<circle cx="418.343" cy="93.0291" r="8.3544" transform="rotate(24.7927 418.343 93.0291)" fill="#BEFF7E"/>
<circle cx="423.193" cy="82.5262" r="8.3544" transform="rotate(24.7927 423.193 82.5262)" fill="#BEFF7E"/>
<circle cx="415.518" cy="85.3548" r="5.78381" transform="rotate(24.7927 415.518 85.3548)" fill="#BEFF7E"/>
<circle cx="432.753" cy="84.8171" r="4.49785" transform="rotate(24.7927 432.753 84.8171)" fill="#BEFF7E"/>
<circle cx="431.54" cy="92.0457" r="8.3544" transform="rotate(24.7927 431.54 92.0457)" fill="#BEFF7E"/>
<path d="M418.279 93.1689L425.341 100.732L431.028 94.2199L426.133 101.931L432.05 134.877L426.946 135.493L424.857 102.085L418.279 93.1689Z" fill="#BF3F3F"/>
<path d="M705.63 87.8066C708.008 84.68 712.471 84.0738 715.598 86.4526V86.4526C718.724 88.8313 719.331 93.2942 716.952 96.4207L710.558 104.825L699.236 96.2107L705.63 87.8066Z" fill="#978062"/>
<rect width="2.7417" height="123.628" transform="matrix(0.243058 0.970012 -0.674193 0.738555 703.454 92.8291)" fill="#978062"/>
<rect width="2.96975" height="20.1088" transform="matrix(-0.68286 0.730549 -0.0912015 -0.995832 697.079 122.028)" fill="#978062"/>
<rect width="2.96975" height="20.1089" transform="matrix(0.52193 -0.852988 0.984077 -0.177741 683.948 116.184)" fill="#978062"/>
<rect width="2.96159" height="23.7272" transform="matrix(-0.709012 0.705196 -0.242986 -0.97003 683.165 144.708)" fill="#978062"/>
<rect width="2.96159" height="23.7273" transform="matrix(0.490519 -0.87143 0.999698 -0.0245727 665.986 135.786)" fill="#978062"/>
<rect width="2.95217" height="27.409" transform="matrix(-0.731943 0.681366 -0.341828 -0.939762 668.898 167.122)" fill="#978062"/>
<rect width="2.95217" height="27.409" transform="matrix(0.461435 -0.887174 0.996893 0.0787619 648.008 155.371)" fill="#978062"/>
<rect width="2.96736" height="30.6763" transform="matrix(-0.750393 0.660991 -0.404074 -0.914726 655.733 188.645)" fill="#978062"/>
<rect width="2.96736" height="30.6764" transform="matrix(0.436877 -0.899521 0.989368 0.145431 631.726 174.529)" fill="#978062"/>
<rect width="2.7417" height="122.233" transform="matrix(0.9997 -0.024493 -0.531959 0.84677 709.156 100.528)" fill="#978062"/>
<path d="M751.504 70.499L718.029 89.2406L711.676 77.8935C726.506 71.5156 733.734 67.3582 745.151 59.152L751.504 70.499Z" fill="#FDFFAE" fill-opacity="0.9"/>
<path d="M750.823 70.307L718.221 88.56L712.383 78.1332C726.707 71.949 733.931 67.8043 744.988 59.8844L750.823 70.307Z" stroke="black" stroke-opacity="0.6"/>
<line x1="750.415" y1="68.5574" x2="716.94" y2="87.2989" stroke="#E8E8E8"/>
<line x1="749.077" y1="66.1628" x2="715.602" y2="84.9044" stroke="#E8E8E8"/>
<line x1="747.74" y1="63.7732" x2="714.265" y2="82.5147" stroke="#E8E8E8"/>
<line x1="746.403" y1="61.3865" x2="712.928" y2="80.128" stroke="#E8E8E8"/>
<line x1="748.574" y1="72.1466" x2="742.221" y2="60.7996" stroke="#E8E8E8"/>
<line x1="746.575" y1="73.2667" x2="740.223" y2="61.9197" stroke="#E8E8E8"/>
<line x1="744.577" y1="74.3878" x2="738.224" y2="63.0408" stroke="#E8E8E8"/>
<line x1="742.579" y1="75.506" x2="736.226" y2="64.159" stroke="#E8E8E8"/>
<line x1="740.579" y1="76.6261" x2="734.226" y2="65.2791" stroke="#E8E8E8"/>
<line x1="738.581" y1="77.7423" x2="732.228" y2="66.3953" stroke="#E8E8E8"/>
<line x1="736.582" y1="78.8605" x2="730.229" y2="67.5134" stroke="#E8E8E8"/>
<line x1="734.583" y1="79.9816" x2="728.23" y2="68.6345" stroke="#E8E8E8"/>
<line x1="732.584" y1="81.1017" x2="726.232" y2="69.7547" stroke="#E8E8E8"/>
<line x1="730.586" y1="82.2179" x2="724.233" y2="70.8709" stroke="#E8E8E8"/>
<line x1="728.587" y1="83.3351" x2="722.234" y2="71.9881" stroke="#E8E8E8"/>
<line x1="726.59" y1="84.4562" x2="720.237" y2="73.1091" stroke="#E8E8E8"/>
<line x1="724.591" y1="85.5734" x2="718.239" y2="74.2263" stroke="#E8E8E8"/>
<line x1="722.592" y1="86.6925" x2="716.239" y2="75.3455" stroke="#E8E8E8"/>
<line x1="720.594" y1="87.8146" x2="714.241" y2="76.4675" stroke="#E8E8E8"/>
<path d="M708.315 110.189C697.935 114.864 693.351 116.273 674.84 128.931L668.487 117.584L701.962 98.8424L708.315 110.189Z" fill="#FDFFAE" fill-opacity="0.9"/>
<path d="M701.77 99.523L707.612 109.957C706.539 110.439 705.526 110.886 704.55 111.318C696.472 114.89 690.96 117.327 675.009 128.21L669.168 117.776L701.77 99.523Z" stroke="black" stroke-opacity="0.6"/>
<line x1="707.227" y1="108.243" x2="673.752" y2="126.984" stroke="#E8E8E8"/>
<line x1="705.889" y1="105.85" x2="672.414" y2="124.592" stroke="#E8E8E8"/>
<line x1="704.552" y1="103.46" x2="671.077" y2="122.201" stroke="#E8E8E8"/>
<line x1="703.215" y1="101.072" x2="669.74" y2="119.814" stroke="#E8E8E8"/>
<line x1="705.386" y1="111.832" x2="699.034" y2="100.485" stroke="#E8E8E8"/>
<line x1="703.388" y1="112.952" x2="697.035" y2="101.605" stroke="#E8E8E8"/>
<line x1="701.389" y1="114.073" x2="695.036" y2="102.726" stroke="#E8E8E8"/>
<line x1="699.391" y1="115.192" x2="693.038" y2="103.845" stroke="#E8E8E8"/>
<line x1="697.391" y1="116.312" x2="691.038" y2="104.965" stroke="#E8E8E8"/>
<line x1="695.393" y1="117.428" x2="689.04" y2="106.081" stroke="#E8E8E8"/>
<line x1="693.394" y1="118.547" x2="687.042" y2="107.2" stroke="#E8E8E8"/>
<line x1="691.395" y1="119.667" x2="685.043" y2="108.32" stroke="#E8E8E8"/>
<line x1="689.397" y1="120.787" x2="683.044" y2="109.44" stroke="#E8E8E8"/>
<line x1="687.399" y1="121.904" x2="681.046" y2="110.557" stroke="#E8E8E8"/>
<line x1="685.4" y1="123.023" x2="679.047" y2="111.676" stroke="#E8E8E8"/>
<line x1="683.402" y1="124.142" x2="677.049" y2="112.795" stroke="#E8E8E8"/>
<line x1="681.404" y1="125.26" x2="675.051" y2="113.913" stroke="#E8E8E8"/>
<line x1="679.404" y1="126.38" x2="673.052" y2="115.033" stroke="#E8E8E8"/>
<line x1="677.406" y1="127.5" x2="671.054" y2="116.153" stroke="#E8E8E8"/>
<path d="M686.819 52.25L705.561 85.725L694.214 92.0778C688.637 78.2944 684.466 70.9913 675.472 58.6028L686.819 52.25Z" fill="#FDFFAE" fill-opacity="0.9"/>
<path d="M686.627 52.9305L704.88 85.533L694.464 91.3647C689.044 78.0456 684.882 70.7518 676.207 58.7645L686.627 52.9305Z" stroke="black" stroke-opacity="0.6"/>
<line x1="684.869" y1="53.3427" x2="703.61" y2="86.8177" stroke="#E8E8E8"/>
<line x1="682.48" y1="54.6805" x2="701.221" y2="88.1556" stroke="#E8E8E8"/>
<line x1="680.093" y1="56.0175" x2="698.834" y2="89.4925" stroke="#E8E8E8"/>
<line x1="677.702" y1="57.3544" x2="696.443" y2="90.8294" stroke="#E8E8E8"/>
<line x1="688.463" y1="55.1833" x2="677.116" y2="61.5362" stroke="#E8E8E8"/>
<line x1="689.582" y1="57.1824" x2="678.235" y2="63.5352" stroke="#E8E8E8"/>
<line x1="690.701" y1="59.1824" x2="679.354" y2="65.5352" stroke="#E8E8E8"/>
<line x1="691.819" y1="61.1814" x2="680.472" y2="67.5342" stroke="#E8E8E8"/>
<line x1="692.939" y1="63.1765" x2="681.592" y2="69.5293" stroke="#E8E8E8"/>
<line x1="694.058" y1="65.1765" x2="682.711" y2="71.5293" stroke="#E8E8E8"/>
<line x1="695.176" y1="67.1765" x2="683.829" y2="73.5293" stroke="#E8E8E8"/>
<line x1="696.295" y1="69.1707" x2="684.948" y2="75.5235" stroke="#E8E8E8"/>
<line x1="697.415" y1="71.1726" x2="686.068" y2="77.5254" stroke="#E8E8E8"/>
<line x1="698.533" y1="73.1677" x2="687.186" y2="79.5205" stroke="#E8E8E8"/>
<line x1="699.652" y1="75.1677" x2="688.305" y2="81.5205" stroke="#E8E8E8"/>
<line x1="700.772" y1="77.1658" x2="689.425" y2="83.5186" stroke="#E8E8E8"/>
<line x1="701.89" y1="79.1648" x2="690.543" y2="85.5176" stroke="#E8E8E8"/>
<line x1="703.01" y1="81.1619" x2="691.663" y2="87.5147" stroke="#E8E8E8"/>
<line x1="704.127" y1="83.1648" x2="692.78" y2="89.5176" stroke="#E8E8E8"/>
<path d="M725.53 95.5723C730.876 108.395 734.662 115.685 744.271 129.047L732.924 135.4L714.183 101.925L725.53 95.5723Z" fill="#FDFFAE" fill-opacity="0.9"/>
<path d="M714.863 102.117L725.285 96.2825C730.472 108.674 734.274 115.955 743.539 128.884L733.116 134.72L714.863 102.117Z" stroke="black" stroke-opacity="0.6"/>
<line x1="723.577" y1="96.663" x2="742.318" y2="130.138" stroke="#E8E8E8"/>
<line x1="721.188" y1="98.0048" x2="739.929" y2="131.48" stroke="#E8E8E8"/>
<line x1="718.8" y1="99.3427" x2="737.541" y2="132.818" stroke="#E8E8E8"/>
<line x1="716.41" y1="100.68" x2="735.151" y2="134.155" stroke="#E8E8E8"/>
<line x1="727.172" y1="98.5046" x2="715.825" y2="104.857" stroke="#E8E8E8"/>
<line x1="728.29" y1="100.505" x2="716.943" y2="106.857" stroke="#E8E8E8"/>
<line x1="729.409" y1="102.508" x2="718.062" y2="108.86" stroke="#E8E8E8"/>
<line x1="730.529" y1="104.504" x2="719.182" y2="110.856" stroke="#E8E8E8"/>
<line x1="731.647" y1="106.503" x2="720.3" y2="112.855" stroke="#E8E8E8"/>
<line x1="732.765" y1="108.502" x2="721.419" y2="114.855" stroke="#E8E8E8"/>
<line x1="733.885" y1="110.497" x2="722.538" y2="116.85" stroke="#E8E8E8"/>
<line x1="735.004" y1="112.496" x2="723.657" y2="118.849" stroke="#E8E8E8"/>
<line x1="736.123" y1="114.496" x2="724.776" y2="120.849" stroke="#E8E8E8"/>
<line x1="737.241" y1="116.493" x2="725.894" y2="122.846" stroke="#E8E8E8"/>
<line x1="738.36" y1="118.491" x2="727.013" y2="124.844" stroke="#E8E8E8"/>
<line x1="739.48" y1="120.492" x2="728.133" y2="126.845" stroke="#E8E8E8"/>
<line x1="740.599" y1="122.49" x2="729.252" y2="128.843" stroke="#E8E8E8"/>
<line x1="741.716" y1="124.487" x2="730.369" y2="130.84" stroke="#E8E8E8"/>
<line x1="742.837" y1="126.488" x2="731.49" y2="132.841" stroke="#E8E8E8"/>
<circle cx="709.888" cy="94.2588" r="2.77161" transform="rotate(150.757 709.888 94.2588)" fill="#E8E8E8"/>
<rect x="585.984" y="87.3379" width="9.39075" height="26.7636" transform="rotate(23.0252 585.984 87.3379)" fill="white"/>
<path d="M570.719 116.057L618.686 136.442L604.361 170.148L556.394 149.763L570.719 116.057Z" fill="white"/>
<path d="M605.354 101.184L618.749 136.722L570.472 116.205L605.354 101.184Z" fill="white"/>
<rect x="608.595" y="101.213" width="47.8928" height="4.22584" transform="rotate(158.025 608.595 101.213)" fill="#7D6549"/>
<rect x="607.116" y="97.3418" width="47.8928" height="4.22584" transform="rotate(68.0252 607.116 97.3418)" fill="#7D6549"/>
<rect x="575.052" y="122.008" width="16.3729" height="14.9643" rx="1.5" transform="rotate(23.0252 575.052 122.008)" fill="#FCFF6F" stroke="#7D6549"/>
<rect x="596.355" y="132.561" width="15.0252" height="31.459" transform="rotate(23.0252 596.355 132.561)" fill="#7D6549"/>
<line x1="582.842" y1="125.285" x2="577.149" y2="138.681" stroke="#7D6549"/>
<line x1="571.677" y1="128.672" x2="587.666" y2="135.467" stroke="#7D6549"/>
<rect x="590.543" y="147.436" width="2.81648" height="0.469413" transform="rotate(23.0252 590.543 147.436)" fill="#FFF59A"/>
<rect x="591.224" y="148.235" width="0.938826" height="1.40824" transform="rotate(23.0252 591.224 148.235)" fill="#FFF59A"/>
<rect x="596.658" y="130.652" width="15.9643" height="1.87815" transform="rotate(23.0252 596.658 130.652)" fill="#C4C4C4"/>
<rect x="585.92" y="86.2891" width="10.3283" height="2.81681" transform="rotate(23.0252 585.92 86.2891)" fill="#7D6549"/>
<rect x="568.661" y="134.568" width="18.312" height="2.81722" transform="rotate(23.0252 568.661 134.568)" fill="#C4C4C4"/>
<circle cx="445.892" cy="419.175" r="296.18" transform="rotate(11.5609 445.892 419.175)" fill="#95D855"/>
<g filter="url(#filter2_d)">
<rect x="383.593" y="136.538" width="0.990305" height="4.95153" transform="rotate(11.5609 383.593 136.538)" fill="#3B3B3B"/>
<rect x="391.357" y="138.127" width="0.990305" height="4.95153" transform="rotate(11.5609 391.357 138.127)" fill="#3B3B3B"/>
<path d="M384.11 129.063C383.836 130.403 382.528 131.267 381.188 130.993C379.848 130.719 378.984 129.41 379.258 128.07C379.532 126.73 380.841 125.866 382.181 126.14C383.52 126.414 384.384 127.723 384.11 129.063Z" fill="white"/>
<path d="M386.448 127.519C386.174 128.859 384.866 129.723 383.526 129.449C382.186 129.175 381.322 127.866 381.596 126.526C381.87 125.186 383.179 124.322 384.518 124.596C385.858 124.871 386.722 126.179 386.448 127.519Z" fill="white"/>
<path d="M386.625 131.599C386.351 132.939 385.042 133.803 383.702 133.529C382.362 133.255 381.498 131.947 381.772 130.607C382.047 129.267 383.355 128.403 384.695 128.677C386.035 128.951 386.899 130.259 386.625 131.599Z" fill="white"/>
<path d="M390.33 128.313C390.056 129.653 388.748 130.517 387.408 130.243C386.068 129.969 385.204 128.66 385.478 127.32C385.752 125.98 387.06 125.116 388.4 125.391C389.74 125.665 390.604 126.973 390.33 128.313Z" fill="white"/>
<path d="M387.794 130.827C387.52 132.167 386.211 133.031 384.871 132.757C383.531 132.483 382.667 131.175 382.941 129.835C383.215 128.495 384.524 127.631 385.864 127.905C387.204 128.179 388.068 129.487 387.794 130.827Z" fill="white"/>
<path d="M392.646 131.82C392.372 133.16 391.064 134.024 389.724 133.75C388.384 133.476 387.52 132.167 387.794 130.827C388.068 129.487 389.376 128.623 390.716 128.898C392.056 129.172 392.92 130.48 392.646 131.82Z" fill="white"/>
<path d="M394.014 130.078C393.74 131.418 392.431 132.282 391.091 132.007C389.751 131.733 388.887 130.425 389.161 129.085C389.435 127.745 390.744 126.881 392.084 127.155C393.424 127.429 394.288 128.738 394.014 130.078Z" fill="white"/>
<path d="M395.359 133.386C395.085 134.726 393.776 135.59 392.437 135.316C391.097 135.042 390.233 133.733 390.507 132.393C390.781 131.053 392.089 130.189 393.429 130.464C394.769 130.738 395.633 132.046 395.359 133.386Z" fill="white"/>
<path d="M391.852 135.702C391.578 137.042 390.27 137.906 388.93 137.632C387.59 137.358 386.726 136.049 387 134.709C387.274 133.369 388.582 132.505 389.922 132.779C391.262 133.053 392.126 134.362 391.852 135.702Z" fill="white"/>
<path d="M389.713 136.275C389.438 137.615 388.13 138.479 386.79 138.205C385.45 137.931 384.586 136.623 384.86 135.283C385.134 133.943 386.443 133.079 387.783 133.353C389.123 133.627 389.987 134.935 389.713 136.275Z" fill="white"/>
<path d="M393.396 138.04C393.122 139.38 391.813 140.244 390.473 139.97C389.134 139.696 388.269 138.387 388.544 137.047C388.818 135.707 390.126 134.843 391.466 135.117C392.806 135.391 393.67 136.7 393.396 138.04Z" fill="white"/>
<path d="M395.734 136.496C395.46 137.836 394.151 138.7 392.811 138.426C391.472 138.152 390.607 136.843 390.882 135.503C391.156 134.163 392.464 133.299 393.804 133.573C395.144 133.848 396.008 135.156 395.734 136.496Z" fill="white"/>
<path d="M397.498 132.813C397.224 134.153 395.916 135.017 394.576 134.742C393.236 134.468 392.372 133.16 392.646 131.82C392.92 130.48 394.229 129.616 395.569 129.89C396.909 130.164 397.773 131.473 397.498 132.813Z" fill="white"/>
<path d="M397.697 131.842C397.423 133.182 396.114 134.046 394.775 133.772C393.435 133.498 392.571 132.189 392.845 130.85C393.119 129.51 394.427 128.646 395.767 128.92C397.107 129.194 397.971 130.502 397.697 131.842Z" fill="white"/>
<path d="M399.042 135.151C398.768 136.491 397.46 137.355 396.12 137.08C394.78 136.806 393.916 135.498 394.19 134.158C394.464 132.818 395.773 131.954 397.112 132.228C398.452 132.502 399.316 133.811 399.042 135.151Z" fill="white"/>
<path d="M384.86 135.283C384.586 136.623 383.278 137.487 381.938 137.213C380.598 136.938 379.734 135.63 380.008 134.29C380.282 132.95 381.59 132.086 382.93 132.36C384.27 132.634 385.134 133.943 384.86 135.283Z" fill="white"/>
<path d="M390.11 134.334C389.836 135.674 388.527 136.538 387.187 136.264C385.847 135.99 384.983 134.682 385.257 133.342C385.531 132.002 386.84 131.138 388.18 131.412C389.52 131.686 390.384 132.994 390.11 134.334Z" fill="white"/>
<path d="M387 134.709C386.726 136.049 385.417 136.913 384.077 136.639C382.737 136.365 381.873 135.057 382.147 133.717C382.421 132.377 383.73 131.513 385.07 131.787C386.41 132.061 387.274 133.369 387 134.709Z" fill="white"/>
<path d="M383.316 132.945C383.042 134.285 381.734 135.149 380.394 134.875C379.054 134.601 378.19 133.292 378.464 131.952C378.738 130.612 380.046 129.748 381.386 130.022C382.726 130.296 383.59 131.605 383.316 132.945Z" fill="white"/>
<path d="M401.01 140.351C400.575 142.482 397.545 141.365 395.896 141.028C394.247 140.691 393.264 138.69 393.7 136.559C394.136 134.428 395.825 132.975 397.474 133.312C399.123 133.649 401.446 138.221 401.01 140.351Z" fill="#3C3C3C"/>
<rect x="381.453" y="137.114" width="0.990305" height="4.95153" transform="rotate(11.5609 381.453 137.114)" fill="#3B3B3B"/>
<rect x="389.217" y="138.701" width="0.990305" height="4.95153" transform="rotate(11.5609 389.217 138.701)" fill="#3B3B3B"/>
</g>
<g filter="url(#filter3_d)">
<rect x="317.276" y="606.183" width="0.990305" height="4.95153" transform="rotate(-132.431 317.276 606.183)" fill="#3B3B3B"/>
<rect x="311.929" y="600.334" width="0.990305" height="4.95153" transform="rotate(-132.431 311.929 600.334)" fill="#3B3B3B"/>
<path d="M312.463 611.926C313.472 611.003 315.039 611.073 315.961 612.083C316.884 613.092 316.814 614.659 315.804 615.581C314.795 616.504 313.229 616.434 312.306 615.424C311.383 614.415 311.453 612.848 312.463 611.926Z" fill="white"/>
<path d="M309.664 611.8C310.673 610.877 312.24 610.948 313.163 611.957C314.085 612.967 314.015 614.533 313.006 615.456C311.996 616.379 310.43 616.308 309.507 615.299C308.584 614.289 308.654 612.723 309.664 611.8Z" fill="white"/>
<path d="M311.92 608.396C312.93 607.473 314.496 607.543 315.419 608.553C316.341 609.562 316.271 611.129 315.262 612.051C314.252 612.974 312.686 612.904 311.763 611.894C310.84 610.885 310.911 609.318 311.92 608.396Z" fill="white"/>
<path d="M306.991 608.876C308 607.953 309.566 608.023 310.489 609.033C311.412 610.042 311.342 611.608 310.332 612.531C309.323 613.454 307.756 613.384 306.834 612.374C305.911 611.365 305.981 609.798 306.991 608.876Z" fill="white"/>
<path d="M310.521 608.333C311.53 607.41 313.096 607.48 314.019 608.49C314.942 609.499 314.872 611.066 313.862 611.988C312.853 612.911 311.286 612.841 310.364 611.832C309.441 610.822 309.511 609.256 310.521 608.333Z" fill="white"/>
<path d="M307.179 604.677C308.188 603.754 309.755 603.825 310.678 604.834C311.6 605.844 311.53 607.41 310.521 608.333C309.511 609.256 307.945 609.185 307.022 608.176C306.099 607.166 306.169 605.6 307.179 604.677Z" fill="white"/>
<path d="M305.048 605.283C306.058 604.36 307.624 604.43 308.547 605.44C309.47 606.449 309.399 608.016 308.39 608.938C307.38 609.861 305.814 609.791 304.891 608.781C303.969 607.772 304.039 606.206 305.048 605.283Z" fill="white"/>
<path d="M305.905 601.815C306.914 600.893 308.481 600.963 309.404 601.972C310.326 602.982 310.256 604.548 309.247 605.471C308.237 606.394 306.671 606.324 305.748 605.314C304.825 604.305 304.896 602.738 305.905 601.815Z" fill="white"/>
<path d="M310.103 602.004C311.113 601.081 312.679 601.151 313.602 602.161C314.525 603.17 314.455 604.737 313.445 605.659C312.436 606.582 310.869 606.512 309.946 605.503C309.024 604.493 309.094 602.927 310.103 602.004Z" fill="white"/>
<path d="M312.171 602.798C313.181 601.875 314.747 601.945 315.67 602.955C316.593 603.964 316.522 605.531 315.513 606.453C314.503 607.376 312.937 607.306 312.014 606.296C311.091 605.287 311.162 603.721 312.171 602.798Z" fill="white"/>
<path d="M310.229 599.205C311.238 598.282 312.805 598.352 313.728 599.362C314.65 600.371 314.58 601.938 313.571 602.861C312.561 603.783 310.995 603.713 310.072 602.704C309.149 601.694 309.219 600.128 310.229 599.205Z" fill="white"/>
<path d="M307.43 599.079C308.44 598.157 310.006 598.227 310.929 599.236C311.851 600.246 311.781 601.812 310.772 602.735C309.762 603.658 308.196 603.587 307.273 602.578C306.35 601.569 306.421 600.002 307.43 599.079Z" fill="white"/>
<path d="M303.837 601.022C304.847 600.099 306.413 600.169 307.336 601.179C308.259 602.188 308.188 603.754 307.179 604.677C306.169 605.6 304.603 605.53 303.68 604.52C302.757 603.511 302.828 601.944 303.837 601.022Z" fill="white"/>
<path d="M303.106 601.69C304.116 600.767 305.682 600.837 306.605 601.847C307.528 602.856 307.457 604.423 306.448 605.346C305.438 606.268 303.872 606.198 302.949 605.189C302.026 604.179 302.097 602.613 303.106 601.69Z" fill="white"/>
<path d="M303.963 598.223C304.972 597.3 306.539 597.37 307.461 598.38C308.384 599.389 308.314 600.955 307.304 601.878C306.295 602.801 304.729 602.731 303.806 601.721C302.883 600.712 302.953 599.145 303.963 598.223Z" fill="white"/>
<path d="M315.513 606.453C316.522 605.531 318.089 605.601 319.012 606.61C319.934 607.62 319.864 609.186 318.855 610.109C317.845 611.032 316.279 610.962 315.356 609.952C314.433 608.943 314.503 607.376 315.513 606.453Z" fill="white"/>
<path d="M310.709 604.134C311.718 603.212 313.285 603.282 314.208 604.291C315.13 605.301 315.06 606.867 314.051 607.79C313.041 608.713 311.475 608.643 310.552 607.633C309.629 606.624 309.699 605.057 310.709 604.134Z" fill="white"/>
<path d="M313.445 605.659C314.455 604.737 316.021 604.807 316.944 605.816C317.867 606.826 317.796 608.392 316.787 609.315C315.777 610.238 314.211 610.168 313.288 609.158C312.365 608.149 312.436 606.582 313.445 605.659Z" fill="white"/>
<path d="M315.387 609.252C316.397 608.33 317.963 608.4 318.886 609.409C319.809 610.419 319.738 611.985 318.729 612.908C317.72 613.831 316.153 613.76 315.23 612.751C314.308 611.742 314.378 610.175 315.387 609.252Z" fill="white"/>
<path d="M305.428 592.858C307.034 591.391 308.828 594.076 309.963 595.318C311.099 596.56 310.718 598.757 309.113 600.224C307.507 601.691 305.286 601.874 304.15 600.632C303.015 599.39 303.823 594.326 305.428 592.858Z" fill="#3C3C3C"/>
<rect x="319.346" y="606.975" width="0.990305" height="4.95153" transform="rotate(-132.431 319.346 606.975)" fill="#3B3B3B"/>
<rect x="313.998" y="601.127" width="0.990305" height="4.95153" transform="rotate(-132.431 313.998 601.127)" fill="#3B3B3B"/>
</g>
<g filter="url(#filter4_d)">
<rect width="0.90778" height="4.95153" transform="matrix(-0.979712 -0.200409 -0.200409 0.979712 438.397 156.788)" fill="#3B3B3B"/>
<rect width="0.90778" height="4.95153" transform="matrix(-0.979712 -0.200409 -0.200409 0.979712 431.279 155.33)" fill="#3B3B3B"/>
<path d="M440.776 149.689C440.502 151.029 441.275 152.319 442.503 152.57C443.732 152.821 444.95 151.939 445.224 150.599C445.498 149.259 444.724 147.969 443.496 147.717C442.268 147.466 441.05 148.349 440.776 149.689Z" fill="white"/>
<path d="M439.393 147.384C439.119 148.724 439.893 150.014 441.121 150.265C442.349 150.516 443.567 149.634 443.841 148.294C444.116 146.954 443.342 145.664 442.114 145.413C440.885 145.161 439.668 146.044 439.393 147.384Z" fill="white"/>
<path d="M437.71 151.084C437.436 152.424 438.209 153.714 439.437 153.965C440.666 154.216 441.884 153.334 442.158 151.994C442.432 150.654 441.658 149.364 440.43 149.112C439.202 148.861 437.984 149.744 437.71 151.084Z" fill="white"/>
<path d="M435.835 146.656C435.561 147.996 436.334 149.286 437.563 149.537C438.791 149.788 440.009 148.906 440.283 147.566C440.557 146.226 439.784 144.936 438.555 144.685C437.327 144.433 436.109 145.316 435.835 146.656Z" fill="white"/>
<path d="M437.019 149.931C436.745 151.271 437.518 152.561 438.746 152.812C439.975 153.064 441.193 152.181 441.467 150.841C441.741 149.501 440.967 148.211 439.739 147.96C438.511 147.709 437.293 148.591 437.019 149.931Z" fill="white"/>
<path d="M432.571 149.021C432.297 150.361 433.07 151.651 434.298 151.902C435.527 152.154 436.745 151.271 437.019 149.931C437.293 148.591 436.519 147.301 435.291 147.05C434.063 146.799 432.845 147.681 432.571 149.021Z" fill="white"/>
<path d="M432.078 146.898C431.804 148.238 432.578 149.528 433.806 149.78C435.034 150.031 436.252 149.148 436.526 147.808C436.8 146.468 436.027 145.178 434.798 144.927C433.57 144.676 432.352 145.559 432.078 146.898Z" fill="white"/>
<path d="M429.703 149.446C429.429 150.786 430.203 152.076 431.431 152.327C432.659 152.578 433.877 151.696 434.151 150.356C434.425 149.016 433.652 147.726 432.424 147.475C431.195 147.223 429.977 148.106 429.703 149.446Z" fill="white"/>
<path d="M431.777 152.903C431.503 154.243 432.276 155.533 433.504 155.784C434.733 156.036 435.951 155.153 436.225 153.813C436.499 152.473 435.725 151.183 434.497 150.932C433.269 150.681 432.051 151.563 431.777 152.903Z" fill="white"/>
<path d="M433.357 154.238C433.083 155.578 433.857 156.868 435.085 157.119C436.313 157.37 437.531 156.488 437.805 155.148C438.079 153.808 437.306 152.518 436.078 152.266C434.849 152.015 433.631 152.898 433.357 154.238Z" fill="white"/>
<path d="M429.6 154.48C429.326 155.82 430.1 157.11 431.328 157.361C432.556 157.613 433.774 156.73 434.048 155.39C434.322 154.05 433.549 152.76 432.321 152.509C431.092 152.258 429.874 153.14 429.6 154.48Z" fill="white"/>
<path d="M428.218 152.175C427.944 153.515 428.718 154.805 429.946 155.056C431.174 155.308 432.392 154.425 432.666 153.085C432.94 151.745 432.167 150.455 430.939 150.204C429.71 149.953 428.492 150.835 428.218 152.175Z" fill="white"/>
<path d="M428.123 148.112C427.849 149.451 428.622 150.741 429.85 150.993C431.079 151.244 432.297 150.361 432.571 149.021C432.845 147.681 432.071 146.392 430.843 146.14C429.615 145.889 428.397 146.772 428.123 148.112Z" fill="white"/>
<path d="M428.321 147.141C428.047 148.481 428.821 149.771 430.049 150.022C431.277 150.273 432.495 149.391 432.769 148.051C433.043 146.711 432.27 145.421 431.042 145.17C429.813 144.919 428.595 145.801 428.321 147.141Z" fill="white"/>
<path d="M425.946 149.688C425.672 151.028 426.446 152.318 427.674 152.57C428.902 152.821 430.12 151.938 430.394 150.598C430.669 149.258 429.895 147.969 428.667 147.717C427.438 147.466 426.221 148.349 425.946 149.688Z" fill="white"/>
<path d="M437.805 155.148C437.531 156.488 438.305 157.777 439.533 158.029C440.761 158.28 441.979 157.397 442.253 156.057C442.527 154.718 441.754 153.428 440.526 153.176C439.297 152.925 438.079 153.808 437.805 155.148Z" fill="white"/>
<path d="M433.754 152.297C433.48 153.637 434.254 154.927 435.482 155.178C436.71 155.429 437.928 154.547 438.202 153.207C438.476 151.867 437.703 150.577 436.475 150.326C435.246 150.074 434.028 150.957 433.754 152.297Z" fill="white"/>
<path d="M436.225 153.813C435.951 155.153 436.724 156.443 437.952 156.694C439.181 156.946 440.399 156.063 440.673 154.723C440.947 153.383 440.173 152.093 438.945 151.842C437.717 151.591 436.499 152.473 436.225 153.813Z" fill="white"/>
<path d="M439.982 153.571C439.707 154.911 440.481 156.2 441.709 156.452C442.938 156.703 444.155 155.82 444.43 154.48C444.704 153.141 443.93 151.851 442.702 151.599C441.474 151.348 440.256 152.231 439.982 153.571Z" fill="white"/>
<path d="M422.337 153.755C421.901 155.885 424.865 155.995 426.377 156.304C427.888 156.613 429.467 155.136 429.902 153.005C430.338 150.875 429.466 148.897 427.955 148.588C426.444 148.279 422.772 151.624 422.337 153.755Z" fill="#3C3C3C"/>
<rect width="0.90778" height="4.95153" transform="matrix(-0.979712 -0.200409 -0.200409 0.979712 439.977 158.12)" fill="#3B3B3B"/>
<rect width="0.90778" height="4.95153" transform="matrix(-0.979712 -0.200409 -0.200409 0.979712 432.86 156.663)" fill="#3B3B3B"/>
</g>
<g filter="url(#filter5_d)">
<rect width="0.90778" height="4.95153" transform="matrix(0.281727 0.959495 0.959495 -0.281727 269.56 568.469)" fill="#3B3B3B"/>
<rect width="0.90778" height="4.95153" transform="matrix(0.281727 0.959495 0.959495 -0.281727 271.605 575.44)" fill="#3B3B3B"/>
<path d="M262.174 569.691C263.486 569.306 264.263 568.018 263.91 566.815C263.557 565.613 262.207 564.95 260.895 565.335C259.582 565.72 258.805 567.008 259.158 568.211C259.511 569.414 260.861 570.077 262.174 569.691Z" fill="white"/>
<path d="M260.784 571.992C262.097 571.607 262.874 570.319 262.521 569.116C262.168 567.913 260.818 567.25 259.505 567.636C258.193 568.021 257.416 569.308 257.769 570.511C258.122 571.714 259.472 572.377 260.784 571.992Z" fill="white"/>
<path d="M264.842 571.747C266.154 571.361 266.932 570.074 266.579 568.871C266.225 567.668 264.875 567.005 263.563 567.391C262.251 567.776 261.473 569.063 261.826 570.266C262.18 571.469 263.53 572.132 264.842 571.747Z" fill="white"/>
<path d="M261.808 575.477C263.12 575.091 263.897 573.804 263.544 572.601C263.191 571.398 261.841 570.735 260.529 571.121C259.216 571.506 258.439 572.793 258.792 573.996C259.145 575.199 260.495 575.862 261.808 575.477Z" fill="white"/>
<path d="M264.147 572.897C265.46 572.512 266.237 571.224 265.884 570.021C265.531 568.818 264.181 568.156 262.868 568.541C261.556 568.926 260.778 570.214 261.132 571.417C261.485 572.62 262.835 573.282 264.147 572.897Z" fill="white"/>
<path d="M265.426 577.253C266.739 576.868 267.516 575.58 267.163 574.378C266.81 573.175 265.46 572.512 264.147 572.897C262.835 573.282 262.058 574.57 262.411 575.773C262.764 576.976 264.114 577.639 265.426 577.253Z" fill="white"/>
<path d="M263.781 578.683C265.094 578.297 265.871 577.01 265.518 575.807C265.165 574.604 263.815 573.941 262.502 574.326C261.19 574.712 260.412 575.999 260.766 577.202C261.119 578.405 262.469 579.068 263.781 578.683Z" fill="white"/>
<path d="M267.144 579.588C268.457 579.203 269.234 577.915 268.881 576.712C268.528 575.509 267.177 574.846 265.865 575.232C264.553 575.617 263.775 576.905 264.129 578.108C264.482 579.31 265.832 579.973 267.144 579.588Z" fill="white"/>
<path d="M269.228 576.137C270.54 575.752 271.318 574.464 270.965 573.261C270.612 572.058 269.261 571.396 267.949 571.781C266.637 572.166 265.859 573.454 266.213 574.657C266.566 575.86 267.916 576.522 269.228 576.137Z" fill="white"/>
<path d="M269.667 574.115C270.979 573.73 271.757 572.443 271.404 571.24C271.05 570.037 269.7 569.374 268.388 569.759C267.076 570.145 266.298 571.432 266.651 572.635C267.005 573.838 268.355 574.501 269.667 574.115Z" fill="white"/>
<path d="M271.641 577.321C272.953 576.936 273.73 575.649 273.377 574.446C273.024 573.243 271.674 572.58 270.362 572.965C269.049 573.35 268.272 574.638 268.625 575.841C268.978 577.044 270.328 577.707 271.641 577.321Z" fill="white"/>
<path d="M270.251 579.622C271.564 579.237 272.341 577.949 271.988 576.746C271.635 575.543 270.285 574.88 268.972 575.266C267.66 575.651 266.883 576.939 267.236 578.142C267.589 579.345 268.939 580.007 270.251 579.622Z" fill="white"/>
<path d="M266.705 581.61C268.018 581.224 268.795 579.937 268.442 578.734C268.089 577.531 266.739 576.868 265.426 577.253C264.114 577.639 263.337 578.926 263.69 580.129C264.043 581.332 265.393 581.995 266.705 581.61Z" fill="white"/>
<path d="M265.755 581.889C267.067 581.503 267.845 580.216 267.492 579.013C267.138 577.81 265.788 577.147 264.476 577.532C263.164 577.918 262.386 579.205 262.739 580.408C263.093 581.611 264.443 582.274 265.755 581.889Z" fill="white"/>
<path d="M269.118 582.794C270.43 582.409 271.208 581.121 270.855 579.918C270.501 578.715 269.151 578.052 267.839 578.438C266.527 578.823 265.749 580.11 266.102 581.313C266.456 582.516 267.806 583.179 269.118 582.794Z" fill="white"/>
<path d="M268.388 569.759C269.7 569.374 270.478 568.086 270.124 566.884C269.771 565.681 268.421 565.018 267.109 565.403C265.797 565.788 265.019 567.076 265.372 568.279C265.725 569.482 267.076 570.145 268.388 569.759Z" fill="white"/>
<path d="M267.766 574.674C269.078 574.288 269.856 573.001 269.503 571.798C269.149 570.595 267.799 569.932 266.487 570.317C265.175 570.703 264.397 571.99 264.75 573.193C265.104 574.396 266.454 575.059 267.766 574.674Z" fill="white"/>
<path d="M267.949 571.781C269.261 571.396 270.039 570.108 269.686 568.905C269.332 567.702 267.982 567.039 266.67 567.425C265.358 567.81 264.58 569.097 264.933 570.3C265.287 571.503 266.637 572.166 267.949 571.781Z" fill="white"/>
<path d="M265.975 568.575C267.288 568.19 268.065 566.902 267.712 565.699C267.359 564.496 266.009 563.833 264.696 564.219C263.384 564.604 262.607 565.892 262.96 567.095C263.313 568.297 264.663 568.96 265.975 568.575Z" fill="white"/>
<path d="M274.401 584.079C276.488 583.466 275.196 580.796 274.761 579.316C274.327 577.836 272.283 577.132 270.196 577.745C268.109 578.358 266.77 580.054 267.205 581.535C267.639 583.015 272.314 584.692 274.401 584.079Z" fill="#3C3C3C"/>
<rect width="0.90778" height="4.95153" transform="matrix(0.281727 0.959495 0.959495 -0.281727 269.997 566.448)" fill="#3B3B3B"/>
<rect width="0.90778" height="4.95153" transform="matrix(0.281727 0.959495 0.959495 -0.281727 272.043 573.419)" fill="#3B3B3B"/>
</g>
<g filter="url(#filter6_d)">
<rect width="0.90778" height="4.95153" transform="matrix(0.23605 0.971741 0.971741 -0.23605 261.887 520.48)" fill="#3B3B3B"/>
<rect width="0.90778" height="4.95153" transform="matrix(0.23605 0.971741 0.971741 -0.23605 263.6 527.542)" fill="#3B3B3B"/>
<path d="M254.451 521.353C255.78 521.03 256.618 519.781 256.322 518.562C256.026 517.344 254.709 516.618 253.38 516.941C252.051 517.264 251.213 518.513 251.509 519.731C251.805 520.95 253.122 521.676 254.451 521.353Z" fill="white"/>
<path d="M252.955 523.585C254.284 523.262 255.121 522.013 254.825 520.795C254.529 519.576 253.212 518.85 251.883 519.173C250.554 519.496 249.717 520.746 250.012 521.964C250.308 523.182 251.626 523.908 252.955 523.585Z" fill="white"/>
<path d="M257.019 523.532C258.348 523.209 259.186 521.96 258.89 520.742C258.594 519.523 257.277 518.798 255.948 519.12C254.619 519.443 253.781 520.693 254.077 521.911C254.373 523.129 255.69 523.855 257.019 523.532Z" fill="white"/>
<path d="M253.812 527.115C255.141 526.792 255.979 525.542 255.683 524.324C255.387 523.106 254.069 522.38 252.74 522.703C251.411 523.026 250.574 524.275 250.87 525.493C251.166 526.712 252.483 527.437 253.812 527.115Z" fill="white"/>
<path d="M256.271 524.648C257.6 524.326 258.438 523.076 258.142 521.858C257.846 520.64 256.529 519.914 255.199 520.237C253.87 520.559 253.033 521.809 253.329 523.027C253.625 524.245 254.942 524.971 256.271 524.648Z" fill="white"/>
<path d="M257.343 529.06C258.672 528.737 259.509 527.488 259.213 526.27C258.918 525.051 257.6 524.326 256.271 524.648C254.942 524.971 254.105 526.221 254.401 527.439C254.697 528.657 256.014 529.383 257.343 529.06Z" fill="white"/>
<path d="M255.632 530.41C256.961 530.087 257.799 528.838 257.503 527.62C257.207 526.401 255.889 525.676 254.56 525.998C253.231 526.321 252.394 527.571 252.69 528.789C252.986 530.007 254.303 530.733 255.632 530.41Z" fill="white"/>
<path d="M258.948 531.473C260.277 531.151 261.115 529.901 260.819 528.683C260.523 527.465 259.206 526.739 257.877 527.062C256.548 527.384 255.71 528.634 256.006 529.852C256.302 531.07 257.619 531.796 258.948 531.473Z" fill="white"/>
<path d="M261.193 528.125C262.522 527.802 263.36 526.553 263.064 525.334C262.768 524.116 261.451 523.39 260.121 523.713C258.792 524.036 257.955 525.285 258.251 526.504C258.547 527.722 259.864 528.448 261.193 528.125Z" fill="white"/>
<path d="M261.727 526.126C263.056 525.804 263.894 524.554 263.598 523.336C263.302 522.118 261.984 521.392 260.655 521.715C259.326 522.037 258.489 523.287 258.785 524.505C259.081 525.723 260.398 526.449 261.727 526.126Z" fill="white"/>
<path d="M263.547 529.422C264.876 529.099 265.714 527.85 265.418 526.632C265.122 525.413 263.804 524.687 262.475 525.01C261.146 525.333 260.309 526.582 260.605 527.801C260.901 529.019 262.218 529.745 263.547 529.422Z" fill="white"/>
<path d="M262.051 531.654C263.38 531.331 264.217 530.082 263.921 528.864C263.625 527.646 262.308 526.92 260.979 527.243C259.65 527.565 258.812 528.815 259.108 530.033C259.404 531.251 260.721 531.977 262.051 531.654Z" fill="white"/>
<path d="M258.415 533.472C259.744 533.149 260.581 531.9 260.285 530.682C259.989 529.463 258.672 528.737 257.343 529.06C256.014 529.383 255.176 530.632 255.472 531.851C255.768 533.069 257.086 533.795 258.415 533.472Z" fill="white"/>
<path d="M257.452 533.706C258.781 533.383 259.619 532.134 259.323 530.915C259.027 529.697 257.709 528.971 256.38 529.294C255.051 529.617 254.214 530.866 254.51 532.084C254.806 533.303 256.123 534.029 257.452 533.706Z" fill="white"/>
<path d="M260.768 534.769C262.097 534.446 262.935 533.197 262.639 531.979C262.343 530.76 261.026 530.034 259.697 530.357C258.368 530.68 257.53 531.929 257.826 533.148C258.122 534.366 259.439 535.092 260.768 534.769Z" fill="white"/>
<path d="M260.655 521.715C261.984 521.392 262.822 520.142 262.526 518.924C262.23 517.706 260.913 516.98 259.584 517.303C258.255 517.626 257.417 518.875 257.713 520.093C258.009 521.311 259.326 522.037 260.655 521.715Z" fill="white"/>
<path d="M259.802 526.594C261.131 526.271 261.968 525.022 261.673 523.804C261.377 522.585 260.059 521.859 258.73 522.182C257.401 522.505 256.564 523.754 256.86 524.973C257.156 526.191 258.473 526.917 259.802 526.594Z" fill="white"/>
<path d="M260.121 523.713C261.451 523.39 262.288 522.141 261.992 520.923C261.696 519.704 260.379 518.978 259.05 519.301C257.721 519.624 256.883 520.873 257.179 522.092C257.475 523.31 258.792 524.036 260.121 523.713Z" fill="white"/>
<path d="M258.302 520.417C259.631 520.095 260.468 518.845 260.172 517.627C259.876 516.409 258.559 515.683 257.23 516.006C255.901 516.329 255.063 517.578 255.359 518.796C255.655 520.014 256.973 520.74 258.302 520.417Z" fill="white"/>
<path d="M265.985 536.302C268.098 535.789 266.934 533.06 266.57 531.561C266.206 530.062 264.197 529.263 262.084 529.777C259.97 530.29 258.552 531.921 258.917 533.42C259.281 534.919 263.871 536.816 265.985 536.302Z" fill="#3C3C3C"/>
<rect width="0.90778" height="4.95153" transform="matrix(0.23605 0.971741 0.971741 -0.23605 262.419 518.483)" fill="#3B3B3B"/>
<rect width="0.90778" height="4.95153" transform="matrix(0.23605 0.971741 0.971741 -0.23605 264.133 525.543)" fill="#3B3B3B"/>
</g>
<g filter="url(#filter7_d)">
<rect x="386.591" y="164.554" width="1.0141" height="4.95153" transform="rotate(2.89024 386.591 164.554)" fill="#3B3B3B"/>
<rect x="394.911" y="166.063" width="1.0141" height="4.95153" transform="rotate(10.9378 394.911 166.063)" fill="#3B3B3B"/>
<path d="M387.358 157.035C387.098 158.378 385.773 159.251 384.398 158.985C383.023 158.72 382.119 157.416 382.378 156.073C382.638 154.73 383.963 153.857 385.338 154.123C386.713 154.388 387.617 155.692 387.358 157.035Z" fill="white"/>
<path d="M389.725 155.475C389.466 156.818 388.141 157.691 386.766 157.425C385.391 157.159 384.486 155.855 384.746 154.513C385.005 153.17 386.33 152.297 387.705 152.562C389.08 152.828 389.985 154.132 389.725 155.475Z" fill="white"/>
<path d="M389.969 159.558C389.71 160.9 388.385 161.774 387.01 161.508C385.635 161.242 384.73 159.938 384.99 158.595C385.25 157.253 386.575 156.379 387.95 156.645C389.325 156.911 390.229 158.215 389.969 159.558Z" fill="white"/>
<path d="M393.709 156.245C393.449 157.588 392.124 158.461 390.749 158.195C389.374 157.929 388.47 156.625 388.729 155.282C388.989 153.94 390.314 153.066 391.689 153.332C393.064 153.598 393.968 154.902 393.709 156.245Z" fill="white"/>
<path d="M391.153 158.778C390.894 160.12 389.569 160.994 388.194 160.728C386.819 160.462 385.914 159.158 386.174 157.815C386.433 156.472 387.758 155.599 389.133 155.865C390.508 156.131 391.413 157.435 391.153 158.778Z" fill="white"/>
<path d="M396.132 159.74C395.873 161.083 394.548 161.956 393.173 161.69C391.798 161.424 390.894 160.12 391.153 158.778C391.413 157.435 392.738 156.561 394.113 156.827C395.488 157.093 396.392 158.397 396.132 159.74Z" fill="white"/>
<path d="M397.504 157.987C397.245 159.33 395.92 160.203 394.545 159.937C393.17 159.672 392.265 158.368 392.525 157.025C392.784 155.682 394.109 154.809 395.484 155.075C396.859 155.34 397.764 156.644 397.504 157.987Z" fill="white"/>
<path d="M398.932 161.29C398.672 162.633 397.347 163.506 395.972 163.24C394.597 162.974 393.693 161.67 393.953 160.327C394.212 158.985 395.537 158.111 396.912 158.377C398.287 158.643 399.191 159.947 398.932 161.29Z" fill="white"/>
<path d="M395.381 163.63C395.121 164.973 393.796 165.846 392.421 165.58C391.046 165.315 390.142 164.011 390.401 162.668C390.661 161.325 391.986 160.452 393.361 160.718C394.736 160.983 395.64 162.287 395.381 163.63Z" fill="white"/>
<path d="M393.201 164.218C392.941 165.561 391.616 166.434 390.241 166.168C388.866 165.902 387.962 164.598 388.222 163.255C388.481 161.913 389.806 161.039 391.181 161.305C392.556 161.571 393.46 162.875 393.201 164.218Z" fill="white"/>
<path d="M396.996 165.96C396.737 167.303 395.412 168.176 394.037 167.91C392.662 167.645 391.758 166.341 392.017 164.998C392.277 163.655 393.602 162.782 394.977 163.048C396.352 163.313 397.256 164.617 396.996 165.96Z" fill="white"/>
<path d="M399.364 164.4C399.104 165.743 397.779 166.616 396.404 166.35C395.029 166.084 394.125 164.78 394.385 163.438C394.644 162.095 395.969 161.222 397.344 161.487C398.719 161.753 399.623 163.057 399.364 164.4Z" fill="white"/>
<path d="M401.112 160.702C400.852 162.045 399.527 162.918 398.152 162.652C396.777 162.387 395.873 161.083 396.132 159.74C396.392 158.397 397.717 157.524 399.092 157.789C400.467 158.055 401.371 159.359 401.112 160.702Z" fill="white"/>
<path d="M401.3 159.729C401.04 161.072 399.715 161.945 398.34 161.68C396.965 161.414 396.061 160.11 396.32 158.767C396.58 157.424 397.905 156.551 399.28 156.817C400.655 157.083 401.559 158.387 401.3 159.729Z" fill="white"/>
<path d="M402.727 163.032C402.468 164.375 401.143 165.248 399.768 164.982C398.393 164.717 397.489 163.413 397.748 162.07C398.008 160.727 399.333 159.854 400.708 160.12C402.083 160.385 402.987 161.689 402.727 163.032Z" fill="white"/>
<path d="M388.222 163.255C387.962 164.598 386.637 165.471 385.262 165.206C383.887 164.94 382.983 163.636 383.242 162.293C383.502 160.95 384.827 160.077 386.202 160.343C387.577 160.609 388.481 161.913 388.222 163.255Z" fill="white"/>
<path d="M393.577 162.273C393.317 163.615 391.992 164.489 390.617 164.223C389.242 163.957 388.338 162.653 388.598 161.31C388.857 159.967 390.182 159.094 391.557 159.36C392.932 159.626 393.836 160.93 393.577 162.273Z" fill="white"/>
<path d="M390.401 162.668C390.142 164.011 388.817 164.884 387.442 164.618C386.067 164.352 385.162 163.048 385.422 161.706C385.682 160.363 387.007 159.49 388.382 159.755C389.757 160.021 390.661 161.325 390.401 162.668Z" fill="white"/>
<path d="M386.606 160.925C386.346 162.268 385.021 163.141 383.646 162.876C382.271 162.61 381.367 161.306 381.627 159.963C381.886 158.62 383.211 157.747 384.586 158.013C385.961 158.279 386.865 159.583 386.606 160.925Z" fill="white"/>
<path d="M402.666 171.768C401.398 173.535 399.026 171.233 397.626 170.229C396.226 169.224 396.119 166.977 397.387 165.21C398.655 163.443 400.818 162.825 402.218 163.83C403.618 164.835 403.934 170.001 402.666 171.768Z" fill="#3C3C3C"/>
<rect x="384.468" y="163.981" width="1.0141" height="4.95153" transform="rotate(21.7528 384.468 163.981)" fill="#3B3B3B"/>
<rect x="393.054" y="166.666" width="1.0141" height="4.95153" transform="rotate(18.2418 393.054 166.666)" fill="#3B3B3B"/>
</g>
<g filter="url(#filter8_d)">
<rect x="325.149" y="575.739" width="1.0141" height="4.95153" transform="rotate(-141.102 325.149 575.739)" fill="#3B3B3B"/>
<rect x="319.306" y="569.626" width="1.0141" height="4.95153" transform="rotate(-133.054 319.306 569.626)" fill="#3B3B3B"/>
<path d="M320.109 581.37C321.108 580.437 322.693 580.509 323.649 581.533C324.605 582.556 324.57 584.142 323.571 585.076C322.571 586.01 320.986 585.937 320.03 584.914C319.074 583.89 319.109 582.304 320.109 581.37Z" fill="white"/>
<path d="M317.276 581.241C318.275 580.307 319.861 580.379 320.817 581.403C321.773 582.426 321.738 584.013 320.738 584.946C319.739 585.88 318.154 585.807 317.198 584.784C316.242 583.761 316.277 582.174 317.276 581.241Z" fill="white"/>
<path d="M319.479 577.794C320.478 576.861 322.063 576.933 323.02 577.957C323.976 578.98 323.94 580.566 322.941 581.5C321.942 582.434 320.357 582.361 319.4 581.338C318.444 580.315 318.48 578.728 319.479 577.794Z" fill="white"/>
<path d="M314.506 578.276C315.506 577.342 317.091 577.415 318.047 578.438C319.003 579.461 318.968 581.048 317.969 581.982C316.969 582.915 315.384 582.843 314.428 581.819C313.472 580.796 313.507 579.21 314.506 578.276Z" fill="white"/>
<path d="M318.063 577.729C319.062 576.796 320.647 576.868 321.603 577.892C322.559 578.915 322.524 580.501 321.525 581.435C320.525 582.369 318.94 582.296 317.984 581.273C317.028 580.25 317.063 578.663 318.063 577.729Z" fill="white"/>
<path d="M314.6 574.024C315.6 573.09 317.185 573.163 318.141 574.186C319.097 575.209 319.062 576.796 318.063 577.729C317.063 578.663 315.478 578.591 314.522 577.567C313.566 576.544 313.601 574.957 314.6 574.024Z" fill="white"/>
<path d="M312.46 574.635C313.46 573.701 315.045 573.774 316.001 574.797C316.957 575.821 316.922 577.407 315.923 578.341C314.923 579.275 313.338 579.202 312.382 578.179C311.426 577.155 311.461 575.569 312.46 574.635Z" fill="white"/>
<path d="M313.247 571.124C314.246 570.19 315.832 570.263 316.788 571.286C317.744 572.31 317.709 573.896 316.709 574.83C315.71 575.763 314.125 575.691 313.169 574.668C312.212 573.644 312.248 572.058 313.247 571.124Z" fill="white"/>
<path d="M317.496 571.319C318.495 570.385 320.08 570.458 321.036 571.481C321.992 572.504 321.957 574.091 320.958 575.024C319.959 575.958 318.373 575.886 317.417 574.862C316.461 573.839 316.496 572.252 317.496 571.319Z" fill="white"/>
<path d="M319.604 572.125C320.604 571.191 322.189 571.264 323.145 572.287C324.101 573.31 324.066 574.897 323.067 575.831C322.067 576.764 320.482 576.692 319.526 575.668C318.57 574.645 318.605 573.058 319.604 572.125Z" fill="white"/>
<path d="M317.558 568.484C318.558 567.55 320.143 567.623 321.099 568.646C322.055 569.669 322.02 571.256 321.021 572.19C320.021 573.123 318.436 573.051 317.48 572.027C316.524 571.004 316.559 569.418 317.558 568.484Z" fill="white"/>
<path d="M314.726 568.354C315.725 567.42 317.311 567.493 318.267 568.516C319.223 569.54 319.188 571.126 318.188 572.06C317.189 572.994 315.604 572.921 314.648 571.898C313.691 570.874 313.727 569.288 314.726 568.354Z" fill="white"/>
<path d="M311.138 570.318C312.138 569.384 313.723 569.457 314.679 570.48C315.635 571.504 315.6 573.09 314.6 574.024C313.601 574.957 312.016 574.885 311.06 573.862C310.104 572.838 310.139 571.252 311.138 570.318Z" fill="white"/>
<path d="M310.414 570.994C311.414 570.061 312.999 570.133 313.955 571.157C314.911 572.18 314.876 573.766 313.877 574.7C312.877 575.634 311.292 575.561 310.336 574.538C309.38 573.514 309.415 571.928 310.414 570.994Z" fill="white"/>
<path d="M311.201 567.483C312.2 566.55 313.786 566.622 314.742 567.645C315.698 568.669 315.663 570.255 314.663 571.189C313.664 572.123 312.079 572.05 311.123 571.027C310.167 570.003 310.202 568.417 311.201 567.483Z" fill="white"/>
<path d="M323.067 575.831C324.066 574.897 325.651 574.969 326.607 575.993C327.563 577.016 327.528 578.603 326.529 579.536C325.529 580.47 323.944 580.397 322.988 579.374C322.032 578.351 322.067 576.764 323.067 575.831Z" fill="white"/>
<path d="M318.157 573.477C319.156 572.544 320.741 572.616 321.697 573.64C322.653 574.663 322.618 576.249 321.619 577.183C320.62 578.117 319.034 578.044 318.078 577.021C317.122 575.997 317.157 574.411 318.157 573.477Z" fill="white"/>
<path d="M320.958 575.024C321.957 574.091 323.542 574.163 324.499 575.187C325.455 576.21 325.419 577.796 324.42 578.73C323.421 579.664 321.836 579.591 320.879 578.568C319.923 577.545 319.959 575.958 320.958 575.024Z" fill="white"/>
<path d="M323.004 578.665C324.003 577.732 325.588 577.804 326.544 578.828C327.501 579.851 327.465 581.437 326.466 582.371C325.467 583.305 323.881 583.232 322.925 582.209C321.969 581.185 322.004 579.599 323.004 578.665Z" fill="white"/>
<path d="M316.387 560.452C318.451 559.769 319.017 563.025 319.559 564.661C320.101 566.297 318.867 568.177 316.802 568.861C314.737 569.545 312.625 568.773 312.083 567.138C311.541 565.502 314.322 561.136 316.387 560.452Z" fill="#3C3C3C"/>
<rect x="326.53" y="577.45" width="1.0141" height="4.95153" transform="rotate(-122.239 326.53 577.45)" fill="#3B3B3B"/>
<rect x="321.162" y="570.23" width="1.0141" height="4.95153" transform="rotate(-125.75 321.162 570.23)" fill="#3B3B3B"/>
</g>
<path d="M540.043 700.121C712.319 561.383 645.543 208.121 514.862 130.764L503.043 128.12C591.548 198.397 680.968 591.188 389.043 709.621C408.543 715.121 470.543 723.121 540.043 700.121Z" fill="#F4F4F4"/>
<circle cx="430.519" cy="60.3424" r="12.8774" transform="rotate(24.7927 430.519 60.3424)" fill="#BEFF7E"/>
<circle cx="437.997" cy="44.1559" r="12.8774" transform="rotate(24.7927 437.997 44.1559)" fill="#BEFF7E"/>
<circle cx="426.165" cy="48.5125" r="8.91511" transform="rotate(24.7927 426.165 48.5125)" fill="#BEFF7E"/>
<circle cx="452.731" cy="47.6889" r="6.93398" transform="rotate(24.7927 452.731 47.6889)" fill="#BEFF7E"/>
<circle cx="450.861" cy="58.8258" r="12.8774" transform="rotate(24.7927 450.861 58.8258)" fill="#BEFF7E"/>
<path d="M430.421 60.5547L441.306 72.2121L450.072 62.1746L442.526 74.0603L451.647 124.843L443.779 125.792L440.56 74.2976L430.421 60.5547Z" fill="#BF3F3F"/>
<path d="M316.033 189.997C294.491 205.951 256.394 213.39 246.463 199.981C246.463 199.981 267.357 180.569 291.607 166.131C327.828 144.565 344.861 140.886 344.812 141.082C354.743 154.491 337.575 174.042 316.033 189.997Z" fill="#4BB7FF"/>
<path d="M321.146 144.422L325.096 147.662L323.01 148.594L320.924 149.526L321.146 144.422Z" fill="#F2E1E1"/>
<path d="M315.358 150.512L323.429 148.408L329.059 143.64L329.232 148.273L319.936 152.806L315.358 150.512Z" fill="white"/>
<path d="M315.494 152.253L319.444 155.493L317.358 156.425L315.272 157.357L315.494 152.253Z" fill="#F2E1E1"/>
<path d="M309.705 158.343L317.776 156.239L323.406 151.471L323.579 156.104L314.283 160.637L309.705 158.343Z" fill="white"/>
<path d="M714.016 259.49L730.778 257.872C732.393 259.034 732.075 259.68 731.064 260.83L714.302 262.448L714.016 259.49Z" fill="#7E7E7E"/>
<path d="M721.088 228.58C723.211 227.222 724.678 229.695 725.469 232.135C724.186 231.873 725.093 233.389 723.81 233.128L722.449 230.854L692.594 248.725L691.233 246.451L721.088 228.58Z" fill="#747474"/>
<path d="M700.942 220.892C705.094 218.497 707.333 223.154 709.795 227.267L718.866 242.42C720.154 244.572 718.833 247.341 716.349 247.694V247.694C713.866 248.046 712.545 250.816 713.833 252.968L716.597 257.585C718.06 260.03 720.846 261.359 723.667 260.959L724.13 260.893C727.342 260.437 730.502 262.019 732.104 264.841C733.318 266.98 734.479 269.01 735.328 270.586C737.334 274.309 731.286 272.474 727.557 274.47L720.014 278.509C715.779 280.776 710.511 279.319 708.044 275.197L687.106 240.219C684.76 236.298 685.723 231.214 689.423 228.534C694.406 224.926 698.194 222.478 700.942 220.892Z" fill="#FF4848"/>
<circle cx="688.316" cy="243.665" r="5.1208" transform="rotate(59.096 688.316 243.665)" fill="#1C1D1D"/>
<circle cx="688.057" cy="243.385" r="3.4947" transform="rotate(59.096 688.057 243.385)" fill="#7B7B7B"/>
<circle cx="716.495" cy="276.855" r="12.0357" transform="rotate(59.096 716.495 276.855)" fill="#1C1D1D"/>
<circle cx="716.232" cy="276.051" r="8.34521" transform="rotate(59.096 716.232 276.051)" fill="#7B7B7B"/>
<path d="M727.913 267.321C729.57 271.6 731.468 273.791 730.751 278.582C730.515 279.39 728.973 279.592 729.097 278.999C730.129 274.062 727.919 271.996 726.259 267.737L727.913 267.321Z" fill="#FF4848"/>
<path d="M689.81 227.705L702.541 246.789" stroke="black"/>
<path d="M691.871 225.808L704.485 245.052" stroke="black"/>
<line y1="-0.5" x2="22.3907" y2="-0.5" transform="matrix(0.550995 0.834509 -0.849632 0.527376 693.671 224.893)" stroke="black"/>
<path d="M754.293 327.161C751.21 322.429 751.251 318.341 735.168 324.157L735.022 325.085C745.579 320.552 750.574 319.717 754.147 328.09L754.293 327.161Z" fill="white"/>
<path d="M750.607 369.779C750.389 367.573 751.986 365.965 749.456 365.211L748.432 366.248C751.081 366.491 749.95 367.747 750.607 369.779Z" fill="black"/>
<path d="M745.743 347.568L744.92 344.304C740.039 346.46 737.338 347.809 731.861 347.595C731.837 349.258 731.706 350.323 732.683 350.86C737.459 348.289 740.468 348.162 745.743 347.568Z" fill="white"/>
<path d="M741.219 329.61L740.396 326.346C735.415 328.339 732.637 329.545 727.336 329.637C727.346 331.101 727.13 332.056 728.159 332.902C732.855 330.437 735.896 330.245 741.219 329.61Z" fill="white"/>
<path d="M763.425 352.045C765.831 349.915 758.426 344.954 756.302 330.285C755.662 325.862 751.615 322.468 747.257 323.455C741.884 324.672 735.848 326.15 735.293 326.764C734.274 327.889 744.889 363.116 744.889 363.116C755.067 362.056 759.599 356.253 763.425 352.045Z" fill="white"/>
<path d="M743.309 355.124L742.486 351.859C737.549 353.79 734.726 354.657 729.427 355.15C729.335 356.828 729.09 357.958 730.25 358.415C735.013 356.058 737.959 355.611 743.309 355.124Z" fill="white"/>
<path d="M738.578 336.352L737.756 333.087C732.657 335.183 729.799 335.995 724.696 336.378C724.581 338.01 724.637 338.826 725.519 339.643C730.245 337.169 733.135 336.545 738.578 336.352Z" fill="white"/>
<path d="M743.521 359.412C737.661 360.889 733.509 364.461 734.247 367.391C739.553 366.054 738.089 371.197 743.949 369.72C749.809 368.243 749.964 366.034 752.499 357.149C751.761 354.219 749.381 357.935 743.521 359.412Z" fill="white"/>
<path d="M751.665 344.867C749.861 346.467 749.971 349.537 751.911 351.724C753.85 353.911 756.885 354.386 758.689 352.786C760.493 351.186 755.24 349.078 758.518 343.14C756.579 340.953 753.469 343.267 751.665 344.867Z" fill="black"/>
<path d="M747.81 324.19C749.034 323.104 751.576 323.97 753.488 326.125C755.399 328.281 755.956 330.908 754.732 331.994C753.507 333.08 751.482 328.208 746.753 329.415C744.842 327.26 746.585 325.276 747.81 324.19Z" fill="black"/>
<path d="M740.076 336.555C741.3 335.469 740.843 330.105 742.755 332.26C746.345 341.772 748.222 343.273 746.998 344.359C745.773 345.445 744.338 340.96 739.609 342.167C737.698 340.012 738.851 337.641 740.076 336.555Z" fill="black"/>
<path d="M748.976 371.491C748.757 369.285 750.355 367.677 747.825 366.923L746.801 367.96C749.45 368.203 748.319 369.458 748.976 371.491Z" fill="black"/>
<path d="M729.427 355.155C728.589 355.081 728.234 356.743 729.227 357.808C729.128 359.135 730.024 358.475 730.249 358.419C730.474 358.362 730.881 357.482 730.654 356.581C730.427 355.68 729.652 355.098 729.427 355.155Z" fill="black"/>
<path d="M731.846 347.529C731.009 347.455 730.653 349.117 731.647 350.182C731.547 351.509 732.443 350.849 732.668 350.793C732.894 350.736 733.3 349.856 733.073 348.955C732.846 348.054 732.071 347.472 731.846 347.529Z" fill="black"/>
<path d="M724.68 336.314C723.842 336.24 723.487 337.902 724.481 338.967C724.381 340.294 725.277 339.635 725.502 339.578C725.727 339.521 726.134 338.642 725.907 337.74C725.68 336.839 724.905 336.257 724.68 336.314Z" fill="black"/>
<path d="M727.32 329.576C726.483 329.502 726.128 331.164 727.121 332.229C727.022 333.556 727.918 332.896 728.143 332.84C728.368 332.783 728.775 331.903 728.548 331.002C728.32 330.101 727.546 329.519 727.32 329.576Z" fill="black"/>
<path d="M735.16 364.122C733.833 364.023 732.307 366.577 733.939 366.166C732.307 366.577 734.471 368.635 735.372 368.408C736.274 368.181 737.717 367.383 737.203 365.343C736.824 363.838 735.976 363.917 735.16 364.122Z" fill="black"/>
<path d="M733.757 324.114C732.631 324.398 731.923 325.444 731.923 325.444C731.923 325.444 733.042 326.03 734.169 325.746C735.295 325.462 736.117 324.866 736.003 324.415C735.889 323.965 734.884 323.83 733.757 324.114Z" fill="black"/>
<rect x="340.746" y="762.347" width="9.39075" height="26.7636" transform="rotate(-158.521 340.746 762.347)" fill="white"/>
<path d="M355.23 733.227L306.731 714.143L320.141 680.062L368.64 699.146L355.23 733.227Z" fill="white"/>
<path d="M321.009 749.029L306.66 713.865L355.473 733.072L321.009 749.029Z" fill="white"/>
<rect x="317.769" y="749.087" width="47.8928" height="4.22584" transform="rotate(-23.5211 317.769 749.087)" fill="#7D6549"/>
<rect x="319.352" y="752.917" width="47.8928" height="4.22584" transform="rotate(-113.521 319.352 752.917)" fill="#7D6549"/>
<rect x="350.739" y="727.394" width="16.3729" height="14.9643" rx="1.5" transform="rotate(-158.521 350.739 727.394)" fill="#FCFF6F" stroke="#7D6549"/>
<rect x="329.158" y="717.42" width="15.0252" height="31.459" transform="rotate(-158.521 329.158 717.42)" fill="#7D6549"/>
<line x1="342.863" y1="724.328" x2="348.193" y2="710.783" stroke="#7D6549"/>
<line x1="353.933" y1="720.642" x2="337.766" y2="714.281" stroke="#7D6549"/>
<rect x="334.567" y="702.394" width="2.81648" height="0.469413" transform="rotate(-158.521 334.567 702.394)" fill="#FFF59A"/>
<rect x="333.864" y="701.612" width="0.938826" height="1.40824" transform="rotate(-158.521 333.864 701.612)" fill="#FFF59A"/>
<rect x="328.907" y="719.336" width="15.9643" height="1.87815" transform="rotate(-158.521 328.907 719.336)" fill="#C4C4C4"/>
<rect x="340.838" y="763.393" width="10.3283" height="2.81681" transform="rotate(-158.521 340.838 763.393)" fill="#7D6549"/>
<rect x="356.788" y="714.665" width="18.312" height="2.81722" transform="rotate(-158.521 356.788 714.665)" fill="#C4C4C4"/>
<path d="M631.885 679.486C630.11 677.371 630.386 674.217 632.501 672.442C634.616 670.667 637.77 670.943 639.545 673.058C641.32 675.173 640.08 677.178 637.965 678.953C635.849 680.728 633.66 681.601 631.885 679.486Z" fill="#5C5C5C"/>
<path d="M588.924 672.753C588.924 672.753 600.513 663.028 614.809 651.032C629.105 639.036 640.694 629.312 640.694 629.312C652.69 643.608 650.825 664.922 636.529 676.918C622.233 688.913 600.919 687.049 588.924 672.753Z" fill="#E3AEAE"/>
<path d="M618.707 679.305L609.861 696.593L605.02 694.116L613.866 676.828C616.093 677.137 617.213 677.566 618.707 679.305Z" fill="#757575"/>
<rect x="613.383" y="691.415" width="18.6432" height="6.99121" transform="rotate(117.097 613.383 691.415)" fill="#757575"/>
<rect x="611.228" y="699.038" width="26.4112" height="10.0984" transform="rotate(117.097 611.228 699.038)" fill="#757575"/>
<path d="M603.749 718.771L601.272 723.611C594.683 723.834 591.991 721.999 588.133 716.888L590.61 712.048L603.749 718.771Z" fill="#C4C4C4"/>
<rect x="227.057" y="658.043" width="65" height="35" transform="rotate(-134.945 227.057 658.043)" fill="#C4C4C4"/>
<path d="M231.516 631.362L223.36 639.502L222.394 638.535L230.218 630.725L225.251 625.749L226.247 624.755L231.628 630.147L231.516 631.362ZM221.527 620.525L224.811 623.815L224.037 624.588L222.961 623.509L216.049 630.408L217.594 631.956L216.848 632.701L213.619 629.853L214.421 629.053L215.497 629.965L222.409 623.067L220.698 621.353L221.527 620.525ZM217.607 618.201L205.754 622.415L205.424 621.145L218.603 616.545L219.597 617.816L211.935 628.222L210.997 627.282L217.607 618.201ZM206.349 606.644L207.317 605.678L212.56 610.932L212.393 612.091L205.094 619.376L203.74 619.624L199.297 615.172L200.099 614.372L204.128 618.409L207.225 615.318L202.92 611.005L203.666 610.26L208.026 614.628L211.178 611.483L206.349 606.644Z" fill="#676767"/>
<rect x="170.752" y="603.119" width="65" height="35" transform="rotate(-117.102 170.752 603.119)" fill="#C4C4C4"/>
<path d="M183.709 580.138L173.451 585.388L172.828 584.171L182.669 579.134L179.466 572.875L180.718 572.235L184.188 579.015L183.709 580.138ZM170.994 567.469C170.468 567.87 169.995 568.288 169.574 568.723C169.153 569.158 168.822 569.598 168.581 570.042C168.324 570.482 168.168 570.92 168.113 571.357C168.059 571.794 168.136 572.216 168.344 572.621C168.575 573.073 168.884 573.405 169.27 573.617C169.645 573.835 170.062 573.965 170.523 574.007C170.977 574.038 171.452 573.993 171.945 573.872C172.439 573.751 172.918 573.571 173.382 573.334C173.926 573.055 174.482 572.698 175.049 572.262C175.615 571.825 176.103 571.349 176.512 570.833C176.909 570.322 177.186 569.793 177.344 569.244C177.496 568.683 177.441 568.148 177.18 567.638C176.925 567.14 176.599 566.773 176.2 566.538C175.791 566.309 175.353 566.182 174.887 566.157C174.403 566.127 173.911 566.181 173.412 566.32C172.912 566.458 172.442 566.64 172.002 566.866C171.828 566.955 171.657 567.049 171.489 567.15C171.31 567.256 171.145 567.363 170.994 567.469ZM170.268 566.393C170.442 566.275 170.618 566.162 170.798 566.056C170.966 565.955 171.142 565.858 171.328 565.763C171.942 565.448 172.595 565.209 173.286 565.045C173.966 564.888 174.627 564.835 175.268 564.887C175.909 564.939 176.499 565.12 177.037 565.43C177.576 565.739 178.006 566.207 178.326 566.833C178.617 567.401 178.75 568.019 178.728 568.689C178.693 569.365 178.507 570.045 178.17 570.73C177.816 571.409 177.312 572.069 176.66 572.709C176.002 573.339 175.186 573.902 174.213 574.401C173.575 574.727 172.917 574.969 172.237 575.127C171.557 575.285 170.899 575.329 170.264 575.259C169.628 575.189 169.044 574.991 168.511 574.664C167.978 574.337 167.546 573.849 167.213 573.2C166.875 572.539 166.75 571.879 166.837 571.22C166.912 570.568 167.119 569.942 167.457 569.345C167.795 568.748 168.221 568.194 168.734 567.682C169.236 567.177 169.747 566.747 170.268 566.393ZM172.972 560.358L160.397 560.738L160.472 559.427L174.427 559.086L174.983 560.601L164.502 568.159L163.897 566.977L172.972 560.358ZM165.796 545.907L167.013 545.285L170.394 551.891L169.88 552.944L160.7 557.643L159.335 557.463L156.47 551.865L157.479 551.349L160.077 556.426L163.971 554.432L161.195 549.008L162.134 548.527L164.946 554.021L168.91 551.993L165.796 545.907Z" fill="#676767"/>
<rect x="137.784" y="532.106" width="65" height="35" transform="rotate(-104.837 137.784 532.106)" fill="#C4C4C4"/>
<path d="M157.088 519.048L145.949 521.999L145.599 520.678L156.285 517.847L154.484 511.05L155.844 510.69L157.794 518.053L157.088 519.048ZM148.885 508.371L148.115 505.464L144.278 508.218L148.885 508.371ZM155.548 508.505L155.586 509.869L142.246 509.241L142.026 508.41L153.201 500.56L153.86 501.679L149.195 504.814L150.136 508.363L155.548 508.505ZM140.272 502.248L140.111 500.876C140.379 500.872 140.729 500.847 141.161 500.8C141.593 500.753 142.074 500.686 142.603 500.599C143.12 500.516 143.673 500.417 144.262 500.301C144.851 500.186 145.435 500.051 146.014 499.898C146.757 499.701 147.47 499.472 148.155 499.21C148.84 498.947 149.434 498.648 149.938 498.313C150.426 497.968 150.797 497.587 151.05 497.17C151.29 496.756 151.342 496.291 151.205 495.775C151.005 495.02 150.619 494.475 150.046 494.142C149.469 493.797 148.783 493.595 147.986 493.536C147.186 493.465 146.321 493.506 145.391 493.658C144.462 493.81 143.544 494.006 142.638 494.246C141.92 494.436 141.264 494.63 140.67 494.828C140.06 495.016 139.566 495.161 139.189 495.261L138.811 493.987C139.273 493.851 139.748 493.712 140.236 493.569C140.723 493.426 141.225 493.287 141.741 493.15C142.547 492.937 143.346 492.752 144.14 492.595C144.934 492.439 145.706 492.329 146.457 492.264C147.195 492.204 147.896 492.206 148.56 492.273C149.225 492.339 149.824 492.491 150.357 492.726C150.879 492.965 151.33 493.297 151.712 493.721C152.094 494.145 152.371 494.685 152.545 495.339C152.755 496.132 152.708 496.845 152.404 497.478C152.084 498.101 151.604 498.653 150.963 499.132C150.323 499.612 149.57 500.027 148.707 500.377C147.843 500.727 146.965 501.02 146.071 501.257C145.505 501.407 144.947 501.541 144.399 501.659C143.836 501.768 143.302 501.862 142.797 501.942C142.293 502.022 141.827 502.092 141.398 502.151C140.966 502.198 140.591 502.23 140.272 502.248ZM142.434 482.036C142.872 481.96 143.355 481.879 143.885 481.793C144.398 481.697 144.931 481.596 145.482 481.491L148.756 480.886L148.953 482.087L145.334 482.763C145.483 482.817 145.679 482.92 145.921 483.072C146.16 483.211 146.406 483.401 146.658 483.644C146.899 483.89 147.132 484.185 147.358 484.53C147.584 484.874 147.755 485.266 147.872 485.707C148.032 486.311 148.062 486.909 147.963 487.501C147.861 488.081 147.645 488.616 147.318 489.107C146.99 489.598 146.56 490.035 146.028 490.418C145.481 490.792 144.848 491.074 144.131 491.264C143.174 491.518 142.255 491.633 141.374 491.611C140.476 491.579 139.669 491.429 138.951 491.161C138.218 490.884 137.601 490.489 137.101 489.974C136.589 489.464 136.238 488.849 136.048 488.132C135.934 487.704 135.886 487.293 135.902 486.898C135.903 486.493 135.953 486.123 136.053 485.787C136.14 485.454 136.27 485.157 136.443 484.896C136.616 484.634 136.804 484.429 137.008 484.281L137.806 485.161C137.47 485.519 137.259 485.918 137.174 486.359C137.089 486.799 137.103 487.233 137.216 487.661C137.356 488.19 137.62 488.652 138.008 489.047C138.379 489.434 138.849 489.734 139.418 489.947C139.97 490.151 140.606 490.265 141.327 490.29C142.031 490.305 142.78 490.208 143.573 489.998C144.064 489.868 144.526 489.678 144.958 489.429C145.374 489.17 145.726 488.868 146.011 488.523C146.281 488.169 146.471 487.768 146.582 487.321C146.68 486.878 146.659 486.392 146.519 485.863C146.412 485.46 146.229 485.098 145.968 484.777C145.705 484.442 145.402 484.165 145.061 483.946C144.72 483.727 144.357 483.574 143.97 483.487C143.568 483.392 143.179 483.374 142.804 483.433L143.664 486.68L142.456 487L140.685 480.317L141.894 479.997L142.434 482.036ZM138.21 472.042L133.113 473.392L132.823 472.297L144.868 469.106L145.088 469.937L139.273 471.477L140.754 477.066L146.569 475.525L146.979 477.073L134.971 480.254L134.501 478.48L139.561 477.139L138.21 472.042Z" fill="#676767"/>
<defs>
<filter id="filter0_d" x="655.139" y="529.775" width="114.652" height="109.174" filterUnits="userSpaceOnUse" color-interpolation-filters="sRGB">
<feFlood flood-opacity="0" result="BackgroundImageFix"/>
<feColorMatrix in="SourceAlpha" type="matrix" values="0 0 0 0 0 0 0 0 0 0 0 0 0 0 0 0 0 0 127 0"/>
<feOffset dy="4"/>
<feGaussianBlur stdDeviation="2"/>
<feColorMatrix type="matrix" values="0 0 0 0 0 0 0 0 0 0 0 0 0 0 0 0 0 0 0.25 0"/>
<feBlend mode="normal" in2="BackgroundImageFix" result="effect1_dropShadow"/>
<feBlend mode="normal" in="SourceGraphic" in2="effect1_dropShadow" result="shape"/>
</filter>
<filter id="filter1_d" x="687.862" y="514.312" width="119.254" height="99.7889" filterUnits="userSpaceOnUse" color-interpolation-filters="sRGB">
<feFlood flood-opacity="0" result="BackgroundImageFix"/>
<feColorMatrix in="SourceAlpha" type="matrix" values="0 0 0 0 0 0 0 0 0 0 0 0 0 0 0 0 0 0 127 0"/>
<feOffset dy="4"/>
<feGaussianBlur stdDeviation="2"/>
<feColorMatrix type="matrix" values="0 0 0 0 0 0 0 0 0 0 0 0 0 0 0 0 0 0 0.25 0"/>
<feBlend mode="normal" in2="BackgroundImageFix" result="effect1_dropShadow"/>
<feBlend mode="normal" in="SourceGraphic" in2="effect1_dropShadow" result="shape"/>
</filter>
<filter id="filter2_d" x="373.372" y="123.703" width="32.8785" height="28.0476" filterUnits="userSpaceOnUse" color-interpolation-filters="sRGB">
<feFlood flood-opacity="0" result="BackgroundImageFix"/>
<feColorMatrix in="SourceAlpha" type="matrix" values="0 0 0 0 0 0 0 0 0 0 0 0 0 0 0 0 0 0 127 0"/>
<feOffset dy="4"/>
<feGaussianBlur stdDeviation="2"/>
<feColorMatrix type="matrix" values="0 0 0 0 0 0 0 0 0 0 0 0 0 0 0 0 0 0 0.25 0"/>
<feBlend mode="normal" in2="BackgroundImageFix" result="effect1_dropShadow"/>
<feBlend mode="normal" in="SourceGraphic" in2="effect1_dropShadow" result="shape"/>
</filter>
<filter id="filter3_d" x="294.479" y="591.688" width="32.5211" height="34.9009" filterUnits="userSpaceOnUse" color-interpolation-filters="sRGB">
<feFlood flood-opacity="0" result="BackgroundImageFix"/>
<feColorMatrix in="SourceAlpha" type="matrix" values="0 0 0 0 0 0 0 0 0 0 0 0 0 0 0 0 0 0 127 0"/>
<feOffset dy="4"/>
<feGaussianBlur stdDeviation="2"/>
<feColorMatrix type="matrix" values="0 0 0 0 0 0 0 0 0 0 0 0 0 0 0 0 0 0 0.25 0"/>
<feBlend mode="normal" in2="BackgroundImageFix" result="effect1_dropShadow"/>
<feBlend mode="normal" in="SourceGraphic" in2="effect1_dropShadow" result="shape"/>
</filter>
<filter id="filter4_d" x="417.989" y="142.41" width="32.128" height="28.5613" filterUnits="userSpaceOnUse" color-interpolation-filters="sRGB">
<feFlood flood-opacity="0" result="BackgroundImageFix"/>
<feColorMatrix in="SourceAlpha" type="matrix" values="0 0 0 0 0 0 0 0 0 0 0 0 0 0 0 0 0 0 127 0"/>
<feOffset dy="4"/>
<feGaussianBlur stdDeviation="2"/>
<feColorMatrix type="matrix" values="0 0 0 0 0 0 0 0 0 0 0 0 0 0 0 0 0 0 0.25 0"/>
<feBlend mode="normal" in2="BackgroundImageFix" result="effect1_dropShadow"/>
<feBlend mode="normal" in="SourceGraphic" in2="effect1_dropShadow" result="shape"/>
</filter>
<filter id="filter5_d" x="252.618" y="562.684" width="28.4318" height="31.1385" filterUnits="userSpaceOnUse" color-interpolation-filters="sRGB">
<feFlood flood-opacity="0" result="BackgroundImageFix"/>
<feColorMatrix in="SourceAlpha" type="matrix" values="0 0 0 0 0 0 0 0 0 0 0 0 0 0 0 0 0 0 127 0"/>
<feOffset dy="4"/>
<feGaussianBlur stdDeviation="2"/>
<feColorMatrix type="matrix" values="0 0 0 0 0 0 0 0 0 0 0 0 0 0 0 0 0 0 0.25 0"/>
<feBlend mode="normal" in2="BackgroundImageFix" result="effect1_dropShadow"/>
<feBlend mode="normal" in="SourceGraphic" in2="effect1_dropShadow" result="shape"/>
</filter>
<filter id="filter6_d" x="245.048" y="514.72" width="28.1108" height="31.0433" filterUnits="userSpaceOnUse" color-interpolation-filters="sRGB">
<feFlood flood-opacity="0" result="BackgroundImageFix"/>
<feColorMatrix in="SourceAlpha" type="matrix" values="0 0 0 0 0 0 0 0 0 0 0 0 0 0 0 0 0 0 127 0"/>
<feOffset dy="4"/>
<feGaussianBlur stdDeviation="2"/>
<feColorMatrix type="matrix" values="0 0 0 0 0 0 0 0 0 0 0 0 0 0 0 0 0 0 0.25 0"/>
<feBlend mode="normal" in2="BackgroundImageFix" result="effect1_dropShadow"/>
<feBlend mode="normal" in="SourceGraphic" in2="effect1_dropShadow" result="shape"/>
</filter>
<filter id="filter7_d" x="376.593" y="151.696" width="33.6811" height="29.4811" filterUnits="userSpaceOnUse" color-interpolation-filters="sRGB">
<feFlood flood-opacity="0" result="BackgroundImageFix"/>
<feColorMatrix in="SourceAlpha" type="matrix" values="0 0 0 0 0 0 0 0 0 0 0 0 0 0 0 0 0 0 127 0"/>
<feOffset dy="4"/>
<feGaussianBlur stdDeviation="2"/>
<feColorMatrix type="matrix" values="0 0 0 0 0 0 0 0 0 0 0 0 0 0 0 0 0 0 0.25 0"/>
<feBlend mode="normal" in2="BackgroundImageFix" result="effect1_dropShadow"/>
<feBlend mode="normal" in="SourceGraphic" in2="effect1_dropShadow" result="shape"/>
</filter>
<filter id="filter8_d" x="301.772" y="559.907" width="32.9458" height="36.2122" filterUnits="userSpaceOnUse" color-interpolation-filters="sRGB">
<feFlood flood-opacity="0" result="BackgroundImageFix"/>
<feColorMatrix in="SourceAlpha" type="matrix" values="0 0 0 0 0 0 0 0 0 0 0 0 0 0 0 0 0 0 127 0"/>
<feOffset dy="4"/>
<feGaussianBlur stdDeviation="2"/>
<feColorMatrix type="matrix" values="0 0 0 0 0 0 0 0 0 0 0 0 0 0 0 0 0 0 0.25 0"/>
<feBlend mode="normal" in2="BackgroundImageFix" result="effect1_dropShadow"/>
<feBlend mode="normal" in="SourceGraphic" in2="effect1_dropShadow" result="shape"/>
</filter>
</defs>
</svg>
