<svg width="111" height="110" viewBox="0 0 111 110" fill="none" xmlns="http://www.w3.org/2000/svg">
<path d="M19.2613 69.4223C19.3126 69.8638 19.3666 70.3512 19.4236 70.8846C19.4906 71.4025 19.5616 71.9396 19.6365 72.4959L20.0591 75.799L18.8495 75.929L18.3749 72.2777C18.312 72.4236 18.1983 72.6133 18.0337 72.8467C17.8819 73.0774 17.6778 73.3124 17.4214 73.5514C17.1623 73.7778 16.8546 73.9942 16.4984 74.2006C16.1422 74.4071 15.7409 74.5564 15.2946 74.6486C14.6825 74.7749 14.0836 74.7722 13.498 74.6405C12.9252 74.5061 12.4027 74.2617 11.9307 73.9071C11.4586 73.5525 11.0459 73.0992 10.6927 72.5472C10.3496 71.9799 10.103 71.3328 9.95293 70.6059C9.75287 69.6368 9.68843 68.7127 9.75962 67.8339C9.84093 66.9396 10.0352 66.1416 10.3424 65.44C10.6597 64.7231 11.0889 64.1293 11.6299 63.6586C12.1683 63.1752 12.801 62.8585 13.5278 62.7084C13.9614 62.6189 14.3749 62.5934 14.7684 62.6318C15.172 62.6549 15.5389 62.7254 15.8691 62.8434C16.1966 62.9486 16.486 63.0949 16.7375 63.2823C16.9889 63.4698 17.1829 63.669 17.3196 63.8801L16.3972 64.6289C16.0579 64.2735 15.6709 64.041 15.2361 63.9313C14.8013 63.8216 14.3671 63.8115 13.9335 63.901C13.398 64.0116 12.9219 64.2495 12.5054 64.6146C12.0989 64.9644 11.7736 65.4172 11.5293 65.9728C11.2952 66.5131 11.1458 67.1422 11.0813 67.8602C11.0269 68.5628 11.0826 69.3157 11.2485 70.1191C11.3511 70.6164 11.5149 71.0879 11.7398 71.5334C11.9749 71.9635 12.2567 72.3307 12.5855 72.6351C12.9243 72.9242 13.3138 73.1363 13.7539 73.2715C14.1913 73.3939 14.6778 73.3998 15.2134 73.2893C15.6215 73.205 15.9933 73.0419 16.3289 72.7997C16.6772 72.555 16.9704 72.2685 17.2084 71.9401C17.4464 71.6118 17.6192 71.257 17.7266 70.8759C17.8442 70.4793 17.8839 70.0922 17.8458 69.7145L14.5558 70.3937L14.3031 69.1695L21.0744 67.7717L21.3271 68.9959L19.2613 69.4223ZM24.7858 74.5441L22.3981 66.262L23.5525 65.8642L24.5863 69.5197L28.1111 65.9203L28.8678 66.8809L25.0934 71.0105L25.7568 74.224L24.7858 74.5441ZM30.1595 68.8878C30.0147 68.1864 29.9957 67.5788 30.1023 67.0648C30.2063 66.5381 30.3824 66.1029 30.6305 65.7592C30.8888 65.4001 31.1973 65.1237 31.5562 64.9299C31.9124 64.7235 32.2691 64.5834 32.6261 64.5097C33.1362 64.4044 33.6111 64.3861 34.0507 64.4549C34.4878 64.5109 34.8821 64.6822 35.2337 64.9685C35.5954 65.2396 35.9107 65.6398 36.1796 66.1693C36.4484 66.6988 36.6671 67.3716 36.8355 68.1877L31.6246 69.8019C31.7365 70.151 31.8953 70.4373 32.101 70.6608C32.3168 70.8689 32.5616 71.0244 32.8355 71.1274C33.1094 71.2304 33.3932 71.2848 33.6869 71.2907C33.9806 71.2965 34.2741 71.2692 34.5674 71.2087C35.052 71.1086 35.5029 70.9424 35.9203 70.71C36.3377 70.4776 36.6337 70.237 36.8083 69.9882L37.3422 70.8353C37.2792 70.9812 37.1717 71.1364 37.0195 71.3008C36.8673 71.4651 36.6792 71.617 36.4554 71.7563C36.2341 71.9083 35.9758 72.0414 35.6802 72.1556C35.4001 72.2799 35.1006 72.3749 34.7818 72.4407C34.3355 72.5329 33.8747 72.5549 33.3994 72.5067C32.9242 72.4586 32.4738 72.3056 32.0483 72.0477C31.6228 71.7899 31.2451 71.4092 30.9151 70.9056C30.5825 70.3893 30.3306 69.7167 30.1595 68.8878ZM31.2768 68.697L35.3902 67.3693C35.2613 66.7444 34.9928 66.2813 34.5849 65.98C34.1744 65.6658 33.5993 65.5851 32.8597 65.7378C32.5053 65.8242 32.2087 65.9653 31.9698 66.1608C31.7437 66.3537 31.5638 66.577 31.43 66.8306C31.2936 67.0715 31.2084 67.3351 31.1744 67.6213C31.1405 67.9075 31.1524 68.1909 31.2103 68.4714C31.2314 68.5734 31.2536 68.6486 31.2768 68.697ZM44.4179 64.1496L46.7161 69.0997L45.6553 69.7574L44.2954 66.6478C44.2799 67.0233 44.216 67.4221 44.1036 67.8441C44.0041 68.2635 43.8469 68.6616 43.6322 69.0383C43.4276 69.3996 43.1551 69.7218 42.8146 70.0048C42.4843 70.2724 42.0832 70.4549 41.6114 70.5523C40.7698 70.7261 40.0705 70.5912 39.5136 70.1477C38.9669 69.6889 38.5948 68.9813 38.3974 68.0249C38.2842 67.4766 38.2499 66.892 38.2946 66.2712C38.3367 65.6376 38.4735 65.0443 38.705 64.4913C38.9365 63.9383 39.268 63.451 39.6995 63.0296C40.1438 62.6055 40.7039 62.3237 41.3797 62.1842C41.775 62.1026 42.1378 62.1208 42.4679 62.2388C42.8082 62.3414 43.1067 62.4991 43.3633 62.712C43.62 62.925 43.836 63.1662 44.0113 63.4358C44.184 63.6927 44.3195 63.9306 44.4179 64.1496ZM41.8553 63.5219C41.7608 63.5148 41.6676 63.5141 41.5757 63.5198C41.4965 63.5228 41.4123 63.5336 41.3231 63.552C40.9277 63.6336 40.5957 63.8285 40.3269 64.1366C40.0682 64.4293 39.8674 64.7765 39.7243 65.1783C39.594 65.5775 39.5149 65.9993 39.487 66.4438C39.4718 66.8857 39.5011 67.2852 39.5748 67.6422C39.6906 68.2033 39.9052 68.631 40.2186 68.9253C40.5319 69.2196 40.95 69.3128 41.4728 69.2048C41.8299 69.1311 42.1378 68.9479 42.3964 68.6552C42.6525 68.3498 42.852 67.9961 42.9951 67.5943C43.1382 67.1925 43.2237 66.7694 43.2516 66.3249C43.2896 65.865 43.2704 65.4501 43.1941 65.0803C43.1099 64.6722 42.9533 64.3323 42.7243 64.0605C42.5055 63.7733 42.2158 63.5937 41.8553 63.5219ZM49.708 68.522L48.5116 62.7262L46.5605 63.129L46.3871 61.7089L48.4911 61.2746L47.6856 57.3725L48.9863 57.104L49.8076 61.0826L52.9446 60.4351L53.2289 61.8123L49.958 62.4875L50.9846 67.4608L53.7624 66.329L54.2222 67.5902L50.5624 69.1832L49.708 68.522ZM64.3937 52.3281L66.9365 64.6465L66.5655 65.3613C66.171 65.5757 65.7941 65.7465 65.4348 65.8739C65.0756 66.0012 64.7302 66.0991 64.3986 66.1676C63.6207 66.3281 62.939 66.3426 62.3534 66.2108C61.7806 66.0765 61.2876 65.8458 60.8744 65.519C60.4612 65.1921 60.1281 64.8022 59.8751 64.3492C59.6348 63.8936 59.4633 63.4171 59.3607 62.9198C59.2159 62.2184 59.2019 61.6031 59.3186 61.0737C59.4327 60.5317 59.629 60.0657 59.9075 59.6758C60.1988 59.2833 60.5467 58.9722 60.9513 58.7424C61.3661 58.4973 61.803 58.3273 62.262 58.2325C63.0144 58.0772 63.7245 58.1035 64.3923 58.3113L63.1616 52.5426L64.3937 52.3281ZM64.6632 60.0104C64.3146 59.8031 63.955 59.6713 63.5844 59.6148C63.2112 59.5456 62.846 59.5479 62.4889 59.6216C62.1829 59.6848 61.8951 59.804 61.6255 59.9793C61.366 60.1392 61.1502 60.35 60.9782 60.6115C60.8035 60.8603 60.679 61.1586 60.6045 61.5063C60.5401 61.8387 60.5514 62.2153 60.6383 62.6361C60.7383 63.1207 60.9067 63.518 61.1436 63.8281C61.3804 64.1382 61.6551 64.374 61.9677 64.5355C62.293 64.6943 62.646 64.7943 63.0267 64.8354C63.4176 64.861 63.8107 64.8331 64.206 64.7515C64.7161 64.6462 65.1554 64.4558 65.524 64.1803L64.6632 60.0104ZM74.2576 57.99L76.5557 62.9401L75.4949 63.5978L74.1351 60.4882C74.1195 60.8637 74.0556 61.2624 73.9433 61.6845C73.8437 62.1039 73.6866 62.502 73.4718 62.8787C73.2672 63.24 72.9947 63.5622 72.6542 63.8452C72.3239 64.1128 71.9229 64.2953 71.451 64.3927C70.6094 64.5664 69.9101 64.4316 69.3533 63.9881C68.8065 63.5293 68.4344 62.8217 68.237 61.8653C68.1238 61.3169 68.0896 60.7323 68.1342 60.1115C68.1763 59.478 68.3131 58.8847 68.5446 58.3317C68.7761 57.7786 69.1077 57.2914 69.5392 56.87C69.9834 56.4459 70.5435 56.1641 71.2194 56.0245C71.6147 55.9429 71.9774 55.9611 72.3076 56.0791C72.6478 56.1817 72.9463 56.3395 73.203 56.5524C73.4597 56.7653 73.6756 57.0066 73.851 57.2762C74.0236 57.533 74.1592 57.771 74.2576 57.99ZM71.6949 57.3623C71.6004 57.3552 71.5072 57.3545 71.4153 57.3602C71.3362 57.3632 71.252 57.3739 71.1627 57.3924C70.7674 57.474 70.4353 57.6688 70.1665 57.9769C69.9079 58.2696 69.707 58.6169 69.5639 59.0187C69.4336 59.4179 69.3545 59.8397 69.3266 60.2842C69.3114 60.7261 69.3407 61.1255 69.4144 61.4826C69.5302 62.0437 69.7448 62.4714 70.0582 62.7657C70.3716 63.06 70.7896 63.1531 71.3125 63.0452C71.6695 62.9715 71.9774 62.7883 72.2361 62.4956C72.4921 62.1901 72.6917 61.8365 72.8347 61.4347C72.9778 61.0329 73.0633 60.6097 73.0912 60.1652C73.1292 59.7053 73.1101 59.2905 73.0337 58.9207C72.9495 58.5126 72.7929 58.1727 72.5639 57.9008C72.3451 57.6136 72.0554 57.4341 71.6949 57.3623ZM80.7669 61.313L76.2462 56.2234L77.1132 55.2068L80.9714 59.6952L81.6936 53.8225L82.8832 54.1752L81.4085 65.9669L80.2413 65.5297L80.7669 61.313ZM89.2969 53.1704L89.266 54.3733C89.1535 54.3434 89.0026 54.3213 88.8136 54.3072C88.6347 54.2777 88.4315 54.2598 88.2042 54.2535C87.9897 54.2446 87.7586 54.2524 87.511 54.2769C87.2736 54.286 87.0529 54.3117 86.8489 54.3538C86.4663 54.4328 86.1466 54.5586 85.8897 54.7313C85.6456 54.9013 85.5539 55.133 85.6144 55.4263C85.6591 55.6431 85.8121 55.8043 86.0732 55.9099C86.3343 56.0156 86.6298 56.0942 86.9595 56.1458C87.2994 56.182 87.6289 56.2004 87.9481 56.201C88.2801 56.1989 88.5393 56.1986 88.7257 56.2C89.1319 56.2358 89.4696 56.3256 89.7386 56.4695C90.0177 56.598 90.2434 56.7575 90.4157 56.948C90.5981 57.1231 90.7385 57.3201 90.8369 57.5391C90.9353 57.7581 91.0068 57.976 91.0516 58.1928C91.1463 58.6519 91.1182 59.0632 90.9673 59.4267C90.8264 59.7749 90.6113 60.0852 90.3218 60.3577C90.0425 60.6148 89.708 60.8301 89.3184 61.0036C88.9415 61.1744 88.5554 61.3007 88.1601 61.3823C87.548 61.5086 86.9443 61.5468 86.349 61.4969C85.7664 61.4443 85.2868 61.3106 84.9101 61.0959L85.1007 59.7004C85.28 59.7963 85.4836 59.8806 85.7113 59.9533C85.9491 60.0106 86.2048 60.0575 86.4782 60.0941C86.7491 60.118 87.03 60.1265 87.3211 60.1196C87.6095 60.0999 87.8877 60.0624 88.1554 60.0072C88.6145 59.9124 89.0042 59.7389 89.3244 59.4867C89.6446 59.2344 89.7969 58.8773 89.7812 58.4151C89.7654 58.3386 89.7329 58.2456 89.6837 58.1361C89.6447 58.0112 89.575 57.8993 89.4748 57.8003C89.3874 57.6987 89.2566 57.6127 89.0825 57.5423C88.9212 57.4692 88.7027 57.4412 88.427 57.4582C87.8884 57.4896 87.3827 57.4876 86.9101 57.4523C86.4502 57.4142 86.0411 57.3325 85.6828 57.207C85.3246 57.0815 85.0221 56.9047 84.7756 56.6764C84.5391 56.4327 84.3828 56.1259 84.3064 55.7561C84.159 55.042 84.2883 54.4768 84.6943 54.0606C85.1003 53.6444 85.7624 53.3416 86.6806 53.1521C87.1651 53.052 87.6411 53.007 88.1085 53.0168C88.5886 53.0241 88.9847 53.0753 89.2969 53.1704ZM95.9752 59.0511L95.2345 60.6798L93.2881 59.3664L94.0829 57.8064L95.9752 59.0511ZM94.8024 56.4613L93.2339 56.785L91.2281 47.068L92.7966 46.7443L94.8024 56.4613ZM9.95011 103.054L7.45467 90.9649L7.29673 90.1998C7.53375 90.1243 7.75934 90.0578 7.97349 90.0003C8.18764 89.9428 8.39674 89.893 8.60077 89.8509C9.45515 89.6745 10.1635 89.628 10.7258 89.7113C11.2983 89.7793 11.7524 89.9182 12.0882 90.1281C12.424 90.338 12.6668 90.5804 12.8166 90.8552C12.9766 91.1147 13.0776 91.3465 13.1197 91.5505C13.254 92.2009 13.213 92.8076 12.9969 93.3708C12.7935 93.9313 12.3991 94.3716 11.8138 94.6919C13.7266 94.2971 15.2028 94.3314 16.2424 94.7948C17.2948 95.2556 17.9355 96.0408 18.1645 97.1502C18.4356 98.4636 18.0328 99.6038 16.956 100.571C15.8766 101.525 14.0936 102.258 11.607 102.772C11.0841 102.88 10.5318 102.974 9.95011 103.054ZM8.13784 91.1829L9.23481 95.1445C10.1728 94.8578 10.8903 94.4371 11.3874 93.8825C11.8973 93.3252 12.0772 92.6831 11.9271 91.9562C11.8297 91.4844 11.5353 91.153 11.0438 90.9619C10.5523 90.7709 9.87939 90.7636 9.02501 90.9399C8.74446 90.9978 8.44874 91.0788 8.13784 91.1829ZM9.53367 96.399L10.89 101.424C11.1503 101.397 11.3966 101.366 11.6287 101.331C11.8736 101.294 12.1109 101.252 12.3404 101.204C13.0545 101.057 13.7121 100.861 14.3133 100.618C14.9118 100.361 15.4156 100.064 15.8247 99.7272C16.2337 99.3901 16.5302 99.0231 16.7142 98.6262C16.9109 98.2266 16.9632 97.8037 16.8711 97.3573C16.7895 96.962 16.5705 96.6416 16.214 96.3961C15.8676 96.1352 15.4362 95.9451 14.9196 95.8257C14.403 95.7063 13.8218 95.6601 13.1759 95.6871C12.5401 95.6987 11.897 95.7716 11.2467 95.9058C10.9534 95.9664 10.6627 96.0397 10.3747 96.1257C10.0867 96.2118 9.80631 96.3029 9.53367 96.399ZM19.127 96.6922C18.9822 95.9909 18.9631 95.3832 19.0698 94.8693C19.1738 94.3426 19.3498 93.9074 19.598 93.5637C19.8562 93.2046 20.1648 92.9282 20.5236 92.7344C20.8799 92.5279 21.2365 92.3878 21.5936 92.3141C22.1037 92.2088 22.5785 92.1906 23.0182 92.2594C23.4552 92.3154 23.8495 92.4866 24.2011 92.773C24.5629 93.044 24.8782 93.4443 25.147 93.9738C25.4159 94.5033 25.6345 95.1761 25.803 95.9922L20.592 97.6064C20.704 97.9555 20.8628 98.2418 21.0685 98.4653C21.2842 98.6733 21.5291 98.8289 21.803 98.9319C22.0768 99.0349 22.3606 99.0893 22.6543 99.0952C22.948 99.101 23.2415 99.0737 23.5348 99.0131C24.0194 98.9131 24.4704 98.7469 24.8877 98.5145C25.3051 98.2821 25.6011 98.0415 25.7758 97.7927L26.3096 98.6398C26.2467 98.7857 26.1391 98.9409 25.9869 99.1053C25.8347 99.2696 25.6467 99.4214 25.4228 99.5607C25.2016 99.7128 24.9432 99.8459 24.6477 99.96C24.3675 100.084 24.0681 100.179 23.7493 100.245C23.303 100.337 22.8422 100.359 22.3669 100.311C21.8916 100.263 21.4412 100.11 21.0157 99.8522C20.5902 99.5944 20.2125 99.2137 19.8825 98.7101C19.5499 98.1937 19.2981 97.5211 19.127 96.6922ZM20.2443 96.5015L24.3577 95.1738C24.2287 94.5489 23.9603 94.0858 23.5524 93.7844C23.1418 93.4703 22.5668 93.3896 21.8272 93.5423C21.4727 93.6287 21.1761 93.7697 20.9373 93.9653C20.7112 94.1582 20.5313 94.3815 20.3975 94.6351C20.2611 94.876 20.1759 95.1395 20.1419 95.4258C20.1079 95.712 20.1199 95.9954 20.1778 96.2759C20.1988 96.3779 20.221 96.4531 20.2443 96.5015ZM29.1497 98.2928L27.9533 92.4971L26.0022 92.8998L25.8288 91.4798L27.9328 91.0454L27.1273 87.1433L28.4281 86.8748L29.2493 90.8535L32.3863 90.2059L32.6706 91.5831L29.3997 92.2583L30.4263 97.2316L33.2041 96.0998L33.6639 97.361L30.0041 98.9541L29.1497 98.2928ZM36.3418 96.8082L35.1454 91.0124L33.1944 91.4152L33.0209 89.9951L35.125 89.5608L34.3195 85.6587L35.6202 85.3902L36.4415 89.3688L39.5784 88.7213L39.8627 90.0985L36.5918 90.7737L37.6185 95.7469L40.3962 94.6151L40.856 95.8764L37.1962 97.4694L36.3418 96.8082ZM41.2389 92.1278C41.0941 91.4264 41.075 90.8188 41.1817 90.3049C41.2857 89.7782 41.4618 89.343 41.7099 88.9992C41.9681 88.6401 42.2767 88.3637 42.6356 88.17C42.9918 87.9635 43.3485 87.8234 43.7055 87.7497C44.2156 87.6444 44.6905 87.6261 45.1301 87.6949C45.5671 87.751 45.9614 87.9222 46.3131 88.2086C46.6748 88.4796 46.9901 88.8798 47.2589 89.4093C47.5278 89.9388 47.7464 90.6116 47.9149 91.4278L42.7039 93.0419C42.8159 93.3911 42.9747 93.6774 43.1804 93.9008C43.3962 94.1089 43.641 94.2644 43.9149 94.3674C44.1888 94.4704 44.4726 94.5249 44.7663 94.5307C45.06 94.5366 45.3535 94.5092 45.6468 94.4487C46.1313 94.3487 46.5823 94.1824 46.9997 93.95C47.417 93.7176 47.713 93.477 47.8877 93.2283L48.4215 94.0753C48.3586 94.2213 48.251 94.3764 48.0988 94.5408C47.9466 94.7052 47.7586 94.857 47.5347 94.9963C47.3135 95.1483 47.0551 95.2814 46.7596 95.3956C46.4795 95.5199 46.18 95.615 45.8612 95.6808C45.4149 95.7729 44.9541 95.7949 44.4788 95.7468C44.0035 95.6986 43.5532 95.5456 43.1277 95.2878C42.7022 95.0299 42.3244 94.6492 41.9945 94.1456C41.6619 93.6293 41.41 92.9567 41.2389 92.1278ZM42.3562 91.937L46.4696 90.6093C46.3406 89.9845 46.0722 89.5214 45.6643 89.22C45.2538 88.9059 44.6787 88.8251 43.9391 88.9778C43.5847 89.0643 43.288 89.2053 43.0492 89.4008C42.8231 89.5937 42.6432 89.817 42.5094 90.0707C42.373 90.3115 42.2878 90.5751 42.2538 90.8613C42.2198 91.1475 42.2318 91.4309 42.2897 91.7115C42.3108 91.8135 42.3329 91.8887 42.3562 91.937ZM50.8232 94.6964L48.4356 86.4143L49.5899 86.0165L50.6237 89.672L54.1485 86.0726L54.9052 87.0332L51.1309 91.1628L51.7942 94.3763L50.8232 94.6964ZM65.9375 84.6362L62.2267 85.4022L63.4902 91.5232L62.5575 91.8354L60.8596 83.6104L61.7383 83.2296L61.9357 84.186L66.3181 83.0021L67.1289 84.0313L68.9899 90.1486L67.8368 90.7456L65.9375 84.6362ZM70.5991 90.2153L69.154 83.2144L70.4929 82.938L71.9539 90.0154L70.5991 90.2153ZM70.59 81.2827L69.33 81.9416L67.5056 79.2869L68.7735 78.6662L70.59 81.2827ZM74.0191 86.3982C74.19 86.7751 74.4201 87.0201 74.7093 87.1332C74.9986 87.2463 75.3026 87.27 75.6214 87.2042C75.9657 87.1331 76.312 86.9752 76.6604 86.7305C77.0215 86.4831 77.3402 86.1913 77.6164 85.855C77.8901 85.5061 78.0984 85.1307 78.2415 84.7289C78.3973 84.3244 78.4358 83.9309 78.3568 83.5484C78.262 83.0893 78.0364 82.737 77.68 82.4915C77.3362 82.2434 76.9476 82.1641 76.514 82.2536C76.1724 82.3374 75.8273 82.5017 75.479 82.7464C75.128 82.9784 74.8144 83.2625 74.5381 83.5987C74.2746 83.9323 74.0713 84.3 73.9282 84.7019C73.7825 85.0909 73.7518 85.4895 73.836 85.8975C73.8755 86.0888 73.9366 86.2557 74.0191 86.3982ZM79.922 92.0002L74.0306 93.2163L73.7226 91.7244L78.9254 90.6504L79.5866 89.7959L78.8073 86.4069C78.5705 86.9345 78.1851 87.3863 77.6512 87.7624C77.1146 88.1258 76.5403 88.3706 75.9282 88.497C75.1376 88.6602 74.4295 88.5471 73.804 88.1577C73.1886 87.7529 72.7809 87.0659 72.5809 86.0968C72.4598 85.5102 72.4754 84.9419 72.6278 84.3919C72.7903 83.8266 73.0515 83.3206 73.4113 82.8741C73.7686 82.4148 74.1939 82.0278 74.6874 81.7132C75.1936 81.396 75.7336 81.1782 76.3075 81.0597C76.9196 80.9334 77.4995 80.9732 78.0472 81.1792C78.6051 81.3699 79.0341 81.7732 79.3341 82.3894L80.9609 90.2701L79.922 92.0002ZM85.8081 80.6142L82.1738 81.3644L83.4452 87.5236L82.283 87.8832L79.7954 75.8326L80.9431 75.5957L81.8828 80.1481L85.8232 79.3348L86.79 79.5739L88.9923 86.3786L87.7839 86.7078L85.8081 80.6142ZM91.5451 85.4129L90.3487 79.6171L88.3977 80.0198L88.2242 78.5998L90.3283 78.1655L89.5228 74.2634L90.8235 73.9949L91.6448 77.9735L94.7818 77.3259L95.066 78.7032L91.7952 79.3783L92.8218 84.3516L95.5995 83.2198L96.0593 84.481L92.3996 86.0741L91.5451 85.4129ZM101.141 76.2525L101.11 77.4554C100.998 77.4255 100.847 77.4034 100.658 77.3893C100.479 77.3597 100.276 77.3418 100.049 77.3356C99.8341 77.3267 99.6031 77.3345 99.3555 77.359C99.1181 77.3681 98.8974 77.3938 98.6933 77.4359C98.3108 77.5148 97.9911 77.6407 97.7342 77.8133C97.4901 77.9834 97.3983 78.2151 97.4589 78.5084C97.5036 78.7251 97.6566 78.8864 97.9177 78.992C98.1788 79.0976 98.4743 79.1763 98.804 79.2279C99.1438 79.2641 99.4734 79.2825 99.7926 79.283C100.125 79.281 100.384 79.2807 100.57 79.2821C100.976 79.3179 101.314 79.4077 101.583 79.5516C101.862 79.6801 102.088 79.8396 102.26 80.0301C102.443 80.2052 102.583 80.4022 102.681 80.6212C102.78 80.8402 102.851 81.0581 102.896 81.2749C102.991 81.734 102.963 82.1453 102.812 82.5088C102.671 82.857 102.456 83.1673 102.166 83.4398C101.887 83.6969 101.553 83.9122 101.163 84.0857C100.786 84.2565 100.4 84.3828 100.005 84.4644C99.3925 84.5907 98.7888 84.6289 98.1935 84.5789C97.6109 84.5264 97.1313 84.3927 96.7546 84.178L96.9452 82.7825C97.1245 82.8784 97.328 82.9627 97.5558 83.0354C97.7936 83.0926 98.0493 83.1396 98.3227 83.1762C98.5936 83.2001 98.8745 83.2085 99.1656 83.2016C99.454 83.182 99.7321 83.1445 99.9999 83.0892C100.459 82.9945 100.849 82.821 101.169 82.5687C101.489 82.3165 101.641 81.9593 101.626 81.4972C101.61 81.4207 101.577 81.3277 101.528 81.2182C101.489 81.0933 101.42 80.9814 101.319 80.8824C101.232 80.7808 101.101 80.6948 100.927 80.6244C100.766 80.5513 100.547 80.5233 100.271 80.5403C99.7329 80.5717 99.2272 80.5697 98.7546 80.5343C98.2947 80.4963 97.8856 80.4146 97.5273 80.2891C97.169 80.1636 96.8666 79.9867 96.6201 79.7584C96.3836 79.5147 96.2272 79.208 96.1509 78.8382C96.0035 78.1241 96.1328 77.5589 96.5388 77.1427C96.9448 76.7265 97.6069 76.4237 98.525 76.2341C99.0096 76.1341 99.4856 76.089 99.953 76.0989C100.433 76.1062 100.829 76.1574 101.141 76.2525ZM107.82 82.1332L107.079 83.7619L105.133 82.4485L105.927 80.8885L107.82 82.1332ZM106.647 79.5434L105.078 79.8671L103.073 70.1501L104.641 69.8263L106.647 79.5434Z" fill="#ABABAB"/>
<path d="M48.0358 45.7907C33.9011 25.4204 49.6067 8.17684 65.7948 7.82505M65.7948 7.82505L60.0172 15.4179M65.7948 7.82505L56.5596 3.66264" stroke="#ABABAB"/>
</svg>
