<svg width="115" height="88" viewBox="0 0 115 88" fill="none" xmlns="http://www.w3.org/2000/svg">
<path d="M102.672 58.1339L62.0074 50.955C60.1882 50.6338 58.5712 49.6032 57.512 48.0898C56.4528 46.5764 56.0381 44.7042 56.3593 42.8851C56.6804 41.0659 57.7111 39.4489 59.2245 38.3897C60.7379 37.3305 62.61 36.9158 64.4292 37.237C66.2483 37.5581 68.1205 37.1435 69.6339 36.0842C71.1473 35.025 72.1779 33.408 72.499 31.5889C72.8202 29.7697 72.4056 27.8975 71.3463 26.3841C70.2871 24.8707 68.6701 23.8401 66.851 23.5189L16.6021 14.6479C3.70313 12.4175 3.70317 25.918 10.0469 27.6362L36.9931 32.3933C38.8123 32.7145 40.4293 33.7451 41.4885 35.2585C42.5477 36.7719 42.9624 38.6441 42.6412 40.4633C42.3201 42.2824 41.2894 43.8994 39.776 44.9586C38.2626 46.0179 36.3904 46.4325 34.5713 46.1114C32.7522 45.7902 30.88 46.2049 29.3666 47.2641C27.8532 48.3233 26.8226 49.9403 26.5014 51.7595C26.1802 53.5786 26.5949 55.4508 27.6541 56.9642C28.7133 58.4776 30.3304 59.5082 32.1495 59.8294L96.1164 71.1222C110.224 74.1111 112.702 61.0098 102.672 58.1339Z" fill="#FABE19"/>
<circle cx="13" cy="50" r="7" fill="#FABE19"/>
<path d="M101.761 28.1839L86.4833 25.9575C84.7413 25.7037 82.9697 26.1522 81.5584 27.2046C80.147 28.2569 79.2115 29.8268 78.9577 31.5688C78.7038 33.3109 79.1524 35.0824 80.2047 36.4938C81.257 37.9051 82.8269 38.8406 84.569 39.0945L103.805 41.8977C111.697 43.29 118.586 30.5561 101.761 28.1839Z" fill="#FABE19"/>
<path d="M73.7614 3.18395L58.4833 0.957539C56.7412 0.703675 54.9697 1.15224 53.5583 2.20456C52.147 3.25688 51.2115 4.82675 50.9576 6.56882C50.7038 8.31089 51.1523 10.0824 52.2047 11.4938C53.257 12.9051 54.8269 13.8406 56.5689 14.0945L75.8053 16.8977C83.6972 18.29 90.5857 5.55611 73.7614 3.18395Z" fill="#FABE19"/>
<path d="M53.5905 71.6163L31.4386 68.3882C28.9127 68.0201 26.3895 68.3591 24.4239 69.3307C22.4584 70.3023 21.2115 71.8268 20.9576 73.5688C20.7038 75.3109 21.4637 77.1278 23.0702 78.6199C24.6768 80.112 26.9983 81.1571 29.5242 81.5251L57.4154 85.5896C68.8735 87.5016 77.9793 75.0908 53.5905 71.6163Z" fill="#FABE19"/>
</svg>
