<svg width="304" height="152" viewBox="0 0 304 152" fill="none" xmlns="http://www.w3.org/2000/svg">
<path d="M282.783 89.0748L168.075 89.0748C162.944 89.0748 158.023 87.7039 154.394 85.2637C150.766 82.8235 148.727 79.5139 148.727 76.0629C148.727 72.6119 150.766 69.3023 154.394 66.8621C158.023 64.4219 162.944 63.051 168.075 63.051C173.207 63.051 178.128 61.6802 181.757 59.24C185.385 56.7998 187.424 53.4902 187.424 50.0392C187.424 46.5882 185.385 43.2786 181.757 40.8384C178.128 38.3982 173.207 37.0273 168.075 37.0273L26.3308 37.0273C-10.0326 37.1134 -3.5125 61.9504 14.6711 63.051L90.6825 63.051C95.8139 63.051 100.735 64.4219 104.364 66.8621C107.992 69.3023 110.031 72.6119 110.031 76.0629C110.031 79.5139 107.992 82.8235 104.364 85.2637C100.735 87.7039 95.8139 89.0748 90.6825 89.0748C85.551 89.0748 80.6296 90.4456 77.0012 92.8858C73.3727 95.326 71.3342 98.6356 71.3342 102.087C71.3342 105.538 73.3727 108.847 77.0012 111.287C80.6296 113.728 85.551 115.098 90.6825 115.098L271.123 115.098C311.16 116.015 311.611 91.1078 282.783 89.0748Z" fill="#45B600"/>
<ellipse cx="31.103" cy="102.108" rx="19.4453" ry="13.0771" fill="#45B600"/>
<path d="M272.391 46.7047H229.501C224.611 46.7047 219.921 48.0112 216.463 50.3368C213.005 52.6623 211.062 55.8165 211.062 59.1053C211.062 62.3941 213.005 65.5483 216.463 67.8738C219.921 70.1994 224.611 71.5059 229.501 71.5059H283.503C305.754 71.9536 319.589 46.5576 272.391 46.7047Z" fill="#45B600"/>
<path d="M194.609 0.000646042H151.72C146.83 0.000646042 142.14 1.30713 138.682 3.63269C135.224 5.95824 133.281 9.11237 133.281 12.4012C133.281 15.69 135.224 18.8442 138.682 21.1697C142.14 23.4953 146.83 24.8017 151.72 24.8017H205.721C227.973 25.2495 241.807 -0.146473 194.609 0.000646042Z" fill="#45B600"/>
<path d="M138.647 127.193H76.4611C69.3705 127.193 62.5702 128.5 57.5564 130.825C52.5425 133.151 49.7258 136.305 49.7258 139.594C49.7258 142.882 52.5425 146.037 57.5564 148.362C62.5702 150.688 69.3705 151.994 76.4611 151.994H154.758C187.021 152.442 207.08 127.046 138.647 127.193Z" fill="#45B600"/>
</svg>
