<svg width="1440" height="170" viewBox="0 0 1440 170" fill="none" xmlns="http://www.w3.org/2000/svg">
<path d="M1145.78 203.092C1160.03 252.313 1133.58 303.206 1086.73 316.764C1039.87 330.322 990.335 301.411 976.094 252.19C961.852 202.969 988.293 152.076 1035.15 138.518C1082.01 124.96 1131.54 153.871 1145.78 203.092Z" fill="#F8F8F8"/>
<path d="M1266.79 231.437C1281.04 280.658 1254.6 331.55 1207.74 345.108C1160.88 358.667 1111.35 329.756 1097.11 280.535C1082.86 231.314 1109.3 180.421 1156.16 166.863C1203.02 153.305 1252.55 182.215 1266.79 231.437Z" fill="#F8F8F8"/>
<path d="M1314.53 177.447C1322.17 203.83 1307.92 231.128 1282.72 238.42C1257.52 245.711 1230.9 230.235 1223.27 203.853C1215.64 177.47 1229.88 150.172 1255.08 142.88C1280.28 135.588 1306.9 151.064 1314.53 177.447Z" fill="#F8F8F8"/>
<path d="M1381.25 189.05C1388.88 215.432 1374.64 242.73 1349.44 250.022C1324.24 257.314 1297.62 241.838 1289.99 215.455C1282.35 189.073 1296.59 161.774 1321.8 154.483C1347 147.191 1373.62 162.667 1381.25 189.05Z" fill="#F8F8F8"/>
<path d="M1544.34 117.135C1551.97 143.518 1537.73 170.816 1512.53 178.108C1487.33 185.4 1460.71 169.924 1453.07 143.541C1445.44 117.159 1459.68 89.8603 1484.88 82.5686C1510.09 75.2768 1536.7 90.753 1544.34 117.135Z" fill="#F8F8F8"/>
<path d="M1454.58 106.018C1464.72 141.063 1445.81 177.324 1412.34 187.009C1378.87 196.693 1343.51 176.134 1333.37 141.088C1323.23 106.043 1342.15 69.7821 1375.62 60.0977C1409.09 50.4134 1444.44 70.9726 1454.58 106.018Z" fill="#F8F8F8"/>
<path d="M1488.52 73.7885C1493.54 91.1143 1484.19 109.039 1467.66 113.824C1451.12 118.609 1433.65 108.443 1428.63 91.1173C1423.62 73.7915 1432.96 55.8669 1449.5 51.0817C1466.04 46.2965 1483.51 56.4627 1488.52 73.7885Z" fill="#F8F8F8"/>
<path d="M93.5448 157.694C93.5448 202.812 58.7249 239.387 15.7724 239.387C-27.1801 239.387 -62 202.812 -62 157.694C-62 112.576 -27.1801 76 15.7724 76C58.7249 76 93.5448 112.576 93.5448 157.694Z" fill="#F8F8F8"/>
<path d="M188.963 211.285C188.963 256.403 154.143 292.978 111.191 292.978C68.2381 292.978 33.4182 256.403 33.4182 211.285C33.4182 166.166 68.2381 129.591 111.191 129.591C154.143 129.591 188.963 166.166 188.963 211.285Z" fill="#F8F8F8"/>
<path d="M242.554 177.301C242.554 201.484 223.827 221.088 200.727 221.088C177.626 221.088 158.9 201.484 158.9 177.301C158.9 153.117 177.626 133.513 200.727 133.513C223.827 133.513 242.554 153.117 242.554 177.301Z" fill="#F8F8F8"/>
<path d="M296.145 203.443C296.145 227.626 277.419 247.231 254.318 247.231C231.218 247.231 212.491 227.626 212.491 203.443C212.491 179.26 231.218 159.655 254.318 159.655C277.419 159.655 296.145 179.26 296.145 203.443Z" fill="#F8F8F8"/>
<path d="M451.69 182.529C451.69 206.712 432.963 226.317 409.863 226.317C386.762 226.317 368.036 206.712 368.036 182.529C368.036 158.346 386.762 138.741 409.863 138.741C432.963 138.741 451.69 158.346 451.69 182.529Z" fill="#F8F8F8"/>
<path d="M378.493 151.159C378.493 183.283 353.621 209.325 322.941 209.325C292.261 209.325 267.389 183.283 267.389 151.159C267.389 119.035 292.261 92.9932 322.941 92.9932C353.621 92.9932 378.493 119.035 378.493 151.159Z" fill="#F8F8F8"/>
<path d="M415.091 132.204C415.091 148.086 402.802 160.961 387.642 160.961C372.482 160.961 360.193 148.086 360.193 132.204C360.193 116.323 372.482 103.448 387.642 103.448C402.802 103.448 415.091 116.323 415.091 132.204Z" fill="#F8F8F8"/>
<path d="M602.545 190.694C602.545 235.812 567.725 272.387 524.772 272.387C481.82 272.387 447 235.812 447 190.694C447 145.576 481.82 109 524.772 109C567.725 109 602.545 145.576 602.545 190.694Z" fill="#F8F8F8"/>
<path d="M712.963 244.285C712.963 289.403 678.143 325.978 635.191 325.978C592.238 325.978 557.418 289.403 557.418 244.285C557.418 199.166 592.238 162.591 635.191 162.591C678.143 162.591 712.963 199.166 712.963 244.285Z" fill="#F8F8F8"/>
<path d="M756.545 235.694C756.545 280.812 721.725 317.387 678.772 317.387C635.82 317.387 601 280.812 601 235.694C601 190.576 635.82 154 678.772 154C721.725 154 756.545 190.576 756.545 235.694Z" fill="#F8F8F8"/>
<path d="M846.545 244.694C846.545 289.812 811.725 326.387 768.772 326.387C725.82 326.387 691 289.812 691 244.694C691 199.576 725.82 163 768.772 163C811.725 163 846.545 199.576 846.545 244.694Z" fill="#F8F8F8"/>
<path d="M766.554 210.301C766.554 234.484 747.827 254.088 724.727 254.088C701.626 254.088 682.9 234.484 682.9 210.301C682.9 186.117 701.626 166.513 724.727 166.513C747.827 166.513 766.554 186.117 766.554 210.301Z" fill="#F8F8F8"/>
<path d="M902.493 184.159C902.493 216.283 877.621 242.325 846.941 242.325C816.261 242.325 791.389 216.283 791.389 184.159C791.389 152.035 816.261 125.993 846.941 125.993C877.621 125.993 902.493 152.035 902.493 184.159Z" fill="#F8F8F8"/>
<path d="M939.091 165.204C939.091 181.086 926.802 193.961 911.642 193.961C896.482 193.961 884.193 181.086 884.193 165.204C884.193 149.323 896.482 136.448 911.642 136.448C926.802 136.448 939.091 149.323 939.091 165.204Z" fill="#F8F8F8"/>
<path d="M1005.65 194.788C1005.65 218.971 986.928 238.576 963.827 238.576C940.727 238.576 922 218.971 922 194.788C922 170.604 940.727 151 963.827 151C986.928 151 1005.65 170.604 1005.65 194.788Z" fill="#F8F8F8"/>
</svg>
