<svg width="1440" height="176" viewBox="0 0 1440 176" fill="none" xmlns="http://www.w3.org/2000/svg">
<path d="M1142.95 201.53C1157.09 250.391 1130.84 300.911 1084.33 314.37C1037.81 327.829 988.641 299.13 974.504 250.269C960.366 201.408 986.614 150.887 1033.13 137.428C1079.65 123.969 1128.81 152.668 1142.95 201.53Z" fill="white"/>
<path d="M1211.14 147.508C1220.33 179.27 1203.26 212.109 1173.03 220.858C1142.79 229.607 1110.83 210.951 1101.64 179.19C1092.45 147.429 1109.51 114.589 1139.75 105.841C1169.98 97.092 1201.95 115.747 1211.14 147.508Z" fill="white"/>
<path d="M1273.27 180.762C1279.46 202.17 1267.91 224.321 1247.46 230.238C1227.01 236.155 1205.41 223.597 1199.22 202.189C1193.02 180.781 1204.58 158.63 1225.03 152.713C1245.48 146.797 1267.07 159.355 1273.27 180.762Z" fill="white"/>
<path d="M1348.32 150.421C1355.89 176.61 1341.76 203.709 1316.74 210.948C1291.72 218.186 1265.3 202.823 1257.72 176.633C1250.14 150.444 1264.28 123.345 1289.3 116.107C1314.31 108.868 1340.74 124.231 1348.32 150.421Z" fill="white"/>
<path d="M1538.59 116.202C1546.17 142.392 1532.03 169.49 1507.02 176.729C1482 183.967 1455.57 168.604 1448 142.415C1440.42 116.225 1454.56 89.1262 1479.57 81.8878C1504.59 74.6493 1531.01 90.0123 1538.59 116.202Z" fill="white"/>
<path d="M1449.49 105.166C1459.56 139.955 1440.78 175.951 1407.56 185.564C1374.33 195.178 1339.24 174.769 1329.17 139.98C1319.11 105.19 1337.88 69.195 1371.11 59.5814C1404.33 49.9678 1439.43 70.3767 1449.49 105.166Z" fill="white"/>
<path d="M1483.19 73.1722C1488.16 90.3713 1478.89 108.165 1462.47 112.915C1446.05 117.665 1428.71 107.573 1423.74 90.3743C1418.76 73.1751 1428.03 55.3816 1444.45 50.6314C1460.87 45.8811 1478.21 55.973 1483.19 73.1722Z" fill="white"/>
<path d="M98.4075 156.464C98.4075 201.252 63.8422 237.56 21.2038 237.56C-21.4347 237.56 -56 201.252 -56 156.464C-56 111.675 -21.4347 75.3672 21.2038 75.3672C63.8422 75.3672 98.4075 111.675 98.4075 156.464Z" fill="white"/>
<path d="M193.128 209.663C193.128 254.451 158.563 290.759 115.924 290.759C73.2859 290.759 38.7206 254.451 38.7206 209.663C38.7206 164.874 73.2859 128.566 115.924 128.566C158.563 128.566 193.128 164.874 193.128 209.663Z" fill="white"/>
<path d="M246.327 175.928C246.327 199.934 227.738 219.395 204.806 219.395C181.874 219.395 163.285 199.934 163.285 175.928C163.285 151.921 181.874 132.46 204.806 132.46C227.738 132.46 246.327 151.921 246.327 175.928Z" fill="white"/>
<path d="M299.527 201.879C299.527 225.885 280.937 245.346 258.005 245.346C235.074 245.346 216.484 225.885 216.484 201.879C216.484 177.872 235.074 158.411 258.005 158.411C280.937 158.411 299.527 177.872 299.527 201.879Z" fill="white"/>
<path d="M453.934 181.117C453.934 205.124 435.344 224.585 412.413 224.585C389.481 224.585 370.891 205.124 370.891 181.117C370.891 157.111 389.481 137.649 412.413 137.649C435.344 137.649 453.934 157.111 453.934 181.117Z" fill="white"/>
<path d="M380.272 158.977C380.272 190.866 355.582 216.718 325.126 216.718C294.67 216.718 269.981 190.866 269.981 158.977C269.981 127.088 294.67 101.236 325.126 101.236C355.582 101.236 380.272 127.088 380.272 158.977Z" fill="white"/>
<path d="M416.603 140.161C416.603 155.927 404.403 168.707 389.355 168.707C374.306 168.707 362.106 155.927 362.106 140.161C362.106 124.396 374.306 111.615 389.355 111.615C404.403 111.615 416.603 124.396 416.603 140.161Z" fill="white"/>
<path d="M609 219C609 263.735 569.601 300 521 300C472.399 300 433 263.735 433 219C433 174.265 472.399 138 521 138C569.601 138 609 174.265 609 219Z" fill="white"/>
<path d="M701 178C701 211.689 672.794 239 638 239C603.206 239 575 211.689 575 178C575 144.311 603.206 117 638 117C672.794 117 701 144.311 701 178Z" fill="white"/>
<path d="M854.902 217.096C854.902 261.885 820.336 298.193 777.698 298.193C735.06 298.193 700.494 261.885 700.494 217.096C700.494 172.308 735.06 136 777.698 136C820.336 136 854.902 172.308 854.902 217.096Z" fill="white"/>
<path d="M743 179.5C743 199.658 726.435 216 706 216C685.565 216 669 199.658 669 179.5C669 159.342 685.565 143 706 143C726.435 143 743 159.342 743 179.5Z" fill="white"/>
<path d="M974.103 213.876C974.103 237.882 955.513 257.344 932.581 257.344C909.65 257.344 891.06 237.882 891.06 213.876C891.06 189.869 909.65 170.408 932.581 170.408C955.513 170.408 974.103 189.869 974.103 213.876Z" fill="white"/>
<path d="M870 178C870 191.807 859.255 203 846 203C832.745 203 822 191.807 822 178C822 164.193 832.745 153 846 153C859.255 153 870 164.193 870 178Z" fill="white"/>
<path d="M949 182.5C949 207.077 929.077 227 904.5 227C879.923 227 860 207.077 860 182.5C860 157.923 879.923 138 904.5 138C929.077 138 949 157.923 949 182.5Z" fill="white"/>
<path d="M1005.04 198.468C1005.04 222.474 986.453 241.935 963.521 241.935C940.59 241.935 922 222.474 922 198.468C922 174.461 940.59 155 963.521 155C986.453 155 1005.04 174.461 1005.04 198.468Z" fill="white"/>
<path d="M1145.78 206.092C1160.03 255.313 1133.58 306.206 1086.73 319.764C1039.87 333.322 990.336 304.411 976.094 255.19C961.852 205.969 988.293 155.076 1035.15 141.518C1082.01 127.96 1131.54 156.871 1145.78 206.092Z" fill="#F8F8F8"/>
<path d="M1213.55 150.609C1222.81 182.604 1205.62 215.686 1175.16 224.499C1144.7 233.312 1112.51 214.519 1103.25 182.524C1093.99 150.529 1111.18 117.447 1141.64 108.634C1172.1 99.821 1204.29 118.614 1213.55 150.609Z" fill="#F8F8F8"/>
<path d="M1276.59 184.338C1282.83 205.904 1271.19 228.218 1250.59 234.178C1229.99 240.139 1208.23 227.488 1201.99 205.923C1195.75 184.357 1207.39 162.043 1227.99 156.083C1248.59 150.122 1270.35 162.773 1276.59 184.338Z" fill="#F8F8F8"/>
<path d="M1352.87 154.88C1360.5 181.262 1346.26 208.561 1321.06 215.852C1295.86 223.144 1269.24 207.668 1261.61 181.285C1253.97 154.903 1268.21 127.604 1293.42 120.313C1318.62 113.021 1345.23 128.497 1352.87 154.88Z" fill="#F8F8F8"/>
<path d="M1544.34 120.135C1551.97 146.518 1537.73 173.816 1512.53 181.108C1487.33 188.4 1460.71 172.924 1453.07 146.541C1445.44 120.159 1459.68 92.8603 1484.88 85.5686C1510.09 78.2768 1536.7 93.753 1544.34 120.135Z" fill="#F8F8F8"/>
<path d="M1454.58 109.018C1464.72 144.063 1445.81 180.324 1412.34 190.009C1378.87 199.693 1343.51 179.134 1333.37 144.088C1323.23 109.043 1342.15 72.7821 1375.62 63.0977C1409.09 53.4134 1444.44 73.9726 1454.58 109.018Z" fill="#F8F8F8"/>
<path d="M1488.52 76.7885C1493.54 94.1143 1484.19 112.039 1467.66 116.824C1451.12 121.609 1433.65 111.443 1428.63 94.1173C1423.62 76.7915 1432.96 58.8669 1449.5 54.0817C1466.04 49.2965 1483.51 59.4627 1488.52 76.7885Z" fill="#F8F8F8"/>
<path d="M93.5448 160.694C93.5448 205.812 58.7249 242.387 15.7724 242.387C-27.1801 242.387 -62 205.812 -62 160.694C-62 115.576 -27.1801 79 15.7724 79C58.7249 79 93.5448 115.576 93.5448 160.694Z" fill="#F8F8F8"/>
<path d="M188.963 214.285C188.963 259.403 154.143 295.978 111.191 295.978C68.2381 295.978 33.4182 259.403 33.4182 214.285C33.4182 169.166 68.2381 132.591 111.191 132.591C154.143 132.591 188.963 169.166 188.963 214.285Z" fill="#F8F8F8"/>
<path d="M242.554 180.301C242.554 204.484 223.827 224.088 200.727 224.088C177.626 224.088 158.9 204.484 158.9 180.301C158.9 156.117 177.626 136.513 200.727 136.513C223.827 136.513 242.554 156.117 242.554 180.301Z" fill="#F8F8F8"/>
<path d="M296.145 206.443C296.145 230.626 277.419 250.231 254.318 250.231C231.218 250.231 212.491 230.626 212.491 206.443C212.491 182.26 231.218 162.655 254.318 162.655C277.419 162.655 296.145 182.26 296.145 206.443Z" fill="#F8F8F8"/>
<path d="M451.69 185.529C451.69 209.712 432.963 229.317 409.863 229.317C386.762 229.317 368.036 209.712 368.036 185.529C368.036 161.346 386.762 141.741 409.863 141.741C432.963 141.741 451.69 161.346 451.69 185.529Z" fill="#F8F8F8"/>
<path d="M377.493 163.159C377.493 195.283 352.621 221.325 321.941 221.325C291.261 221.325 266.389 195.283 266.389 163.159C266.389 131.035 291.261 104.993 321.941 104.993C352.621 104.993 377.493 131.035 377.493 163.159Z" fill="#F8F8F8"/>
<path d="M414.091 144.204C414.091 160.086 401.802 172.961 386.642 172.961C371.482 172.961 359.193 160.086 359.193 144.204C359.193 128.323 371.482 115.448 386.642 115.448C401.802 115.448 414.091 128.323 414.091 144.204Z" fill="#F8F8F8"/>
<path d="M608 223.499C608 268.51 568.377 304.999 519.5 304.999C470.623 304.999 431 268.51 431 223.499C431 178.488 470.623 141.999 519.5 141.999C568.377 141.999 608 178.488 608 223.499Z" fill="#F8F8F8"/>
<path d="M701 182C701 215.689 672.346 243 637 243C601.654 243 573 215.689 573 182C573 148.311 601.654 121 637 121C672.346 121 701 148.311 701 182Z" fill="#F8F8F8"/>
<path d="M855.545 221.961C855.545 267.079 820.725 303.655 777.772 303.655C734.82 303.655 700 267.079 700 221.961C700 176.843 734.82 140.268 777.772 140.268C820.725 140.268 855.545 176.843 855.545 221.961Z" fill="#F8F8F8"/>
<path d="M743 183.5C743 203.658 726.211 220 705.5 220C684.789 220 668 203.658 668 183.5C668 163.342 684.789 147 705.5 147C726.211 147 743 163.342 743 183.5Z" fill="#F8F8F8"/>
<path d="M975.69 218.528C975.69 242.711 956.963 262.316 933.863 262.316C910.762 262.316 892.036 242.711 892.036 218.528C892.036 194.345 910.762 174.74 933.863 174.74C956.963 174.74 975.69 194.345 975.69 218.528Z" fill="#F8F8F8"/>
<path d="M870 180C870 193.807 859.255 205 846 205C832.745 205 822 193.807 822 180C822 166.193 832.745 155 846 155C859.255 155 870 166.193 870 180Z" fill="#F8F8F8"/>
<path d="M950 189C950 213.853 930.077 234 905.5 234C880.923 234 861 213.853 861 189C861 164.147 880.923 144 905.5 144C930.077 144 950 164.147 950 189Z" fill="#F8F8F8"/>
<path d="M1006.85 202.968C1006.85 227.151 988.122 246.755 965.022 246.755C941.921 246.755 923.195 227.151 923.195 202.968C923.195 178.784 941.921 159.18 965.022 159.18C988.122 159.18 1006.85 178.784 1006.85 202.968Z" fill="#F8F8F8"/>
</svg>
