<svg width="411" height="90" viewBox="0 0 411 90" fill="none" xmlns="http://www.w3.org/2000/svg">
<path d="M318.005 114.729C318.005 142.194 296.737 164.458 270.503 164.458C244.268 164.458 223 142.194 223 114.729C223 87.2645 244.268 65 270.503 65C296.737 65 318.005 87.2645 318.005 114.729Z" fill="#F8F8F8"/>
<path d="M87.65 92.7784C87.65 144.018 48.1056 185.557 -0.674985 185.557C-49.4555 185.557 -89 144.018 -89 92.7784C-89 41.5383 -49.4555 0 -0.674985 0C48.1056 0 87.65 41.5383 87.65 92.7784Z" fill="#F8F8F8"/>
<path d="M191 122C191 160.108 161.451 191 125 191C88.5492 191 59 160.108 59 122C59 83.8924 88.5492 53 125 53C161.451 53 191 83.8924 191 122Z" fill="#F8F8F8"/>
<path d="M256.878 92.0456C256.878 119.51 235.61 141.775 209.375 141.775C183.14 141.775 161.873 119.51 161.873 92.0456C161.873 64.5809 183.14 42.3164 209.375 42.3164C235.61 42.3164 256.878 64.5809 256.878 92.0456Z" fill="#F8F8F8"/>
<path d="M494.39 97.9831C494.39 125.448 473.123 147.712 446.888 147.712C420.653 147.712 399.385 125.448 399.385 97.9831C399.385 70.5184 420.653 48.2539 446.888 48.2539C473.123 48.2539 494.39 70.5184 494.39 97.9831Z" fill="#F8F8F8"/>
<path d="M411.261 85.357C411.261 121.84 383.015 151.415 348.172 151.415C313.329 151.415 285.083 121.84 285.083 85.357C285.083 48.8741 313.329 19.2988 348.172 19.2988C383.015 19.2988 411.261 48.8741 411.261 85.357Z" fill="#F8F8F8"/>
<path d="M452.826 40.8308C452.826 58.8673 438.869 73.4888 421.652 73.4888C404.435 73.4888 390.479 58.8673 390.479 40.8308C390.479 22.7943 404.435 8.17285 421.652 8.17285C438.869 8.17285 452.826 22.7943 452.826 40.8308Z" fill="#F8F8F8"/>
</svg>
