<svg width="198" height="151" viewBox="0 0 198 151" fill="none" xmlns="http://www.w3.org/2000/svg">
<g filter="url(#filter0_d)">
<path d="M0 58.2776C0 78.3966 9.11539 103.729 37.1085 118.13C37.1085 118.13 47.481 122.856 29.4304 139C48.6164 135.564 62.614 124.348 57.6835 127.063C73.6967 132.817 90.6301 136.244 106.342 136.244C158.788 136.244 186 105.539 186 70.0907C186 34.6427 145.838 0 93.3924 0C40.9463 0 0 22.8297 0 58.2776Z" fill="white"/>
</g>
<path d="M74.5225 40.7275V33.5581H76.067V50.499H74.8953V42.3206H67.0129V50.499H64.8293V33.6112H67.3325V40.7275H74.5225Z" fill="#595959"/>
<path d="M79.8484 50.6052V40.8868H81.7124V50.7114L79.8484 50.6052ZM82.2983 38.7094L80.4342 39.2405L78.7299 35.2044L80.594 34.7265L82.2983 38.7094Z" fill="#595959"/>
<path d="M89.0622 50.0741L87.6242 52.0391L85.3873 49.7555L86.8785 47.8968L89.0622 50.0741ZM88.21 46.3036H86.0264V32.8146H88.21V46.3036Z" fill="#595959"/>
<path d="M106.052 49.9679H99.714V48.481H101.791V35.2044H98.8086V33.7705L104.667 33.3988V34.9389L102.75 35.0982V48.3747H106.052V49.9679Z" fill="#595959"/>
<path d="M111.697 30V36.3196H109.886V32.0711H108.289V30H111.697Z" fill="#595959"/>
<path d="M114.999 39.3998L116.65 39.0281L116.783 40.1964H126.557L127.781 41.5772V49.8617L126.663 50.021V43.011L125.598 41.5772H122.882V50.2335H121.337V41.7896H116.97L117.875 50.499L116.171 50.7114L114.999 39.3998Z" fill="#595959"/>
<path d="M67.264 63.1352V84.7495H64V58.4619L68.0173 57.8777L74.4616 74.5682L81.9939 58.3784L85.1743 58.6288L87.1829 85.4171H84.3373L82.8309 63.4691L75.2148 78.9912L73.3736 78.7409L67.264 63.1352Z" fill="#595959"/>
<path d="M96.8912 70.0618C95.3569 70.0618 94.1433 70.5347 93.2506 71.4805C92.3858 72.4263 91.9534 73.9424 91.9534 76.0287C91.9534 76.8354 92.065 77.6421 92.2881 78.4488C92.5113 79.2277 92.8321 79.937 93.2506 80.5768C93.6691 81.2166 94.1712 81.7452 94.7571 82.1624C95.3429 82.5519 95.9985 82.7466 96.7239 82.7466C97.4771 82.7466 98.1606 82.5658 98.7743 82.2042C99.3881 81.8425 99.9042 81.3835 100.323 80.8272C100.741 80.243 101.062 79.6032 101.285 78.9078C101.536 78.1845 101.662 77.4891 101.662 76.8215C101.662 74.3735 101.215 72.6349 100.323 71.6057C99.4578 70.5764 98.314 70.0618 96.8912 70.0618ZM96.6402 67.2244C98.035 67.2244 99.2207 67.4748 100.197 67.9755C101.174 68.4762 101.969 69.1716 102.582 70.0618C103.196 70.9242 103.642 71.9395 103.921 73.1078C104.2 74.2483 104.34 75.4862 104.34 76.8215C104.284 78.3236 104.033 79.631 103.587 80.7437C103.168 81.8286 102.61 82.7327 101.913 83.456C101.215 84.1792 100.42 84.7077 99.5276 85.0416C98.6627 85.4032 97.7561 85.584 96.8076 85.584C95.5522 85.584 94.4502 85.3336 93.5017 84.8329C92.5811 84.3322 91.7999 83.6646 91.1583 82.8301C90.5445 81.9677 90.0703 80.9941 89.7355 79.9092C89.4286 78.7965 89.2752 77.6282 89.2752 76.4042C89.2752 75.0968 89.4426 73.8867 89.7774 72.774C90.14 71.6335 90.6282 70.6599 91.242 69.8532C91.8836 69.0186 92.6508 68.3788 93.5435 67.9338C94.4642 67.4609 95.4964 67.2244 96.6402 67.2244Z" fill="#595959"/>
<path d="M107.52 84.8329V69.5611H110.449V84.9998L107.52 84.8329ZM111.37 66.1395L108.441 66.9741L105.763 60.6317L108.692 59.8806L111.37 66.1395Z" fill="#595959"/>
<path d="M128.694 56.2921V83.1639L127.606 84.4991C126.686 84.7773 125.821 84.972 125.012 85.0833C124.203 85.1945 123.436 85.2502 122.71 85.2502C121.009 85.2502 119.572 84.9859 118.4 84.4574C117.256 83.9288 116.322 83.2334 115.597 82.3711C114.871 81.5087 114.341 80.549 114.006 79.492C113.7 78.4349 113.546 77.3639 113.546 76.279C113.546 74.7491 113.783 73.4555 114.257 72.3985C114.732 71.3136 115.345 70.4234 116.099 69.728C116.88 69.0326 117.745 68.5318 118.693 68.2258C119.67 67.892 120.66 67.7251 121.664 67.7251C123.31 67.7251 124.789 68.0868 126.1 68.81L126.016 56.2087L128.694 56.2921ZM125.933 72.4819C125.291 71.8978 124.594 71.4666 123.84 71.1884C123.087 70.8824 122.32 70.7294 121.539 70.7294C120.869 70.7294 120.214 70.8546 119.572 71.105C118.958 71.3275 118.414 71.6752 117.94 72.1481C117.466 72.5932 117.075 73.1635 116.768 73.8589C116.489 74.5265 116.35 75.3193 116.35 76.2373C116.35 77.2944 116.531 78.1984 116.894 78.9495C117.256 79.7006 117.731 80.3126 118.317 80.7855C118.93 81.2584 119.628 81.62 120.409 81.8704C121.218 82.0929 122.055 82.2042 122.92 82.2042C124.036 82.2042 125.04 81.9955 125.933 81.5783V72.4819Z" fill="#595959"/>
<path d="M64.9254 92.509H69.1308L69.0801 93.3479H65.2041V96.2713H69.2575V97.1102H65.1534V100.745H64.2161V92.9666L64.9254 92.509Z" fill="#595959"/>
<path d="M70.2962 95.3816L71.0055 95.5595C70.9295 95.9917 70.8662 96.4069 70.8155 96.8051C70.7733 97.2034 70.7522 97.5762 70.7522 97.9236C70.7522 98.2456 70.7691 98.5337 70.8028 98.7879C70.8451 99.0421 70.9126 99.2625 71.0055 99.4489C71.0984 99.6353 71.2208 99.7793 71.3728 99.881C71.5333 99.9742 71.7317 100.021 71.9682 100.021C72.1286 100.021 72.2806 99.9785 72.4242 99.8937C72.5762 99.8005 72.7113 99.6522 72.8295 99.4489C72.9562 99.2455 73.0575 98.9786 73.1335 98.6481C73.2095 98.3092 73.2602 97.8897 73.2855 97.3898L73.3362 95.5849L74.0456 95.6358V100.644L73.4122 100.72L73.3869 99.7539C73.2771 100.144 73.0786 100.44 72.7915 100.644C72.5044 100.839 72.1709 100.936 71.7909 100.936C71.4784 100.936 71.2082 100.864 70.9802 100.72C70.7522 100.584 70.5622 100.394 70.4102 100.148C70.2666 99.9022 70.1568 99.6056 70.0808 99.2582C70.0133 98.9108 69.9795 98.5295 69.9795 98.1143C69.9795 97.733 70.0048 97.3178 70.0555 96.8687C70.1146 96.4111 70.1948 95.9154 70.2962 95.3816Z" fill="#595959"/>
<path d="M75.1349 100.034V92.3565L75.9709 92.3057V99.7031L76.8069 99.9065L76.7309 100.822L75.3376 100.542L75.1349 100.034Z" fill="#595959"/>
<path d="M77.7443 100.034V92.3565L78.5803 92.3057V99.7031L79.4163 99.9065L79.3403 100.822L77.9469 100.542L77.7443 100.034Z" fill="#595959"/>
<path d="M88.2071 93.0429L87.8524 93.8055C87.8102 93.7546 87.73 93.6996 87.6118 93.6403C87.4935 93.5725 87.35 93.5131 87.1811 93.4623C87.0206 93.4115 86.8433 93.3691 86.6491 93.3352C86.4549 93.2928 86.2649 93.2717 86.0791 93.2717C85.8933 93.2717 85.716 93.2928 85.5471 93.3352C85.3866 93.3691 85.2431 93.4284 85.1164 93.5131C84.9897 93.5979 84.8884 93.7123 84.8124 93.8563C84.7448 94.0004 84.7111 94.1741 84.7111 94.3775C84.7111 94.6486 84.8124 94.9198 85.0151 95.1909C85.2262 95.4536 85.5471 95.6612 85.9777 95.8137C86.5351 96.034 86.97 96.2671 87.2824 96.5128C87.6033 96.7585 87.8398 97.0043 87.9918 97.25C88.1522 97.4957 88.2536 97.7372 88.2958 97.9745C88.338 98.2117 88.3591 98.4321 88.3591 98.6354C88.3338 99.3387 88.11 99.8853 87.6878 100.275C87.2655 100.665 86.6406 100.86 85.8131 100.86C85.4753 100.86 85.1037 100.822 84.6984 100.745C84.3015 100.678 83.8666 100.567 83.3937 100.415L83.6724 99.5251C83.9342 99.6268 84.2593 99.7243 84.6477 99.8175C85.0446 99.9022 85.4373 99.9446 85.8257 99.9446C86.0537 99.9446 86.2691 99.9234 86.4718 99.881C86.6744 99.8387 86.8518 99.7709 87.0038 99.6777C87.1558 99.576 87.274 99.4446 87.3584 99.2836C87.4513 99.1226 87.4978 98.9235 87.4978 98.6863C87.4893 98.2795 87.3922 97.9533 87.2064 97.7076C87.0291 97.4618 86.8053 97.2585 86.5351 97.0975C86.2649 96.9365 85.9735 96.7924 85.6611 96.6653C85.3486 96.5382 85.0573 96.3857 84.7871 96.2077C84.5253 96.0298 84.3057 95.8052 84.1284 95.5341C83.951 95.2629 83.8624 94.9028 83.8624 94.4537C83.8624 94.0893 83.9173 93.7801 84.027 93.5259C84.1368 93.2717 84.2888 93.0683 84.4831 92.9158C84.6857 92.7548 84.9179 92.6404 85.1797 92.5726C85.45 92.4963 85.7413 92.4582 86.0537 92.4582C86.4591 92.4582 86.8518 92.5133 87.2318 92.6234C87.6118 92.7251 87.9369 92.8649 88.2071 93.0429Z" fill="#595959"/>
<path d="M90.1578 100.44V96.5891H88.8658L88.9418 95.6612H90.3351V93.0683H91.1965V95.712H93.2739V96.6272H91.1078V99.9319L93.0205 99.576L93.1472 100.44L90.6138 100.974L90.1578 100.44Z" fill="#595959"/>
<path d="M98.4419 96.9577L99.2526 100.415L98.4926 100.694L98.0366 98.5337C97.9775 98.771 97.8846 99.0167 97.7579 99.2709C97.6397 99.5251 97.4877 99.7582 97.3019 99.97C97.1246 100.173 96.9093 100.343 96.6559 100.478C96.411 100.606 96.1324 100.669 95.8199 100.669C95.2626 100.669 94.8361 100.491 94.5405 100.135C94.2534 99.7709 94.1099 99.2709 94.1099 98.6354C94.1099 98.2711 94.1648 97.894 94.2745 97.5042C94.3843 97.1059 94.549 96.7458 94.7686 96.4238C94.9881 96.1018 95.2626 95.8349 95.5919 95.6231C95.9297 95.4112 96.3224 95.3053 96.7699 95.3053C97.0317 95.3053 97.2597 95.3646 97.4539 95.4833C97.6566 95.5934 97.8255 95.7332 97.9606 95.9027C98.0957 96.0722 98.2013 96.2543 98.2773 96.4492C98.3533 96.6357 98.4082 96.8051 98.4419 96.9577ZM96.8966 96.2205C96.8375 96.2035 96.7784 96.1908 96.7192 96.1823C96.6686 96.1738 96.6137 96.1696 96.5546 96.1696C96.2928 96.1696 96.0563 96.2501 95.8452 96.4111C95.6426 96.5636 95.4695 96.7585 95.3259 96.9958C95.1908 97.233 95.0852 97.4915 95.0092 97.7711C94.9417 98.0507 94.9079 98.3092 94.9079 98.5464C94.9079 98.9193 94.9881 99.2201 95.1486 99.4489C95.309 99.6777 95.5623 99.7921 95.9086 99.7921C96.145 99.7921 96.3646 99.7158 96.5672 99.5633C96.7699 99.4023 96.943 99.2031 97.0866 98.9659C97.2301 98.7286 97.3399 98.4702 97.4159 98.1906C97.5004 97.9025 97.5426 97.6355 97.5426 97.3898C97.5426 97.1186 97.4877 96.8814 97.3779 96.678C97.2766 96.4662 97.1161 96.3137 96.8966 96.2205Z" fill="#595959"/>
<path d="M104.497 96.0679L104.269 96.8814C104.024 96.6611 103.762 96.5001 103.483 96.3984C103.205 96.2882 102.93 96.2332 102.66 96.2332C102.432 96.2332 102.212 96.2755 102.001 96.3603C101.799 96.4365 101.621 96.5552 101.469 96.7162C101.317 96.8772 101.195 97.0763 101.102 97.3135C101.018 97.5508 100.975 97.822 100.975 98.127C100.975 98.4914 101.022 98.7964 101.115 99.0421C101.216 99.2879 101.347 99.487 101.507 99.6395C101.668 99.7921 101.849 99.9022 102.052 99.97C102.263 100.038 102.478 100.072 102.698 100.072C102.892 100.063 103.082 100.025 103.268 99.9573C103.462 99.881 103.635 99.7793 103.787 99.6522C103.939 99.5167 104.066 99.3599 104.167 99.182C104.269 98.9955 104.328 98.7879 104.345 98.5592L105.054 98.915C105.037 99.254 104.957 99.5506 104.813 99.8048C104.678 100.059 104.501 100.271 104.281 100.44C104.07 100.61 103.825 100.737 103.547 100.822C103.268 100.906 102.981 100.949 102.685 100.949C102.373 100.949 102.065 100.889 101.761 100.771C101.457 100.661 101.186 100.491 100.95 100.262C100.714 100.034 100.524 99.7455 100.38 99.398C100.236 99.0421 100.165 98.6269 100.165 98.1524C100.165 97.7542 100.224 97.3898 100.342 97.0593C100.46 96.7204 100.625 96.4323 100.836 96.195C101.047 95.9493 101.296 95.7586 101.583 95.6231C101.879 95.4875 102.2 95.4197 102.546 95.4197C102.842 95.4197 103.15 95.4748 103.471 95.5849C103.8 95.6866 104.142 95.8476 104.497 96.0679Z" fill="#595959"/>
<path d="M106.65 97.9363L109.766 95.1274L110.323 95.8646L108.651 97.4661L110.982 100.237L110.475 100.949L107.993 98.0889L106.954 99.0803V100.796L106.194 100.898V92.4836L106.65 92.3311V97.9363Z" fill="#595959"/>
<path d="M115.568 101L115.162 100.491C115.112 99.2201 115.074 97.9787 115.048 96.767C115.031 95.5553 115.002 94.3139 114.96 93.0429L115.34 92.5853C115.492 92.5683 115.639 92.5556 115.783 92.5472C115.935 92.5387 116.083 92.5345 116.226 92.5345C116.817 92.5345 117.358 92.6107 117.848 92.7632C118.346 92.9158 118.772 93.1573 119.127 93.4877C119.482 93.8182 119.756 94.2419 119.95 94.7588C120.153 95.2756 120.254 95.8942 120.254 96.6145C120.254 97.2585 120.136 97.8516 119.9 98.3939C119.672 98.9278 119.355 99.3896 118.95 99.7793C118.544 100.161 118.067 100.461 117.518 100.682C116.978 100.894 116.395 101 115.77 101H115.568ZM115.745 93.3733L115.998 100.161C116.488 100.11 116.944 99.9912 117.366 99.8048C117.788 99.6099 118.152 99.3599 118.456 99.0549C118.768 98.7498 119.009 98.3939 119.178 97.9872C119.355 97.572 119.444 97.1229 119.444 96.6399C119.444 96.123 119.38 95.6612 119.254 95.2545C119.135 94.8477 118.941 94.5046 118.671 94.2249C118.409 93.9453 118.067 93.7335 117.645 93.5894C117.223 93.4369 116.716 93.3606 116.125 93.3606C116.066 93.3606 116.002 93.3649 115.935 93.3733C115.876 93.3733 115.812 93.3733 115.745 93.3733Z" fill="#595959"/>
<path d="M120.989 98.1016C120.989 97.6355 121.057 97.2458 121.192 96.9322C121.327 96.6102 121.496 96.356 121.698 96.1696C121.909 95.9747 122.142 95.8391 122.395 95.7629C122.648 95.6781 122.893 95.6358 123.13 95.6358C123.467 95.6358 123.771 95.6866 124.042 95.7883C124.312 95.8815 124.54 96.0425 124.726 96.2713C124.92 96.4916 125.068 96.7882 125.169 97.161C125.27 97.5339 125.321 97.9914 125.321 98.5337L121.8 98.8769C121.825 99.1142 121.888 99.3175 121.99 99.487C122.099 99.648 122.235 99.7793 122.395 99.881C122.555 99.9827 122.729 100.055 122.914 100.097C123.1 100.139 123.29 100.161 123.484 100.161C123.805 100.161 124.113 100.114 124.409 100.021C124.705 99.9276 124.924 99.8132 125.068 99.6777L125.296 100.288C125.237 100.372 125.148 100.457 125.03 100.542C124.911 100.627 124.772 100.699 124.612 100.758C124.451 100.826 124.27 100.877 124.067 100.911C123.873 100.953 123.67 100.974 123.459 100.974C123.163 100.974 122.868 100.928 122.572 100.834C122.277 100.741 122.011 100.584 121.774 100.364C121.538 100.144 121.348 99.8514 121.204 99.487C121.061 99.1142 120.989 98.6524 120.989 98.1016ZM121.724 98.127L124.51 97.822C124.51 97.4067 124.401 97.0763 124.181 96.8305C123.961 96.5763 123.607 96.4492 123.117 96.4492C122.881 96.4577 122.674 96.5086 122.496 96.6018C122.327 96.695 122.184 96.8136 122.066 96.9577C121.947 97.0932 121.859 97.25 121.8 97.4279C121.741 97.6059 121.711 97.7881 121.711 97.9745C121.711 98.0423 121.715 98.0931 121.724 98.127Z" fill="#595959"/>
<path d="M127.576 100.822L126.056 95.5087H126.942L128.082 99.6014L130.058 95.407L130.869 95.5849L128.462 100.822H127.576Z" fill="#595959"/>
<defs>
<filter id="filter0_d" x="0" y="0" width="198" height="151" filterUnits="userSpaceOnUse" color-interpolation-filters="sRGB">
<feFlood flood-opacity="0" result="BackgroundImageFix"/>
<feColorMatrix in="SourceAlpha" type="matrix" values="0 0 0 0 0 0 0 0 0 0 0 0 0 0 0 0 0 0 127 0"/>
<feOffset dx="8" dy="8"/>
<feGaussianBlur stdDeviation="2"/>
<feColorMatrix type="matrix" values="0 0 0 0 0 0 0 0 0 0 0 0 0 0 0 0 0 0 0.25 0"/>
<feBlend mode="normal" in2="BackgroundImageFix" result="effect1_dropShadow"/>
<feBlend mode="normal" in="SourceGraphic" in2="effect1_dropShadow" result="shape"/>
</filter>
</defs>
</svg>
