<svg width="198" height="151" viewBox="0 0 198 151" fill="none" xmlns="http://www.w3.org/2000/svg">
<g filter="url(#filter0_d)">
<path d="M0 58.2776C0 78.3966 9.11539 103.729 37.1085 118.13C37.1085 118.13 47.481 122.856 29.4304 139C48.6164 135.564 62.614 124.348 57.6835 127.063C73.6967 132.817 90.6301 136.244 106.342 136.244C158.788 136.244 186 105.539 186 70.0907C186 34.6427 145.838 0 93.3924 0C40.9463 0 0 22.8297 0 58.2776Z" fill="white"/>
</g>
<path d="M75.0427 38.9182V31.6214H76.5888V48.8635H75.4159V40.5397H67.525V48.8635H65.339V31.6754H67.8449V38.9182H75.0427Z" fill="#595959"/>
<path d="M80.3743 48.9716V39.0804H82.2404V49.0797L80.3743 48.9716ZM82.8269 36.8643L80.9608 37.4048L79.2547 33.297L81.1208 32.8105L82.8269 36.8643Z" fill="#595959"/>
<path d="M89.5981 48.4311L88.1586 50.431L85.9193 48.1068L87.4121 46.2151L89.5981 48.4311ZM88.7451 44.5935H86.5591V30.8647H88.7451V44.5935Z" fill="#595959"/>
<path d="M106.606 48.323H100.261V46.8096H102.341V33.297H99.3551V31.8376L105.22 31.4592V33.0267L103.301 33.1889V46.7015H106.606V48.323Z" fill="#595959"/>
<path d="M112.258 28V34.432H110.445V30.108H108.845V28H112.258Z" fill="#595959"/>
<path d="M115.563 37.567L117.216 37.1886L117.349 38.3777H127.133L128.359 39.783V48.2149L127.24 48.3771V41.2424L126.173 39.783H123.454V48.5933H121.908V39.9992H117.536L118.442 48.8635L116.736 49.0797L115.563 37.567Z" fill="#595959"/>
<path d="M64.7678 91.7156H69.3195L69.2646 92.633H65.0694V95.8297H69.4566V96.747H65.0145V100.722H64V92.216L64.7678 91.7156Z" fill="#595959"/>
<path d="M71.0744 101L70.6082 94.8846L71.4582 94.7734L71.6502 97.4697L74.5841 95.4683L74.968 96.2466L71.7873 98.5816V100.917L71.0744 101Z" fill="#595959"/>
<path d="M77.8745 95.8019C77.3718 95.8019 76.9742 95.9594 76.6818 96.2744C76.3984 96.5895 76.2568 97.0945 76.2568 97.7894C76.2568 98.0581 76.2933 98.3268 76.3664 98.5955C76.4396 98.855 76.5447 99.0912 76.6818 99.3044C76.8189 99.5175 76.9834 99.6935 77.1753 99.8325C77.3673 99.9622 77.5821 100.027 77.8197 100.027C78.0665 100.027 78.2904 99.9669 78.4915 99.8464C78.6926 99.7259 78.8617 99.5731 78.9988 99.3877C79.1359 99.1932 79.241 98.98 79.3141 98.7484C79.3963 98.5075 79.4375 98.2758 79.4375 98.0535C79.4375 97.2381 79.2912 96.659 78.9988 96.3161C78.7154 95.9733 78.3407 95.8019 77.8745 95.8019ZM77.7923 94.8568C78.2493 94.8568 78.6377 94.9402 78.9576 95.1069C79.2775 95.2737 79.538 95.5054 79.7391 95.8019C79.9402 96.0891 80.0864 96.4273 80.1778 96.8165C80.2692 97.1964 80.3149 97.6087 80.3149 98.0535C80.2966 98.5538 80.2144 98.9893 80.0681 99.3599C79.931 99.7213 79.7482 100.022 79.5197 100.263C79.2912 100.504 79.0307 100.68 78.7383 100.792C78.4549 100.912 78.1579 100.972 77.8471 100.972C77.4358 100.972 77.0748 100.889 76.764 100.722C76.4624 100.555 76.2065 100.333 75.9963 100.055C75.7952 99.7676 75.6398 99.4433 75.5301 99.082C75.4296 98.7113 75.3793 98.3222 75.3793 97.9145C75.3793 97.479 75.4342 97.0759 75.5438 96.7053C75.6627 96.3254 75.8226 96.0011 76.0237 95.7324C76.2339 95.4544 76.4853 95.2413 76.7777 95.093C77.0794 94.9355 77.4175 94.8568 77.7923 94.8568Z" fill="#595959"/>
<path d="M84.757 96.1632H82.0972V100.611L81.4117 100.694V94.7178L82.0698 94.5788V95.2737L85.2505 95.0791L85.6618 95.9131L86.0731 100.444L85.1957 100.694L84.757 96.1632Z" fill="#595959"/>
<path d="M87.9377 100.388V96.1771H86.5393L86.6215 95.1625H88.1296V92.3272H89.0619V95.2181H91.3103V96.2188H88.9659V99.8325L91.0361 99.4433L91.1732 100.388L88.4312 100.972L87.9377 100.388Z" fill="#595959"/>
<path d="M91.9684 97.8311C91.9684 97.3215 92.0415 96.8952 92.1878 96.5524C92.334 96.2003 92.5168 95.9223 92.7362 95.7185C92.9647 95.5054 93.216 95.3571 93.4902 95.2737C93.7644 95.1811 94.0295 95.1347 94.2854 95.1347C94.651 95.1347 94.9801 95.1903 95.2725 95.3015C95.565 95.4034 95.8118 95.5795 96.0129 95.8297C96.2231 96.0706 96.383 96.3949 96.4927 96.8026C96.6024 97.2103 96.6572 97.7106 96.6572 98.3036L92.8459 98.6789C92.8733 98.9384 92.9418 99.1607 93.0515 99.346C93.1703 99.5221 93.3166 99.6657 93.4902 99.7769C93.6639 99.8881 93.8513 99.9669 94.0523 100.013C94.2534 100.06 94.4591 100.083 94.6693 100.083C95.0166 100.083 95.3502 100.032 95.6701 99.9298C95.99 99.8279 96.2277 99.7028 96.383 99.5545L96.6298 100.222C96.5658 100.314 96.4699 100.407 96.3419 100.5C96.214 100.592 96.0631 100.671 95.8895 100.736C95.7158 100.81 95.5193 100.866 95.3 100.903C95.0897 100.949 94.8704 100.972 94.6419 100.972C94.322 100.972 94.0021 100.921 93.6822 100.819C93.3623 100.717 93.0744 100.546 92.8184 100.305C92.5625 100.064 92.3569 99.7445 92.2015 99.346C92.0461 98.9384 91.9684 98.4334 91.9684 97.8311ZM92.7636 97.8589L95.7798 97.5253C95.7798 97.0713 95.661 96.7099 95.4233 96.4412C95.1857 96.1632 94.8018 96.0243 94.2717 96.0243C94.0158 96.0335 93.7919 96.0891 93.5999 96.191C93.4171 96.293 93.2617 96.4227 93.1338 96.5802C93.0058 96.7285 92.9098 96.8999 92.8459 97.0945C92.7819 97.289 92.7499 97.4883 92.7499 97.6921C92.7499 97.7662 92.7545 97.8218 92.7636 97.8589Z" fill="#595959"/>
<path d="M101.264 96.1632H98.6041V100.611L97.9186 100.694V94.7178L98.5767 94.5788V95.2737L101.757 95.0791L102.169 95.9131L102.58 100.444L101.703 100.694L101.264 96.1632Z" fill="#595959"/>
<path d="M108.119 91.2153V100.166L107.762 100.611C107.461 100.703 107.177 100.768 106.912 100.805C106.647 100.842 106.396 100.861 106.158 100.861C105.601 100.861 105.13 100.773 104.746 100.597C104.371 100.421 104.065 100.189 103.828 99.902C103.59 99.6148 103.416 99.2951 103.307 98.943C103.206 98.5909 103.156 98.2342 103.156 97.8728C103.156 97.3632 103.233 96.9323 103.389 96.5802C103.544 96.2188 103.745 95.9223 103.992 95.6907C104.248 95.459 104.531 95.2923 104.842 95.1903C105.162 95.0791 105.486 95.0235 105.816 95.0235C106.355 95.0235 106.839 95.144 107.269 95.3849L107.241 91.1875L108.119 91.2153ZM107.214 96.608C107.004 96.4134 106.775 96.2698 106.528 96.1771C106.282 96.0752 106.03 96.0243 105.774 96.0243C105.555 96.0243 105.34 96.0659 105.13 96.1493C104.929 96.2235 104.751 96.3393 104.595 96.4968C104.44 96.6451 104.312 96.835 104.211 97.0667C104.12 97.289 104.074 97.5531 104.074 97.8589C104.074 98.211 104.134 98.5121 104.253 98.7623C104.371 99.0125 104.527 99.2163 104.719 99.3738C104.92 99.5314 105.148 99.6518 105.404 99.7352C105.669 99.8093 105.944 99.8464 106.227 99.8464C106.592 99.8464 106.921 99.7769 107.214 99.6379V96.608Z" fill="#595959"/>
<path d="M113.438 101L113 100.444C112.945 99.0542 112.904 97.6967 112.876 96.3717C112.858 95.0467 112.826 93.6893 112.78 92.2994L113.192 91.799C113.356 91.7805 113.516 91.7666 113.671 91.7573C113.836 91.7481 113.996 91.7434 114.151 91.7434C114.791 91.7434 115.376 91.8268 115.906 91.9936C116.445 92.1604 116.907 92.4245 117.291 92.7859C117.675 93.1472 117.972 93.6105 118.182 94.1757C118.401 94.7409 118.511 95.4173 118.511 96.2049C118.511 96.9091 118.383 97.5577 118.127 98.1508C117.88 98.7345 117.538 99.2395 117.099 99.6657C116.66 100.083 116.144 100.412 115.55 100.653C114.965 100.884 114.334 101 113.658 101H113.438ZM113.63 92.6608L113.904 100.083C114.435 100.027 114.928 99.8974 115.385 99.6935C115.842 99.4804 116.235 99.2071 116.564 98.8735C116.902 98.5399 117.163 98.1508 117.346 97.706C117.538 97.252 117.634 96.7609 117.634 96.2327C117.634 95.6675 117.565 95.1625 117.428 94.7178C117.3 94.273 117.09 93.8977 116.797 93.592C116.514 93.2862 116.144 93.0546 115.687 92.897C115.23 92.7303 114.681 92.6469 114.042 92.6469C113.978 92.6469 113.909 92.6515 113.836 92.6608C113.772 92.6608 113.703 92.6608 113.63 92.6608Z" fill="#595959"/>
<path d="M119.306 97.8311C119.306 97.3215 119.379 96.8952 119.526 96.5524C119.672 96.2003 119.855 95.9223 120.074 95.7185C120.302 95.5054 120.554 95.3571 120.828 95.2737C121.102 95.1811 121.367 95.1347 121.623 95.1347C121.989 95.1347 122.318 95.1903 122.61 95.3015C122.903 95.4034 123.15 95.5795 123.351 95.8297C123.561 96.0706 123.721 96.3949 123.83 96.8026C123.94 97.2103 123.995 97.7106 123.995 98.3036L120.184 98.6789C120.211 98.9384 120.28 99.1607 120.389 99.346C120.508 99.5221 120.654 99.6657 120.828 99.7769C121.002 99.8881 121.189 99.9669 121.39 100.013C121.591 100.06 121.797 100.083 122.007 100.083C122.354 100.083 122.688 100.032 123.008 99.9298C123.328 99.8279 123.565 99.7028 123.721 99.5545L123.968 100.222C123.904 100.314 123.808 100.407 123.68 100.5C123.552 100.592 123.401 100.671 123.227 100.736C123.054 100.81 122.857 100.866 122.638 100.903C122.428 100.949 122.208 100.972 121.98 100.972C121.66 100.972 121.34 100.921 121.02 100.819C120.7 100.717 120.412 100.546 120.156 100.305C119.9 100.064 119.695 99.7445 119.539 99.346C119.384 98.9384 119.306 98.4334 119.306 97.8311ZM120.101 97.8589L123.118 97.5253C123.118 97.0713 122.999 96.7099 122.761 96.4412C122.523 96.1632 122.14 96.0243 121.609 96.0243C121.354 96.0335 121.13 96.0891 120.938 96.191C120.755 96.293 120.6 96.4227 120.472 96.5802C120.344 96.7285 120.248 96.8999 120.184 97.0945C120.12 97.289 120.088 97.4883 120.088 97.6921C120.088 97.7662 120.092 97.8218 120.101 97.8589Z" fill="#595959"/>
<path d="M126.435 100.805L124.79 94.9957H125.75L126.984 99.4711L129.123 94.8846L130 95.0791L127.395 100.805H126.435Z" fill="#595959"/>
<path d="M67.7763 61.7245V83.7231H64.5088V56.968L68.5304 56.3735L74.9817 73.3608L82.5222 56.8831L85.706 57.1379L87.7168 84.4026H84.8682L83.3601 62.0642L75.7358 77.8625L73.8925 77.6077L67.7763 61.7245Z" fill="#595959"/>
<path d="M97.4357 68.7742C95.8996 68.7742 94.6848 69.2556 93.7911 70.2182C92.9253 71.1808 92.4925 72.7238 92.4925 74.8472C92.4925 75.6683 92.6042 76.4893 92.8276 77.3104C93.051 78.1031 93.3722 78.8251 93.7911 79.4763C94.21 80.1274 94.7127 80.6654 95.2992 81.0901C95.8857 81.4864 96.542 81.6846 97.2681 81.6846C98.0222 81.6846 98.7064 81.5006 99.3208 81.1325C99.9352 80.7645 100.452 80.2973 100.871 79.7311C101.29 79.1365 101.611 78.4853 101.834 77.7775C102.086 77.0414 102.211 76.3336 102.211 75.6541C102.211 73.1626 101.764 71.3931 100.871 70.3456C100.005 69.298 98.86 68.7742 97.4357 68.7742ZM97.1843 65.8864C98.5807 65.8864 99.7676 66.1412 100.745 66.6508C101.723 67.1604 102.519 67.8683 103.133 68.7742C103.747 69.6519 104.194 70.6853 104.473 71.8744C104.753 73.0352 104.892 74.2951 104.892 75.6541C104.837 77.183 104.585 78.5137 104.138 79.6461C103.719 80.7503 103.161 81.6705 102.463 82.4066C101.764 83.1427 100.969 83.6806 100.075 84.0204C99.2091 84.3884 98.3014 84.5725 97.3519 84.5725C96.0951 84.5725 94.992 84.3177 94.0424 83.808C93.1208 83.2984 92.3389 82.6189 91.6965 81.7696C91.0821 80.8919 90.6073 79.901 90.2722 78.7968C89.965 77.6643 89.8114 76.4752 89.8114 75.2294C89.8114 73.8988 89.979 72.6672 90.3141 71.5347C90.6771 70.3739 91.1659 69.383 91.7803 68.5619C92.4226 67.7125 93.1906 67.0614 94.0843 66.6084C95.006 66.1271 96.0393 65.8864 97.1843 65.8864Z" fill="#595959"/>
<path d="M108.076 83.808V68.2646H111.009V83.9779L108.076 83.808ZM111.93 64.7822L108.998 65.6316L106.317 59.1764L109.249 58.412L111.93 64.7822Z" fill="#595959"/>
<path d="M129.273 54.7597V82.1093L128.184 83.4683C127.263 83.7514 126.397 83.9496 125.587 84.0629C124.777 84.1761 124.009 84.2327 123.283 84.2327C121.579 84.2327 120.141 83.9638 118.968 83.4258C117.823 82.8879 116.887 82.1801 116.161 81.3024C115.435 80.4247 114.905 79.448 114.569 78.3721C114.262 77.2962 114.109 76.2062 114.109 75.102C114.109 73.5449 114.346 72.2283 114.821 71.1525C115.296 70.0483 115.91 69.1423 116.664 68.4345C117.446 67.7267 118.312 67.2171 119.261 66.9056C120.239 66.5659 121.23 66.396 122.236 66.396C123.883 66.396 125.363 66.7641 126.676 67.5002L126.592 54.6748L129.273 54.7597ZM126.509 71.2374C125.866 70.6429 125.168 70.204 124.414 69.9209C123.66 69.6095 122.892 69.4537 122.11 69.4537C121.44 69.4537 120.783 69.5811 120.141 69.836C119.527 70.0625 118.982 70.4164 118.507 70.8977C118.032 71.3507 117.641 71.9311 117.334 72.6389C117.055 73.3184 116.915 74.1253 116.915 75.0596C116.915 76.1354 117.097 77.0556 117.46 77.82C117.823 78.5844 118.298 79.2073 118.884 79.6886C119.499 80.1699 120.197 80.538 120.979 80.7928C121.789 81.0193 122.627 81.1325 123.492 81.1325C124.609 81.1325 125.615 80.9202 126.509 80.4955V71.2374Z" fill="#595959"/>
<defs>
<filter id="filter0_d" x="0" y="0" width="198" height="151" filterUnits="userSpaceOnUse" color-interpolation-filters="sRGB">
<feFlood flood-opacity="0" result="BackgroundImageFix"/>
<feColorMatrix in="SourceAlpha" type="matrix" values="0 0 0 0 0 0 0 0 0 0 0 0 0 0 0 0 0 0 127 0"/>
<feOffset dx="8" dy="8"/>
<feGaussianBlur stdDeviation="2"/>
<feColorMatrix type="matrix" values="0 0 0 0 0 0 0 0 0 0 0 0 0 0 0 0 0 0 0.25 0"/>
<feBlend mode="normal" in2="BackgroundImageFix" result="effect1_dropShadow"/>
<feBlend mode="normal" in="SourceGraphic" in2="effect1_dropShadow" result="shape"/>
</filter>
</defs>
</svg>
