<svg width="198" height="151" viewBox="0 0 198 151" fill="none" xmlns="http://www.w3.org/2000/svg">
<g filter="url(#filter0_d)">
<path d="M0 58.2776C0 78.3966 9.11539 103.729 37.1085 118.13C37.1085 118.13 47.481 122.856 29.4304 139C48.6164 135.564 62.614 124.348 57.6835 127.063C73.6967 132.817 90.6301 136.244 106.342 136.244C158.788 136.244 186 105.539 186 70.0907C186 34.6427 145.838 0 93.3924 0C40.9463 0 0 22.8297 0 58.2776Z" fill="white"/>
</g>
<path d="M74.5225 40.7275V33.5581H76.067V50.499H74.8953V42.3206H67.0129V50.499H64.8293V33.6112H67.3325V40.7275H74.5225Z" fill="#595959"/>
<path d="M79.8484 50.6052V40.8868H81.7124V50.7114L79.8484 50.6052ZM82.2983 38.7094L80.4342 39.2405L78.7299 35.2044L80.594 34.7265L82.2983 38.7094Z" fill="#595959"/>
<path d="M89.0622 50.0741L87.6242 52.0391L85.3873 49.7555L86.8785 47.8968L89.0622 50.0741ZM88.21 46.3036H86.0264V32.8146H88.21V46.3036Z" fill="#595959"/>
<path d="M106.052 49.9679H99.714V48.481H101.791V35.2044H98.8086V33.7705L104.667 33.3988V34.9389L102.75 35.0982V48.3747H106.052V49.9679Z" fill="#595959"/>
<path d="M111.697 30V36.3196H109.886V32.0711H108.289V30H111.697Z" fill="#595959"/>
<path d="M114.999 39.3998L116.65 39.0281L116.783 40.1964H126.557L127.781 41.5772V49.8617L126.663 50.021V43.011L125.598 41.5772H122.882V50.2335H121.337V41.7896H116.97L117.875 50.499L116.171 50.7114L114.999 39.3998Z" fill="#595959"/>
<path d="M67.264 63.1352V84.7495H64V58.4619L68.0173 57.8777L74.4616 74.5682L81.9939 58.3784L85.1743 58.6288L87.1829 85.4171H84.3373L82.8309 63.4691L75.2148 78.9912L73.3736 78.7409L67.264 63.1352Z" fill="#595959"/>
<path d="M96.8912 70.0618C95.3569 70.0618 94.1433 70.5347 93.2506 71.4805C92.3858 72.4263 91.9534 73.9424 91.9534 76.0287C91.9534 76.8354 92.065 77.6421 92.2881 78.4488C92.5113 79.2277 92.8321 79.937 93.2506 80.5768C93.6691 81.2166 94.1712 81.7452 94.7571 82.1624C95.3429 82.5519 95.9985 82.7466 96.7239 82.7466C97.4771 82.7466 98.1606 82.5658 98.7743 82.2042C99.3881 81.8425 99.9042 81.3835 100.323 80.8272C100.741 80.243 101.062 79.6032 101.285 78.9078C101.536 78.1845 101.662 77.4891 101.662 76.8215C101.662 74.3735 101.215 72.6349 100.323 71.6057C99.4578 70.5764 98.314 70.0618 96.8912 70.0618ZM96.6402 67.2244C98.035 67.2244 99.2207 67.4748 100.197 67.9755C101.174 68.4762 101.969 69.1716 102.582 70.0618C103.196 70.9241 103.642 71.9395 103.921 73.1078C104.2 74.2483 104.34 75.4862 104.34 76.8215C104.284 78.3236 104.033 79.631 103.587 80.7437C103.168 81.8286 102.61 82.7327 101.913 83.456C101.215 84.1792 100.42 84.7077 99.5276 85.0416C98.6627 85.4032 97.7561 85.584 96.8076 85.584C95.5522 85.584 94.4502 85.3336 93.5017 84.8329C92.5811 84.3322 91.7999 83.6646 91.1583 82.8301C90.5445 81.9677 90.0703 80.9941 89.7355 79.9092C89.4286 78.7965 89.2752 77.6282 89.2752 76.4042C89.2752 75.0968 89.4426 73.8867 89.7774 72.774C90.14 71.6335 90.6282 70.6599 91.242 69.8532C91.8836 69.0187 92.6508 68.3788 93.5435 67.9338C94.4642 67.4609 95.4964 67.2244 96.6402 67.2244Z" fill="#595959"/>
<path d="M107.52 84.8329V69.5611H110.449V84.9998L107.52 84.8329ZM111.37 66.1395L108.441 66.9741L105.763 60.6317L108.692 59.8806L111.37 66.1395Z" fill="#595959"/>
<path d="M128.694 56.2921V83.1639L127.606 84.4991C126.686 84.7773 125.821 84.972 125.012 85.0833C124.203 85.1945 123.436 85.2502 122.71 85.2502C121.009 85.2502 119.572 84.9859 118.4 84.4574C117.256 83.9288 116.322 83.2334 115.597 82.3711C114.871 81.5087 114.341 80.549 114.006 79.492C113.7 78.4349 113.546 77.3639 113.546 76.279C113.546 74.7491 113.783 73.4555 114.257 72.3985C114.732 71.3136 115.345 70.4234 116.099 69.728C116.88 69.0326 117.745 68.5318 118.693 68.2258C119.67 67.892 120.66 67.7251 121.664 67.7251C123.31 67.7251 124.789 68.0868 126.1 68.81L126.016 56.2087L128.694 56.2921ZM125.933 72.4819C125.291 71.8978 124.594 71.4666 123.84 71.1884C123.087 70.8824 122.32 70.7294 121.539 70.7294C120.869 70.7294 120.214 70.8546 119.572 71.105C118.958 71.3275 118.414 71.6752 117.94 72.1481C117.466 72.5932 117.075 73.1635 116.768 73.8589C116.489 74.5265 116.35 75.3193 116.35 76.2373C116.35 77.2944 116.531 78.1984 116.894 78.9495C117.256 79.7006 117.731 80.3126 118.317 80.7855C118.93 81.2584 119.628 81.62 120.409 81.8703C121.218 82.0929 122.055 82.2042 122.92 82.2042C124.036 82.2042 125.04 81.9955 125.933 81.5783V72.4819Z" fill="#595959"/>
<path d="M64.6918 93.2105H68.7929L68.7434 94.0789H64.9635V97.1053H68.9164V97.9737H64.9141V101.737H64V93.6842L64.6918 93.2105Z" fill="#595959"/>
<path d="M69.9293 96.1842L70.6211 96.3684C70.5469 96.8158 70.4852 97.2456 70.4358 97.6579C70.3946 98.0702 70.374 98.4561 70.374 98.8158C70.374 99.1491 70.3905 99.4474 70.4234 99.7105C70.4646 99.9737 70.5305 100.202 70.6211 100.395C70.7116 100.588 70.8311 100.737 70.9793 100.842C71.1358 100.939 71.3293 100.987 71.5599 100.987C71.7163 100.987 71.8646 100.943 72.0046 100.855C72.1528 100.759 72.2846 100.605 72.3998 100.395C72.5234 100.184 72.6222 99.9079 72.6963 99.5658C72.7704 99.2149 72.8198 98.7807 72.8445 98.2632L72.894 96.3947L73.5857 96.4474V101.632L72.9681 101.711L72.9434 100.711C72.8363 101.114 72.6428 101.421 72.3628 101.632C72.0828 101.833 71.7575 101.934 71.3869 101.934C71.0822 101.934 70.8187 101.86 70.5964 101.711C70.374 101.57 70.1887 101.373 70.0405 101.118C69.9005 100.864 69.7934 100.557 69.7193 100.197C69.6534 99.8377 69.6205 99.443 69.6205 99.0132C69.6205 98.6184 69.6452 98.1886 69.6946 97.7237C69.7522 97.25 69.8305 96.7368 69.9293 96.1842Z" fill="#595959"/>
<path d="M74.648 101V93.0526L75.4633 93V100.658L76.2786 100.868L76.2045 101.816L74.8457 101.526L74.648 101Z" fill="#595959"/>
<path d="M77.1927 101V93.0526L78.008 93V100.658L78.8233 100.868L78.7491 101.816L77.3903 101.526L77.1927 101Z" fill="#595959"/>
<path d="M87.396 93.7632L87.0502 94.5526C87.009 94.5 86.9308 94.443 86.8155 94.3816C86.7002 94.3114 86.5602 94.25 86.3955 94.1974C86.239 94.1447 86.0661 94.1009 85.8767 94.0658C85.6873 94.0219 85.502 94 85.3208 94C85.1396 94 84.9667 94.0219 84.802 94.0658C84.6455 94.1009 84.5055 94.1623 84.382 94.25C84.2585 94.3377 84.1596 94.4561 84.0855 94.6053C84.0196 94.7544 83.9867 94.9342 83.9867 95.1447C83.9867 95.4254 84.0855 95.7061 84.2832 95.9868C84.489 96.2588 84.802 96.4737 85.222 96.6316C85.7655 96.8596 86.1896 97.1009 86.4943 97.3553C86.8072 97.6096 87.0378 97.864 87.1861 98.1184C87.3425 98.3728 87.4413 98.6228 87.4825 98.8684C87.5237 99.114 87.5443 99.3421 87.5443 99.5526C87.5196 100.281 87.3013 100.846 86.8896 101.25C86.4778 101.654 85.8684 101.855 85.0614 101.855C84.732 101.855 84.3696 101.816 83.9743 101.737C83.5873 101.667 83.1632 101.553 82.702 101.395L82.9738 100.474C83.2291 100.579 83.5461 100.68 83.9249 100.776C84.312 100.864 84.6949 100.908 85.0737 100.908C85.2961 100.908 85.5061 100.886 85.7037 100.842C85.9014 100.798 86.0743 100.728 86.2225 100.632C86.3708 100.526 86.4861 100.39 86.5684 100.224C86.659 100.057 86.7043 99.8509 86.7043 99.6053C86.6961 99.1842 86.6014 98.8465 86.4202 98.5921C86.2472 98.3377 86.029 98.1272 85.7655 97.9605C85.502 97.7939 85.2179 97.6447 84.9132 97.5132C84.6085 97.3816 84.3243 97.2237 84.0608 97.0395C83.8055 96.8553 83.5914 96.6228 83.4185 96.3421C83.2455 96.0614 83.1591 95.6886 83.1591 95.2237C83.1591 94.8465 83.2126 94.5263 83.3197 94.2632C83.4267 94 83.5749 93.7895 83.7643 93.6316C83.962 93.4649 84.1885 93.3465 84.4437 93.2763C84.7073 93.1974 84.9914 93.1579 85.2961 93.1579C85.6914 93.1579 86.0743 93.2149 86.4449 93.3289C86.8155 93.4342 87.1325 93.5789 87.396 93.7632Z" fill="#595959"/>
<path d="M89.2984 101.421V97.4342H88.0384L88.1125 96.4737H89.4713V93.7895H90.3113V96.5263H92.3371V97.4737H90.2248V100.895L92.0901 100.526L92.2136 101.421L89.7431 101.974L89.2984 101.421Z" fill="#595959"/>
<path d="M97.377 97.8158L98.1676 101.395L97.4265 101.684L96.9818 99.4474C96.9241 99.693 96.8335 99.9474 96.71 100.211C96.5947 100.474 96.4465 100.715 96.2653 100.934C96.0924 101.145 95.8824 101.32 95.6353 101.461C95.3965 101.592 95.1247 101.658 94.82 101.658C94.2765 101.658 93.8606 101.474 93.5724 101.105C93.2924 100.728 93.1524 100.211 93.1524 99.5526C93.1524 99.1754 93.2059 98.7851 93.313 98.3816C93.4201 97.9693 93.5806 97.5965 93.7948 97.2632C94.0089 96.9298 94.2765 96.6535 94.5977 96.4342C94.9271 96.2149 95.31 96.1053 95.7465 96.1053C96.0018 96.1053 96.2241 96.1667 96.4135 96.2895C96.6112 96.4035 96.7759 96.5482 96.9076 96.7237C97.0394 96.8991 97.1423 97.0877 97.2165 97.2895C97.2906 97.4825 97.3441 97.6579 97.377 97.8158ZM95.87 97.0526C95.8124 97.0351 95.7547 97.0219 95.6971 97.0132C95.6477 97.0044 95.5941 97 95.5365 97C95.2812 97 95.0506 97.0833 94.8447 97.25C94.6471 97.4079 94.4783 97.6096 94.3383 97.8553C94.2065 98.1009 94.1036 98.3684 94.0295 98.6579C93.9636 98.9474 93.9306 99.2149 93.9306 99.4605C93.9306 99.8465 94.0089 100.158 94.1653 100.395C94.3218 100.632 94.5689 100.75 94.9065 100.75C95.1371 100.75 95.3512 100.671 95.5488 100.513C95.7465 100.346 95.9153 100.14 96.0553 99.8947C96.1953 99.6491 96.3024 99.3816 96.3765 99.0921C96.4588 98.7939 96.5 98.5175 96.5 98.2632C96.5 97.9825 96.4465 97.7368 96.3394 97.5263C96.2406 97.307 96.0841 97.1491 95.87 97.0526Z" fill="#595959"/>
<path d="M103.282 96.8947L103.059 97.7368C102.82 97.5088 102.565 97.3421 102.293 97.2368C102.022 97.1228 101.754 97.0658 101.49 97.0658C101.268 97.0658 101.054 97.1096 100.848 97.1974C100.651 97.2763 100.478 97.3991 100.329 97.5658C100.181 97.7325 100.062 97.9386 99.9711 98.1842C99.8888 98.4298 99.8476 98.7105 99.8476 99.0263C99.8476 99.4035 99.8929 99.7193 99.9835 99.9737C100.082 100.228 100.21 100.434 100.366 100.592C100.523 100.75 100.7 100.864 100.898 100.934C101.103 101.004 101.313 101.039 101.528 101.039C101.717 101.031 101.902 100.991 102.083 100.921C102.273 100.842 102.442 100.737 102.59 100.605C102.738 100.465 102.862 100.303 102.96 100.118C103.059 99.9254 103.117 99.7105 103.133 99.4737L103.825 99.8421C103.809 100.193 103.73 100.5 103.59 100.763C103.459 101.026 103.286 101.246 103.072 101.421C102.866 101.596 102.627 101.728 102.355 101.816C102.083 101.904 101.803 101.947 101.515 101.947C101.211 101.947 100.91 101.886 100.613 101.763C100.317 101.649 100.053 101.474 99.8229 101.237C99.5923 101 99.407 100.702 99.267 100.342C99.127 99.9737 99.057 99.5439 99.057 99.0526C99.057 98.6404 99.1147 98.2632 99.23 97.9211C99.3452 97.5702 99.5058 97.2719 99.7117 97.0263C99.9176 96.7719 100.161 96.5746 100.441 96.4342C100.729 96.2939 101.042 96.2237 101.379 96.2237C101.668 96.2237 101.968 96.2807 102.281 96.3947C102.602 96.5 102.936 96.6667 103.282 96.8947Z" fill="#595959"/>
<path d="M105.382 98.8289L108.42 95.9211L108.964 96.6842L107.333 98.3421L109.606 101.211L109.112 101.947L106.691 98.9868L105.678 100.013V101.789L104.937 101.895V93.1842L105.382 93.0263V98.8289Z" fill="#595959"/>
<path d="M114.078 102L113.683 101.474C113.633 100.158 113.596 98.8728 113.571 97.6184C113.555 96.364 113.526 95.0789 113.485 93.7632L113.856 93.2895C114.004 93.2719 114.148 93.2588 114.288 93.25C114.436 93.2412 114.58 93.2368 114.72 93.2368C115.297 93.2368 115.824 93.3158 116.301 93.4737C116.787 93.6316 117.203 93.8816 117.549 94.2237C117.895 94.5658 118.163 95.0044 118.352 95.5395C118.55 96.0746 118.648 96.7149 118.648 97.4605C118.648 98.1272 118.533 98.7412 118.303 99.3026C118.08 99.8553 117.771 100.333 117.376 100.737C116.981 101.132 116.516 101.443 115.98 101.671C115.453 101.89 114.885 102 114.276 102H114.078ZM114.251 94.1053L114.498 101.132C114.976 101.079 115.42 100.956 115.832 100.763C116.244 100.561 116.598 100.303 116.894 99.9868C117.199 99.6711 117.434 99.3026 117.598 98.8816C117.771 98.4518 117.858 97.9868 117.858 97.4868C117.858 96.9518 117.796 96.4737 117.673 96.0526C117.557 95.6316 117.368 95.2763 117.104 94.9868C116.849 94.6974 116.516 94.4781 116.104 94.3289C115.692 94.1711 115.198 94.0921 114.621 94.0921C114.564 94.0921 114.502 94.0965 114.436 94.1053C114.378 94.1053 114.317 94.1053 114.251 94.1053Z" fill="#595959"/>
<path d="M119.365 99C119.365 98.5175 119.431 98.114 119.563 97.7895C119.694 97.4561 119.859 97.193 120.057 97C120.263 96.7982 120.489 96.6579 120.736 96.5789C120.983 96.4912 121.222 96.4474 121.452 96.4474C121.782 96.4474 122.078 96.5 122.342 96.6053C122.605 96.7018 122.828 96.8684 123.009 97.1053C123.198 97.3333 123.342 97.6404 123.441 98.0263C123.54 98.4123 123.59 98.886 123.59 99.4474L120.155 99.8026C120.18 100.048 120.242 100.259 120.341 100.434C120.448 100.601 120.58 100.737 120.736 100.842C120.892 100.947 121.061 101.022 121.242 101.066C121.424 101.11 121.609 101.132 121.798 101.132C122.111 101.132 122.412 101.083 122.7 100.987C122.988 100.89 123.202 100.772 123.342 100.632L123.565 101.263C123.507 101.351 123.421 101.439 123.305 101.526C123.19 101.614 123.054 101.689 122.898 101.75C122.741 101.82 122.564 101.873 122.367 101.908C122.177 101.952 121.98 101.974 121.774 101.974C121.485 101.974 121.197 101.925 120.909 101.829C120.621 101.732 120.361 101.57 120.131 101.342C119.9 101.114 119.715 100.811 119.575 100.434C119.435 100.048 119.365 99.5702 119.365 99ZM120.081 99.0263L122.799 98.7105C122.799 98.2807 122.692 97.9386 122.478 97.6842C122.264 97.4211 121.918 97.2895 121.44 97.2895C121.21 97.2982 121.008 97.3509 120.835 97.4474C120.67 97.5439 120.53 97.6667 120.415 97.8158C120.3 97.9561 120.213 98.1184 120.155 98.3026C120.098 98.4868 120.069 98.6754 120.069 98.8684C120.069 98.9386 120.073 98.9912 120.081 99.0263Z" fill="#595959"/>
<path d="M125.788 101.816L124.306 96.3158H125.171L126.282 100.553L128.209 96.2105L129 96.3947L126.653 101.816H125.788Z" fill="#595959"/>
<defs>
<filter id="filter0_d" x="0" y="0" width="198" height="151" filterUnits="userSpaceOnUse" color-interpolation-filters="sRGB">
<feFlood flood-opacity="0" result="BackgroundImageFix"/>
<feColorMatrix in="SourceAlpha" type="matrix" values="0 0 0 0 0 0 0 0 0 0 0 0 0 0 0 0 0 0 127 0"/>
<feOffset dx="8" dy="8"/>
<feGaussianBlur stdDeviation="2"/>
<feColorMatrix type="matrix" values="0 0 0 0 0 0 0 0 0 0 0 0 0 0 0 0 0 0 0.25 0"/>
<feBlend mode="normal" in2="BackgroundImageFix" result="effect1_dropShadow"/>
<feBlend mode="normal" in="SourceGraphic" in2="effect1_dropShadow" result="shape"/>
</filter>
</defs>
</svg>
